<svg xmlns="http://www.w3.org/2000/svg" xmlns:xlink="http://www.w3.org/1999/xlink" width="800" zoomAndPan="magnify" viewBox="0 0 600 149.999998" height="200" preserveAspectRatio="xMidYMid meet" version="1.0"><defs><filter x="0%" y="0%" width="100%" height="100%" id="06f66ac916"><feColorMatrix values="0 0 0 0 1 0 0 0 0 1 0 0 0 0 1 0 0 0 1 0" color-interpolation-filters="sRGB"/></filter><g/><mask id="cda5b08730"><g filter="url(#06f66ac916)"><rect x="-60" width="720" fill="#000000" y="-15" height="179.999997" fill-opacity="0.2"/></g></mask><clipPath id="d0a372c92b"><path d="M 1.757812 0.640625 L 116.507812 0.640625 L 116.507812 109 L 1.757812 109 Z M 1.757812 0.640625 " clip-rule="nonzero"/></clipPath><clipPath id="3760e58042"><rect x="0" width="119" y="0" height="125"/></clipPath><clipPath id="d8006193a3"><rect x="0" width="99" y="0" height="58"/></clipPath><clipPath id="845a1afd18"><path d="M 0.230469 6.636719 L 161.722656 6.636719 L 161.722656 53.214844 L 0.230469 53.214844 Z M 0.230469 6.636719 " clip-rule="nonzero"/></clipPath><clipPath id="cf2802c698"><path d="M 0.230469 0.636719 L 161.722656 0.636719 L 161.722656 47.214844 L 0.230469 47.214844 Z M 0.230469 0.636719 " clip-rule="nonzero"/></clipPath><clipPath id="7070cbc701"><rect x="0" width="162" y="0" height="48"/></clipPath><clipPath id="36dbaa96b7"><path d="M 7 0.601562 L 157 0.601562 L 157 56.519531 L 7 56.519531 Z M 7 0.601562 " clip-rule="nonzero"/></clipPath><clipPath id="1b7a0748be"><path d="M 131 16 L 149.640625 16 L 149.640625 47 L 131 47 Z M 131 16 " clip-rule="nonzero"/></clipPath><clipPath id="a02af05b82"><rect x="0" width="150" y="0" height="57"/></clipPath><clipPath id="c3518f01f7"><rect x="0" width="162" y="0" height="57"/></clipPath><clipPath id="42b3c20a8f"><rect x="0" width="216" y="0" height="14"/></clipPath></defs><rect x="-60" width="720" fill="#ffffff" y="-15" height="179.999997" fill-opacity="1"/><rect x="-60" width="720" fill="#ffffff" y="-15" height="179.999997" fill-opacity="1"/><g mask="url(#cda5b08730)"><g transform="matrix(1, 0, 0, 1, 249, 8)"><g clip-path="url(#3760e58042)"><path fill="#efefef" d="M 59.636719 123.566406 L 34.3125 82.125 L 45.179688 75.484375 L 59.945312 99.648438 L 75.808594 75.144531 L 86.5 82.0625 Z M 59.636719 123.566406 " fill-opacity="1" fill-rule="nonzero"/><g clip-path="url(#d0a372c92b)"><path fill="#efefef" d="M 83.375 108.589844 C 78.132812 108.589844 74.0625 105.5625 72.589844 104.464844 C 69.625 102.253906 65.089844 96.898438 59.710938 89.707031 C 54.09375 97.050781 49.230469 102.507812 45.828125 104.707031 C 43.800781 106.019531 37.617188 110.011719 30.75 107.859375 C 25.371094 106.171875 21.28125 101.164062 19.230469 93.765625 L 31.5 90.367188 C 32.472656 93.863281 33.890625 95.5 34.558594 95.710938 C 35.082031 95.875 36.269531 95.714844 38.914062 94.007812 C 41.449219 92.371094 45.957031 87.105469 51.953125 78.933594 C 36.53125 56.84375 17.695312 26.539062 7.785156 10.347656 L 1.855469 0.65625 L 116.726562 0.65625 L 111.03125 10.273438 C 101.410156 26.503906 83.089844 56.828125 67.550781 78.960938 C 73.308594 86.929688 77.773438 92.445312 80.199219 94.253906 C 82.171875 95.71875 83.105469 95.914062 83.53125 95.839844 C 84.265625 95.699219 85.976562 93.992188 87.429688 90.027344 L 99.386719 94.410156 C 96.464844 102.382812 91.820312 107.203125 85.96875 108.339844 C 85.074219 108.511719 84.210938 108.589844 83.375 108.589844 Z M 24.617188 13.390625 C 36.839844 33.121094 49.46875 52.792969 59.777344 67.863281 C 69.355469 53.875 81.28125 35.117188 94.335938 13.390625 Z M 24.617188 13.390625 " fill-opacity="1" fill-rule="nonzero"/></g><path fill="#efefef" d="M 11.75 12.0625 L 19.546875 1.992188 L 94.867188 60.308594 L 87.070312 70.378906 Z M 11.75 12.0625 " fill-opacity="1" fill-rule="nonzero"/><path fill="#efefef" d="M 26.257812 60.371094 L 99.144531 2.046875 L 107.101562 11.992188 L 34.214844 70.316406 Z M 26.257812 60.371094 " fill-opacity="1" fill-rule="nonzero"/><path fill="#efefef" d="M 72.203125 104.148438 L 79.171875 93.378906 C 77.164062 91.507812 74.226562 87.941406 70.628906 83.144531 L 63.328125 94.421875 C 66.917969 98.964844 69.957031 102.359375 72.203125 104.148438 Z M 72.203125 104.148438 " fill-opacity="1" fill-rule="nonzero"/><path fill="#efefef" d="M 56.421875 93.882812 L 49.382812 82.371094 C 45.777344 87.117188 42.839844 90.570312 40.6875 92.5625 L 47.394531 103.539062 C 49.890625 101.503906 52.964844 98.152344 56.421875 93.882812 Z M 56.421875 93.882812 " fill-opacity="1" fill-rule="nonzero"/><path fill="#efefef" d="M 67.976562 55.589844 L 78.074219 63.410156 C 80.394531 59.875 82.722656 56.285156 85.019531 52.679688 L 74.90625 44.847656 C 72.519531 48.601562 70.203125 52.191406 67.976562 55.589844 Z M 67.976562 55.589844 " fill-opacity="1" fill-rule="nonzero"/><path fill="#efefef" d="M 44.90625 45.449219 L 34.894531 53.457031 C 37.226562 57.054688 39.578125 60.632812 41.914062 64.152344 L 51.914062 56.15625 C 49.640625 52.722656 47.292969 49.128906 44.90625 45.449219 Z M 44.90625 45.449219 " fill-opacity="1" fill-rule="nonzero"/><path fill="#efefef" d="M 60.039062 33.339844 L 49.808594 41.523438 L 60.167969 49.546875 L 70.398438 41.359375 Z M 60.039062 33.339844 " fill-opacity="1" fill-rule="nonzero"/></g></g></g><g transform="matrix(1, 0, 0, 1, 202, 33)"><g clip-path="url(#d8006193a3)"><g fill="#1e1e1e" fill-opacity="1"><g transform="translate(0.277498, 45.68051)"><g><path d="M 15.765625 0.53125 C 13.691406 0.53125 11.816406 0.203125 10.140625 -0.453125 C 8.472656 -1.117188 7.050781 -2.101562 5.875 -3.40625 C 4.707031 -4.707031 3.800781 -6.332031 3.15625 -8.28125 C 2.519531 -10.226562 2.203125 -12.503906 2.203125 -15.109375 C 2.203125 -17.679688 2.519531 -19.96875 3.15625 -21.96875 C 3.800781 -23.976562 4.707031 -25.664062 5.875 -27.03125 C 7.050781 -28.394531 8.472656 -29.425781 10.140625 -30.125 C 11.816406 -30.832031 13.691406 -31.1875 15.765625 -31.1875 C 18.609375 -31.1875 20.953125 -30.609375 22.796875 -29.453125 C 24.640625 -28.296875 26.117188 -26.472656 27.234375 -23.984375 L 21.484375 -21 C 21.066406 -22.28125 20.425781 -23.304688 19.5625 -24.078125 C 18.695312 -24.859375 17.429688 -25.25 15.765625 -25.25 C 13.804688 -25.25 12.234375 -24.613281 11.046875 -23.34375 C 9.859375 -22.070312 9.265625 -20.21875 9.265625 -17.78125 L 9.265625 -12.875 C 9.265625 -10.4375 9.859375 -8.582031 11.046875 -7.3125 C 12.234375 -6.039062 13.804688 -5.40625 15.765625 -5.40625 C 17.410156 -5.40625 18.722656 -5.847656 19.703125 -6.734375 C 20.679688 -7.628906 21.40625 -8.707031 21.875 -9.96875 L 27.3125 -6.8125 C 26.175781 -4.46875 24.675781 -2.65625 22.8125 -1.375 C 20.957031 -0.101562 18.609375 0.53125 15.765625 0.53125 Z M 15.765625 0.53125 "/></g></g></g><g fill="#1e1e1e" fill-opacity="1"><g transform="translate(26.450533, 45.68051)"><g><path d="M 15.6875 0.53125 C 13.664062 0.53125 11.816406 0.191406 10.140625 -0.484375 C 8.472656 -1.160156 7.050781 -2.160156 5.875 -3.484375 C 4.707031 -4.816406 3.800781 -6.472656 3.15625 -8.453125 C 2.519531 -10.429688 2.203125 -12.722656 2.203125 -15.328125 C 2.203125 -17.929688 2.519531 -20.222656 3.15625 -22.203125 C 3.800781 -24.179688 4.707031 -25.835938 5.875 -27.171875 C 7.050781 -28.503906 8.472656 -29.503906 10.140625 -30.171875 C 11.816406 -30.847656 13.664062 -31.1875 15.6875 -31.1875 C 17.695312 -31.1875 19.535156 -30.847656 21.203125 -30.171875 C 22.878906 -29.503906 24.300781 -28.503906 25.46875 -27.171875 C 26.644531 -25.835938 27.554688 -24.179688 28.203125 -22.203125 C 28.847656 -20.222656 29.171875 -17.929688 29.171875 -15.328125 C 29.171875 -12.722656 28.847656 -10.429688 28.203125 -8.453125 C 27.554688 -6.472656 26.644531 -4.816406 25.46875 -3.484375 C 24.300781 -2.160156 22.878906 -1.160156 21.203125 -0.484375 C 19.535156 0.191406 17.695312 0.53125 15.6875 0.53125 Z M 15.6875 -5.40625 C 17.695312 -5.40625 19.265625 -6.0625 20.390625 -7.375 C 21.523438 -8.695312 22.09375 -10.585938 22.09375 -13.046875 L 22.09375 -17.609375 C 22.09375 -20.066406 21.523438 -21.953125 20.390625 -23.265625 C 19.265625 -24.585938 17.695312 -25.25 15.6875 -25.25 C 13.664062 -25.25 12.085938 -24.585938 10.953125 -23.265625 C 9.828125 -21.953125 9.265625 -20.066406 9.265625 -17.609375 L 9.265625 -13.046875 C 9.265625 -10.585938 9.828125 -8.695312 10.953125 -7.375 C 12.085938 -6.0625 13.664062 -5.40625 15.6875 -5.40625 Z M 15.6875 -5.40625 "/></g></g></g><g fill="#1e1e1e" fill-opacity="1"><g transform="translate(55.390189, 45.68051)"><g><path d="M 3.375 0 L 3.375 -30.65625 L 10.0625 -30.65625 L 10.0625 -5.921875 L 21.734375 -5.921875 L 21.734375 0 Z M 3.375 0 "/></g></g></g><g fill="#1e1e1e" fill-opacity="1"><g transform="translate(76.24955, 45.68051)"><g><path d="M 3.375 0 L 3.375 -30.65625 L 10.0625 -30.65625 L 10.0625 -5.921875 L 21.734375 -5.921875 L 21.734375 0 Z M 3.375 0 "/></g></g></g></g></g><g transform="matrix(1, 0, 0, 1, 308, 33)"><g clip-path="url(#c3518f01f7)"><g clip-path="url(#845a1afd18)"><g transform="matrix(1, 0, 0, 1, 0, 6)"><g clip-path="url(#7070cbc701)"><g clip-path="url(#cf2802c698)"><path fill="#752122" d="M 0.230469 0.636719 L 161.804688 0.636719 L 161.804688 47.214844 L 0.230469 47.214844 Z M 0.230469 0.636719 " fill-opacity="1" fill-rule="nonzero"/></g></g></g></g><g clip-path="url(#36dbaa96b7)"><g transform="matrix(1, 0, 0, 1, 7, -0.000000000000007105)"><g clip-path="url(#a02af05b82)"><g fill="#1e1e1e" fill-opacity="1"><g transform="translate(2.556833, 46.370861)"><g><path d="M 21.59375 0 L 19.46875 -7.078125 L 9.546875 -7.078125 L 7.40625 0 L 0.859375 0 L 10.640625 -29.734375 L 18.65625 -29.734375 L 28.328125 0 Z M 14.5625 -23.859375 L 14.359375 -23.859375 L 11.078125 -12.5625 L 17.890625 -12.5625 Z M 14.5625 -23.859375 "/></g></g></g><g fill="#1e1e1e" fill-opacity="1"><g transform="translate(29.265093, 46.370861)"><g><path d="M 15.671875 -23.984375 L 15.671875 0 L 9.203125 0 L 9.203125 -23.984375 L 1.15625 -23.984375 L 1.15625 -29.734375 L 23.71875 -29.734375 L 23.71875 -23.984375 Z M 15.671875 -23.984375 "/></g></g></g><g fill="#1e1e1e" fill-opacity="1"><g transform="translate(51.671046, 46.370861)"><g><path d="M 3.28125 0 L 3.28125 -29.734375 L 23.515625 -29.734375 L 23.515625 -23.984375 L 9.75 -23.984375 L 9.75 -17.890625 L 21.546875 -17.890625 L 21.546875 -12.1875 L 9.75 -12.1875 L 9.75 -5.75 L 23.515625 -5.75 L 23.515625 0 Z M 3.28125 0 "/></g></g></g><g fill="#1e1e1e" fill-opacity="1"><g transform="translate(75.056734, 46.370861)"><g><path d="M 9.75 0 L 3.28125 0 L 3.28125 -29.734375 L 17.375 -29.734375 C 18.738281 -29.734375 19.972656 -29.503906 21.078125 -29.046875 C 22.191406 -28.597656 23.140625 -27.953125 23.921875 -27.109375 C 24.703125 -26.273438 25.300781 -25.273438 25.71875 -24.109375 C 26.144531 -22.941406 26.359375 -21.648438 26.359375 -20.234375 C 26.359375 -18.210938 25.910156 -16.445312 25.015625 -14.9375 C 24.128906 -13.4375 22.773438 -12.347656 20.953125 -11.671875 L 26.796875 0 L 19.59375 0 L 14.390625 -10.90625 L 9.75 -10.90625 Z M 16.5625 -16.359375 C 17.53125 -16.359375 18.289062 -16.601562 18.84375 -17.09375 C 19.394531 -17.59375 19.671875 -18.328125 19.671875 -19.296875 L 19.671875 -21.171875 C 19.671875 -22.140625 19.394531 -22.867188 18.84375 -23.359375 C 18.289062 -23.859375 17.53125 -24.109375 16.5625 -24.109375 L 9.75 -24.109375 L 9.75 -16.359375 Z M 16.5625 -16.359375 "/></g></g></g><g fill="#1e1e1e" fill-opacity="1"><g transform="translate(101.296427, 46.370861)"><g><path d="M 21.59375 0 L 19.46875 -7.078125 L 9.546875 -7.078125 L 7.40625 0 L 0.859375 0 L 10.640625 -29.734375 L 18.65625 -29.734375 L 28.328125 0 Z M 14.5625 -23.859375 L 14.359375 -23.859375 L 11.078125 -12.5625 L 17.890625 -12.5625 Z M 14.5625 -23.859375 "/></g></g></g><g clip-path="url(#1b7a0748be)"><g fill="#1e1e1e" fill-opacity="1"><g transform="translate(128.004682, 46.370861)"><g><path d="M 3.28125 0 L 3.28125 -29.734375 L 9.75 -29.734375 L 9.75 -5.75 L 21.078125 -5.75 L 21.078125 0 Z M 3.28125 0 "/></g></g></g></g><g fill="#eaeaea" fill-opacity="1"><g transform="translate(0.674216, 44.488229)"><g><path d="M 21.59375 0 L 19.46875 -7.078125 L 9.546875 -7.078125 L 7.40625 0 L 0.859375 0 L 10.640625 -29.734375 L 18.65625 -29.734375 L 28.328125 0 Z M 14.5625 -23.859375 L 14.359375 -23.859375 L 11.078125 -12.5625 L 17.890625 -12.5625 Z M 14.5625 -23.859375 "/></g></g></g><g fill="#eaeaea" fill-opacity="1"><g transform="translate(27.382476, 44.488229)"><g><path d="M 15.671875 -23.984375 L 15.671875 0 L 9.203125 0 L 9.203125 -23.984375 L 1.15625 -23.984375 L 1.15625 -29.734375 L 23.71875 -29.734375 L 23.71875 -23.984375 Z M 15.671875 -23.984375 "/></g></g></g><g fill="#eaeaea" fill-opacity="1"><g transform="translate(49.788429, 44.488229)"><g><path d="M 3.28125 0 L 3.28125 -29.734375 L 23.515625 -29.734375 L 23.515625 -23.984375 L 9.75 -23.984375 L 9.75 -17.890625 L 21.546875 -17.890625 L 21.546875 -12.1875 L 9.75 -12.1875 L 9.75 -5.75 L 23.515625 -5.75 L 23.515625 0 Z M 3.28125 0 "/></g></g></g><g fill="#eaeaea" fill-opacity="1"><g transform="translate(73.174117, 44.488229)"><g><path d="M 9.75 0 L 3.28125 0 L 3.28125 -29.734375 L 17.375 -29.734375 C 18.738281 -29.734375 19.972656 -29.503906 21.078125 -29.046875 C 22.191406 -28.597656 23.140625 -27.953125 23.921875 -27.109375 C 24.703125 -26.273438 25.300781 -25.273438 25.71875 -24.109375 C 26.144531 -22.941406 26.359375 -21.648438 26.359375 -20.234375 C 26.359375 -18.210938 25.910156 -16.445312 25.015625 -14.9375 C 24.128906 -13.4375 22.773438 -12.347656 20.953125 -11.671875 L 26.796875 0 L 19.59375 0 L 14.390625 -10.90625 L 9.75 -10.90625 Z M 16.5625 -16.359375 C 17.53125 -16.359375 18.289062 -16.601562 18.84375 -17.09375 C 19.394531 -17.59375 19.671875 -18.328125 19.671875 -19.296875 L 19.671875 -21.171875 C 19.671875 -22.140625 19.394531 -22.867188 18.84375 -23.359375 C 18.289062 -23.859375 17.53125 -24.109375 16.5625 -24.109375 L 9.75 -24.109375 L 9.75 -16.359375 Z M 16.5625 -16.359375 "/></g></g></g><g fill="#eaeaea" fill-opacity="1"><g transform="translate(99.41381, 44.488229)"><g><path d="M 21.59375 0 L 19.46875 -7.078125 L 9.546875 -7.078125 L 7.40625 0 L 0.859375 0 L 10.640625 -29.734375 L 18.65625 -29.734375 L 28.328125 0 Z M 14.5625 -23.859375 L 14.359375 -23.859375 L 11.078125 -12.5625 L 17.890625 -12.5625 Z M 14.5625 -23.859375 "/></g></g></g><g fill="#eaeaea" fill-opacity="1"><g transform="translate(126.122065, 44.488229)"><g><path d="M 3.28125 0 L 3.28125 -29.734375 L 9.75 -29.734375 L 9.75 -5.75 L 21.078125 -5.75 L 21.078125 0 Z M 3.28125 0 "/></g></g></g></g></g></g></g></g><g transform="matrix(1, 0, 0, 1, 199, 90)"><g clip-path="url(#42b3c20a8f)"><g fill="#000000" fill-opacity="1"><g transform="translate(0.684648, 10.540925)"><g><path d="M 0.8125 0 L 0.8125 -7.40625 L 4.3125 -7.40625 C 4.664062 -7.40625 4.976562 -7.347656 5.25 -7.234375 C 5.53125 -7.117188 5.765625 -6.957031 5.953125 -6.75 C 6.148438 -6.539062 6.300781 -6.289062 6.40625 -6 C 6.507812 -5.707031 6.5625 -5.390625 6.5625 -5.046875 C 6.5625 -4.691406 6.507812 -4.367188 6.40625 -4.078125 C 6.300781 -3.785156 6.148438 -3.535156 5.953125 -3.328125 C 5.765625 -3.128906 5.53125 -2.96875 5.25 -2.84375 C 4.976562 -2.726562 4.664062 -2.671875 4.3125 -2.671875 L 2.421875 -2.671875 L 2.421875 0 Z M 2.421875 -4.078125 L 4.125 -4.078125 C 4.363281 -4.078125 4.550781 -4.140625 4.6875 -4.265625 C 4.832031 -4.390625 4.90625 -4.570312 4.90625 -4.8125 L 4.90625 -5.265625 C 4.90625 -5.515625 4.832031 -5.695312 4.6875 -5.8125 C 4.550781 -5.9375 4.363281 -6 4.125 -6 L 2.421875 -6 Z M 2.421875 -4.078125 "/></g></g></g><g fill="#000000" fill-opacity="1"><g transform="translate(7.64827, 10.540925)"><g><path d="M 0.8125 0 L 0.8125 -7.40625 L 5.859375 -7.40625 L 5.859375 -5.96875 L 2.421875 -5.96875 L 2.421875 -4.453125 L 5.375 -4.453125 L 5.375 -3.03125 L 2.421875 -3.03125 L 2.421875 -1.4375 L 5.859375 -1.4375 L 5.859375 0 Z M 0.8125 0 "/></g></g></g><g fill="#000000" fill-opacity="1"><g transform="translate(14.091744, 10.540925)"><g><path d="M 2.421875 0 L 0.8125 0 L 0.8125 -7.40625 L 4.328125 -7.40625 C 4.671875 -7.40625 4.976562 -7.347656 5.25 -7.234375 C 5.53125 -7.117188 5.765625 -6.957031 5.953125 -6.75 C 6.148438 -6.539062 6.300781 -6.289062 6.40625 -6 C 6.507812 -5.707031 6.5625 -5.390625 6.5625 -5.046875 C 6.5625 -4.535156 6.453125 -4.09375 6.234375 -3.71875 C 6.015625 -3.34375 5.675781 -3.070312 5.21875 -2.90625 L 6.671875 0 L 4.875 0 L 3.59375 -2.71875 L 2.421875 -2.71875 Z M 4.125 -4.078125 C 4.363281 -4.078125 4.550781 -4.140625 4.6875 -4.265625 C 4.832031 -4.390625 4.90625 -4.570312 4.90625 -4.8125 L 4.90625 -5.265625 C 4.90625 -5.515625 4.832031 -5.695312 4.6875 -5.8125 C 4.550781 -5.9375 4.363281 -6 4.125 -6 L 2.421875 -6 L 2.421875 -4.078125 Z M 4.125 -4.078125 "/></g></g></g><g fill="#000000" fill-opacity="1"><g transform="translate(21.246439, 10.540925)"><g><path d="M 0.8125 0 L 0.8125 -7.40625 L 5.734375 -7.40625 L 5.734375 -5.96875 L 2.421875 -5.96875 L 2.421875 -4.453125 L 5.234375 -4.453125 L 5.234375 -3.03125 L 2.421875 -3.03125 L 2.421875 0 Z M 0.8125 0 "/></g></g></g><g fill="#000000" fill-opacity="1"><g transform="translate(27.137903, 10.540925)"><g><path d="M 3.78125 0.125 C 3.300781 0.125 2.859375 0.046875 2.453125 -0.109375 C 2.046875 -0.273438 1.703125 -0.519531 1.421875 -0.84375 C 1.140625 -1.164062 0.921875 -1.566406 0.765625 -2.046875 C 0.609375 -2.523438 0.53125 -3.078125 0.53125 -3.703125 C 0.53125 -4.328125 0.609375 -4.878906 0.765625 -5.359375 C 0.921875 -5.835938 1.140625 -6.238281 1.421875 -6.5625 C 1.703125 -6.882812 2.046875 -7.125 2.453125 -7.28125 C 2.859375 -7.445312 3.300781 -7.53125 3.78125 -7.53125 C 4.269531 -7.53125 4.71875 -7.445312 5.125 -7.28125 C 5.53125 -7.125 5.875 -6.882812 6.15625 -6.5625 C 6.4375 -6.238281 6.65625 -5.835938 6.8125 -5.359375 C 6.96875 -4.878906 7.046875 -4.328125 7.046875 -3.703125 C 7.046875 -3.078125 6.96875 -2.523438 6.8125 -2.046875 C 6.65625 -1.566406 6.4375 -1.164062 6.15625 -0.84375 C 5.875 -0.519531 5.53125 -0.273438 5.125 -0.109375 C 4.71875 0.046875 4.269531 0.125 3.78125 0.125 Z M 3.78125 -1.3125 C 4.269531 -1.3125 4.648438 -1.46875 4.921875 -1.78125 C 5.203125 -2.101562 5.34375 -2.5625 5.34375 -3.15625 L 5.34375 -4.25 C 5.34375 -4.84375 5.203125 -5.296875 4.921875 -5.609375 C 4.648438 -5.929688 4.269531 -6.09375 3.78125 -6.09375 C 3.300781 -6.09375 2.921875 -5.929688 2.640625 -5.609375 C 2.367188 -5.296875 2.234375 -4.84375 2.234375 -4.25 L 2.234375 -3.15625 C 2.234375 -2.5625 2.367188 -2.101562 2.640625 -1.78125 C 2.921875 -1.46875 3.300781 -1.3125 3.78125 -1.3125 Z M 3.78125 -1.3125 "/></g></g></g><g fill="#000000" fill-opacity="1"><g transform="translate(34.717211, 10.540925)"><g><path d="M 2.421875 0 L 0.8125 0 L 0.8125 -7.40625 L 4.328125 -7.40625 C 4.671875 -7.40625 4.976562 -7.347656 5.25 -7.234375 C 5.53125 -7.117188 5.765625 -6.957031 5.953125 -6.75 C 6.148438 -6.539062 6.300781 -6.289062 6.40625 -6 C 6.507812 -5.707031 6.5625 -5.390625 6.5625 -5.046875 C 6.5625 -4.535156 6.453125 -4.09375 6.234375 -3.71875 C 6.015625 -3.34375 5.675781 -3.070312 5.21875 -2.90625 L 6.671875 0 L 4.875 0 L 3.59375 -2.71875 L 2.421875 -2.71875 Z M 4.125 -4.078125 C 4.363281 -4.078125 4.550781 -4.140625 4.6875 -4.265625 C 4.832031 -4.390625 4.90625 -4.570312 4.90625 -4.8125 L 4.90625 -5.265625 C 4.90625 -5.515625 4.832031 -5.695312 4.6875 -5.8125 C 4.550781 -5.9375 4.363281 -6 4.125 -6 L 2.421875 -6 L 2.421875 -4.078125 Z M 4.125 -4.078125 "/></g></g></g><g fill="#000000" fill-opacity="1"><g transform="translate(41.871906, 10.540925)"><g><path d="M 6.359375 -4.859375 L 6.328125 -4.859375 L 5.78125 -3.78125 L 4.34375 -1.15625 L 2.921875 -3.765625 L 2.359375 -4.9375 L 2.328125 -4.9375 L 2.328125 0 L 0.8125 0 L 0.8125 -7.40625 L 2.53125 -7.40625 L 4.34375 -3.9375 L 4.359375 -3.9375 L 6.15625 -7.40625 L 7.875 -7.40625 L 7.875 0 L 6.359375 0 Z M 6.359375 -4.859375 "/></g></g></g><g fill="#000000" fill-opacity="1"><g transform="translate(50.565821, 10.540925)"><g><path d="M 5.375 0 L 4.84375 -1.765625 L 2.375 -1.765625 L 1.84375 0 L 0.21875 0 L 2.65625 -7.40625 L 4.640625 -7.40625 L 7.0625 0 Z M 3.625 -5.9375 L 3.578125 -5.9375 L 2.765625 -3.125 L 4.453125 -3.125 Z M 3.625 -5.9375 "/></g></g></g><g fill="#000000" fill-opacity="1"><g transform="translate(57.837284, 10.540925)"><g><path d="M 3.078125 -3.5 L 2.359375 -4.984375 L 2.328125 -4.984375 L 2.328125 0 L 0.8125 0 L 0.8125 -7.40625 L 2.578125 -7.40625 L 4.609375 -3.90625 L 5.3125 -2.421875 L 5.34375 -2.421875 L 5.34375 -7.40625 L 6.859375 -7.40625 L 6.859375 0 L 5.109375 0 Z M 3.078125 -3.5 "/></g></g></g><g fill="#000000" fill-opacity="1"><g transform="translate(65.522746, 10.540925)"><g><path d="M 3.8125 0.125 C 3.3125 0.125 2.859375 0.046875 2.453125 -0.109375 C 2.046875 -0.265625 1.703125 -0.5 1.421875 -0.8125 C 1.140625 -1.132812 0.921875 -1.53125 0.765625 -2 C 0.609375 -2.46875 0.53125 -3.019531 0.53125 -3.65625 C 0.53125 -4.269531 0.609375 -4.816406 0.765625 -5.296875 C 0.921875 -5.785156 1.140625 -6.191406 1.421875 -6.515625 C 1.703125 -6.847656 2.046875 -7.097656 2.453125 -7.265625 C 2.859375 -7.441406 3.3125 -7.53125 3.8125 -7.53125 C 4.5 -7.53125 5.0625 -7.390625 5.5 -7.109375 C 5.945312 -6.828125 6.304688 -6.390625 6.578125 -5.796875 L 5.1875 -5.078125 C 5.09375 -5.378906 4.9375 -5.625 4.71875 -5.8125 C 4.507812 -6 4.207031 -6.09375 3.8125 -6.09375 C 3.332031 -6.09375 2.945312 -5.9375 2.65625 -5.625 C 2.375 -5.320312 2.234375 -4.878906 2.234375 -4.296875 L 2.234375 -3.109375 C 2.234375 -2.523438 2.375 -2.078125 2.65625 -1.765625 C 2.945312 -1.460938 3.332031 -1.3125 3.8125 -1.3125 C 4.207031 -1.3125 4.519531 -1.414062 4.75 -1.625 C 4.988281 -1.84375 5.164062 -2.101562 5.28125 -2.40625 L 6.59375 -1.640625 C 6.320312 -1.078125 5.960938 -0.640625 5.515625 -0.328125 C 5.066406 -0.0234375 4.5 0.125 3.8125 0.125 Z M 3.8125 0.125 "/></g></g></g><g fill="#000000" fill-opacity="1"><g transform="translate(72.433291, 10.540925)"><g><path d="M 0.8125 0 L 0.8125 -7.40625 L 5.859375 -7.40625 L 5.859375 -5.96875 L 2.421875 -5.96875 L 2.421875 -4.453125 L 5.375 -4.453125 L 5.375 -3.03125 L 2.421875 -3.03125 L 2.421875 -1.4375 L 5.859375 -1.4375 L 5.859375 0 Z M 0.8125 0 "/></g></g></g><g fill="#000000" fill-opacity="1"><g transform="translate(78.876765, 10.540925)"><g/></g></g><g fill="#000000" fill-opacity="1"><g transform="translate(81.381969, 10.540925)"><g><path d="M 0.8125 -7.40625 L 3.609375 -7.40625 C 4.097656 -7.40625 4.539062 -7.328125 4.9375 -7.171875 C 5.34375 -7.015625 5.6875 -6.78125 5.96875 -6.46875 C 6.25 -6.164062 6.46875 -5.78125 6.625 -5.3125 C 6.78125 -4.851562 6.859375 -4.316406 6.859375 -3.703125 C 6.859375 -3.085938 6.78125 -2.546875 6.625 -2.078125 C 6.46875 -1.617188 6.25 -1.234375 5.96875 -0.921875 C 5.6875 -0.617188 5.34375 -0.390625 4.9375 -0.234375 C 4.539062 -0.078125 4.097656 0 3.609375 0 L 0.8125 0 Z M 3.609375 -1.4375 C 4.085938 -1.4375 4.460938 -1.566406 4.734375 -1.828125 C 5.015625 -2.097656 5.15625 -2.53125 5.15625 -3.125 L 5.15625 -4.28125 C 5.15625 -4.875 5.015625 -5.300781 4.734375 -5.5625 C 4.460938 -5.832031 4.085938 -5.96875 3.609375 -5.96875 L 2.421875 -5.96875 L 2.421875 -1.4375 Z M 3.609375 -1.4375 "/></g></g></g><g fill="#000000" fill-opacity="1"><g transform="translate(88.780814, 10.540925)"><g><path d="M 0.8125 0 L 0.8125 -7.40625 L 5.859375 -7.40625 L 5.859375 -5.96875 L 2.421875 -5.96875 L 2.421875 -4.453125 L 5.375 -4.453125 L 5.375 -3.03125 L 2.421875 -3.03125 L 2.421875 -1.4375 L 5.859375 -1.4375 L 5.859375 0 Z M 0.8125 0 "/></g></g></g><g fill="#000000" fill-opacity="1"><g transform="translate(95.224298, 10.540925)"><g><path d="M 3.8125 0.125 C 3.3125 0.125 2.859375 0.046875 2.453125 -0.109375 C 2.046875 -0.265625 1.703125 -0.5 1.421875 -0.8125 C 1.140625 -1.132812 0.921875 -1.53125 0.765625 -2 C 0.609375 -2.46875 0.53125 -3.019531 0.53125 -3.65625 C 0.53125 -4.269531 0.609375 -4.816406 0.765625 -5.296875 C 0.921875 -5.785156 1.140625 -6.191406 1.421875 -6.515625 C 1.703125 -6.847656 2.046875 -7.097656 2.453125 -7.265625 C 2.859375 -7.441406 3.3125 -7.53125 3.8125 -7.53125 C 4.5 -7.53125 5.0625 -7.390625 5.5 -7.109375 C 5.945312 -6.828125 6.304688 -6.390625 6.578125 -5.796875 L 5.1875 -5.078125 C 5.09375 -5.378906 4.9375 -5.625 4.71875 -5.8125 C 4.507812 -6 4.207031 -6.09375 3.8125 -6.09375 C 3.332031 -6.09375 2.945312 -5.9375 2.65625 -5.625 C 2.375 -5.320312 2.234375 -4.878906 2.234375 -4.296875 L 2.234375 -3.109375 C 2.234375 -2.523438 2.375 -2.078125 2.65625 -1.765625 C 2.945312 -1.460938 3.332031 -1.3125 3.8125 -1.3125 C 4.207031 -1.3125 4.519531 -1.414062 4.75 -1.625 C 4.988281 -1.84375 5.164062 -2.101562 5.28125 -2.40625 L 6.59375 -1.640625 C 6.320312 -1.078125 5.960938 -0.640625 5.515625 -0.328125 C 5.066406 -0.0234375 4.5 0.125 3.8125 0.125 Z M 3.8125 0.125 "/></g></g></g><g fill="#000000" fill-opacity="1"><g transform="translate(102.134834, 10.540925)"><g><path d="M 0.53125 0 L 0.53125 -1.28125 L 1.484375 -1.28125 L 1.484375 -6.125 L 0.53125 -6.125 L 0.53125 -7.40625 L 4.046875 -7.40625 L 4.046875 -6.125 L 3.09375 -6.125 L 3.09375 -1.28125 L 4.046875 -1.28125 L 4.046875 0 Z M 0.53125 0 "/></g></g></g><g fill="#000000" fill-opacity="1"><g transform="translate(106.720638, 10.540925)"><g><path d="M 0.8125 -7.40625 L 3.609375 -7.40625 C 4.097656 -7.40625 4.539062 -7.328125 4.9375 -7.171875 C 5.34375 -7.015625 5.6875 -6.78125 5.96875 -6.46875 C 6.25 -6.164062 6.46875 -5.78125 6.625 -5.3125 C 6.78125 -4.851562 6.859375 -4.316406 6.859375 -3.703125 C 6.859375 -3.085938 6.78125 -2.546875 6.625 -2.078125 C 6.46875 -1.617188 6.25 -1.234375 5.96875 -0.921875 C 5.6875 -0.617188 5.34375 -0.390625 4.9375 -0.234375 C 4.539062 -0.078125 4.097656 0 3.609375 0 L 0.8125 0 Z M 3.609375 -1.4375 C 4.085938 -1.4375 4.460938 -1.566406 4.734375 -1.828125 C 5.015625 -2.097656 5.15625 -2.53125 5.15625 -3.125 L 5.15625 -4.28125 C 5.15625 -4.875 5.015625 -5.300781 4.734375 -5.5625 C 4.460938 -5.832031 4.085938 -5.96875 3.609375 -5.96875 L 2.421875 -5.96875 L 2.421875 -1.4375 Z M 3.609375 -1.4375 "/></g></g></g><g fill="#000000" fill-opacity="1"><g transform="translate(114.119483, 10.540925)"><g><path d="M 0.8125 0 L 0.8125 -7.40625 L 5.859375 -7.40625 L 5.859375 -5.96875 L 2.421875 -5.96875 L 2.421875 -4.453125 L 5.375 -4.453125 L 5.375 -3.03125 L 2.421875 -3.03125 L 2.421875 -1.4375 L 5.859375 -1.4375 L 5.859375 0 Z M 0.8125 0 "/></g></g></g><g fill="#000000" fill-opacity="1"><g transform="translate(120.562967, 10.540925)"><g><path d="M 3.21875 0.125 C 2.5625 0.125 2.003906 0.015625 1.546875 -0.203125 C 1.097656 -0.429688 0.71875 -0.722656 0.40625 -1.078125 L 1.46875 -2.140625 C 1.96875 -1.578125 2.585938 -1.296875 3.328125 -1.296875 C 3.722656 -1.296875 4.015625 -1.375 4.203125 -1.53125 C 4.390625 -1.695312 4.484375 -1.914062 4.484375 -2.1875 C 4.484375 -2.394531 4.425781 -2.566406 4.3125 -2.703125 C 4.195312 -2.835938 3.96875 -2.929688 3.625 -2.984375 L 2.890625 -3.078125 C 2.109375 -3.171875 1.535156 -3.40625 1.171875 -3.78125 C 0.804688 -4.15625 0.625 -4.65625 0.625 -5.28125 C 0.625 -5.613281 0.6875 -5.914062 0.8125 -6.1875 C 0.945312 -6.46875 1.128906 -6.707031 1.359375 -6.90625 C 1.597656 -7.101562 1.890625 -7.253906 2.234375 -7.359375 C 2.578125 -7.472656 2.96875 -7.53125 3.40625 -7.53125 C 3.96875 -7.53125 4.457031 -7.441406 4.875 -7.265625 C 5.300781 -7.085938 5.664062 -6.832031 5.96875 -6.5 L 4.90625 -5.40625 C 4.726562 -5.613281 4.515625 -5.78125 4.265625 -5.90625 C 4.015625 -6.039062 3.695312 -6.109375 3.3125 -6.109375 C 2.945312 -6.109375 2.675781 -6.046875 2.5 -5.921875 C 2.320312 -5.796875 2.234375 -5.617188 2.234375 -5.390625 C 2.234375 -5.128906 2.300781 -4.941406 2.4375 -4.828125 C 2.582031 -4.722656 2.8125 -4.644531 3.125 -4.59375 L 3.84375 -4.484375 C 4.613281 -4.359375 5.179688 -4.117188 5.546875 -3.765625 C 5.910156 -3.421875 6.09375 -2.925781 6.09375 -2.28125 C 6.09375 -1.925781 6.03125 -1.597656 5.90625 -1.296875 C 5.78125 -1.003906 5.59375 -0.75 5.34375 -0.53125 C 5.101562 -0.320312 4.800781 -0.160156 4.4375 -0.046875 C 4.082031 0.0664062 3.675781 0.125 3.21875 0.125 Z M 3.21875 0.125 "/></g></g></g><g fill="#000000" fill-opacity="1"><g transform="translate(127.186896, 10.540925)"><g/></g></g><g fill="#000000" fill-opacity="1"><g transform="translate(129.6921, 10.540925)"><g><path d="M 1.984375 0 L 0.3125 -7.40625 L 1.90625 -7.40625 L 2.59375 -3.84375 L 2.984375 -1.796875 L 3.03125 -1.796875 L 3.484375 -3.84375 L 4.3125 -7.40625 L 6.0625 -7.40625 L 6.890625 -3.84375 L 7.359375 -1.796875 L 7.390625 -1.796875 L 7.78125 -3.84375 L 8.484375 -7.40625 L 10.015625 -7.40625 L 8.296875 0 L 6.46875 0 L 5.53125 -4.015625 L 5.171875 -5.640625 L 5.140625 -5.640625 L 4.765625 -4.015625 L 3.828125 0 Z M 1.984375 0 "/></g></g></g><g fill="#000000" fill-opacity="1"><g transform="translate(140.020762, 10.540925)"><g><path d="M 5.25 -3.03125 L 2.421875 -3.03125 L 2.421875 0 L 0.8125 0 L 0.8125 -7.40625 L 2.421875 -7.40625 L 2.421875 -4.453125 L 5.25 -4.453125 L 5.25 -7.40625 L 6.859375 -7.40625 L 6.859375 0 L 5.25 0 Z M 5.25 -3.03125 "/></g></g></g><g fill="#000000" fill-opacity="1"><g transform="translate(147.706224, 10.540925)"><g><path d="M 3.78125 0.125 C 3.300781 0.125 2.859375 0.046875 2.453125 -0.109375 C 2.046875 -0.273438 1.703125 -0.519531 1.421875 -0.84375 C 1.140625 -1.164062 0.921875 -1.566406 0.765625 -2.046875 C 0.609375 -2.523438 0.53125 -3.078125 0.53125 -3.703125 C 0.53125 -4.328125 0.609375 -4.878906 0.765625 -5.359375 C 0.921875 -5.835938 1.140625 -6.238281 1.421875 -6.5625 C 1.703125 -6.882812 2.046875 -7.125 2.453125 -7.28125 C 2.859375 -7.445312 3.300781 -7.53125 3.78125 -7.53125 C 4.269531 -7.53125 4.71875 -7.445312 5.125 -7.28125 C 5.53125 -7.125 5.875 -6.882812 6.15625 -6.5625 C 6.4375 -6.238281 6.65625 -5.835938 6.8125 -5.359375 C 6.96875 -4.878906 7.046875 -4.328125 7.046875 -3.703125 C 7.046875 -3.078125 6.96875 -2.523438 6.8125 -2.046875 C 6.65625 -1.566406 6.4375 -1.164062 6.15625 -0.84375 C 5.875 -0.519531 5.53125 -0.273438 5.125 -0.109375 C 4.71875 0.046875 4.269531 0.125 3.78125 0.125 Z M 3.78125 -1.3125 C 4.269531 -1.3125 4.648438 -1.46875 4.921875 -1.78125 C 5.203125 -2.101562 5.34375 -2.5625 5.34375 -3.15625 L 5.34375 -4.25 C 5.34375 -4.84375 5.203125 -5.296875 4.921875 -5.609375 C 4.648438 -5.929688 4.269531 -6.09375 3.78125 -6.09375 C 3.300781 -6.09375 2.921875 -5.929688 2.640625 -5.609375 C 2.367188 -5.296875 2.234375 -4.84375 2.234375 -4.25 L 2.234375 -3.15625 C 2.234375 -2.5625 2.367188 -2.101562 2.640625 -1.78125 C 2.921875 -1.46875 3.300781 -1.3125 3.78125 -1.3125 Z M 3.78125 -1.3125 "/></g></g></g><g fill="#000000" fill-opacity="1"><g transform="translate(155.285533, 10.540925)"><g/></g></g><g fill="#000000" fill-opacity="1"><g transform="translate(157.790737, 10.540925)"><g><path d="M 5.515625 -1.171875 L 5.46875 -1.171875 C 5.40625 -0.796875 5.210938 -0.484375 4.890625 -0.234375 C 4.566406 0.00390625 4.125 0.125 3.5625 0.125 C 3.132812 0.125 2.738281 0.046875 2.375 -0.109375 C 2.007812 -0.273438 1.6875 -0.515625 1.40625 -0.828125 C 1.132812 -1.148438 0.921875 -1.546875 0.765625 -2.015625 C 0.609375 -2.492188 0.53125 -3.046875 0.53125 -3.671875 C 0.53125 -4.296875 0.609375 -4.847656 0.765625 -5.328125 C 0.929688 -5.804688 1.160156 -6.207031 1.453125 -6.53125 C 1.753906 -6.851562 2.109375 -7.097656 2.515625 -7.265625 C 2.921875 -7.441406 3.378906 -7.53125 3.890625 -7.53125 C 4.546875 -7.53125 5.113281 -7.382812 5.59375 -7.09375 C 6.082031 -6.8125 6.460938 -6.382812 6.734375 -5.8125 L 5.421875 -5.0625 C 5.304688 -5.351562 5.128906 -5.597656 4.890625 -5.796875 C 4.648438 -5.992188 4.316406 -6.09375 3.890625 -6.09375 C 3.378906 -6.09375 2.972656 -5.945312 2.671875 -5.65625 C 2.378906 -5.375 2.234375 -4.921875 2.234375 -4.296875 L 2.234375 -3.109375 C 2.234375 -2.492188 2.378906 -2.039062 2.671875 -1.75 C 2.972656 -1.457031 3.378906 -1.3125 3.890625 -1.3125 C 4.085938 -1.3125 4.269531 -1.332031 4.4375 -1.375 C 4.613281 -1.414062 4.769531 -1.484375 4.90625 -1.578125 C 5.039062 -1.679688 5.144531 -1.796875 5.21875 -1.921875 C 5.300781 -2.054688 5.34375 -2.21875 5.34375 -2.40625 L 5.34375 -2.78125 L 3.953125 -2.78125 L 3.953125 -4.125 L 6.875 -4.125 L 6.875 0 L 5.515625 0 Z M 5.515625 -1.171875 "/></g></g></g><g fill="#000000" fill-opacity="1"><g transform="translate(165.423127, 10.540925)"><g><path d="M 0.8125 0 L 0.8125 -7.40625 L 5.859375 -7.40625 L 5.859375 -5.96875 L 2.421875 -5.96875 L 2.421875 -4.453125 L 5.375 -4.453125 L 5.375 -3.03125 L 2.421875 -3.03125 L 2.421875 -1.4375 L 5.859375 -1.4375 L 5.859375 0 Z M 0.8125 0 "/></g></g></g><g fill="#000000" fill-opacity="1"><g transform="translate(171.866592, 10.540925)"><g><path d="M 3.90625 -5.96875 L 3.90625 0 L 2.296875 0 L 2.296875 -5.96875 L 0.28125 -5.96875 L 0.28125 -7.40625 L 5.90625 -7.40625 L 5.90625 -5.96875 Z M 3.90625 -5.96875 "/></g></g></g><g fill="#000000" fill-opacity="1"><g transform="translate(177.938534, 10.540925)"><g><path d="M 3.21875 0.125 C 2.5625 0.125 2.003906 0.015625 1.546875 -0.203125 C 1.097656 -0.429688 0.71875 -0.722656 0.40625 -1.078125 L 1.46875 -2.140625 C 1.96875 -1.578125 2.585938 -1.296875 3.328125 -1.296875 C 3.722656 -1.296875 4.015625 -1.375 4.203125 -1.53125 C 4.390625 -1.695312 4.484375 -1.914062 4.484375 -2.1875 C 4.484375 -2.394531 4.425781 -2.566406 4.3125 -2.703125 C 4.195312 -2.835938 3.96875 -2.929688 3.625 -2.984375 L 2.890625 -3.078125 C 2.109375 -3.171875 1.535156 -3.40625 1.171875 -3.78125 C 0.804688 -4.15625 0.625 -4.65625 0.625 -5.28125 C 0.625 -5.613281 0.6875 -5.914062 0.8125 -6.1875 C 0.945312 -6.46875 1.128906 -6.707031 1.359375 -6.90625 C 1.597656 -7.101562 1.890625 -7.253906 2.234375 -7.359375 C 2.578125 -7.472656 2.96875 -7.53125 3.40625 -7.53125 C 3.96875 -7.53125 4.457031 -7.441406 4.875 -7.265625 C 5.300781 -7.085938 5.664062 -6.832031 5.96875 -6.5 L 4.90625 -5.40625 C 4.726562 -5.613281 4.515625 -5.78125 4.265625 -5.90625 C 4.015625 -6.039062 3.695312 -6.109375 3.3125 -6.109375 C 2.945312 -6.109375 2.675781 -6.046875 2.5 -5.921875 C 2.320312 -5.796875 2.234375 -5.617188 2.234375 -5.390625 C 2.234375 -5.128906 2.300781 -4.941406 2.4375 -4.828125 C 2.582031 -4.722656 2.8125 -4.644531 3.125 -4.59375 L 3.84375 -4.484375 C 4.613281 -4.359375 5.179688 -4.117188 5.546875 -3.765625 C 5.910156 -3.421875 6.09375 -2.925781 6.09375 -2.28125 C 6.09375 -1.925781 6.03125 -1.597656 5.90625 -1.296875 C 5.78125 -1.003906 5.59375 -0.75 5.34375 -0.53125 C 5.101562 -0.320312 4.800781 -0.160156 4.4375 -0.046875 C 4.082031 0.0664062 3.675781 0.125 3.21875 0.125 Z M 3.21875 0.125 "/></g></g></g><g fill="#000000" fill-opacity="1"><g transform="translate(184.562463, 10.540925)"><g/></g></g><g fill="#000000" fill-opacity="1"><g transform="translate(187.067667, 10.540925)"><g><path d="M 0.8125 0 L 0.8125 -7.40625 L 4.3125 -7.40625 C 4.664062 -7.40625 4.976562 -7.347656 5.25 -7.234375 C 5.53125 -7.117188 5.765625 -6.957031 5.953125 -6.75 C 6.148438 -6.539062 6.300781 -6.289062 6.40625 -6 C 6.507812 -5.707031 6.5625 -5.390625 6.5625 -5.046875 C 6.5625 -4.691406 6.507812 -4.367188 6.40625 -4.078125 C 6.300781 -3.785156 6.148438 -3.535156 5.953125 -3.328125 C 5.765625 -3.128906 5.53125 -2.96875 5.25 -2.84375 C 4.976562 -2.726562 4.664062 -2.671875 4.3125 -2.671875 L 2.421875 -2.671875 L 2.421875 0 Z M 2.421875 -4.078125 L 4.125 -4.078125 C 4.363281 -4.078125 4.550781 -4.140625 4.6875 -4.265625 C 4.832031 -4.390625 4.90625 -4.570312 4.90625 -4.8125 L 4.90625 -5.265625 C 4.90625 -5.515625 4.832031 -5.695312 4.6875 -5.8125 C 4.550781 -5.9375 4.363281 -6 4.125 -6 L 2.421875 -6 Z M 2.421875 -4.078125 "/></g></g></g><g fill="#000000" fill-opacity="1"><g transform="translate(193.256328, 10.540925)"><g><path d="M 5.375 0 L 4.84375 -1.765625 L 2.375 -1.765625 L 1.84375 0 L 0.21875 0 L 2.65625 -7.40625 L 4.640625 -7.40625 L 7.0625 0 Z M 3.625 -5.9375 L 3.578125 -5.9375 L 2.765625 -3.125 L 4.453125 -3.125 Z M 3.625 -5.9375 "/></g></g></g><g fill="#000000" fill-opacity="1"><g transform="translate(200.527791, 10.540925)"><g><path d="M 0.53125 0 L 0.53125 -1.28125 L 1.484375 -1.28125 L 1.484375 -6.125 L 0.53125 -6.125 L 0.53125 -7.40625 L 4.046875 -7.40625 L 4.046875 -6.125 L 3.09375 -6.125 L 3.09375 -1.28125 L 4.046875 -1.28125 L 4.046875 0 Z M 0.53125 0 "/></g></g></g><g fill="#000000" fill-opacity="1"><g transform="translate(205.113586, 10.540925)"><g><path d="M 0.8125 -7.40625 L 3.609375 -7.40625 C 4.097656 -7.40625 4.539062 -7.328125 4.9375 -7.171875 C 5.34375 -7.015625 5.6875 -6.78125 5.96875 -6.46875 C 6.25 -6.164062 6.46875 -5.78125 6.625 -5.3125 C 6.78125 -4.851562 6.859375 -4.316406 6.859375 -3.703125 C 6.859375 -3.085938 6.78125 -2.546875 6.625 -2.078125 C 6.46875 -1.617188 6.25 -1.234375 5.96875 -0.921875 C 5.6875 -0.617188 5.34375 -0.390625 4.9375 -0.234375 C 4.539062 -0.078125 4.097656 0 3.609375 0 L 0.8125 0 Z M 3.609375 -1.4375 C 4.085938 -1.4375 4.460938 -1.566406 4.734375 -1.828125 C 5.015625 -2.097656 5.15625 -2.53125 5.15625 -3.125 L 5.15625 -4.28125 C 5.15625 -4.875 5.015625 -5.300781 4.734375 -5.5625 C 4.460938 -5.832031 4.085938 -5.96875 3.609375 -5.96875 L 2.421875 -5.96875 L 2.421875 -1.4375 Z M 3.609375 -1.4375 "/></g></g></g><g fill="#000000" fill-opacity="1"><g transform="translate(212.087808, 10.540925)"><g><path d="M 1.640625 0.109375 C 1.328125 0.109375 1.09375 0.03125 0.9375 -0.125 C 0.78125 -0.28125 0.703125 -0.484375 0.703125 -0.734375 L 0.703125 -0.9375 C 0.703125 -1.1875 0.78125 -1.390625 0.9375 -1.546875 C 1.09375 -1.710938 1.328125 -1.796875 1.640625 -1.796875 C 1.960938 -1.796875 2.195312 -1.710938 2.34375 -1.546875 C 2.5 -1.390625 2.578125 -1.1875 2.578125 -0.9375 L 2.578125 -0.734375 C 2.578125 -0.484375 2.5 -0.28125 2.34375 -0.125 C 2.195312 0.03125 1.960938 0.109375 1.640625 0.109375 Z M 1.640625 0.109375 "/></g></g></g></g></g></svg>