<svg viewBox="0 0 100 100" xmlns="http://www.w3.org/2000/svg">
    <!-- Left Interlocking Loop -->
    <path d="M 44.690,43.190 L 48.940,38.940 L 39.243,29.243 Q 35.000,25.000 30.757,29.243 L 14.243,45.757 Q 10.000,50.000 14.243,54.243 L 30.757,70.757 Q 35.000,75.000 39.243,70.757 L 55.757,54.243 Q 60.000,50.000 55.757,45.757 L 55.310,45.310 L 51.060,49.560 L 49.025,47.525 Q 51.500,50.000 49.025,52.475 L 37.475,64.025 Q 35.000,66.500 32.525,64.025 L 20.975,52.475 Q 18.500,50.000 20.975,47.525 L 32.525,35.975 Q 35.000,33.500 37.475,35.975 Z" fill="#501113"/>
    <!-- Right Interlocking Loop -->
    <path d="M 55.310,56.810 L 51.060,61.060 L 60.757,70.757 Q 65.000,75.000 69.243,70.757 L 85.757,54.243 Q 90.000,50.000 85.757,45.757 L 69.243,29.243 Q 65.000,25.000 60.757,29.243 L 44.243,45.757 Q 40.000,50.000 44.243,54.243 L 44.690,54.690 L 48.940,50.440 L 50.975,52.475 Q 48.500,50.000 50.975,47.525 L 62.525,35.975 Q 65.000,33.500 67.475,35.975 L 79.025,47.525 Q 81.500,50.000 79.025,52.475 L 67.475,64.025 Q 65.000,66.500 62.525,64.025 Z" fill="#501113"/>
</svg>
