<svg xmlns="http://www.w3.org/2000/svg" xmlns:xlink="http://www.w3.org/1999/xlink" width="2000" zoomAndPan="magnify" viewBox="0 0 1500 1499.999933" height="2000" preserveAspectRatio="xMidYMid meet" version="1.0"><defs><g/><clipPath id="f30a1643fe"><path d="M 508 459.335938 L 1026 459.335938 L 1026 978 L 508 978 Z M 508 459.335938 " clip-rule="nonzero"/></clipPath><clipPath id="c2d46480a3"><rect x="0" width="1408" y="0" height="209"/></clipPath></defs><g clip-path="url(#f30a1643fe)"><path fill="#752122" d="M 767.050781 459.871094 C 771.289062 459.871094 775.523438 459.976562 779.753906 460.183594 C 783.984375 460.390625 788.210938 460.703125 792.425781 461.117188 C 796.644531 461.53125 800.847656 462.050781 805.039062 462.671875 C 809.230469 463.292969 813.402344 464.015625 817.558594 464.84375 C 821.714844 465.667969 825.847656 466.597656 829.957031 467.625 C 834.066406 468.65625 838.148438 469.785156 842.203125 471.011719 C 846.257812 472.242188 850.28125 473.570312 854.269531 475 C 858.257812 476.425781 862.210938 477.949219 866.125 479.570312 C 870.039062 481.191406 873.910156 482.90625 877.742188 484.71875 C 881.570312 486.53125 885.355469 488.433594 889.09375 490.429688 C 892.828125 492.425781 896.515625 494.515625 900.148438 496.691406 C 903.78125 498.871094 907.363281 501.136719 910.882812 503.488281 C 914.40625 505.84375 917.871094 508.28125 921.273438 510.804688 C 924.675781 513.328125 928.015625 515.933594 931.292969 518.621094 C 934.566406 521.308594 937.773438 524.078125 940.914062 526.921875 C 944.054688 529.765625 947.121094 532.6875 950.117188 535.683594 C 953.113281 538.679688 956.035156 541.746094 958.878906 544.886719 C 961.726562 548.023438 964.492188 551.230469 967.179688 554.507812 C 969.871094 557.78125 972.476562 561.121094 975 564.523438 C 977.523438 567.925781 979.960938 571.386719 982.316406 574.910156 C 984.671875 578.433594 986.9375 582.011719 989.117188 585.644531 C 991.292969 589.28125 993.382812 592.964844 995.378906 596.703125 C 997.378906 600.4375 999.28125 604.222656 1001.09375 608.050781 C 1002.90625 611.882812 1004.621094 615.753906 1006.242188 619.667969 C 1007.867188 623.582031 1009.390625 627.535156 1010.816406 631.523438 C 1012.246094 635.511719 1013.574219 639.535156 1014.804688 643.589844 C 1016.035156 647.640625 1017.164062 651.722656 1018.195312 655.835938 C 1019.222656 659.945312 1020.152344 664.078125 1020.980469 668.230469 C 1021.804688 672.386719 1022.53125 676.5625 1023.152344 680.75 C 1023.773438 684.941406 1024.292969 689.144531 1024.710938 693.363281 C 1025.125 697.578125 1025.4375 701.804688 1025.644531 706.035156 C 1025.851562 710.265625 1025.957031 714.5 1025.957031 718.738281 C 1025.957031 722.976562 1025.855469 727.210938 1025.644531 731.441406 C 1025.4375 735.671875 1025.128906 739.898438 1024.710938 744.113281 C 1024.296875 748.328125 1023.777344 752.535156 1023.15625 756.726562 C 1022.535156 760.914062 1021.8125 765.089844 1020.984375 769.246094 C 1020.160156 773.398438 1019.230469 777.53125 1018.203125 781.644531 C 1017.171875 785.753906 1016.042969 789.835938 1014.8125 793.890625 C 1013.585938 797.945312 1012.257812 801.964844 1010.828125 805.957031 C 1009.402344 809.945312 1007.878906 813.898438 1006.257812 817.8125 C 1004.636719 821.726562 1002.917969 825.597656 1001.109375 829.429688 C 999.296875 833.257812 997.390625 837.042969 995.394531 840.777344 C 993.398438 844.515625 991.3125 848.199219 989.132812 851.835938 C 986.953125 855.46875 984.6875 859.046875 982.335938 862.570312 C 979.980469 866.09375 977.542969 869.554688 975.019531 872.960938 C 972.496094 876.363281 969.890625 879.703125 967.203125 882.976562 C 964.515625 886.253906 961.746094 889.460938 958.902344 892.597656 C 956.058594 895.738281 953.136719 898.808594 950.140625 901.804688 C 947.144531 904.800781 944.078125 907.71875 940.9375 910.566406 C 937.800781 913.410156 934.59375 916.175781 931.316406 918.867188 C 928.042969 921.554688 924.703125 924.160156 921.300781 926.683594 C 917.898438 929.207031 914.433594 931.648438 910.910156 934 C 907.390625 936.355469 903.8125 938.621094 900.175781 940.800781 C 896.542969 942.976562 892.859375 945.066406 889.121094 947.0625 C 885.382812 949.058594 881.601562 950.964844 877.769531 952.777344 C 873.941406 954.589844 870.070312 956.304688 866.15625 957.925781 C 862.242188 959.546875 858.289062 961.070312 854.300781 962.5 C 850.308594 963.925781 846.289062 965.257812 842.234375 966.484375 C 838.179688 967.714844 834.097656 968.847656 829.988281 969.875 C 825.878906 970.90625 821.746094 971.832031 817.589844 972.660156 C 813.433594 973.488281 809.261719 974.210938 805.070312 974.832031 C 800.878906 975.453125 796.675781 975.972656 792.457031 976.390625 C 788.242188 976.804688 784.019531 977.117188 779.785156 977.324219 C 775.554688 977.53125 771.320312 977.636719 767.082031 977.636719 C 762.847656 977.636719 758.613281 977.53125 754.378906 977.324219 C 750.148438 977.117188 745.925781 976.804688 741.707031 976.390625 C 737.492188 975.976562 733.289062 975.457031 729.097656 974.835938 C 724.90625 974.214844 720.734375 973.488281 716.578125 972.664062 C 712.421875 971.835938 708.289062 970.910156 704.179688 969.878906 C 700.070312 968.851562 695.988281 967.71875 691.933594 966.492188 C 687.878906 965.261719 683.855469 963.933594 679.867188 962.503906 C 675.878906 961.078125 671.925781 959.554688 668.011719 957.933594 C 664.097656 956.3125 660.226562 954.59375 656.394531 952.785156 C 652.5625 950.972656 648.78125 949.066406 645.042969 947.070312 C 641.308594 945.074219 637.621094 942.984375 633.988281 940.808594 C 630.355469 938.628906 626.777344 936.363281 623.253906 934.007812 C 619.730469 931.65625 616.265625 929.21875 612.863281 926.691406 C 609.460938 924.167969 606.121094 921.5625 602.847656 918.875 C 599.570312 916.1875 596.363281 913.421875 593.222656 910.574219 C 590.085938 907.730469 587.015625 904.808594 584.019531 901.8125 C 581.023438 898.820312 578.105469 895.75 575.257812 892.613281 C 572.414062 889.472656 569.648438 886.265625 566.960938 882.988281 C 564.269531 879.714844 561.664062 876.375 559.140625 872.972656 C 556.617188 869.570312 554.179688 866.105469 551.824219 862.585938 C 549.472656 859.0625 547.203125 855.484375 545.027344 851.847656 C 542.847656 848.214844 540.761719 844.527344 538.761719 840.792969 C 536.765625 837.054688 534.863281 833.273438 533.050781 829.441406 C 531.238281 825.613281 529.523438 821.742188 527.902344 817.824219 C 526.277344 813.910156 524.753906 809.960938 523.328125 805.972656 C 521.898438 801.980469 520.570312 797.960938 519.339844 793.90625 C 518.113281 789.851562 516.980469 785.769531 515.953125 781.660156 C 514.921875 777.550781 513.996094 773.417969 513.167969 769.261719 C 512.339844 765.105469 511.617188 760.933594 510.996094 756.742188 C 510.375 752.550781 509.855469 748.347656 509.441406 744.128906 C 509.023438 739.914062 508.714844 735.6875 508.503906 731.457031 C 508.296875 727.226562 508.195312 722.992188 508.195312 718.753906 C 508.195312 714.519531 508.296875 710.285156 508.503906 706.050781 C 508.714844 701.820312 509.023438 697.597656 509.441406 693.382812 C 509.855469 689.164062 510.375 684.960938 510.996094 680.769531 C 511.617188 676.582031 512.339844 672.40625 513.167969 668.253906 C 513.992188 664.097656 514.921875 659.964844 515.949219 655.855469 C 516.980469 651.746094 518.109375 647.664062 519.339844 643.609375 C 520.570312 639.554688 521.898438 635.535156 523.324219 631.542969 C 524.753906 627.554688 526.277344 623.605469 527.898438 619.691406 C 529.519531 615.777344 531.234375 611.902344 533.046875 608.074219 C 534.855469 604.246094 536.761719 600.460938 538.757812 596.726562 C 540.753906 592.988281 542.84375 589.304688 545.019531 585.667969 C 547.199219 582.035156 549.464844 578.457031 551.816406 574.933594 C 554.171875 571.414062 556.609375 567.949219 559.132812 564.546875 C 561.65625 561.144531 564.261719 557.804688 566.949219 554.53125 C 569.636719 551.253906 572.402344 548.046875 575.25 544.910156 C 578.09375 541.769531 581.015625 538.703125 584.007812 535.707031 C 587.003906 532.710938 590.074219 529.789062 593.210938 526.945312 C 596.351562 524.097656 599.558594 521.332031 602.832031 518.644531 C 606.105469 515.957031 609.445312 513.351562 612.847656 510.828125 C 616.25 508.304688 619.714844 505.863281 623.234375 503.511719 C 626.757812 501.15625 630.335938 498.890625 633.96875 496.710938 C 637.601562 494.535156 641.289062 492.445312 645.023438 490.449219 C 648.761719 488.453125 652.542969 486.546875 656.375 484.734375 C 660.203125 482.925781 664.074219 481.207031 667.988281 479.585938 C 671.902344 477.964844 675.855469 476.441406 679.84375 475.011719 C 683.832031 473.585938 687.851562 472.257812 691.90625 471.027344 C 695.960938 469.796875 700.042969 468.664062 704.152344 467.636719 C 708.261719 466.605469 712.394531 465.679688 716.550781 464.851562 C 720.703125 464.023438 724.878906 463.300781 729.066406 462.679688 C 733.257812 462.054688 737.460938 461.535156 741.679688 461.121094 C 745.894531 460.707031 750.117188 460.394531 754.347656 460.1875 C 758.582031 459.976562 762.816406 459.871094 767.050781 459.871094 Z M 767.050781 459.871094 " fill-opacity="1" fill-rule="nonzero"/></g><path fill="#3b0001" d="M 1013.535156 798.148438 C 1011.964844 803.011719 1010.257812 807.824219 1008.402344 812.589844 C 1006.550781 817.351562 1004.558594 822.058594 1002.429688 826.703125 C 1000.296875 831.351562 998.03125 835.929688 995.628906 840.441406 C 993.226562 844.953125 990.691406 849.386719 988.027344 853.75 C 985.363281 858.109375 982.570312 862.390625 979.652344 866.585938 C 976.734375 870.78125 973.691406 874.886719 970.53125 878.902344 C 967.371094 882.921875 964.09375 886.839844 960.699219 890.660156 C 957.304688 894.484375 953.800781 898.203125 950.1875 901.816406 C 946.574219 905.429688 942.855469 908.933594 939.035156 912.328125 C 935.210938 915.722656 931.292969 919 927.277344 922.164062 C 923.261719 925.324219 919.15625 928.367188 914.960938 931.285156 C 910.765625 934.203125 906.484375 936.996094 902.125 939.660156 C 897.765625 942.328125 893.328125 944.863281 888.816406 947.265625 C 884.304688 949.667969 879.726562 951.933594 875.082031 954.066406 C 870.4375 956.199219 865.730469 958.191406 860.96875 960.042969 C 856.203125 961.898438 851.390625 963.609375 846.523438 965.175781 C 841.660156 966.742188 836.753906 968.167969 831.804688 969.445312 C 826.855469 970.722656 821.871094 971.851562 816.855469 972.832031 C 811.839844 973.816406 806.800781 974.648438 801.734375 975.332031 C 796.667969 976.015625 791.589844 976.546875 786.492188 976.929688 C 781.394531 977.3125 776.289062 977.546875 771.179688 977.625 C 766.070312 977.707031 760.960938 977.636719 755.855469 977.414062 C 750.746094 977.191406 745.652344 976.820312 740.566406 976.296875 C 735.484375 975.773438 730.417969 975.097656 725.375 974.273438 C 720.332031 973.449219 715.316406 972.476562 710.328125 971.355469 C 705.339844 970.238281 700.390625 968.96875 695.480469 967.554688 C 690.566406 966.140625 685.703125 964.582031 680.882812 962.882812 C 676.0625 961.179688 671.296875 959.335938 666.585938 957.351562 C 661.878906 955.367188 657.230469 953.246094 652.644531 950.984375 C 648.058594 948.726562 643.546875 946.332031 639.105469 943.804688 C 634.660156 941.277344 630.296875 938.621094 626.011719 935.835938 C 621.726562 933.050781 617.527344 930.140625 613.414062 927.109375 C 609.300781 924.074219 605.277344 920.921875 601.351562 917.648438 C 597.425781 914.375 593.601562 910.992188 589.875 907.492188 C 586.148438 903.992188 582.527344 900.386719 579.015625 896.675781 C 575.503906 892.960938 572.105469 889.148438 568.816406 885.234375 C 565.53125 881.320312 562.363281 877.308594 559.3125 873.207031 C 556.265625 869.105469 553.339844 864.917969 550.539062 860.640625 C 547.738281 856.367188 545.0625 852.011719 542.519531 847.578125 C 539.976562 843.144531 537.566406 838.640625 535.292969 834.0625 C 533.015625 829.488281 530.875 824.847656 528.875 820.144531 C 526.871094 815.441406 525.011719 810.683594 523.292969 805.871094 C 521.570312 801.058594 519.996094 796.195312 518.5625 791.289062 C 517.132812 786.382812 515.847656 781.441406 514.707031 776.457031 C 513.566406 771.472656 512.578125 766.460938 511.734375 761.421875 C 510.894531 756.378906 510.199219 751.316406 509.65625 746.234375 C 509.113281 741.152344 508.722656 736.058594 508.484375 730.953125 C 508.242188 725.847656 508.152344 720.738281 508.214844 715.628906 C 508.273438 710.515625 508.488281 705.414062 508.851562 700.316406 C 509.214844 695.214844 509.730469 690.132812 510.394531 685.066406 C 511.0625 679.996094 511.875 674.953125 512.839844 669.933594 C 513.800781 664.914062 514.914062 659.929688 516.171875 654.972656 C 517.433594 650.019531 518.835938 645.109375 520.386719 640.238281 C 521.9375 635.367188 523.628906 630.546875 525.464844 625.777344 C 527.300781 621.007812 529.277344 616.292969 531.390625 611.640625 C 533.503906 606.988281 535.753906 602.402344 538.140625 597.878906 C 540.527344 593.359375 543.046875 588.914062 545.695312 584.542969 C 548.34375 580.171875 551.121094 575.882812 554.023438 571.679688 C 556.929688 567.472656 559.953125 563.355469 563.101562 559.328125 C 566.25 555.300781 569.511719 551.367188 572.890625 547.535156 C 576.273438 543.699219 579.761719 539.96875 583.363281 536.34375 C 586.964844 532.714844 590.671875 529.199219 594.480469 525.789062 C 598.289062 522.382812 602.195312 519.089844 606.199219 515.914062 C 610.203125 512.738281 614.300781 509.683594 618.484375 506.75 C 616.929688 511.582031 615.523438 516.457031 614.253906 521.375 C 612.988281 526.289062 611.867188 531.238281 610.890625 536.222656 C 609.917969 541.207031 609.089844 546.210938 608.40625 551.242188 C 607.726562 556.273438 607.191406 561.320312 606.808594 566.382812 C 606.425781 571.445312 606.1875 576.515625 606.101562 581.59375 C 606.015625 586.667969 606.078125 591.742188 606.292969 596.816406 C 606.503906 601.890625 606.863281 606.949219 607.375 612.003906 C 607.882812 617.054688 608.542969 622.085938 609.347656 627.097656 C 610.152344 632.113281 611.105469 637.097656 612.203125 642.054688 C 613.304688 647.011719 614.546875 651.929688 615.933594 656.8125 C 617.324219 661.699219 618.855469 666.535156 620.527344 671.332031 C 622.199219 676.125 624.011719 680.863281 625.960938 685.550781 C 627.914062 690.238281 630 694.863281 632.226562 699.429688 C 634.449219 703.992188 636.804688 708.488281 639.292969 712.914062 C 641.777344 717.339844 644.394531 721.691406 647.136719 725.960938 C 649.882812 730.234375 652.75 734.421875 655.738281 738.523438 C 658.726562 742.628906 661.835938 746.640625 665.0625 750.5625 C 668.285156 754.484375 671.625 758.304688 675.074219 762.03125 C 678.527344 765.753906 682.082031 769.375 685.746094 772.890625 C 689.410156 776.40625 693.171875 779.808594 697.035156 783.105469 C 700.898438 786.398438 704.855469 789.574219 708.90625 792.636719 C 712.957031 795.699219 717.09375 798.636719 721.316406 801.457031 C 725.539062 804.273438 729.84375 806.964844 734.226562 809.53125 C 738.605469 812.097656 743.058594 814.53125 747.582031 816.832031 C 752.109375 819.136719 756.695312 821.304688 761.347656 823.339844 C 766 825.371094 770.710938 827.265625 775.472656 829.023438 C 780.234375 830.78125 785.046875 832.394531 789.90625 833.871094 C 794.765625 835.34375 799.660156 836.671875 804.597656 837.859375 C 809.535156 839.042969 814.503906 840.085938 819.5 840.976562 C 824.5 841.871094 829.519531 842.617188 834.558594 843.214844 C 839.601562 843.816406 844.65625 844.265625 849.726562 844.566406 C 854.792969 844.867188 859.867188 845.019531 864.945312 845.023438 C 871.542969 845.035156 878.132812 844.792969 884.710938 844.296875 C 891.292969 843.804688 897.84375 843.054688 904.367188 842.058594 C 910.886719 841.058594 917.363281 839.8125 923.789062 838.316406 C 930.214844 836.820312 936.578125 835.078125 942.871094 833.09375 C 949.164062 831.109375 955.371094 828.882812 961.492188 826.421875 C 967.613281 823.960938 973.632812 821.265625 979.546875 818.339844 C 985.460938 815.414062 991.253906 812.265625 996.929688 808.898438 C 1002.601562 805.527344 1008.136719 801.941406 1013.535156 798.144531 Z M 1013.535156 798.148438 " fill-opacity="1" fill-rule="nonzero"/><path fill="#752122" d="M 508.023438 641.738281 C 458.230469 605.203125 430.148438 578.519531 435.125 569.894531 C 440.097656 561.269531 477.515625 572.101562 537.597656 598.808594 C 544.652344 585.398438 552.820312 572.707031 562.101562 560.730469 C 411.992188 490.28125 306.550781 460.289062 291.726562 485.945312 C 278.324219 509.199219 341.003906 572.835938 448.304688 651.6875 C 518.828125 703.511719 608.632812 761.953125 708.78125 819.710938 C 790.746094 867.027344 869.550781 908.144531 939.410156 940.78125 C 1084.816406 1008.757812 1191.308594 1040.023438 1206.378906 1014 C 1221.449219 987.976562 1142.105469 911.722656 1006.550781 817.355469 C 1000.777344 831.34375 993.835938 844.722656 985.722656 857.496094 C 1038.480469 895.890625 1067 923.140625 1062.027344 931.789062 C 1056.144531 941.933594 1005.839844 924.976562 931.8125 890.132812 C 875.234375 863.546875 804.835938 826.421875 729.855469 783.222656 C 640.34375 731.519531 561.613281 680.96875 508.023438 641.738281 Z M 508.023438 641.738281 " fill-opacity="1" fill-rule="nonzero"/><path fill="#000000" d="M 366.660156 530.664062 C 376.460938 513.511719 446.148438 532.941406 548.871094 579.402344 C 550.144531 577.417969 551.320312 575.457031 552.742188 573.519531 C 555.699219 569.144531 558.777344 564.878906 561.980469 560.730469 C 411.96875 490.28125 306.550781 460.289062 291.726562 485.945312 C 278.324219 509.199219 341.003906 572.835938 448.304688 651.6875 C 467.296875 665.703125 487.660156 680.039062 509.222656 694.789062 C 568.03125 734.851562 635.589844 777.417969 708.78125 819.757812 C 781.972656 862.101562 852.714844 899.371094 916.769531 930.027344 C 924.414062 933.699219 931.960938 937.277344 939.410156 940.757812 C 1084.816406 1008.757812 1191.308594 1040.023438 1206.378906 1014 C 1221.449219 987.976562 1142.105469 911.722656 1006.550781 817.355469 C 1003.625 824.414062 1000.417969 831.308594 996.921875 838.039062 C 1088.269531 903.609375 1140.121094 954.332031 1130.21875 971.484375 C 1119.707031 989.691406 1042.644531 966.585938 934.3125 916.5 C 926.472656 912.871094 918.484375 909.117188 910.347656 905.226562 C 852.324219 877.488281 786.679688 842.867188 718.238281 803.367188 C 640.246094 758.328125 569.550781 713.242188 512.261719 672.835938 C 508.167969 669.941406 504.125 667.074219 500.179688 664.234375 C 410.007812 599.542969 356.589844 548.085938 366.660156 530.664062 Z M 366.660156 530.664062 " fill-opacity="1" fill-rule="nonzero"/><path fill="#ffffff" d="M 822.039062 513.78125 C 821.234375 513.566406 820.457031 513.277344 819.707031 512.914062 C 818.960938 512.546875 818.253906 512.113281 817.59375 511.605469 C 816.929688 511.101562 816.324219 510.539062 815.773438 509.914062 C 815.222656 509.289062 814.738281 508.617188 814.320312 507.898438 C 813.902344 507.179688 813.558594 506.425781 813.289062 505.636719 C 813.019531 504.847656 812.828125 504.042969 812.714844 503.21875 C 812.605469 502.394531 812.574219 501.566406 812.628906 500.734375 C 812.679688 499.902344 812.8125 499.085938 813.027344 498.28125 C 813.238281 497.476562 813.527344 496.699219 813.894531 495.953125 C 814.261719 495.203125 814.695312 494.5 815.203125 493.839844 C 815.707031 493.175781 816.273438 492.570312 816.898438 492.019531 C 817.519531 491.46875 818.191406 490.984375 818.914062 490.566406 C 819.632812 490.148438 820.386719 489.804688 821.175781 489.535156 C 821.960938 489.265625 822.769531 489.074219 823.59375 488.964844 C 824.417969 488.855469 825.246094 488.824219 826.078125 488.878906 C 826.910156 488.929688 827.726562 489.0625 828.53125 489.277344 C 848.660156 494.683594 867.746094 502.597656 885.796875 513.019531 C 886.511719 513.433594 887.183594 513.910156 887.804688 514.449219 C 888.429688 514.992188 888.992188 515.59375 889.496094 516.246094 C 890.003906 516.898438 890.4375 517.597656 890.804688 518.335938 C 891.175781 519.078125 891.464844 519.84375 891.683594 520.640625 C 891.898438 521.4375 892.035156 522.25 892.089844 523.074219 C 892.148438 523.898438 892.121094 524.71875 892.015625 525.539062 C 891.910156 526.359375 891.726562 527.160156 891.460938 527.941406 C 891.199219 528.726562 890.863281 529.476562 890.449219 530.191406 C 890.039062 530.910156 889.5625 531.578125 889.019531 532.199219 C 888.476562 532.824219 887.875 533.386719 887.222656 533.890625 C 886.566406 534.394531 885.871094 534.832031 885.128906 535.195312 C 884.390625 535.5625 883.621094 535.855469 882.824219 536.070312 C 882.027344 536.285156 881.214844 536.421875 880.390625 536.476562 C 879.566406 536.53125 878.746094 536.507812 877.925781 536.398438 C 877.105469 536.292969 876.304688 536.109375 875.523438 535.84375 C 874.738281 535.578125 873.992188 535.242188 873.273438 534.828125 C 857.117188 525.566406 840.039062 518.550781 822.039062 513.78125 Z M 822.039062 513.78125 " fill-opacity="1" fill-rule="nonzero"/><path fill="#ffffff" d="M 906.746094 558.792969 C 906.125 558.25 905.5625 557.652344 905.058594 556.996094 C 904.554688 556.339844 904.121094 555.644531 903.753906 554.902344 C 903.386719 554.164062 903.097656 553.394531 902.878906 552.597656 C 902.664062 551.800781 902.53125 550.988281 902.476562 550.164062 C 902.421875 549.339844 902.445312 548.519531 902.554688 547.699219 C 902.660156 546.878906 902.84375 546.078125 903.109375 545.296875 C 903.375 544.511719 903.710938 543.765625 904.125 543.046875 C 904.535156 542.332031 905.015625 541.664062 905.558594 541.042969 C 906.101562 540.417969 906.703125 539.855469 907.355469 539.351562 C 908.011719 538.847656 908.707031 538.414062 909.449219 538.046875 C 910.1875 537.679688 910.957031 537.390625 911.753906 537.175781 C 912.554688 536.960938 913.363281 536.824219 914.1875 536.769531 C 915.011719 536.714844 915.835938 536.742188 916.652344 536.847656 C 917.472656 536.953125 918.273438 537.140625 919.054688 537.402344 C 919.839844 537.667969 920.589844 538.007812 921.304688 538.417969 C 922.019531 538.832031 922.6875 539.308594 923.3125 539.851562 C 932.144531 547.5625 940.359375 555.882812 947.960938 564.808594 C 955.5625 573.734375 962.464844 583.171875 968.667969 593.121094 C 974.871094 603.074219 980.304688 613.425781 984.972656 624.179688 C 989.644531 634.933594 993.496094 645.972656 996.527344 657.300781 C 996.742188 658.097656 996.875 658.910156 996.929688 659.738281 C 996.980469 660.5625 996.953125 661.386719 996.84375 662.207031 C 996.734375 663.027344 996.546875 663.828125 996.28125 664.613281 C 996.011719 665.394531 995.671875 666.144531 995.257812 666.863281 C 994.84375 667.578125 994.363281 668.246094 993.816406 668.867188 C 993.269531 669.488281 992.667969 670.050781 992.011719 670.554688 C 991.351562 671.058594 990.652344 671.492188 989.910156 671.855469 C 989.167969 672.222656 988.394531 672.511719 987.597656 672.722656 C 986.796875 672.9375 985.984375 673.070312 985.160156 673.125 C 984.332031 673.175781 983.507812 673.148438 982.6875 673.039062 C 981.867188 672.929688 981.066406 672.742188 980.285156 672.476562 C 979.5 672.207031 978.75 671.867188 978.035156 671.453125 C 977.320312 671.039062 976.648438 670.558594 976.027344 670.011719 C 975.40625 669.464844 974.84375 668.863281 974.339844 668.207031 C 973.839844 667.546875 973.402344 666.847656 973.039062 666.105469 C 972.675781 665.363281 972.386719 664.59375 972.171875 663.792969 C 969.453125 653.671875 966.007812 643.804688 961.832031 634.195312 C 957.65625 624.582031 952.796875 615.328125 947.253906 606.433594 C 941.714844 597.542969 935.546875 589.101562 928.761719 581.121094 C 921.972656 573.136719 914.632812 565.695312 906.746094 558.792969 Z M 906.746094 558.792969 " fill-opacity="1" fill-rule="nonzero"/><g transform="matrix(1, 0, 0, 1, 47, 645)"><g clip-path="url(#c2d46480a3)"><g fill="#ffffff" fill-opacity="1"><g transform="translate(0.306295, 167.399401)"><g><path d="M 76.449219 -137.160156 C 96.84375 -137.160156 113.0625 -131.984375 125.105469 -121.636719 C 137.324219 -111.128906 143.4375 -96.257812 143.4375 -77.019531 L 143.4375 -72.976562 L 95.226562 -72.976562 L 95.226562 -77.019531 C 95.226562 -83.589844 93.578125 -88.710938 90.273438 -92.382812 C 87.082031 -95.925781 82.410156 -97.699219 76.257812 -97.699219 C 69.109375 -97.699219 63.945312 -95.574219 60.757812 -91.328125 C 57.304688 -86.722656 55.578125 -80.113281 55.578125 -71.503906 L 55.578125 -59.332031 C 55.578125 -50.839844 57.308594 -44.257812 60.773438 -39.585938 C 63.957031 -35.285156 68.992188 -33.136719 75.878906 -33.136719 C 82.875 -33.136719 88.070312 -34.835938 91.464844 -38.230469 C 94.859375 -41.625 96.558594 -46.566406 96.558594 -53.058594 L 96.558594 -57.097656 L 143.4375 -57.097656 L 143.4375 -53.058594 C 143.4375 -33.953125 137.488281 -19.242188 125.59375 -8.925781 C 113.867188 1.238281 97.484375 6.324219 76.449219 6.324219 C 53.023438 6.324219 35.179688 0.226562 22.917969 -11.96875 C 10.648438 -24.167969 4.515625 -41.984375 4.515625 -65.417969 C 4.515625 -88.851562 10.648438 -106.667969 22.917969 -118.867188 C 35.179688 -131.0625 53.023438 -137.160156 76.449219 -137.160156 Z M 76.449219 -129.078125 C 55.246094 -129.078125 39.304688 -123.765625 28.617188 -113.136719 C 17.9375 -102.519531 12.597656 -86.613281 12.597656 -65.417969 C 12.597656 -44.226562 17.9375 -28.320312 28.617188 -17.699219 C 39.304688 -7.074219 55.246094 -1.757812 76.449219 -1.757812 C 95.472656 -1.757812 110.089844 -6.183594 120.296875 -15.035156 C 130.335938 -23.738281 135.351562 -36.410156 135.351562 -53.058594 L 139.394531 -53.058594 L 139.394531 -49.015625 L 100.601562 -49.015625 L 100.601562 -53.058594 L 104.640625 -53.058594 C 104.640625 -44.335938 102.15625 -37.488281 97.183594 -32.515625 C 92.210938 -27.542969 85.109375 -25.054688 75.878906 -25.054688 C 66.28125 -25.054688 59.082031 -28.292969 54.28125 -34.773438 C 49.757812 -40.875 47.496094 -49.0625 47.496094 -59.332031 L 47.496094 -71.503906 C 47.496094 -81.910156 49.761719 -90.136719 54.292969 -96.179688 C 59.09375 -102.582031 66.417969 -105.78125 76.257812 -105.78125 C 84.8125 -105.78125 91.484375 -103.117188 96.28125 -97.789062 C 100.96875 -92.582031 103.308594 -85.660156 103.308594 -77.019531 L 99.269531 -77.019531 L 99.269531 -81.058594 L 139.394531 -81.058594 L 139.394531 -77.019531 L 135.351562 -77.019531 C 135.351562 -93.785156 130.179688 -106.613281 119.835938 -115.507812 C 109.308594 -124.554688 94.847656 -129.078125 76.449219 -129.078125 Z M 76.449219 -129.078125 "/></g></g></g><g fill="#ffffff" fill-opacity="1"><g transform="translate(148.258355, 167.399401)"><g><path d="M 79.109375 -137.160156 C 102.742188 -137.160156 121.097656 -131.027344 134.171875 -118.761719 C 147.320312 -106.425781 153.894531 -88.644531 153.894531 -65.417969 C 153.894531 -42.191406 147.320312 -24.410156 134.171875 -12.074219 C 121.097656 0.191406 102.742188 6.324219 79.109375 6.324219 C 55.476562 6.324219 37.15625 0.222656 24.144531 -11.980469 C 11.058594 -24.253906 4.515625 -42.066406 4.515625 -65.417969 C 4.515625 -88.773438 11.058594 -106.585938 24.144531 -118.855469 C 37.15625 -131.058594 55.476562 -137.160156 79.109375 -137.160156 Z M 79.109375 -129.078125 C 57.609375 -129.078125 41.128906 -123.707031 29.671875 -112.960938 C 18.289062 -102.285156 12.597656 -86.4375 12.597656 -65.417969 C 12.597656 -44.398438 18.289062 -28.550781 29.671875 -17.875 C 41.128906 -7.132812 57.609375 -1.757812 79.109375 -1.757812 C 100.613281 -1.757812 117.121094 -7.164062 128.640625 -17.972656 C 140.089844 -28.710938 145.8125 -44.523438 145.8125 -65.417969 C 145.8125 -86.3125 140.089844 -102.128906 128.640625 -112.867188 C 117.121094 -123.671875 100.613281 -129.078125 79.109375 -129.078125 Z M 79.109375 -97.699219 C 71.34375 -97.699219 65.519531 -95.441406 61.636719 -90.925781 C 57.597656 -86.234375 55.578125 -79.757812 55.578125 -71.503906 L 55.578125 -59.332031 C 55.578125 -51.078125 57.597656 -44.601562 61.636719 -39.910156 C 65.519531 -35.394531 71.34375 -33.136719 79.109375 -33.136719 C 86.886719 -33.136719 92.75 -35.402344 96.699219 -39.929688 C 100.789062 -44.621094 102.835938 -51.085938 102.835938 -59.332031 L 102.835938 -71.503906 C 102.835938 -79.75 100.789062 -86.21875 96.699219 -90.90625 C 92.75 -95.433594 86.886719 -97.699219 79.109375 -97.699219 Z M 79.109375 -105.78125 C 89.335938 -105.78125 97.230469 -102.59375 102.789062 -96.21875 C 108.207031 -90.007812 110.917969 -81.769531 110.917969 -71.503906 L 110.917969 -59.332031 C 110.917969 -49.066406 108.207031 -40.828125 102.789062 -34.617188 C 97.230469 -28.242188 89.335938 -25.054688 79.109375 -25.054688 C 68.875 -25.054688 61.007812 -28.25 55.507812 -34.636719 C 50.167969 -40.847656 47.496094 -49.078125 47.496094 -59.332031 L 47.496094 -71.503906 C 47.496094 -81.757812 50.167969 -89.988281 55.507812 -96.199219 C 61.007812 -102.589844 68.875 -105.78125 79.109375 -105.78125 Z M 79.109375 -105.78125 "/></g></g></g><g fill="#ffffff" fill-opacity="1"><g transform="translate(306.669752, 167.399401)"><g><path d="M 14.074219 -134.878906 L 60.140625 -134.878906 L 60.140625 -33.46875 L 56.101562 -33.46875 L 56.101562 -37.511719 L 127.269531 -37.511719 L 127.269531 4.042969 L 10.03125 4.042969 L 10.03125 -134.878906 Z M 14.074219 -126.796875 L 14.074219 -130.835938 L 18.113281 -130.835938 L 18.113281 0 L 14.074219 0 L 14.074219 -4.042969 L 123.230469 -4.042969 L 123.230469 0 L 119.1875 0 L 119.1875 -33.46875 L 123.230469 -33.46875 L 123.230469 -29.429688 L 52.058594 -29.429688 L 52.058594 -130.835938 L 56.101562 -130.835938 L 56.101562 -126.796875 Z M 14.074219 -126.796875 "/></g></g></g><g fill="#ffffff" fill-opacity="1"><g transform="translate(433.512964, 167.399401)"><g><path d="M 14.074219 -134.878906 L 60.140625 -134.878906 L 60.140625 -33.46875 L 56.101562 -33.46875 L 56.101562 -37.511719 L 127.269531 -37.511719 L 127.269531 4.042969 L 10.03125 4.042969 L 10.03125 -134.878906 Z M 14.074219 -126.796875 L 14.074219 -130.835938 L 18.113281 -130.835938 L 18.113281 0 L 14.074219 0 L 14.074219 -4.042969 L 123.230469 -4.042969 L 123.230469 0 L 119.1875 0 L 119.1875 -33.46875 L 123.230469 -33.46875 L 123.230469 -29.429688 L 52.058594 -29.429688 L 52.058594 -130.835938 L 56.101562 -130.835938 L 56.101562 -126.796875 Z M 14.074219 -126.796875 "/></g></g></g><g fill="#ffffff" fill-opacity="1"><g transform="translate(560.356145, 167.399401)"><g><path d="M 97.867188 1.15625 L 92.355469 -17.289062 L 96.226562 -18.445312 L 96.226562 -14.40625 L 50.394531 -14.40625 L 50.394531 -18.445312 L 54.265625 -17.289062 L 47.890625 4.042969 L -3.875 4.042969 L 46.808594 -134.878906 L 101.335938 -134.878906 L 152.015625 4.042969 L 98.730469 4.042969 Z M 105.613281 -1.15625 L 101.742188 0 L 101.742188 -4.042969 L 146.242188 -4.042969 L 146.242188 0 L 142.445312 1.386719 L 94.710938 -129.453125 L 98.507812 -130.835938 L 98.507812 -126.796875 L 49.632812 -126.796875 L 49.632812 -130.835938 L 53.429688 -129.453125 L 5.699219 1.386719 L 1.902344 0 L 1.902344 -4.042969 L 44.878906 -4.042969 L 44.878906 0 L 41.007812 -1.15625 L 47.386719 -22.488281 L 99.234375 -22.488281 Z M 59.144531 -51.773438 L 87.476562 -51.773438 L 87.476562 -47.734375 L 83.601562 -46.59375 L 69.910156 -93.183594 L 73.785156 -94.324219 L 73.785156 -90.28125 L 73.023438 -90.28125 L 73.023438 -94.324219 L 76.898438 -93.171875 L 63.015625 -46.578125 L 59.144531 -47.734375 Z M 53.722656 -43.691406 L 70.011719 -98.367188 L 76.808594 -98.367188 L 92.878906 -43.691406 Z M 53.722656 -43.691406 "/></g></g></g><g fill="#ffffff" fill-opacity="1"><g transform="translate(708.308251, 167.399401)"><g><path d="M 93.421875 -97.367188 L 93.421875 4.042969 L 43.3125 4.042969 L 43.3125 -97.367188 L 47.351562 -97.367188 L 47.351562 -93.324219 L 0.332031 -93.324219 L 0.332031 -134.878906 L 136.210938 -134.878906 L 136.210938 -93.324219 L 89.378906 -93.324219 L 89.378906 -97.367188 Z M 85.339844 -101.410156 L 132.167969 -101.410156 L 132.167969 -97.367188 L 128.125 -97.367188 L 128.125 -130.835938 L 132.167969 -130.835938 L 132.167969 -126.796875 L 4.375 -126.796875 L 4.375 -130.835938 L 8.414062 -130.835938 L 8.414062 -97.367188 L 4.375 -97.367188 L 4.375 -101.410156 L 51.394531 -101.410156 L 51.394531 0 L 47.351562 0 L 47.351562 -4.042969 L 89.378906 -4.042969 L 89.378906 0 L 85.339844 0 Z M 85.339844 -101.410156 "/></g></g></g><g fill="#ffffff" fill-opacity="1"><g transform="translate(845.61077, 167.399401)"><g><path d="M 14.074219 -134.878906 L 131.265625 -134.878906 L 131.265625 -95.417969 L 56.101562 -95.417969 L 56.101562 -99.457031 L 60.140625 -99.457031 L 60.140625 -81.394531 L 56.101562 -81.394531 L 56.101562 -85.433594 L 120.996094 -85.433594 L 120.996094 -47.304688 L 56.101562 -47.304688 L 56.101562 -51.347656 L 60.140625 -51.347656 L 60.140625 -31.378906 L 56.101562 -31.378906 L 56.101562 -35.417969 L 132.597656 -35.417969 L 132.597656 4.042969 L 10.03125 4.042969 L 10.03125 -134.878906 Z M 14.074219 -126.796875 L 14.074219 -130.835938 L 18.113281 -130.835938 L 18.113281 0 L 14.074219 0 L 14.074219 -4.042969 L 128.554688 -4.042969 L 128.554688 0 L 124.511719 0 L 124.511719 -31.378906 L 128.554688 -31.378906 L 128.554688 -27.335938 L 52.058594 -27.335938 L 52.058594 -55.386719 L 116.953125 -55.386719 L 116.953125 -51.347656 L 112.914062 -51.347656 L 112.914062 -81.394531 L 116.953125 -81.394531 L 116.953125 -77.351562 L 52.058594 -77.351562 L 52.058594 -103.5 L 127.222656 -103.5 L 127.222656 -99.457031 L 123.183594 -99.457031 L 123.183594 -130.835938 L 127.222656 -130.835938 L 127.222656 -126.796875 Z M 14.074219 -126.796875 "/></g></g></g><g fill="#ffffff" fill-opacity="1"><g transform="translate(982.91335, 167.399401)"><g><path d="M 142.292969 -90.710938 C 142.292969 -81.90625 139.914062 -73.933594 135.148438 -66.789062 C 130.351562 -59.59375 123.421875 -54.324219 114.359375 -50.976562 L 112.960938 -54.769531 L 116.53125 -56.664062 L 148.78125 4.042969 L 92.367188 4.042969 L 68.058594 -45.964844 L 71.695312 -47.734375 L 71.695312 -43.691406 L 56.101562 -43.691406 L 56.101562 -47.734375 L 60.140625 -47.734375 L 60.140625 4.042969 L 10.03125 4.042969 L 10.03125 -134.878906 L 94.132812 -134.878906 C 104.199219 -134.878906 112.863281 -132.910156 120.117188 -128.96875 C 127.472656 -124.976562 133.019531 -119.558594 136.761719 -112.710938 C 140.449219 -105.960938 142.292969 -98.625 142.292969 -90.710938 Z M 134.210938 -90.710938 C 134.210938 -97.25 132.699219 -103.292969 129.667969 -108.835938 C 126.6875 -114.289062 122.21875 -118.632812 116.261719 -121.867188 C 110.207031 -125.152344 102.832031 -126.796875 94.132812 -126.796875 L 14.074219 -126.796875 L 14.074219 -130.835938 L 18.113281 -130.835938 L 18.113281 0 L 14.074219 0 L 14.074219 -4.042969 L 56.101562 -4.042969 L 56.101562 0 L 52.058594 0 L 52.058594 -51.773438 L 74.222656 -51.773438 L 98.53125 -1.765625 L 94.894531 0 L 94.894531 -4.042969 L 142.058594 -4.042969 L 142.058594 0 L 138.488281 1.894531 L 107.222656 -56.957031 L 111.5625 -58.558594 C 118.980469 -61.300781 124.601562 -65.535156 128.425781 -71.273438 C 132.28125 -77.058594 134.210938 -83.539062 134.210938 -90.710938 Z M 91.425781 -89 C 91.425781 -91.304688 90.675781 -93.207031 89.183594 -94.699219 C 87.691406 -96.191406 85.855469 -96.9375 83.675781 -96.9375 L 56.101562 -96.9375 L 56.101562 -100.980469 L 60.140625 -100.980469 L 60.140625 -76.828125 L 56.101562 -76.828125 L 56.101562 -80.871094 L 83.675781 -80.871094 C 85.832031 -80.871094 87.65625 -81.636719 89.144531 -83.164062 C 90.664062 -84.726562 91.425781 -86.671875 91.425781 -89 Z M 99.507812 -89 C 99.507812 -84.480469 97.984375 -80.660156 94.9375 -77.527344 C 91.863281 -74.367188 88.109375 -72.789062 83.675781 -72.789062 L 52.058594 -72.789062 L 52.058594 -105.019531 L 83.675781 -105.019531 C 88.085938 -105.019531 91.828125 -103.484375 94.898438 -100.414062 C 97.972656 -97.34375 99.507812 -93.539062 99.507812 -89 Z M 99.507812 -89 "/></g></g></g><g fill="#ffffff" fill-opacity="1"><g transform="translate(1130.865395, 167.399401)"><g><path d="M 97.867188 1.15625 L 92.355469 -17.289062 L 96.226562 -18.445312 L 96.226562 -14.40625 L 50.394531 -14.40625 L 50.394531 -18.445312 L 54.265625 -17.289062 L 47.890625 4.042969 L -3.875 4.042969 L 46.808594 -134.878906 L 101.335938 -134.878906 L 152.015625 4.042969 L 98.730469 4.042969 Z M 105.613281 -1.15625 L 101.742188 0 L 101.742188 -4.042969 L 146.242188 -4.042969 L 146.242188 0 L 142.445312 1.386719 L 94.710938 -129.453125 L 98.507812 -130.835938 L 98.507812 -126.796875 L 49.632812 -126.796875 L 49.632812 -130.835938 L 53.429688 -129.453125 L 5.699219 1.386719 L 1.902344 0 L 1.902344 -4.042969 L 44.878906 -4.042969 L 44.878906 0 L 41.007812 -1.15625 L 47.386719 -22.488281 L 99.234375 -22.488281 Z M 59.144531 -51.773438 L 87.476562 -51.773438 L 87.476562 -47.734375 L 83.601562 -46.59375 L 69.910156 -93.183594 L 73.785156 -94.324219 L 73.785156 -90.28125 L 73.023438 -90.28125 L 73.023438 -94.324219 L 76.898438 -93.171875 L 63.015625 -46.578125 L 59.144531 -47.734375 Z M 53.722656 -43.691406 L 70.011719 -98.367188 L 76.808594 -98.367188 L 92.878906 -43.691406 Z M 53.722656 -43.691406 "/></g></g></g><g fill="#ffffff" fill-opacity="1"><g transform="translate(1278.8175, 167.399401)"><g><path d="M 14.074219 -134.878906 L 60.140625 -134.878906 L 60.140625 -33.46875 L 56.101562 -33.46875 L 56.101562 -37.511719 L 127.269531 -37.511719 L 127.269531 4.042969 L 10.03125 4.042969 L 10.03125 -134.878906 Z M 14.074219 -126.796875 L 14.074219 -130.835938 L 18.113281 -130.835938 L 18.113281 0 L 14.074219 0 L 14.074219 -4.042969 L 123.230469 -4.042969 L 123.230469 0 L 119.1875 0 L 119.1875 -33.46875 L 123.230469 -33.46875 L 123.230469 -29.429688 L 52.058594 -29.429688 L 52.058594 -130.835938 L 56.101562 -130.835938 L 56.101562 -126.796875 Z M 14.074219 -126.796875 "/></g></g></g><g fill="#000000" fill-opacity="1"><g transform="translate(0.306295, 167.399401)"><g><path d="M 76.453125 -133.125 C 95.847656 -133.125 111.1875 -128.273438 122.46875 -118.578125 C 133.75 -108.878906 139.390625 -95.023438 139.390625 -77.015625 L 99.265625 -77.015625 C 99.265625 -84.628906 97.265625 -90.648438 93.265625 -95.078125 C 89.273438 -99.515625 83.609375 -101.734375 76.265625 -101.734375 C 67.765625 -101.734375 61.515625 -99.070312 57.515625 -93.75 C 53.523438 -88.425781 51.53125 -81.007812 51.53125 -71.5 L 51.53125 -59.328125 C 51.53125 -49.953125 53.523438 -42.566406 57.515625 -37.171875 C 61.515625 -31.785156 67.632812 -29.09375 75.875 -29.09375 C 83.988281 -29.09375 90.132812 -31.179688 94.3125 -35.359375 C 98.5 -39.546875 100.59375 -45.445312 100.59375 -53.0625 L 139.390625 -53.0625 C 139.390625 -35.1875 133.90625 -21.492188 122.9375 -11.984375 C 111.976562 -2.472656 96.484375 2.28125 76.453125 2.28125 C 54.140625 2.28125 37.242188 -3.421875 25.765625 -14.828125 C 14.296875 -26.242188 8.5625 -43.109375 8.5625 -65.421875 C 8.5625 -87.734375 14.296875 -104.59375 25.765625 -116 C 37.242188 -127.414062 54.140625 -133.125 76.453125 -133.125 Z M 76.453125 -133.125 "/></g></g></g><g fill="#000000" fill-opacity="1"><g transform="translate(148.258355, 167.399401)"><g><path d="M 79.109375 -133.125 C 101.679688 -133.125 119.113281 -127.351562 131.40625 -115.8125 C 143.707031 -104.28125 149.859375 -87.484375 149.859375 -65.421875 C 149.859375 -43.359375 143.707031 -26.554688 131.40625 -15.015625 C 119.113281 -3.484375 101.679688 2.28125 79.109375 2.28125 C 56.546875 2.28125 39.144531 -3.453125 26.90625 -14.921875 C 14.675781 -26.398438 8.5625 -43.234375 8.5625 -65.421875 C 8.5625 -87.609375 14.675781 -104.4375 26.90625 -115.90625 C 39.144531 -127.382812 56.546875 -133.125 79.109375 -133.125 Z M 79.109375 -101.734375 C 70.109375 -101.734375 63.257812 -99.007812 58.5625 -93.5625 C 53.875 -88.113281 51.53125 -80.757812 51.53125 -71.5 L 51.53125 -59.328125 C 51.53125 -50.078125 53.875 -42.722656 58.5625 -37.265625 C 63.257812 -31.816406 70.109375 -29.09375 79.109375 -29.09375 C 88.109375 -29.09375 94.984375 -31.816406 99.734375 -37.265625 C 104.492188 -42.722656 106.875 -50.078125 106.875 -59.328125 L 106.875 -71.5 C 106.875 -80.757812 104.492188 -88.113281 99.734375 -93.5625 C 94.984375 -99.007812 88.109375 -101.734375 79.109375 -101.734375 Z M 79.109375 -101.734375 "/></g></g></g><g fill="#000000" fill-opacity="1"><g transform="translate(306.669752, 167.399401)"><g><path d="M 14.078125 -130.84375 L 56.09375 -130.84375 L 56.09375 -33.46875 L 123.234375 -33.46875 L 123.234375 0 L 14.078125 0 Z M 14.078125 -130.84375 "/></g></g></g><g fill="#000000" fill-opacity="1"><g transform="translate(433.512964, 167.399401)"><g><path d="M 14.078125 -130.84375 L 56.09375 -130.84375 L 56.09375 -33.46875 L 123.234375 -33.46875 L 123.234375 0 L 14.078125 0 Z M 14.078125 -130.84375 "/></g></g></g><g fill="#000000" fill-opacity="1"><g transform="translate(560.356145, 167.399401)"><g><path d="M 101.734375 0 L 96.234375 -18.453125 L 50.390625 -18.453125 L 44.875 0 L 1.90625 0 L 49.640625 -130.84375 L 98.515625 -130.84375 L 146.25 0 Z M 59.140625 -47.734375 L 87.484375 -47.734375 L 73.78125 -94.328125 L 73.03125 -94.328125 Z M 59.140625 -47.734375 "/></g></g></g><g fill="#000000" fill-opacity="1"><g transform="translate(708.308251, 167.399401)"><g><path d="M 89.375 -97.375 L 89.375 0 L 47.359375 0 L 47.359375 -97.375 L 4.375 -97.375 L 4.375 -130.84375 L 132.171875 -130.84375 L 132.171875 -97.375 Z M 89.375 -97.375 "/></g></g></g><g fill="#000000" fill-opacity="1"><g transform="translate(845.61077, 167.399401)"><g><path d="M 14.078125 -130.84375 L 127.21875 -130.84375 L 127.21875 -99.453125 L 56.09375 -99.453125 L 56.09375 -81.390625 L 116.953125 -81.390625 L 116.953125 -51.34375 L 56.09375 -51.34375 L 56.09375 -31.375 L 128.5625 -31.375 L 128.5625 0 L 14.078125 0 Z M 14.078125 -130.84375 "/></g></g></g><g fill="#000000" fill-opacity="1"><g transform="translate(982.91335, 167.399401)"><g><path d="M 138.25 -90.71875 C 138.25 -82.726562 136.09375 -75.5 131.78125 -69.03125 C 127.476562 -62.5625 121.207031 -57.804688 112.96875 -54.765625 L 142.0625 0 L 94.890625 0 L 71.6875 -47.734375 L 56.09375 -47.734375 L 56.09375 0 L 14.078125 0 L 14.078125 -130.84375 L 94.140625 -130.84375 C 103.515625 -130.84375 111.53125 -129.035156 118.1875 -125.421875 C 124.84375 -121.804688 129.847656 -116.921875 133.203125 -110.765625 C 136.566406 -104.617188 138.25 -97.9375 138.25 -90.71875 Z M 95.46875 -89 C 95.46875 -92.425781 94.328125 -95.28125 92.046875 -97.5625 C 89.765625 -99.84375 86.972656 -100.984375 83.671875 -100.984375 L 56.09375 -100.984375 L 56.09375 -76.828125 L 83.671875 -76.828125 C 86.972656 -76.828125 89.765625 -78 92.046875 -80.34375 C 94.328125 -82.6875 95.46875 -85.570312 95.46875 -89 Z M 95.46875 -89 "/></g></g></g><g fill="#000000" fill-opacity="1"><g transform="translate(1130.865395, 167.399401)"><g><path d="M 101.734375 0 L 96.234375 -18.453125 L 50.390625 -18.453125 L 44.875 0 L 1.90625 0 L 49.640625 -130.84375 L 98.515625 -130.84375 L 146.25 0 Z M 59.140625 -47.734375 L 87.484375 -47.734375 L 73.78125 -94.328125 L 73.03125 -94.328125 Z M 59.140625 -47.734375 "/></g></g></g><g fill="#000000" fill-opacity="1"><g transform="translate(1278.8175, 167.399401)"><g><path d="M 14.078125 -130.84375 L 56.09375 -130.84375 L 56.09375 -33.46875 L 123.234375 -33.46875 L 123.234375 0 L 14.078125 0 Z M 14.078125 -130.84375 "/></g></g></g></g></g></svg>