<svg viewBox="0 0 100 100" xmlns="http://www.w3.org/2000/svg">
    <!-- Left Woven Chevron -->
    <path d="M 53.000,6.828 Q 53.000,2.000 49.586,5.414 L 13.414,41.586 Q 10.000,45.000 14.828,45.000 L 18.000,45.000 Q 20.000,45.000 20.000,47.000 L 20.000,53.000 Q 20.000,55.000 18.000,55.000 L 14.828,55.000 Q 10.000,55.000 13.414,58.414 L 41.586,86.586 Q 45.000,90.000 45.000,85.172 L 45.000,67.828 Q 45.000,67.000 44.414,66.414 L 29.414,51.414 Q 28.000,50.000 29.414,48.586 L 52.414,25.586 Q 53.000,25.000 53.000,24.172 Z" fill="#5C1414"/>
    <!-- Right Woven Chevron -->
    <path d="M 55.000,14.828 Q 55.000,10.000 58.414,13.414 L 86.586,41.586 Q 90.000,45.000 85.172,45.000 L 82.000,45.000 Q 80.000,45.000 80.000,47.000 L 80.000,53.000 Q 80.000,55.000 82.000,55.000 L 85.172,55.000 Q 90.000,55.000 86.586,58.414 L 50.414,94.586 Q 47.000,98.000 47.000,93.172 L 47.000,75.828 Q 47.000,75.000 47.586,74.414 L 70.586,51.414 Q 72.000,50.000 70.586,48.586 L 55.586,33.586 Q 55.000,33.000 55.000,32.172 Z" fill="#5C1414"/>
</svg>
