<svg viewBox="0 0 100 100" xmlns="http://www.w3.org/2000/svg">
  <defs>
    <!-- Clip region covering the bottom crossing area -->
    <clipPath id="bc">
      <rect x="38" y="44" width="24" height="24"/>
    </clipPath>
  </defs>

  <!-- Layer 1: Full left diamond ring -->
  <path d="M 31.46,28.54 Q 35,25 38.54,28.54 L 56.46,46.46 Q 60,50 56.46,53.54 L 38.54,71.46 Q 35,75 31.46,71.46 L 13.54,53.54 Q 10,50 13.54,46.46 Z M 33.59,37.41 Q 35,36 36.41,37.41 L 47.59,48.59 Q 49,50 47.59,51.41 L 36.41,62.59 Q 35,64 33.59,62.59 L 22.41,51.41 Q 21,50 22.41,48.59 Z" fill="#501113" fill-rule="evenodd"/>

  <!-- Layer 2: Full right diamond ring (draws over left at top crossing) -->
  <path d="M 61.46,28.54 Q 65,25 68.54,28.54 L 86.46,46.46 Q 90,50 86.46,53.54 L 68.54,71.46 Q 65,75 61.46,71.46 L 43.54,53.54 Q 40,50 43.54,46.46 Z M 63.59,37.41 Q 65,36 66.41,37.41 L 77.59,48.59 Q 79,50 77.59,51.41 L 66.41,62.59 Q 65,64 63.59,62.59 L 52.41,51.41 Q 51,50 52.41,48.59 Z" fill="#501113" fill-rule="evenodd"/>

  <!-- Layer 3: Left ring clipped to bottom crossing (draws over right at bottom) -->
  <path d="M 31.46,28.54 Q 35,25 38.54,28.54 L 56.46,46.46 Q 60,50 56.46,53.54 L 38.54,71.46 Q 35,75 31.46,71.46 L 13.54,53.54 Q 10,50 13.54,46.46 Z M 33.59,37.41 Q 35,36 36.41,37.41 L 47.59,48.59 Q 49,50 47.59,51.41 L 36.41,62.59 Q 35,64 33.59,62.59 L 22.41,51.41 Q 21,50 22.41,48.59 Z" fill="#501113" fill-rule="evenodd" clip-path="url(#bc)"/>
</svg>
