<svg viewBox="0 0 100 100" xmlns="http://www.w3.org/2000/svg">
    <!-- Left Woven Chevron -->
    <path d="M 50.000,9.828 Q 50.000,5.000 46.586,8.414 L 13.414,41.586 Q 10.000,45.000 14.828,45.000 L 18.000,45.000 Q 20.000,45.000 20.000,47.000 L 20.000,53.000 Q 20.000,55.000 18.000,55.000 L 14.828,55.000 Q 10.000,55.000 13.414,58.414 L 35.086,80.086 Q 36.500,81.500 37.914,80.086 L 46.586,71.414 Q 48.000,70.000 46.586,68.586 L 29.414,51.414 Q 28.000,50.000 29.414,48.586 L 49.414,28.586 Q 50.000,28.000 50.000,27.172 Z" fill="#5C1414"/>
    <!-- Right Woven Chevron -->
    <path d="M 50.000,90.172 Q 50.000,95.000 53.414,91.586 L 86.586,58.414 Q 90.000,55.000 85.172,55.000 L 82.000,55.000 Q 80.000,55.000 80.000,53.000 L 80.000,47.000 Q 80.000,45.000 82.000,45.000 L 85.172,45.000 Q 90.000,45.000 86.586,41.586 L 64.914,19.914 Q 63.500,18.500 62.086,19.914 L 53.414,28.586 Q 52.000,30.000 53.414,31.414 L 70.586,48.586 Q 72.000,50.000 70.586,51.414 L 50.586,71.414 Q 50.000,72.000 50.000,72.828 Z" fill="#5C1414"/>
</svg>
