<svg xmlns="http://www.w3.org/2000/svg" xmlns:xlink="http://www.w3.org/1999/xlink" width="2750" zoomAndPan="magnify" viewBox="0 580 2062.5 560" height="560" preserveAspectRatio="xMidYMid meet" version="1.0"><defs><g/><clipPath id="ea5e29197b"><path d="M 0.0546875 0 L 2061.945312 0 L 2061.945312 1687 L 0.0546875 1687 Z M 0.0546875 0 " clip-rule="nonzero"/></clipPath><clipPath id="f09598730e"><rect x="0" width="1258" y="0" height="187"/></clipPath></defs><path fill="#752122" d="M 452.453125 601.257812 C 455.988281 601.257812 459.523438 601.34375 463.058594 601.515625 C 466.589844 601.6875 470.117188 601.949219 473.636719 602.296875 C 477.160156 602.640625 480.667969 603.074219 484.167969 603.59375 C 487.667969 604.113281 491.152344 604.714844 494.621094 605.40625 C 498.089844 606.097656 501.542969 606.871094 504.972656 607.730469 C 508.40625 608.589844 511.8125 609.53125 515.199219 610.558594 C 518.585938 611.585938 521.941406 612.695312 525.273438 613.886719 C 528.605469 615.078125 531.902344 616.347656 535.171875 617.703125 C 538.441406 619.054688 541.675781 620.488281 544.871094 622 C 548.070312 623.515625 551.230469 625.105469 554.347656 626.769531 C 557.46875 628.4375 560.546875 630.179688 563.582031 632 C 566.617188 633.816406 569.601562 635.710938 572.542969 637.675781 C 575.484375 639.640625 578.378906 641.675781 581.21875 643.78125 C 584.0625 645.890625 586.847656 648.066406 589.582031 650.308594 C 592.320312 652.554688 594.996094 654.863281 597.617188 657.238281 C 600.238281 659.613281 602.800781 662.054688 605.300781 664.554688 C 607.804688 667.054688 610.242188 669.617188 612.617188 672.238281 C 614.996094 674.859375 617.304688 677.535156 619.550781 680.269531 C 621.792969 683.003906 623.96875 685.792969 626.078125 688.632812 C 628.183594 691.476562 630.222656 694.367188 632.1875 697.308594 C 634.152344 700.25 636.042969 703.238281 637.863281 706.269531 C 639.683594 709.304688 641.425781 712.382812 643.09375 715.5 C 644.761719 718.621094 646.351562 721.78125 647.863281 724.976562 C 649.378906 728.175781 650.8125 731.410156 652.164062 734.675781 C 653.519531 737.945312 654.792969 741.246094 655.984375 744.574219 C 657.175781 747.90625 658.285156 751.261719 659.3125 754.648438 C 660.339844 758.035156 661.28125 761.441406 662.144531 764.875 C 663.003906 768.304688 663.777344 771.753906 664.46875 775.226562 C 665.160156 778.695312 665.761719 782.179688 666.28125 785.679688 C 666.800781 789.179688 667.234375 792.6875 667.582031 796.207031 C 667.929688 799.730469 668.1875 803.253906 668.363281 806.789062 C 668.535156 810.320312 668.625 813.859375 668.625 817.394531 C 668.625 820.933594 668.539062 824.46875 668.363281 828 C 668.191406 831.535156 667.929688 835.0625 667.585938 838.582031 C 667.238281 842.101562 666.804688 845.613281 666.285156 849.113281 C 665.769531 852.613281 665.164062 856.097656 664.472656 859.566406 C 663.785156 863.035156 663.007812 866.484375 662.148438 869.917969 C 661.289062 873.347656 660.347656 876.757812 659.320312 880.144531 C 658.292969 883.527344 657.183594 886.886719 655.992188 890.21875 C 654.800781 893.546875 653.527344 896.847656 652.175781 900.117188 C 650.820312 903.382812 649.386719 906.617188 647.875 909.816406 C 646.363281 913.011719 644.773438 916.171875 643.105469 919.292969 C 641.4375 922.410156 639.695312 925.488281 637.878906 928.523438 C 636.058594 931.558594 634.167969 934.546875 632.203125 937.488281 C 630.238281 940.429688 628.199219 943.320312 626.09375 946.160156 C 623.984375 949.003906 621.8125 951.792969 619.566406 954.527344 C 617.324219 957.261719 615.011719 959.9375 612.636719 962.558594 C 610.261719 965.179688 607.824219 967.742188 605.320312 970.246094 C 602.820312 972.746094 600.257812 975.183594 597.636719 977.558594 C 595.015625 979.9375 592.339844 982.246094 589.605469 984.492188 C 586.871094 986.734375 584.082031 988.910156 581.242188 991.019531 C 578.398438 993.125 575.507812 995.160156 572.566406 997.128906 C 569.625 999.09375 566.636719 1000.984375 563.605469 1002.804688 C 560.570312 1004.621094 557.492188 1006.367188 554.375 1008.035156 C 551.253906 1009.703125 548.09375 1011.292969 544.898438 1012.804688 C 541.699219 1014.316406 538.464844 1015.75 535.199219 1017.105469 C 531.929688 1018.457031 528.628906 1019.730469 525.300781 1020.921875 C 521.96875 1022.113281 518.609375 1023.222656 515.226562 1024.25 C 511.839844 1025.277344 508.433594 1026.222656 505 1027.082031 C 501.570312 1027.941406 498.117188 1028.714844 494.648438 1029.40625 C 491.179688 1030.097656 487.695312 1030.703125 484.195312 1031.21875 C 480.695312 1031.738281 477.1875 1032.171875 473.664062 1032.519531 C 470.144531 1032.867188 466.617188 1033.125 463.085938 1033.300781 C 459.550781 1033.472656 456.015625 1033.5625 452.480469 1033.5625 C 448.941406 1033.5625 445.40625 1033.472656 441.871094 1033.300781 C 438.339844 1033.128906 434.8125 1032.867188 431.292969 1032.519531 C 427.769531 1032.175781 424.261719 1031.742188 420.761719 1031.222656 C 417.261719 1030.703125 413.777344 1030.097656 410.308594 1029.410156 C 406.839844 1028.71875 403.386719 1027.945312 399.957031 1027.085938 C 396.523438 1026.226562 393.117188 1025.28125 389.730469 1024.253906 C 386.347656 1023.226562 382.988281 1022.121094 379.65625 1020.925781 C 376.328125 1019.734375 373.027344 1018.464844 369.757812 1017.109375 C 366.492188 1015.753906 363.257812 1014.324219 360.058594 1012.808594 C 356.863281 1011.296875 353.703125 1009.707031 350.582031 1008.039062 C 347.460938 1006.371094 344.386719 1004.628906 341.351562 1002.8125 C 338.316406 1000.992188 335.328125 999.101562 332.386719 997.136719 C 329.445312 995.167969 326.554688 993.132812 323.714844 991.027344 C 320.871094 988.917969 318.082031 986.742188 315.347656 984.5 C 312.613281 982.253906 309.9375 979.945312 307.316406 977.570312 C 304.695312 975.195312 302.132812 972.753906 299.632812 970.253906 C 297.128906 967.753906 294.691406 965.191406 292.316406 962.570312 C 289.941406 959.949219 287.628906 957.269531 285.386719 954.535156 C 283.140625 951.800781 280.964844 949.015625 278.859375 946.171875 C 276.75 943.332031 274.714844 940.441406 272.75 937.5 C 270.785156 934.558594 268.890625 931.570312 267.074219 928.535156 C 265.253906 925.5 263.511719 922.425781 261.84375 919.304688 C 260.175781 916.183594 258.585938 913.027344 257.074219 909.828125 C 255.5625 906.628906 254.128906 903.398438 252.773438 900.128906 C 251.421875 896.859375 250.148438 893.558594 248.957031 890.230469 C 247.765625 886.898438 246.65625 883.539062 245.628906 880.15625 C 244.601562 876.769531 243.65625 873.363281 242.796875 869.929688 C 241.9375 866.5 241.164062 863.046875 240.472656 859.578125 C 239.78125 856.109375 239.179688 852.625 238.660156 849.125 C 238.140625 845.625 237.707031 842.117188 237.359375 838.597656 C 237.015625 835.074219 236.753906 831.546875 236.578125 828.015625 C 236.40625 824.480469 236.320312 820.945312 236.320312 817.410156 C 236.320312 813.871094 236.40625 810.335938 236.578125 806.804688 C 236.753906 803.269531 237.015625 799.742188 237.359375 796.222656 C 237.707031 792.703125 238.140625 789.195312 238.660156 785.695312 C 239.179688 782.195312 239.78125 778.710938 240.472656 775.242188 C 241.164062 771.773438 241.9375 768.324219 242.796875 764.890625 C 243.65625 761.460938 244.597656 758.050781 245.625 754.667969 C 246.652344 751.28125 247.761719 747.925781 248.953125 744.59375 C 250.144531 741.261719 251.417969 737.964844 252.769531 734.695312 C 254.125 731.425781 255.558594 728.195312 257.070312 724.996094 C 258.582031 721.800781 260.171875 718.640625 261.839844 715.519531 C 263.507812 712.402344 265.25 709.324219 267.066406 706.289062 C 268.886719 703.257812 270.777344 700.269531 272.742188 697.328125 C 274.707031 694.386719 276.746094 691.496094 278.851562 688.652344 C 280.957031 685.8125 283.132812 683.023438 285.378906 680.289062 C 287.621094 677.554688 289.933594 674.878906 292.308594 672.257812 C 294.683594 669.636719 297.121094 667.074219 299.621094 664.574219 C 302.125 662.070312 304.683594 659.632812 307.304688 657.257812 C 309.925781 654.882812 312.601562 652.574219 315.335938 650.328125 C 318.070312 648.082031 320.859375 645.910156 323.699219 643.800781 C 326.542969 641.695312 329.433594 639.65625 332.375 637.691406 C 335.316406 635.726562 338.300781 633.835938 341.335938 632.015625 C 344.371094 630.195312 347.445312 628.453125 350.566406 626.785156 C 353.683594 625.117188 356.84375 623.527344 360.042969 622.015625 C 363.238281 620.503906 366.472656 619.070312 369.738281 617.714844 C 373.007812 616.363281 376.308594 615.089844 379.636719 613.898438 C 382.96875 612.707031 386.324219 611.597656 389.710938 610.570312 C 393.09375 609.542969 396.503906 608.597656 399.933594 607.738281 C 403.367188 606.878906 406.816406 606.105469 410.285156 605.414062 C 413.753906 604.722656 417.238281 604.117188 420.738281 603.597656 C 424.238281 603.078125 427.746094 602.644531 431.265625 602.300781 C 434.785156 601.953125 438.3125 601.691406 441.847656 601.519531 C 445.378906 601.34375 448.914062 601.257812 452.453125 601.257812 Z M 452.453125 601.257812 " fill-opacity="1" fill-rule="nonzero"/><path fill="#3b0001" d="M 658.25 883.695312 C 656.941406 887.757812 655.515625 891.777344 653.96875 895.757812 C 652.421875 899.734375 650.757812 903.660156 648.980469 907.539062 C 647.199219 911.417969 645.308594 915.242188 643.300781 919.007812 C 641.296875 922.777344 639.179688 926.480469 636.953125 930.121094 C 634.730469 933.765625 632.398438 937.335938 629.960938 940.839844 C 627.523438 944.34375 624.988281 947.773438 622.347656 951.125 C 619.707031 954.476562 616.96875 957.75 614.136719 960.941406 C 611.304688 964.132812 608.378906 967.238281 605.359375 970.253906 C 602.34375 973.273438 599.238281 976.199219 596.046875 979.03125 C 592.855469 981.867188 589.585938 984.605469 586.230469 987.246094 C 582.878906 989.882812 579.449219 992.421875 575.949219 994.859375 C 572.445312 997.296875 568.871094 999.628906 565.230469 1001.855469 C 561.589844 1004.082031 557.886719 1006.195312 554.117188 1008.203125 C 550.351562 1010.207031 546.53125 1012.101562 542.652344 1013.882812 C 538.773438 1015.660156 534.84375 1017.324219 530.867188 1018.871094 C 526.890625 1020.417969 522.871094 1021.847656 518.808594 1023.15625 C 514.746094 1024.464844 510.648438 1025.652344 506.515625 1026.71875 C 502.382812 1027.785156 498.222656 1028.730469 494.035156 1029.550781 C 489.847656 1030.371094 485.640625 1031.066406 481.410156 1031.636719 C 477.179688 1032.207031 472.9375 1032.652344 468.683594 1032.972656 C 464.425781 1033.292969 460.164062 1033.484375 455.898438 1033.554688 C 451.632812 1033.621094 447.367188 1033.5625 443.101562 1033.375 C 438.839844 1033.191406 434.585938 1032.878906 430.339844 1032.441406 C 426.09375 1032.003906 421.867188 1031.441406 417.652344 1030.753906 C 413.441406 1030.066406 409.253906 1029.253906 405.089844 1028.320312 C 400.925781 1027.382812 396.792969 1026.324219 392.691406 1025.144531 C 388.59375 1023.964844 384.53125 1022.664062 380.503906 1021.242188 C 376.480469 1019.820312 372.503906 1018.28125 368.570312 1016.625 C 364.636719 1014.96875 360.757812 1013.195312 356.929688 1011.308594 C 353.101562 1009.421875 349.332031 1007.425781 345.621094 1005.316406 C 341.914062 1003.203125 338.269531 1000.988281 334.691406 998.660156 C 331.113281 996.335938 327.605469 993.90625 324.171875 991.371094 C 320.738281 988.839844 317.378906 986.207031 314.101562 983.476562 C 310.824219 980.742188 307.628906 977.917969 304.519531 974.996094 C 301.40625 972.074219 298.386719 969.0625 295.453125 965.960938 C 292.519531 962.863281 289.679688 959.679688 286.9375 956.410156 C 284.191406 953.140625 281.546875 949.792969 279 946.371094 C 276.457031 942.945312 274.011719 939.445312 271.675781 935.878906 C 269.335938 932.308594 267.105469 928.671875 264.980469 924.96875 C 262.859375 921.269531 260.84375 917.507812 258.945312 913.6875 C 257.042969 909.863281 255.257812 905.992188 253.585938 902.0625 C 251.914062 898.136719 250.363281 894.164062 248.925781 890.144531 C 247.488281 886.128906 246.175781 882.070312 244.976562 877.972656 C 243.78125 873.875 242.710938 869.746094 241.757812 865.585938 C 240.808594 861.425781 239.980469 857.242188 239.277344 853.03125 C 238.574219 848.824219 237.996094 844.597656 237.542969 840.355469 C 237.089844 836.109375 236.761719 831.855469 236.5625 827.59375 C 236.359375 823.332031 236.285156 819.066406 236.335938 814.796875 C 236.386719 810.53125 236.566406 806.269531 236.871094 802.011719 C 237.171875 797.753906 237.601562 793.511719 238.160156 789.28125 C 238.714844 785.046875 239.394531 780.835938 240.199219 776.648438 C 241.003906 772.457031 241.929688 768.292969 242.980469 764.15625 C 244.035156 760.019531 245.207031 755.917969 246.5 751.851562 C 247.792969 747.785156 249.207031 743.761719 250.742188 739.777344 C 252.273438 735.792969 253.921875 731.859375 255.6875 727.976562 C 257.453125 724.089844 259.332031 720.257812 261.324219 716.484375 C 263.316406 712.710938 265.417969 709 267.632812 705.351562 C 269.84375 701.699219 272.160156 698.121094 274.585938 694.609375 C 277.011719 691.09375 279.535156 687.660156 282.164062 684.296875 C 284.792969 680.933594 287.515625 677.652344 290.339844 674.449219 C 293.160156 671.25 296.074219 668.132812 299.082031 665.105469 C 302.089844 662.078125 305.183594 659.140625 308.363281 656.292969 C 311.542969 653.449219 314.804688 650.699219 318.148438 648.046875 C 321.492188 645.394531 324.914062 642.84375 328.40625 640.394531 C 327.109375 644.429688 325.933594 648.5 324.875 652.605469 C 323.816406 656.710938 322.882812 660.84375 322.066406 665.003906 C 321.253906 669.164062 320.5625 673.34375 319.992188 677.546875 C 319.421875 681.746094 318.980469 685.960938 318.65625 690.1875 C 318.335938 694.414062 318.140625 698.648438 318.070312 702.886719 C 317.996094 707.125 318.050781 711.363281 318.226562 715.597656 C 318.402344 719.832031 318.703125 724.058594 319.128906 728.277344 C 319.554688 732.496094 320.105469 736.695312 320.777344 740.882812 C 321.449219 745.066406 322.246094 749.230469 323.164062 753.367188 C 324.082031 757.507812 325.117188 761.613281 326.277344 765.691406 C 327.4375 769.769531 328.714844 773.808594 330.109375 777.8125 C 331.507812 781.816406 333.019531 785.773438 334.648438 789.6875 C 336.28125 793.601562 338.023438 797.460938 339.878906 801.273438 C 341.734375 805.085938 343.703125 808.835938 345.777344 812.53125 C 347.855469 816.226562 350.039062 819.859375 352.332031 823.425781 C 354.621094 826.992188 357.015625 830.488281 359.511719 833.917969 C 362.007812 837.34375 364.601562 840.691406 367.296875 843.964844 C 369.988281 847.238281 372.777344 850.429688 375.65625 853.542969 C 378.539062 856.652344 381.507812 859.671875 384.566406 862.609375 C 387.625 865.542969 390.765625 868.386719 393.992188 871.136719 C 397.21875 873.886719 400.523438 876.539062 403.90625 879.097656 C 407.285156 881.652344 410.742188 884.105469 414.265625 886.460938 C 417.792969 888.8125 421.386719 891.058594 425.042969 893.203125 C 428.703125 895.34375 432.417969 897.375 436.199219 899.300781 C 439.976562 901.222656 443.804688 903.03125 447.691406 904.730469 C 451.574219 906.429688 455.503906 908.011719 459.484375 909.476562 C 463.460938 910.945312 467.476562 912.292969 471.535156 913.523438 C 475.589844 914.753906 479.679688 915.863281 483.800781 916.855469 C 487.921875 917.84375 492.070312 918.710938 496.246094 919.457031 C 500.417969 920.203125 504.609375 920.828125 508.816406 921.328125 C 513.027344 921.828125 517.25 922.203125 521.480469 922.453125 C 525.710938 922.707031 529.945312 922.832031 534.1875 922.835938 C 539.695312 922.84375 545.199219 922.644531 550.691406 922.230469 C 556.1875 921.816406 561.65625 921.195312 567.101562 920.359375 C 572.546875 919.527344 577.953125 918.484375 583.320312 917.234375 C 588.6875 915.988281 593.996094 914.53125 599.25 912.875 C 604.503906 911.21875 609.6875 909.359375 614.800781 907.304688 C 619.910156 905.25 624.9375 903 629.875 900.558594 C 634.8125 898.117188 639.648438 895.488281 644.386719 892.671875 C 649.125 889.859375 653.746094 886.867188 658.25 883.695312 Z M 658.25 883.695312 " fill-opacity="1" fill-rule="nonzero"/><path fill="#752122" d="M 236.175781 753.105469 C 194.601562 722.601562 171.15625 700.320312 175.308594 693.117188 C 179.464844 685.917969 210.703125 694.960938 260.871094 717.261719 C 266.761719 706.066406 273.582031 695.46875 281.332031 685.46875 C 155.996094 626.648438 67.960938 601.605469 55.582031 623.023438 C 44.390625 642.441406 96.726562 695.574219 186.316406 761.410156 C 245.199219 804.683594 320.183594 853.476562 403.800781 901.699219 C 472.234375 941.207031 538.03125 975.539062 596.363281 1002.789062 C 717.765625 1059.542969 806.683594 1085.648438 819.265625 1063.921875 C 831.847656 1042.195312 765.601562 978.527344 652.421875 899.738281 C 647.601562 911.414062 641.804688 922.585938 635.03125 933.25 C 679.078125 965.308594 702.894531 988.058594 698.742188 995.28125 C 693.832031 1003.75 651.828125 989.59375 590.019531 960.5 C 542.777344 938.300781 484 907.308594 421.394531 871.238281 C 346.65625 828.066406 280.921875 785.859375 236.175781 753.105469 Z M 236.175781 753.105469 " fill-opacity="1" fill-rule="nonzero"/><path fill="#000000" d="M 118.148438 660.363281 C 126.332031 646.042969 184.515625 662.265625 270.28125 701.058594 C 271.347656 699.398438 272.328125 697.761719 273.515625 696.148438 C 275.984375 692.492188 278.554688 688.929688 281.226562 685.46875 C 155.976562 626.648438 67.960938 601.605469 55.582031 623.023438 C 44.390625 642.441406 96.726562 695.574219 186.316406 761.410156 C 202.171875 773.113281 219.175781 785.082031 237.179688 797.398438 C 286.28125 830.851562 342.6875 866.386719 403.800781 901.742188 C 464.910156 937.09375 523.976562 968.214844 577.457031 993.808594 C 583.839844 996.878906 590.140625 999.863281 596.363281 1002.769531 C 717.765625 1059.542969 806.683594 1085.648438 819.265625 1063.921875 C 831.847656 1042.195312 765.601562 978.527344 652.421875 899.738281 C 649.980469 905.628906 647.300781 911.386719 644.378906 917.003906 C 720.652344 971.753906 763.945312 1014.105469 755.679688 1028.425781 C 746.902344 1043.628906 682.558594 1024.332031 592.105469 982.515625 C 585.558594 979.488281 578.890625 976.351562 572.097656 973.105469 C 523.648438 949.945312 468.839844 921.035156 411.695312 888.054688 C 346.574219 850.449219 287.550781 812.804688 239.714844 779.066406 C 236.300781 776.652344 232.921875 774.261719 229.628906 771.886719 C 154.339844 717.875 109.738281 674.910156 118.148438 660.363281 Z M 118.148438 660.363281 " fill-opacity="1" fill-rule="nonzero"/><path fill="#ffffff" d="M 498.363281 646.265625 C 497.691406 646.089844 497.042969 645.847656 496.417969 645.542969 C 495.792969 645.238281 495.203125 644.875 494.652344 644.453125 C 494.097656 644.03125 493.59375 643.558594 493.132812 643.039062 C 492.671875 642.515625 492.269531 641.957031 491.917969 641.355469 C 491.570312 640.753906 491.28125 640.125 491.058594 639.46875 C 490.832031 638.808594 490.671875 638.136719 490.578125 637.449219 C 490.488281 636.757812 490.460938 636.066406 490.507812 635.375 C 490.550781 634.679688 490.660156 633.996094 490.839844 633.324219 C 491.015625 632.652344 491.257812 632.003906 491.5625 631.382812 C 491.871094 630.757812 492.234375 630.167969 492.65625 629.617188 C 493.078125 629.0625 493.546875 628.558594 494.070312 628.097656 C 494.589844 627.636719 495.152344 627.234375 495.753906 626.882812 C 496.355469 626.535156 496.984375 626.25 497.640625 626.023438 C 498.300781 625.796875 498.972656 625.640625 499.660156 625.546875 C 500.351562 625.453125 501.042969 625.429688 501.734375 625.472656 C 502.429688 625.519531 503.113281 625.628906 503.785156 625.808594 C 520.589844 630.324219 536.527344 636.929688 551.597656 645.632812 C 552.195312 645.976562 552.753906 646.375 553.273438 646.828125 C 553.796875 647.28125 554.265625 647.777344 554.6875 648.324219 C 555.109375 648.871094 555.472656 649.453125 555.78125 650.070312 C 556.085938 650.6875 556.332031 651.328125 556.511719 651.996094 C 556.691406 652.660156 556.804688 653.339844 556.851562 654.027344 C 556.898438 654.714844 556.878906 655.402344 556.789062 656.085938 C 556.703125 656.769531 556.546875 657.4375 556.328125 658.089844 C 556.109375 658.746094 555.828125 659.371094 555.484375 659.96875 C 555.140625 660.566406 554.742188 661.125 554.289062 661.644531 C 553.832031 662.164062 553.332031 662.636719 552.789062 663.058594 C 552.242188 663.476562 551.660156 663.84375 551.042969 664.148438 C 550.421875 664.453125 549.78125 664.699219 549.117188 664.878906 C 548.449219 665.058594 547.773438 665.171875 547.085938 665.214844 C 546.394531 665.261719 545.710938 665.242188 545.027344 665.152344 C 544.339844 665.0625 543.671875 664.910156 543.019531 664.6875 C 542.367188 664.46875 541.742188 664.183594 541.140625 663.839844 C 527.652344 656.105469 513.394531 650.25 498.363281 646.265625 Z M 498.363281 646.265625 " fill-opacity="1" fill-rule="nonzero"/><path fill="#ffffff" d="M 569.089844 683.851562 C 568.570312 683.398438 568.101562 682.894531 567.679688 682.347656 C 567.257812 681.804688 566.894531 681.21875 566.589844 680.601562 C 566.285156 679.984375 566.042969 679.34375 565.863281 678.675781 C 565.683594 678.011719 565.570312 677.332031 565.523438 676.644531 C 565.476562 675.957031 565.5 675.269531 565.589844 674.585938 C 565.675781 673.902344 565.832031 673.234375 566.054688 672.582031 C 566.273438 671.925781 566.554688 671.300781 566.902344 670.703125 C 567.246094 670.105469 567.644531 669.546875 568.097656 669.027344 C 568.550781 668.507812 569.050781 668.039062 569.597656 667.617188 C 570.144531 667.199219 570.726562 666.835938 571.347656 666.527344 C 571.964844 666.222656 572.605469 665.980469 573.273438 665.800781 C 573.9375 665.621094 574.613281 665.507812 575.304688 665.460938 C 575.992188 665.414062 576.675781 665.4375 577.363281 665.527344 C 578.046875 665.617188 578.714844 665.769531 579.367188 665.992188 C 580.019531 666.210938 580.648438 666.496094 581.246094 666.839844 C 581.84375 667.183594 582.402344 667.582031 582.921875 668.035156 C 590.296875 674.472656 597.15625 681.417969 603.503906 688.871094 C 609.847656 696.324219 615.609375 704.207031 620.789062 712.511719 C 625.96875 720.820312 630.507812 729.464844 634.40625 738.445312 C 638.304688 747.421875 641.519531 756.640625 644.050781 766.097656 C 644.230469 766.765625 644.34375 767.441406 644.386719 768.132812 C 644.429688 768.824219 644.40625 769.507812 644.316406 770.195312 C 644.226562 770.878906 644.066406 771.550781 643.84375 772.203125 C 643.621094 772.855469 643.335938 773.484375 642.992188 774.082031 C 642.644531 774.679688 642.242188 775.238281 641.789062 775.757812 C 641.332031 776.273438 640.828125 776.746094 640.28125 777.164062 C 639.730469 777.585938 639.148438 777.945312 638.527344 778.25 C 637.90625 778.554688 637.261719 778.796875 636.59375 778.976562 C 635.925781 779.152344 635.25 779.265625 634.558594 779.308594 C 633.871094 779.355469 633.183594 779.332031 632.496094 779.238281 C 631.8125 779.148438 631.144531 778.992188 630.488281 778.769531 C 629.835938 778.546875 629.210938 778.261719 628.609375 777.914062 C 628.011719 777.570312 627.453125 777.167969 626.9375 776.710938 C 626.417969 776.253906 625.949219 775.753906 625.527344 775.203125 C 625.109375 774.65625 624.746094 774.070312 624.441406 773.449219 C 624.136719 772.832031 623.894531 772.1875 623.714844 771.519531 C 621.445312 763.070312 618.570312 754.832031 615.082031 746.804688 C 611.597656 738.78125 607.539062 731.054688 602.914062 723.628906 C 598.285156 716.203125 593.136719 709.15625 587.46875 702.492188 C 581.800781 695.824219 575.675781 689.613281 569.089844 683.851562 Z M 569.089844 683.851562 " fill-opacity="1" fill-rule="nonzero"/><g transform="matrix(1, 0, 0, 1, 717, 750)"><g clip-path="url(#f09598730e)"><g fill="#ffffff" fill-opacity="1"><g transform="translate(0.612823, 150.316473)"><g><path d="M 68.25 -122.453125 C 86.460938 -122.453125 100.941406 -117.832031 111.6875 -108.59375 C 122.601562 -99.214844 128.054688 -85.9375 128.054688 -68.761719 L 128.054688 -65.152344 L 85.015625 -65.152344 L 85.015625 -68.761719 C 85.015625 -74.628906 83.542969 -79.199219 80.59375 -82.476562 C 77.746094 -85.640625 73.574219 -87.222656 68.082031 -87.222656 C 61.699219 -87.222656 57.089844 -85.328125 54.246094 -81.535156 C 51.160156 -77.425781 49.617188 -71.523438 49.617188 -63.835938 L 49.617188 -52.972656 C 49.617188 -45.390625 51.164062 -39.511719 54.257812 -35.339844 C 57.101562 -31.503906 61.597656 -29.585938 67.742188 -29.585938 C 73.988281 -29.585938 78.628906 -31.097656 81.660156 -34.128906 C 84.691406 -37.160156 86.207031 -41.574219 86.207031 -47.367188 L 86.207031 -50.976562 L 128.054688 -50.976562 L 128.054688 -47.367188 C 128.054688 -30.3125 122.746094 -17.179688 112.125 -7.96875 C 101.65625 1.105469 87.03125 5.644531 68.25 5.644531 C 47.339844 5.644531 31.40625 0.203125 20.460938 -10.683594 C 9.507812 -21.578125 4.03125 -37.484375 4.03125 -58.402344 C 4.03125 -79.324219 9.507812 -95.230469 20.460938 -106.125 C 31.40625 -117.011719 47.339844 -122.453125 68.25 -122.453125 Z M 68.25 -115.238281 C 49.324219 -115.238281 35.089844 -110.492188 25.550781 -101.007812 C 16.015625 -91.527344 11.246094 -77.324219 11.246094 -58.402344 C 11.246094 -39.484375 16.015625 -25.28125 25.550781 -15.800781 C 35.089844 -6.3125 49.324219 -1.570312 68.25 -1.570312 C 85.238281 -1.570312 98.285156 -5.519531 107.398438 -13.421875 C 116.359375 -21.191406 120.839844 -32.507812 120.839844 -47.367188 L 124.449219 -47.367188 L 124.449219 -43.761719 L 89.8125 -43.761719 L 89.8125 -47.367188 L 93.421875 -47.367188 C 93.421875 -39.582031 91.199219 -33.46875 86.761719 -29.027344 C 82.320312 -24.589844 75.980469 -22.367188 67.742188 -22.367188 C 59.171875 -22.367188 52.746094 -25.261719 48.460938 -31.042969 C 44.421875 -36.492188 42.402344 -43.800781 42.402344 -52.972656 L 42.402344 -63.835938 C 42.402344 -73.128906 44.425781 -80.46875 48.472656 -85.867188 C 52.757812 -91.582031 59.296875 -94.441406 68.082031 -94.441406 C 75.71875 -94.441406 81.675781 -92.0625 85.957031 -87.304688 C 90.140625 -82.65625 92.234375 -76.476562 92.234375 -68.761719 L 88.625 -68.761719 L 88.625 -72.367188 L 124.449219 -72.367188 L 124.449219 -68.761719 L 120.839844 -68.761719 C 120.839844 -83.730469 116.222656 -95.183594 106.984375 -103.121094 C 97.589844 -111.199219 84.675781 -115.238281 68.25 -115.238281 Z M 68.25 -115.238281 "/></g></g></g><g fill="#ffffff" fill-opacity="1"><g transform="translate(132.700653, 150.316473)"><g><path d="M 70.628906 -122.453125 C 91.726562 -122.453125 108.113281 -116.976562 119.785156 -106.027344 C 131.523438 -95.015625 137.394531 -79.140625 137.394531 -58.402344 C 137.394531 -37.667969 131.523438 -21.792969 119.785156 -10.78125 C 108.113281 0.167969 91.726562 5.644531 70.628906 5.644531 C 49.53125 5.644531 33.171875 0.199219 21.554688 -10.695312 C 9.875 -21.652344 4.03125 -37.554688 4.03125 -58.402344 C 4.03125 -79.253906 9.875 -95.15625 21.554688 -106.113281 C 33.171875 -117.007812 49.53125 -122.453125 70.628906 -122.453125 Z M 70.628906 -115.238281 C 51.433594 -115.238281 36.71875 -110.441406 26.492188 -100.847656 C 16.328125 -91.316406 11.246094 -77.167969 11.246094 -58.402344 C 11.246094 -39.636719 16.328125 -25.488281 26.492188 -15.960938 C 36.71875 -6.367188 51.433594 -1.570312 70.628906 -1.570312 C 89.824219 -1.570312 104.5625 -6.394531 114.847656 -16.042969 C 125.066406 -25.632812 130.179688 -39.75 130.179688 -58.402344 C 130.179688 -77.058594 125.066406 -91.175781 114.847656 -100.765625 C 104.5625 -110.414062 89.824219 -115.238281 70.628906 -115.238281 Z M 70.628906 -87.222656 C 63.695312 -87.222656 58.496094 -85.207031 55.027344 -81.179688 C 51.421875 -76.988281 49.617188 -71.207031 49.617188 -63.835938 L 49.617188 -52.972656 C 49.617188 -45.601562 51.421875 -39.820312 55.027344 -35.628906 C 58.496094 -31.597656 63.695312 -29.585938 70.628906 -29.585938 C 77.570312 -29.585938 82.804688 -31.605469 86.328125 -35.648438 C 89.980469 -39.835938 91.808594 -45.609375 91.808594 -52.972656 L 91.808594 -63.835938 C 91.808594 -71.199219 89.980469 -76.972656 86.328125 -81.160156 C 82.804688 -85.203125 77.570312 -87.222656 70.628906 -87.222656 Z M 70.628906 -94.441406 C 79.757812 -94.441406 86.804688 -91.59375 91.769531 -85.902344 C 96.605469 -80.355469 99.023438 -73 99.023438 -63.835938 L 99.023438 -52.972656 C 99.023438 -43.808594 96.605469 -36.453125 91.769531 -30.90625 C 86.804688 -25.214844 79.757812 -22.367188 70.628906 -22.367188 C 61.488281 -22.367188 54.464844 -25.21875 49.558594 -30.921875 C 44.789062 -36.46875 42.402344 -43.816406 42.402344 -52.972656 L 42.402344 -63.835938 C 42.402344 -72.992188 44.789062 -80.339844 49.558594 -85.882812 C 54.464844 -91.589844 61.488281 -94.441406 70.628906 -94.441406 Z M 70.628906 -94.441406 "/></g></g></g><g fill="#ffffff" fill-opacity="1"><g transform="translate(274.1263, 150.316473)"><g><path d="M 12.5625 -120.414062 L 53.691406 -120.414062 L 53.691406 -29.882812 L 50.085938 -29.882812 L 50.085938 -33.488281 L 113.625 -33.488281 L 113.625 3.609375 L 8.957031 3.609375 L 8.957031 -120.414062 Z M 12.5625 -113.199219 L 12.5625 -116.808594 L 16.171875 -116.808594 L 16.171875 0 L 12.5625 0 L 12.5625 -3.609375 L 110.015625 -3.609375 L 110.015625 0 L 106.410156 0 L 106.410156 -29.882812 L 110.015625 -29.882812 L 110.015625 -26.273438 L 46.476562 -26.273438 L 46.476562 -116.808594 L 50.085938 -116.808594 L 50.085938 -113.199219 Z M 12.5625 -113.199219 "/></g></g></g><g fill="#ffffff" fill-opacity="1"><g transform="translate(387.368677, 150.316473)"><g><path d="M 12.5625 -120.414062 L 53.691406 -120.414062 L 53.691406 -29.882812 L 50.085938 -29.882812 L 50.085938 -33.488281 L 113.625 -33.488281 L 113.625 3.609375 L 8.957031 3.609375 L 8.957031 -120.414062 Z M 12.5625 -113.199219 L 12.5625 -116.808594 L 16.171875 -116.808594 L 16.171875 0 L 12.5625 0 L 12.5625 -3.609375 L 110.015625 -3.609375 L 110.015625 0 L 106.410156 0 L 106.410156 -29.882812 L 110.015625 -29.882812 L 110.015625 -26.273438 L 46.476562 -26.273438 L 46.476562 -116.808594 L 50.085938 -116.808594 L 50.085938 -113.199219 Z M 12.5625 -113.199219 "/></g></g></g><g fill="#ffffff" fill-opacity="1"><g transform="translate(500.611054, 150.316473)"><g><path d="M 87.375 1.035156 L 82.453125 -15.433594 L 85.90625 -16.46875 L 85.90625 -12.859375 L 44.992188 -12.859375 L 44.992188 -16.46875 L 48.449219 -15.433594 L 42.753906 3.609375 L -3.457031 3.609375 L 41.789062 -120.414062 L 90.46875 -120.414062 L 135.714844 3.609375 L 88.144531 3.609375 Z M 94.289062 -1.035156 L 90.832031 0 L 90.832031 -3.609375 L 130.558594 -3.609375 L 130.558594 0 L 127.171875 1.238281 L 84.554688 -115.570312 L 87.945312 -116.808594 L 87.945312 -113.199219 L 44.3125 -113.199219 L 44.3125 -116.808594 L 47.703125 -115.570312 L 5.085938 1.238281 L 1.699219 0 L 1.699219 -3.609375 L 40.066406 -3.609375 L 40.066406 0 L 36.609375 -1.035156 L 42.304688 -20.078125 L 88.59375 -20.078125 Z M 52.800781 -46.222656 L 78.097656 -46.222656 L 78.097656 -42.613281 L 74.636719 -41.597656 L 62.414062 -83.191406 L 65.875 -84.210938 L 65.875 -80.601562 L 65.195312 -80.601562 L 65.195312 -84.210938 L 68.652344 -83.179688 L 56.257812 -41.585938 L 52.800781 -42.613281 Z M 47.960938 -39.007812 L 62.503906 -87.816406 L 68.574219 -87.816406 L 82.917969 -39.007812 Z M 47.960938 -39.007812 "/></g></g></g><g fill="#ffffff" fill-opacity="1"><g transform="translate(632.698941, 150.316473)"><g><path d="M 83.402344 -86.925781 L 83.402344 3.609375 L 38.667969 3.609375 L 38.667969 -86.925781 L 42.273438 -86.925781 L 42.273438 -83.320312 L 0.296875 -83.320312 L 0.296875 -120.414062 L 121.605469 -120.414062 L 121.605469 -83.320312 L 79.796875 -83.320312 L 79.796875 -86.925781 Z M 76.1875 -90.535156 L 117.996094 -90.535156 L 117.996094 -86.925781 L 114.386719 -86.925781 L 114.386719 -116.808594 L 117.996094 -116.808594 L 117.996094 -113.199219 L 3.90625 -113.199219 L 3.90625 -116.808594 L 7.511719 -116.808594 L 7.511719 -86.925781 L 3.90625 -86.925781 L 3.90625 -90.535156 L 45.882812 -90.535156 L 45.882812 0 L 42.273438 0 L 42.273438 -3.609375 L 79.796875 -3.609375 L 79.796875 0 L 76.1875 0 Z M 76.1875 -90.535156 "/></g></g></g><g fill="#ffffff" fill-opacity="1"><g transform="translate(755.279134, 150.316473)"><g><path d="M 12.5625 -120.414062 L 117.191406 -120.414062 L 117.191406 -85.1875 L 50.085938 -85.1875 L 50.085938 -88.792969 L 53.691406 -88.792969 L 53.691406 -72.664062 L 50.085938 -72.664062 L 50.085938 -76.273438 L 108.023438 -76.273438 L 108.023438 -42.234375 L 50.085938 -42.234375 L 50.085938 -45.839844 L 53.691406 -45.839844 L 53.691406 -28.011719 L 50.085938 -28.011719 L 50.085938 -31.621094 L 118.378906 -31.621094 L 118.378906 3.609375 L 8.957031 3.609375 L 8.957031 -120.414062 Z M 12.5625 -113.199219 L 12.5625 -116.808594 L 16.171875 -116.808594 L 16.171875 0 L 12.5625 0 L 12.5625 -3.609375 L 114.769531 -3.609375 L 114.769531 0 L 111.164062 0 L 111.164062 -28.011719 L 114.769531 -28.011719 L 114.769531 -24.40625 L 46.476562 -24.40625 L 46.476562 -49.449219 L 104.414062 -49.449219 L 104.414062 -45.839844 L 100.804688 -45.839844 L 100.804688 -72.664062 L 104.414062 -72.664062 L 104.414062 -69.058594 L 46.476562 -69.058594 L 46.476562 -92.402344 L 113.582031 -92.402344 L 113.582031 -88.792969 L 109.972656 -88.792969 L 109.972656 -116.808594 L 113.582031 -116.808594 L 113.582031 -113.199219 Z M 12.5625 -113.199219 "/></g></g></g><g fill="#ffffff" fill-opacity="1"><g transform="translate(877.859327, 150.316473)"><g><path d="M 127.039062 -80.984375 C 127.039062 -73.125 124.910156 -66.007812 120.660156 -59.628906 C 116.375 -53.203125 110.191406 -48.5 102.097656 -45.511719 L 100.847656 -48.894531 L 104.035156 -50.589844 L 132.828125 3.609375 L 82.460938 3.609375 L 60.761719 -41.039062 L 64.007812 -42.613281 L 64.007812 -39.007812 L 50.085938 -39.007812 L 50.085938 -42.613281 L 53.691406 -42.613281 L 53.691406 3.609375 L 8.957031 3.609375 L 8.957031 -120.414062 L 84.039062 -120.414062 C 93.027344 -120.414062 100.761719 -118.65625 107.238281 -115.140625 C 113.804688 -111.574219 118.757812 -106.738281 122.097656 -100.625 C 125.390625 -94.597656 127.039062 -88.050781 127.039062 -80.984375 Z M 119.820312 -80.984375 C 119.820312 -86.820312 118.46875 -92.214844 115.765625 -97.167969 C 113.105469 -102.035156 109.117188 -105.910156 103.796875 -108.796875 C 98.390625 -111.734375 91.804688 -113.199219 84.039062 -113.199219 L 12.5625 -113.199219 L 12.5625 -116.808594 L 16.171875 -116.808594 L 16.171875 0 L 12.5625 0 L 12.5625 -3.609375 L 50.085938 -3.609375 L 50.085938 0 L 46.476562 0 L 46.476562 -46.222656 L 66.265625 -46.222656 L 87.964844 -1.578125 L 84.71875 0 L 84.71875 -3.609375 L 126.824219 -3.609375 L 126.824219 0 L 123.640625 1.691406 L 95.726562 -50.851562 L 99.597656 -52.28125 C 106.222656 -54.726562 111.242188 -58.507812 114.65625 -63.632812 C 118.097656 -68.796875 119.820312 -74.582031 119.820312 -80.984375 Z M 81.621094 -79.457031 C 81.621094 -81.515625 80.953125 -83.210938 79.621094 -84.546875 C 78.289062 -85.878906 76.648438 -86.542969 74.703125 -86.542969 L 50.085938 -86.542969 L 50.085938 -90.152344 L 53.691406 -90.152344 L 53.691406 -68.589844 L 50.085938 -68.589844 L 50.085938 -72.199219 L 74.703125 -72.199219 C 76.628906 -72.199219 78.257812 -72.882812 79.585938 -74.246094 C 80.941406 -75.640625 81.621094 -77.378906 81.621094 -79.457031 Z M 88.835938 -79.457031 C 88.835938 -75.421875 87.476562 -72.011719 84.757812 -69.214844 C 82.011719 -66.394531 78.660156 -64.984375 74.703125 -64.984375 L 46.476562 -64.984375 L 46.476562 -93.761719 L 74.703125 -93.761719 C 78.640625 -93.761719 81.980469 -92.390625 84.722656 -89.648438 C 87.464844 -86.90625 88.835938 -83.507812 88.835938 -79.457031 Z M 88.835938 -79.457031 "/></g></g></g><g fill="#ffffff" fill-opacity="1"><g transform="translate(1009.947215, 150.316473)"><g><path d="M 87.375 1.035156 L 82.453125 -15.433594 L 85.90625 -16.46875 L 85.90625 -12.859375 L 44.992188 -12.859375 L 44.992188 -16.46875 L 48.449219 -15.433594 L 42.753906 3.609375 L -3.457031 3.609375 L 41.789062 -120.414062 L 90.46875 -120.414062 L 135.714844 3.609375 L 88.144531 3.609375 Z M 94.289062 -1.035156 L 90.832031 0 L 90.832031 -3.609375 L 130.558594 -3.609375 L 130.558594 0 L 127.171875 1.238281 L 84.554688 -115.570312 L 87.945312 -116.808594 L 87.945312 -113.199219 L 44.3125 -113.199219 L 44.3125 -116.808594 L 47.703125 -115.570312 L 5.085938 1.238281 L 1.699219 0 L 1.699219 -3.609375 L 40.066406 -3.609375 L 40.066406 0 L 36.609375 -1.035156 L 42.304688 -20.078125 L 88.59375 -20.078125 Z M 52.800781 -46.222656 L 78.097656 -46.222656 L 78.097656 -42.613281 L 74.636719 -41.597656 L 62.414062 -83.191406 L 65.875 -84.210938 L 65.875 -80.601562 L 65.195312 -80.601562 L 65.195312 -84.210938 L 68.652344 -83.179688 L 56.257812 -41.585938 L 52.800781 -42.613281 Z M 47.960938 -39.007812 L 62.503906 -87.816406 L 68.574219 -87.816406 L 82.917969 -39.007812 Z M 47.960938 -39.007812 "/></g></g></g><g fill="#ffffff" fill-opacity="1"><g transform="translate(1142.034988, 150.316473)"><g><path d="M 12.5625 -120.414062 L 53.691406 -120.414062 L 53.691406 -29.882812 L 50.085938 -29.882812 L 50.085938 -33.488281 L 113.625 -33.488281 L 113.625 3.609375 L 8.957031 3.609375 L 8.957031 -120.414062 Z M 12.5625 -113.199219 L 12.5625 -116.808594 L 16.171875 -116.808594 L 16.171875 0 L 12.5625 0 L 12.5625 -3.609375 L 110.015625 -3.609375 L 110.015625 0 L 106.410156 0 L 106.410156 -29.882812 L 110.015625 -29.882812 L 110.015625 -26.273438 L 46.476562 -26.273438 L 46.476562 -116.808594 L 50.085938 -116.808594 L 50.085938 -113.199219 Z M 12.5625 -113.199219 "/></g></g></g><g fill="#000000" fill-opacity="1"><g transform="translate(0.612823, 150.316473)"><g><path d="M 68.25 -118.84375 C 85.570312 -118.84375 99.269531 -114.515625 109.34375 -105.859375 C 119.414062 -97.203125 124.453125 -84.835938 124.453125 -68.765625 L 88.625 -68.765625 C 88.625 -75.554688 86.835938 -80.929688 83.265625 -84.890625 C 79.703125 -88.847656 74.640625 -90.828125 68.078125 -90.828125 C 60.492188 -90.828125 54.921875 -88.453125 51.359375 -83.703125 C 47.796875 -78.953125 46.015625 -72.332031 46.015625 -63.84375 L 46.015625 -52.96875 C 46.015625 -44.59375 47.796875 -38 51.359375 -33.1875 C 54.921875 -28.375 60.382812 -25.96875 67.75 -25.96875 C 74.988281 -25.96875 80.472656 -27.835938 84.203125 -31.578125 C 87.941406 -35.316406 89.8125 -40.582031 89.8125 -47.375 L 124.453125 -47.375 C 124.453125 -31.414062 119.554688 -19.191406 109.765625 -10.703125 C 99.972656 -2.210938 86.132812 2.03125 68.25 2.03125 C 48.332031 2.03125 33.25 -3.054688 23 -13.234375 C 12.757812 -23.421875 7.640625 -38.476562 7.640625 -58.40625 C 7.640625 -78.320312 12.757812 -93.375 23 -103.5625 C 33.25 -113.75 48.332031 -118.84375 68.25 -118.84375 Z M 68.25 -118.84375 "/></g></g></g><g fill="#000000" fill-opacity="1"><g transform="translate(132.700653, 150.316473)"><g><path d="M 70.625 -118.84375 C 90.769531 -118.84375 106.332031 -113.691406 117.3125 -103.390625 C 128.289062 -93.097656 133.78125 -78.101562 133.78125 -58.40625 C 133.78125 -38.707031 128.289062 -23.707031 117.3125 -13.40625 C 106.332031 -3.113281 90.769531 2.03125 70.625 2.03125 C 50.476562 2.03125 34.941406 -3.085938 24.015625 -13.328125 C 13.097656 -23.566406 7.640625 -38.59375 7.640625 -58.40625 C 7.640625 -78.207031 13.097656 -93.226562 24.015625 -103.46875 C 34.941406 -113.71875 50.476562 -118.84375 70.625 -118.84375 Z M 70.625 -90.828125 C 62.59375 -90.828125 56.484375 -88.394531 52.296875 -83.53125 C 48.109375 -78.664062 46.015625 -72.101562 46.015625 -63.84375 L 46.015625 -52.96875 C 46.015625 -44.707031 48.109375 -38.140625 52.296875 -33.265625 C 56.484375 -28.398438 62.59375 -25.96875 70.625 -25.96875 C 78.664062 -25.96875 84.804688 -28.398438 89.046875 -33.265625 C 93.296875 -38.140625 95.421875 -44.707031 95.421875 -52.96875 L 95.421875 -63.84375 C 95.421875 -72.101562 93.296875 -78.664062 89.046875 -83.53125 C 84.804688 -88.394531 78.664062 -90.828125 70.625 -90.828125 Z M 70.625 -90.828125 "/></g></g></g><g fill="#000000" fill-opacity="1"><g transform="translate(274.1263, 150.316473)"><g><path d="M 12.5625 -116.8125 L 50.078125 -116.8125 L 50.078125 -29.875 L 110.015625 -29.875 L 110.015625 0 L 12.5625 0 Z M 12.5625 -116.8125 "/></g></g></g><g fill="#000000" fill-opacity="1"><g transform="translate(387.368677, 150.316473)"><g><path d="M 12.5625 -116.8125 L 50.078125 -116.8125 L 50.078125 -29.875 L 110.015625 -29.875 L 110.015625 0 L 12.5625 0 Z M 12.5625 -116.8125 "/></g></g></g><g fill="#000000" fill-opacity="1"><g transform="translate(500.611054, 150.316473)"><g><path d="M 90.828125 0 L 85.90625 -16.46875 L 44.984375 -16.46875 L 40.0625 0 L 1.703125 0 L 44.3125 -116.8125 L 87.953125 -116.8125 L 130.5625 0 Z M 52.796875 -42.609375 L 78.09375 -42.609375 L 65.875 -84.21875 L 65.203125 -84.21875 Z M 52.796875 -42.609375 "/></g></g></g><g fill="#000000" fill-opacity="1"><g transform="translate(632.698941, 150.316473)"><g><path d="M 79.796875 -86.921875 L 79.796875 0 L 42.28125 0 L 42.28125 -86.921875 L 3.90625 -86.921875 L 3.90625 -116.8125 L 118 -116.8125 L 118 -86.921875 Z M 79.796875 -86.921875 "/></g></g></g><g fill="#000000" fill-opacity="1"><g transform="translate(755.279134, 150.316473)"><g><path d="M 12.5625 -116.8125 L 113.578125 -116.8125 L 113.578125 -88.796875 L 50.078125 -88.796875 L 50.078125 -72.671875 L 104.421875 -72.671875 L 104.421875 -45.84375 L 50.078125 -45.84375 L 50.078125 -28.015625 L 114.765625 -28.015625 L 114.765625 0 L 12.5625 0 Z M 12.5625 -116.8125 "/></g></g></g><g fill="#000000" fill-opacity="1"><g transform="translate(877.859327, 150.316473)"><g><path d="M 123.4375 -80.984375 C 123.4375 -73.859375 121.507812 -67.40625 117.65625 -61.625 C 113.8125 -55.851562 108.207031 -51.609375 100.84375 -48.890625 L 126.828125 0 L 84.71875 0 L 64 -42.609375 L 50.078125 -42.609375 L 50.078125 0 L 12.5625 0 L 12.5625 -116.8125 L 84.046875 -116.8125 C 92.421875 -116.8125 99.578125 -115.195312 105.515625 -111.96875 C 111.460938 -108.738281 115.9375 -104.378906 118.9375 -98.890625 C 121.9375 -93.398438 123.4375 -87.429688 123.4375 -80.984375 Z M 85.234375 -79.453125 C 85.234375 -82.515625 84.210938 -85.0625 82.171875 -87.09375 C 80.140625 -89.132812 77.648438 -90.15625 74.703125 -90.15625 L 50.078125 -90.15625 L 50.078125 -68.59375 L 74.703125 -68.59375 C 77.648438 -68.59375 80.140625 -69.640625 82.171875 -71.734375 C 84.210938 -73.828125 85.234375 -76.398438 85.234375 -79.453125 Z M 85.234375 -79.453125 "/></g></g></g><g fill="#000000" fill-opacity="1"><g transform="translate(1009.947215, 150.316473)"><g><path d="M 90.828125 0 L 85.90625 -16.46875 L 44.984375 -16.46875 L 40.0625 0 L 1.703125 0 L 44.3125 -116.8125 L 87.953125 -116.8125 L 130.5625 0 Z M 52.796875 -42.609375 L 78.09375 -42.609375 L 65.875 -84.21875 L 65.203125 -84.21875 Z M 52.796875 -42.609375 "/></g></g></g><g fill="#000000" fill-opacity="1"><g transform="translate(1142.034988, 150.316473)"><g><path d="M 12.5625 -116.8125 L 50.078125 -116.8125 L 50.078125 -29.875 L 110.015625 -29.875 L 110.015625 0 L 12.5625 0 Z M 12.5625 -116.8125 "/></g></g></g></g></g></svg>