<svg xmlns="http://www.w3.org/2000/svg" xmlns:xlink="http://www.w3.org/1999/xlink" width="2750" zoomAndPan="magnify" viewBox="0 0 2062.5 1687.499945" height="2250" preserveAspectRatio="xMidYMid meet" version="1.0"><defs><g/><clipPath id="ba3ac05f2e"><path d="M 0.0546875 0 L 2061.945312 0 L 2061.945312 1687 L 0.0546875 1687 Z M 0.0546875 0 " clip-rule="nonzero"/></clipPath><clipPath id="24b0e54511"><path d="M 9 701.648438 L 560 701.648438 L 560 976.816406 L 9 976.816406 Z M 9 701.648438 " clip-rule="nonzero"/></clipPath><clipPath id="f643e27c44"><path d="M 140 0.648438 L 413 0.648438 L 413 193 L 140 193 Z M 140 0.648438 " clip-rule="nonzero"/></clipPath><clipPath id="129ee50f66"><path d="M 141 167 L 372 167 L 372 275.816406 L 141 275.816406 Z M 141 167 " clip-rule="nonzero"/></clipPath><clipPath id="e408f1c152"><path d="M 0.894531 34 L 550 34 L 550 243 L 0.894531 243 Z M 0.894531 34 " clip-rule="nonzero"/></clipPath><clipPath id="476bc60adb"><rect x="0" width="551" y="0" height="276"/></clipPath></defs><g clip-path="url(#ba3ac05f2e)"><path fill="#ffffff" d="M 0.0546875 0 L 2061.945312 0 L 2061.945312 1687 L 0.0546875 1687 Z M 0.0546875 0 " fill-opacity="1" fill-rule="nonzero"/><path fill="#ffffff" d="M 0.0546875 0 L 2061.945312 0 L 2061.945312 1687 L 0.0546875 1687 Z M 0.0546875 0 " fill-opacity="1" fill-rule="nonzero"/></g><g clip-path="url(#24b0e54511)"><g transform="matrix(1, 0, 0, 1, 9, 701)"><g clip-path="url(#476bc60adb)"><g clip-path="url(#f643e27c44)"><path fill="#6b0103" d="M 267.296875 165.703125 C 223.136719 152.433594 182.667969 136.65625 153.339844 121.277344 C 148.347656 118.660156 143.964844 116.203125 140.117188 113.902344 C 151.605469 49.585938 207.820312 0.765625 275.4375 0.765625 C 351.359375 0.765625 412.90625 62.3125 412.90625 138.234375 C 412.902344 157.539062 408.925781 175.910156 401.742188 192.582031 C 368.371094 191.074219 319.082031 181.265625 267.296875 165.703125 Z M 267.296875 165.703125 " fill-opacity="1" fill-rule="evenodd"/></g><g clip-path="url(#129ee50f66)"><path fill="#6b0103" d="M 254.648438 207.796875 C 287.398438 217.636719 319.867188 225.941406 351.15625 232.464844 L 351.15625 232.46875 L 352.367188 232.71875 C 358.835938 234.058594 365.242188 235.320312 371.566406 236.5 C 346.78125 260.753906 312.855469 275.703125 275.4375 275.703125 C 209.457031 275.699219 154.335938 229.21875 141.03125 167.214844 C 175.59375 181.820312 214.15625 195.628906 254.648438 207.792969 Z M 254.648438 207.796875 " fill-opacity="1" fill-rule="evenodd"/></g><path fill="#ffffff" d="M 354.128906 236.246094 C 400 187.960938 394.730469 108.488281 342.363281 58.738281 C 309.765625 27.769531 266.605469 15.625 227.601562 22.507812 C 272.054688 4.144531 325.085938 12.28125 362.207031 47.550781 C 412.53125 95.355469 414.570312 174.90625 366.761719 225.226562 C 362.015625 230.21875 356.953125 234.734375 351.640625 238.777344 C 352.480469 237.945312 353.3125 237.105469 354.128906 236.246094 Z M 354.128906 236.246094 " fill-opacity="1" fill-rule="evenodd"/><path fill="#6b0103" d="M 487.628906 154.398438 C 487.625 154.398438 487.625 154.394531 487.621094 154.394531 C 487.625 154.394531 487.625 154.398438 487.628906 154.398438 Z M 487.628906 154.398438 " fill-opacity="1" fill-rule="evenodd"/><path fill="#6b0103" d="M 487.628906 154.398438 C 487.625 154.398438 487.625 154.394531 487.621094 154.394531 C 487.625 154.394531 487.625 154.398438 487.628906 154.398438 Z M 487.628906 154.398438 " fill-opacity="1" fill-rule="evenodd"/><path fill="#6b0103" d="M 491.046875 156.445312 C 491.046875 156.445312 491.042969 156.441406 491.039062 156.441406 C 491.042969 156.441406 491.046875 156.445312 491.046875 156.445312 Z M 491.046875 156.445312 " fill-opacity="1" fill-rule="evenodd"/><path fill="#6b0103" d="M 491.046875 156.445312 C 491.046875 156.445312 491.042969 156.441406 491.039062 156.441406 C 491.042969 156.441406 491.046875 156.445312 491.046875 156.445312 Z M 491.046875 156.445312 " fill-opacity="1" fill-rule="evenodd"/><g clip-path="url(#e408f1c152)"><path fill="#6b0103" d="M 408.636719 237.199219 C 408.484375 237.175781 408.328125 237.15625 408.175781 237.132812 C 408.328125 237.152344 408.484375 237.175781 408.636719 237.199219 Z M 419.636719 238.667969 C 419.5 238.648438 419.363281 238.632812 419.226562 238.617188 C 419.363281 238.632812 419.5 238.652344 419.636719 238.667969 Z M 456.65625 242.167969 C 456.605469 242.164062 456.554688 242.160156 456.503906 242.15625 C 456.554688 242.160156 456.605469 242.164062 456.65625 242.167969 Z M 483.8125 152.167969 C 484.148438 152.363281 484.480469 152.558594 484.8125 152.753906 C 484.480469 152.558594 484.148438 152.363281 483.8125 152.167969 Z M 472.515625 145.828125 C 472.917969 146.046875 473.320312 146.269531 473.722656 146.488281 C 473.320312 146.269531 472.921875 146.046875 472.515625 145.828125 Z M 476.121094 147.8125 C 476.476562 148.007812 476.832031 148.207031 477.1875 148.402344 C 476.832031 148.207031 476.476562 148.007812 476.121094 147.8125 Z M 460.609375 139.523438 C 460.996094 139.722656 461.386719 139.921875 461.769531 140.121094 C 461.386719 139.921875 460.996094 139.722656 460.609375 139.523438 Z M 456.714844 137.53125 C 457.152344 137.757812 457.589844 137.976562 458.027344 138.199219 C 457.589844 137.976562 457.152344 137.757812 456.714844 137.53125 Z M 452.890625 135.613281 C 453.285156 135.808594 453.679688 136.007812 454.074219 136.207031 C 453.679688 136.003906 453.289062 135.8125 452.890625 135.613281 Z M 449.039062 133.707031 C 449.046875 133.710938 449.054688 133.714844 449.066406 133.71875 C 449.054688 133.714844 449.046875 133.710938 449.039062 133.707031 Z M 443.910156 131.222656 C 444.324219 131.417969 444.738281 131.617188 445.148438 131.816406 C 444.738281 131.617188 444.328125 131.421875 443.910156 131.222656 Z M 439.734375 129.230469 C 440.203125 129.453125 440.671875 129.671875 441.136719 129.894531 C 440.671875 129.671875 440.203125 129.453125 439.734375 129.230469 Z M 435.648438 127.3125 C 436.074219 127.511719 436.496094 127.707031 436.917969 127.90625 C 436.496094 127.707031 436.074219 127.511719 435.648438 127.3125 Z M 468.96875 143.910156 C 469.335938 144.105469 469.699219 144.304688 470.070312 144.503906 C 469.699219 144.304688 469.335938 144.109375 468.96875 143.910156 Z M 1.679688 56.347656 C 8.746094 32.820312 70.71875 27.851562 166.371094 43.792969 C 157.347656 55.191406 147.742188 70.777344 142.167969 84.441406 C 122.304688 81.824219 110.503906 83.351562 108.933594 88.578125 C 103.589844 106.359375 173.804688 143.179688 265.761719 170.8125 C 357.714844 198.445312 436.59375 206.433594 441.941406 188.648438 C 443.519531 183.390625 435.613281 172.746094 416.46875 164.90625 C 418.128906 154.078125 418.339844 152.953125 418.476562 140.121094 C 418.527344 135 417.796875 122.898438 417.429688 118.535156 C 432.203125 125.289062 459.117188 138.558594 471.574219 145.316406 C 471.601562 145.324219 471.625 145.339844 471.648438 145.355469 C 473.621094 146.425781 475.566406 147.496094 477.476562 148.566406 C 477.5625 148.613281 477.648438 148.660156 477.734375 148.710938 C 479.585938 149.746094 481.40625 150.78125 483.199219 151.8125 C 483.3125 151.878906 483.425781 151.945312 483.542969 152.011719 C 484.402344 152.507812 485.261719 153.007812 486.109375 153.507812 C 486.226562 153.574219 486.339844 153.644531 486.457031 153.710938 C 486.84375 153.9375 487.234375 154.167969 487.621094 154.394531 C 487.433594 154.285156 487.246094 154.179688 487.066406 154.070312 C 487.433594 154.285156 487.800781 154.503906 488.164062 154.722656 C 487.984375 154.613281 487.808594 154.507812 487.628906 154.402344 C 488.019531 154.632812 488.40625 154.863281 488.792969 155.09375 C 488.886719 155.152344 488.984375 155.207031 489.082031 155.265625 C 489.738281 155.65625 490.390625 156.050781 491.039062 156.441406 C 490.816406 156.304688 490.585938 156.171875 490.363281 156.035156 C 490.683594 156.230469 491.007812 156.421875 491.324219 156.617188 C 491.230469 156.558594 491.140625 156.503906 491.046875 156.445312 C 491.195312 156.535156 491.339844 156.625 491.488281 156.714844 C 491.65625 156.816406 491.824219 156.917969 491.992188 157.023438 C 492.792969 157.507812 493.585938 157.992188 494.371094 158.480469 C 533.007812 182.367188 554.042969 204.753906 549.195312 220.882812 C 543.921875 238.429688 508.984375 245.273438 456.664062 242.167969 C 456.605469 242.164062 456.550781 242.160156 456.492188 242.15625 C 455.738281 242.109375 454.976562 242.066406 454.214844 242.015625 C 454.210938 242.015625 454.207031 242.015625 454.203125 242.015625 C 454.207031 242.015625 454.210938 242.015625 454.214844 242.015625 C 444.1875 241.367188 433.542969 240.363281 422.363281 239.003906 C 422.367188 239.003906 422.371094 239.007812 422.378906 239.007812 C 422.371094 239.003906 422.367188 239.003906 422.363281 239.003906 C 421.460938 238.894531 420.554688 238.785156 419.644531 238.667969 C 419.5 238.648438 419.359375 238.632812 419.214844 238.617188 C 418.300781 238.5 417.386719 238.382812 416.464844 238.265625 C 416.460938 238.261719 416.453125 238.261719 416.449219 238.261719 C 416.453125 238.261719 416.460938 238.261719 416.464844 238.265625 C 414.808594 238.046875 413.140625 237.824219 411.464844 237.59375 C 411.472656 237.59375 411.476562 237.59375 411.484375 237.597656 C 411.476562 237.59375 411.472656 237.59375 411.464844 237.59375 C 410.527344 237.460938 409.585938 237.332031 408.640625 237.199219 C 408.484375 237.175781 408.328125 237.15625 408.171875 237.132812 C 407.234375 236.996094 406.289062 236.863281 405.339844 236.726562 C 405.332031 236.722656 405.320312 236.722656 405.316406 236.71875 C 405.320312 236.722656 405.332031 236.722656 405.339844 236.726562 C 388.941406 234.332031 371.566406 231.25 353.453125 227.496094 C 353.359375 227.476562 353.269531 227.457031 353.179688 227.4375 C 352.867188 227.375 352.558594 227.308594 352.246094 227.246094 C 352.328125 227.261719 352.414062 227.277344 352.5 227.292969 C 322.097656 220.960938 289.632812 212.738281 256.183594 202.6875 C 104.988281 157.25 -8.957031 91.734375 1.675781 56.347656 Z M 1.679688 56.347656 " fill-opacity="1" fill-rule="evenodd"/></g><path fill="#000000" d="M 369.667969 230.714844 C 370.371094 230.847656 371.074219 230.980469 371.777344 231.113281 C 371.074219 230.980469 370.371094 230.847656 369.667969 230.714844 Z M 369.667969 230.714844 " fill-opacity="1" fill-rule="evenodd"/><path fill="#000000" d="M 362.511719 229.332031 C 364.804688 229.78125 367.085938 230.222656 369.351562 230.65625 C 367.085938 230.222656 364.804688 229.78125 362.511719 229.332031 Z M 362.511719 229.332031 " fill-opacity="1" fill-rule="evenodd"/><path fill="#000000" d="M 359.957031 228.820312 C 360.664062 228.960938 361.371094 229.105469 362.074219 229.242188 C 361.371094 229.105469 360.664062 228.960938 359.957031 228.820312 Z M 359.957031 228.820312 " fill-opacity="1" fill-rule="evenodd"/><path fill="#000000" d="M 352.78125 227.351562 C 355 227.8125 357.210938 228.269531 359.410156 228.710938 C 357.210938 228.265625 355 227.816406 352.78125 227.351562 Z M 352.78125 227.351562 " fill-opacity="1" fill-rule="evenodd"/><path fill="#000000" d="M 352.5 227.292969 C 352.59375 227.3125 352.6875 227.335938 352.78125 227.355469 C 352.601562 227.316406 352.425781 227.28125 352.246094 227.246094 C 352.328125 227.261719 352.414062 227.277344 352.5 227.292969 Z M 352.5 227.292969 " fill-opacity="1" fill-rule="evenodd"/><path fill="#ffffff" d="M 393.285156 232.425781 C 391.214844 232.136719 389.125 231.839844 387.023438 231.53125 C 389.125 231.839844 391.214844 232.140625 393.285156 232.425781 Z M 404.332031 233.867188 C 402.34375 233.625 400.339844 233.371094 398.320312 233.105469 C 400.339844 233.371094 402.34375 233.625 404.332031 233.867188 Z M 441.398438 237.230469 C 439.816406 237.144531 438.21875 237.050781 436.609375 236.945312 C 438.21875 237.046875 439.816406 237.144531 441.398438 237.230469 Z M 333.464844 221.894531 C 333.378906 221.875 333.292969 221.859375 333.207031 221.839844 C 333.386719 221.878906 333.566406 221.917969 333.75 221.953125 C 336 222.421875 338.242188 222.890625 340.46875 223.339844 C 338.242188 222.890625 336 222.425781 333.75 221.953125 C 333.65625 221.933594 333.558594 221.914062 333.464844 221.894531 C 430.09375 241.304688 501.566406 238.296875 509.3125 210.269531 C 515.085938 189.386719 484.300781 158.890625 430.820312 127.445312 C 430.121094 126.871094 419.039062 120.535156 418.996094 120.019531 C 425.660156 123.300781 443.765625 132.453125 449.886719 135.734375 C 501.761719 166.199219 531.539062 195.683594 525.898438 215.925781 C 518.257812 243.339844 447.78125 246.28125 352.5 227.296875 C 322.796875 221.105469 291.125 213.113281 258.496094 203.375 C 284.398438 210.6875 309.5625 216.871094 333.464844 221.894531 Z M 333.464844 221.894531 " fill-opacity="1" fill-rule="evenodd"/></g></g></g><g fill="#ffffff" fill-opacity="1"><g transform="translate(562.102816, 911.445402)"><g><path d="M 86.167969 7.398438 C 73.433594 7.398438 61.878906 4.992188 51.503906 0.183594 C 41.171875 -4.601562 32.382812 -11.042969 25.132812 -19.132812 C 17.910156 -27.195312 12.375 -36.585938 8.523438 -47.300781 C 4.695312 -57.953125 2.78125 -69.09375 2.78125 -80.722656 C 2.78125 -92.359375 4.695312 -103.464844 8.527344 -114.039062 C 12.378906 -124.671875 17.914062 -134.019531 25.132812 -142.078125 C 32.390625 -150.175781 41.1875 -156.582031 51.535156 -161.292969 C 61.902344 -166.011719 73.445312 -168.371094 86.167969 -168.371094 C 95.339844 -168.371094 103.714844 -167.238281 111.285156 -164.964844 C 118.867188 -162.691406 125.707031 -159.519531 131.808594 -155.453125 C 137.871094 -151.410156 143.222656 -146.691406 147.863281 -141.289062 C 152.4375 -135.96875 156.390625 -130.226562 159.71875 -124.070312 L 161.960938 -119.917969 L 124.359375 -96.378906 L 121.78125 -101 C 117.507812 -108.664062 112.214844 -115.140625 105.902344 -120.425781 C 100.050781 -125.324219 93.472656 -127.773438 86.167969 -127.773438 C 80.089844 -127.773438 74.785156 -126.523438 70.253906 -124.019531 C 65.59375 -121.445312 61.664062 -118.039062 58.464844 -113.796875 C 55.207031 -109.476562 52.757812 -104.460938 51.113281 -98.746094 C 49.429688 -92.886719 48.589844 -86.878906 48.589844 -80.722656 C 48.589844 -74.566406 49.429688 -68.5625 51.113281 -62.703125 C 52.761719 -56.972656 55.21875 -51.90625 58.488281 -47.503906 C 61.695312 -43.179688 65.632812 -39.691406 70.304688 -37.042969 C 74.820312 -34.480469 80.109375 -33.199219 86.167969 -33.199219 C 93.449219 -33.199219 100.199219 -35.449219 106.421875 -39.941406 C 112.867188 -44.597656 117.957031 -50.589844 121.695312 -57.914062 L 124.203125 -62.839844 L 161.925781 -38.914062 L 159.730469 -34.800781 C 153.011719 -22.199219 143.683594 -12.03125 131.75 -4.300781 C 119.714844 3.5 104.519531 7.398438 86.167969 7.398438 Z M 86.167969 -2.664062 C 102.539062 -2.664062 115.90625 -6.023438 126.28125 -12.742188 C 136.757812 -19.53125 144.949219 -28.460938 150.855469 -39.535156 L 155.292969 -37.167969 L 152.597656 -32.917969 L 123.480469 -51.382812 L 126.175781 -55.632812 L 130.65625 -53.347656 C 126.1875 -44.574219 120.070312 -37.390625 112.3125 -31.785156 C 104.332031 -26.023438 95.617188 -23.140625 86.167969 -23.140625 C 78.339844 -23.140625 71.398438 -24.859375 65.339844 -28.292969 C 59.4375 -31.640625 54.460938 -36.046875 50.40625 -41.507812 C 46.414062 -46.886719 43.429688 -53.027344 41.445312 -59.921875 C 39.5 -66.6875 38.527344 -73.625 38.527344 -80.722656 C 38.527344 -87.824219 39.5 -94.757812 41.445312 -101.527344 C 43.433594 -108.433594 46.425781 -114.542969 50.429688 -119.855469 C 54.492188 -125.238281 59.476562 -129.5625 65.390625 -132.828125 C 71.433594 -136.164062 78.359375 -137.835938 86.167969 -137.835938 C 95.910156 -137.835938 104.640625 -134.601562 112.359375 -128.140625 C 119.621094 -122.058594 125.691406 -114.648438 130.570312 -105.898438 L 126.175781 -103.449219 L 123.507812 -107.714844 L 152.625 -125.941406 L 155.292969 -121.679688 L 150.867188 -119.285156 C 147.882812 -124.808594 144.339844 -129.957031 140.234375 -134.734375 C 136.195312 -139.433594 131.523438 -143.550781 126.226562 -147.082031 C 120.960938 -150.59375 115.019531 -153.339844 108.394531 -155.328125 C 101.765625 -157.316406 94.355469 -158.3125 86.167969 -158.3125 C 74.902344 -158.3125 64.746094 -156.253906 55.703125 -152.136719 C 46.636719 -148.007812 38.945312 -142.417969 32.628906 -135.367188 C 26.273438 -128.273438 21.394531 -120.023438 17.988281 -110.613281 C 14.558594 -101.144531 12.84375 -91.183594 12.84375 -80.722656 C 12.84375 -70.261719 14.558594 -60.253906 17.992188 -50.703125 C 21.398438 -41.21875 26.277344 -32.933594 32.628906 -25.847656 C 38.953125 -18.785156 46.65625 -13.152344 55.734375 -8.945312 C 64.769531 -4.757812 74.914062 -2.664062 86.167969 -2.664062 Z M 86.167969 -2.664062 "/></g></g></g><g fill="#ffffff" fill-opacity="1"><g transform="translate(721.893442, 911.445402)"><g><path d="M 88.535156 -32.964844 C 94.679688 -32.964844 100.113281 -34.164062 104.84375 -36.5625 C 109.671875 -39.011719 113.835938 -42.339844 117.339844 -46.542969 C 120.867188 -50.773438 123.558594 -55.777344 125.410156 -61.546875 C 127.300781 -67.441406 128.246094 -73.753906 128.246094 -80.488281 C 128.246094 -87.378906 127.300781 -93.773438 125.410156 -99.664062 C 123.558594 -105.4375 120.90625 -110.402344 117.453125 -114.558594 C 114.050781 -118.65625 109.910156 -121.886719 105.039062 -124.253906 C 100.210938 -126.601562 94.707031 -127.773438 88.535156 -127.773438 C 82.363281 -127.773438 76.863281 -126.601562 72.03125 -124.253906 C 67.15625 -121.886719 62.980469 -118.613281 59.496094 -114.433594 C 55.964844 -110.195312 53.273438 -105.226562 51.417969 -99.527344 C 49.53125 -93.71875 48.589844 -87.375 48.589844 -80.488281 C 48.589844 -73.753906 49.535156 -67.441406 51.425781 -61.546875 C 53.277344 -55.777344 55.96875 -50.773438 59.496094 -46.542969 C 62.992188 -42.347656 67.1875 -39.023438 72.085938 -36.574219 C 76.898438 -34.167969 82.382812 -32.964844 88.535156 -32.964844 Z M 88.535156 -22.902344 C 80.800781 -22.902344 73.816406 -24.460938 67.585938 -27.578125 C 61.433594 -30.652344 56.160156 -34.828125 51.765625 -40.101562 C 47.402344 -45.335938 44.097656 -51.460938 41.84375 -58.472656 C 39.632812 -65.363281 38.527344 -72.703125 38.527344 -80.488281 C 38.527344 -88.4375 39.636719 -95.820312 41.851562 -102.636719 C 44.101562 -109.5625 47.40625 -115.644531 51.765625 -120.875 C 56.171875 -126.164062 61.464844 -130.304688 67.636719 -133.304688 C 73.855469 -136.324219 80.820312 -137.835938 88.535156 -137.835938 C 96.25 -137.835938 103.21875 -136.324219 109.433594 -133.304688 C 115.609375 -130.304688 120.863281 -126.199219 125.191406 -120.984375 C 129.472656 -115.832031 132.738281 -109.75 134.988281 -102.738281 C 137.203125 -95.847656 138.308594 -88.429688 138.308594 -80.488281 C 138.308594 -72.703125 137.203125 -65.363281 134.988281 -58.472656 C 132.738281 -51.460938 129.433594 -45.335938 125.070312 -40.101562 C 120.679688 -34.835938 115.457031 -30.664062 109.394531 -27.589844 C 103.234375 -24.464844 96.28125 -22.902344 88.535156 -22.902344 Z M 88.535156 7.398438 C 75.847656 7.398438 64.253906 5.128906 53.753906 0.59375 C 43.269531 -3.9375 34.238281 -10.15625 26.667969 -18.0625 C 19.105469 -25.960938 13.230469 -35.269531 9.042969 -45.988281 C 4.867188 -56.675781 2.78125 -68.175781 2.78125 -80.488281 C 2.78125 -92.796875 4.867188 -104.296875 9.042969 -114.984375 C 13.230469 -125.707031 19.105469 -135.015625 26.667969 -142.910156 C 34.242188 -150.824219 43.316406 -157.042969 53.886719 -161.574219 C 64.460938 -166.105469 76.011719 -168.371094 88.535156 -168.371094 C 101.0625 -168.371094 112.609375 -166.105469 123.1875 -161.574219 C 133.757812 -157.042969 142.828125 -150.824219 150.40625 -142.910156 C 157.964844 -135.015625 163.839844 -125.707031 168.027344 -114.984375 C 172.203125 -104.296875 174.289062 -92.796875 174.289062 -80.488281 C 174.289062 -68.175781 172.203125 -56.675781 168.027344 -45.988281 C 163.839844 -35.269531 157.964844 -25.960938 150.40625 -18.0625 C 142.828125 -10.152344 133.757812 -3.929688 123.1875 0.597656 C 112.609375 5.132812 101.0625 7.398438 88.535156 7.398438 Z M 88.535156 -2.664062 C 99.683594 -2.664062 109.914062 -4.660156 119.222656 -8.648438 C 128.535156 -12.640625 136.507812 -18.097656 143.136719 -25.019531 C 149.78125 -31.957031 154.953125 -40.167969 158.65625 -49.648438 C 162.371094 -59.160156 164.230469 -69.441406 164.230469 -80.488281 C 164.230469 -91.535156 162.371094 -101.8125 158.65625 -111.324219 C 154.953125 -120.804688 149.78125 -129.015625 143.136719 -135.953125 C 136.507812 -142.878906 128.535156 -148.335938 119.222656 -152.328125 C 109.914062 -156.316406 99.683594 -158.3125 88.535156 -158.3125 C 77.386719 -158.3125 67.160156 -156.316406 57.847656 -152.328125 C 48.535156 -148.335938 40.5625 -142.878906 33.933594 -135.953125 C 27.292969 -129.015625 22.121094 -120.804688 18.414062 -111.324219 C 14.699219 -101.8125 12.84375 -91.535156 12.84375 -80.488281 C 12.84375 -69.441406 14.699219 -59.160156 18.414062 -49.648438 C 22.121094 -40.167969 27.292969 -31.957031 33.933594 -25.019531 C 40.566406 -18.09375 48.503906 -12.632812 57.746094 -8.640625 C 66.972656 -4.65625 77.234375 -2.664062 88.535156 -2.664062 Z M 88.535156 -2.664062 "/></g></g></g><g fill="#ffffff" fill-opacity="1"><g transform="translate(896.597889, 911.445402)"><g><path d="M 14.203125 -166.003906 L 52.847656 -166.003906 L 52.847656 -29.117188 L 47.820312 -29.117188 L 47.820312 -34.148438 L 124.816406 -34.148438 L 124.816406 5.03125 L 9.171875 5.03125 L 9.171875 -166.003906 Z M 14.203125 -155.945312 L 14.203125 -160.972656 L 19.234375 -160.972656 L 19.234375 0 L 14.203125 0 L 14.203125 -5.03125 L 119.785156 -5.03125 L 119.785156 0 L 114.753906 0 L 114.753906 -29.117188 L 119.785156 -29.117188 L 119.785156 -24.085938 L 42.789062 -24.085938 L 42.789062 -160.972656 L 47.820312 -160.972656 L 47.820312 -155.945312 Z M 14.203125 -155.945312 "/></g></g></g><g fill="#ffffff" fill-opacity="1"><g transform="translate(1020.64273, 911.445402)"><g><path d="M 14.203125 -166.003906 L 52.847656 -166.003906 L 52.847656 -29.117188 L 47.820312 -29.117188 L 47.820312 -34.148438 L 124.816406 -34.148438 L 124.816406 5.03125 L 9.171875 5.03125 L 9.171875 -166.003906 Z M 14.203125 -155.945312 L 14.203125 -160.972656 L 19.234375 -160.972656 L 19.234375 0 L 14.203125 0 L 14.203125 -5.03125 L 119.785156 -5.03125 L 119.785156 0 L 114.753906 0 L 114.753906 -29.117188 L 119.785156 -29.117188 L 119.785156 -24.085938 L 42.789062 -24.085938 L 42.789062 -160.972656 L 47.820312 -160.972656 L 47.820312 -155.945312 Z M 14.203125 -155.945312 "/></g></g></g><g fill="#ffffff" fill-opacity="1"><g transform="translate(1144.687571, 911.445402)"><g><path d="M 97.515625 -58 L 73.84375 -125.941406 L 78.59375 -127.597656 L 83.34375 -125.941406 L 59.671875 -58 L 54.921875 -59.65625 L 54.921875 -64.6875 L 102.265625 -64.6875 L 102.265625 -59.65625 Z M 109.347656 -54.625 L 47.839844 -54.625 L 78.59375 -142.886719 L 107.015625 -61.308594 Z M -3.800781 -1.667969 L 53.960938 -166.003906 L 102.984375 -166.003906 L 163.351562 5.03125 L 119.3125 5.03125 L 106.996094 -29.5625 L 111.734375 -31.246094 L 111.734375 -26.21875 L 45.214844 -26.21875 L 45.214844 -31.246094 L 49.964844 -29.59375 L 37.898438 5.03125 L -6.152344 5.03125 Z M 5.691406 1.667969 L 0.945312 0 L 0.945312 -5.03125 L 34.324219 -5.03125 L 34.324219 0 L 29.574219 -1.65625 L 41.640625 -36.277344 L 115.285156 -36.277344 L 127.601562 -1.6875 L 122.863281 0 L 122.863281 -5.03125 L 156.238281 -5.03125 L 156.238281 0 L 151.496094 1.675781 L 94.683594 -159.300781 L 99.425781 -160.972656 L 99.425781 -155.945312 L 57.523438 -155.945312 L 57.523438 -160.972656 L 62.269531 -159.304688 Z M 5.691406 1.667969 "/></g></g></g><g fill="#ffffff" fill-opacity="1"><g transform="translate(1299.743665, 911.445402)"><g><path d="M 3.3125 -166.003906 L 157.007812 -166.003906 L 157.007812 -126.828125 L 94.691406 -126.828125 L 94.691406 -131.855469 L 99.722656 -131.855469 L 99.722656 5.03125 L 55.808594 5.03125 L 55.808594 -131.855469 L 60.839844 -131.855469 L 60.839844 -126.828125 L -1.714844 -126.828125 L -1.714844 -166.003906 Z M 3.3125 -155.945312 L 3.3125 -160.972656 L 8.34375 -160.972656 L 8.34375 -131.855469 L 3.3125 -131.855469 L 3.3125 -136.886719 L 65.871094 -136.886719 L 65.871094 0 L 60.839844 0 L 60.839844 -5.03125 L 94.691406 -5.03125 L 94.691406 0 L 89.660156 0 L 89.660156 -136.886719 L 151.980469 -136.886719 L 151.980469 -131.855469 L 146.949219 -131.855469 L 146.949219 -160.972656 L 151.980469 -160.972656 L 151.980469 -155.945312 Z M 3.3125 -155.945312 "/></g></g></g><g fill="#ffffff" fill-opacity="1"><g transform="translate(1452.906007, 911.445402)"><g><path d="M 14.203125 -166.003906 L 135.46875 -166.003906 L 135.46875 -126.828125 L 47.820312 -126.828125 L 47.820312 -131.855469 L 52.847656 -131.855469 L 52.847656 -93.035156 L 47.820312 -93.035156 L 47.820312 -98.066406 L 121.265625 -98.066406 L 121.265625 -58.886719 L 47.820312 -58.886719 L 47.820312 -63.917969 L 52.847656 -63.917969 L 52.847656 -29.117188 L 47.820312 -29.117188 L 47.820312 -34.148438 L 135.46875 -34.148438 L 135.46875 5.03125 L 9.171875 5.03125 L 9.171875 -166.003906 Z M 14.203125 -155.945312 L 14.203125 -160.972656 L 19.234375 -160.972656 L 19.234375 0 L 14.203125 0 L 14.203125 -5.03125 L 130.4375 -5.03125 L 130.4375 0 L 125.40625 0 L 125.40625 -29.117188 L 130.4375 -29.117188 L 130.4375 -24.085938 L 42.789062 -24.085938 L 42.789062 -68.945312 L 116.234375 -68.945312 L 116.234375 -63.917969 L 111.203125 -63.917969 L 111.203125 -93.035156 L 116.234375 -93.035156 L 116.234375 -88.003906 L 42.789062 -88.003906 L 42.789062 -136.886719 L 130.4375 -136.886719 L 130.4375 -131.855469 L 125.40625 -131.855469 L 125.40625 -160.972656 L 130.4375 -160.972656 L 130.4375 -155.945312 Z M 14.203125 -155.945312 "/></g></g></g><g fill="#ffffff" fill-opacity="1"><g transform="translate(1590.444285, 911.445402)"><g><path d="M 52.847656 -130.4375 L 52.847656 -82.382812 L 47.820312 -82.382812 L 47.820312 -87.410156 L 80.960938 -87.410156 C 85.761719 -87.410156 89.707031 -87.949219 92.800781 -89.027344 C 95.707031 -90.035156 97.988281 -91.375 99.65625 -93.039062 C 101.304688 -94.691406 102.480469 -96.558594 103.175781 -98.648438 C 103.949219 -100.972656 104.335938 -103.519531 104.335938 -106.289062 C 104.335938 -111.808594 102.703125 -116.421875 99.4375 -120.128906 C 96.335938 -123.644531 90.179688 -125.40625 80.960938 -125.40625 L 47.820312 -125.40625 L 47.820312 -130.4375 Z M 42.789062 -135.46875 L 80.960938 -135.46875 C 93.207031 -135.46875 101.882812 -132.570312 106.988281 -126.78125 C 111.929688 -121.171875 114.398438 -114.34375 114.398438 -106.289062 C 114.398438 -102.433594 113.839844 -98.824219 112.71875 -95.46875 C 111.523438 -91.875 109.539062 -88.695312 106.769531 -85.925781 C 104.015625 -83.171875 100.460938 -81.039062 96.105469 -79.523438 C 91.941406 -78.074219 86.894531 -77.351562 80.960938 -77.351562 L 42.789062 -77.351562 Z M 14.203125 -166.003906 L 82.144531 -166.003906 C 93.773438 -166.003906 103.84375 -164.488281 112.359375 -161.453125 C 121.015625 -158.367188 128.167969 -154.085938 133.820312 -148.609375 C 139.496094 -143.105469 143.691406 -136.683594 146.402344 -129.335938 C 149.054688 -122.148438 150.382812 -114.464844 150.382812 -106.289062 C 150.382812 -93.210938 146.984375 -81.972656 140.195312 -72.570312 C 133.308594 -63.035156 122.550781 -56.542969 107.917969 -53.101562 L 106.765625 -58 L 110.953125 -60.785156 L 154.738281 5.03125 L 105.648438 5.03125 L 69.367188 -52.472656 L 73.621094 -55.15625 L 73.621094 -50.125 L 47.820312 -50.125 L 47.820312 -55.15625 L 52.847656 -55.15625 L 52.847656 5.03125 L 9.171875 5.03125 L 9.171875 -166.003906 Z M 14.203125 -155.945312 L 14.203125 -160.972656 L 19.234375 -160.972656 L 19.234375 0 L 14.203125 0 L 14.203125 -5.03125 L 47.820312 -5.03125 L 47.820312 0 L 42.789062 0 L 42.789062 -60.1875 L 76.398438 -60.1875 L 112.675781 -2.683594 L 108.421875 0 L 108.421875 -5.03125 L 145.351562 -5.03125 L 145.351562 0 L 141.164062 2.785156 L 98.566406 -61.238281 L 105.613281 -62.894531 C 117.808594 -65.765625 126.617188 -70.953125 132.039062 -78.460938 C 137.558594 -86.105469 140.320312 -95.378906 140.320312 -106.289062 C 140.320312 -113.265625 139.199219 -119.789062 136.960938 -125.855469 C 134.78125 -131.765625 131.398438 -136.941406 126.816406 -141.382812 C 122.210938 -145.847656 116.265625 -149.378906 108.980469 -151.976562 C 101.558594 -154.621094 92.613281 -155.945312 82.144531 -155.945312 Z M 14.203125 -155.945312 "/></g></g></g><g fill="#ffffff" fill-opacity="1"><g transform="translate(1741.002536, 911.445402)"><g><path d="M 97.515625 -58 L 73.84375 -125.941406 L 78.59375 -127.597656 L 83.34375 -125.941406 L 59.671875 -58 L 54.921875 -59.65625 L 54.921875 -64.6875 L 102.265625 -64.6875 L 102.265625 -59.65625 Z M 109.347656 -54.625 L 47.839844 -54.625 L 78.59375 -142.886719 L 107.015625 -61.308594 Z M -3.800781 -1.667969 L 53.960938 -166.003906 L 102.984375 -166.003906 L 163.351562 5.03125 L 119.3125 5.03125 L 106.996094 -29.5625 L 111.734375 -31.246094 L 111.734375 -26.21875 L 45.214844 -26.21875 L 45.214844 -31.246094 L 49.964844 -29.59375 L 37.898438 5.03125 L -6.152344 5.03125 Z M 5.691406 1.667969 L 0.945312 0 L 0.945312 -5.03125 L 34.324219 -5.03125 L 34.324219 0 L 29.574219 -1.65625 L 41.640625 -36.277344 L 115.285156 -36.277344 L 127.601562 -1.6875 L 122.863281 0 L 122.863281 -5.03125 L 156.238281 -5.03125 L 156.238281 0 L 151.496094 1.675781 L 94.683594 -159.300781 L 99.425781 -160.972656 L 99.425781 -155.945312 L 57.523438 -155.945312 L 57.523438 -160.972656 L 62.269531 -159.304688 Z M 5.691406 1.667969 "/></g></g></g><g fill="#ffffff" fill-opacity="1"><g transform="translate(1896.05854, 911.445402)"><g><path d="M 14.203125 -166.003906 L 52.847656 -166.003906 L 52.847656 -29.117188 L 47.820312 -29.117188 L 47.820312 -34.148438 L 124.816406 -34.148438 L 124.816406 5.03125 L 9.171875 5.03125 L 9.171875 -166.003906 Z M 14.203125 -155.945312 L 14.203125 -160.972656 L 19.234375 -160.972656 L 19.234375 0 L 14.203125 0 L 14.203125 -5.03125 L 119.785156 -5.03125 L 119.785156 0 L 114.753906 0 L 114.753906 -29.117188 L 119.785156 -29.117188 L 119.785156 -24.085938 L 42.789062 -24.085938 L 42.789062 -160.972656 L 47.820312 -160.972656 L 47.820312 -155.945312 Z M 14.203125 -155.945312 "/></g></g></g><g fill="#000000" fill-opacity="1"><g transform="translate(562.102816, 911.445402)"><g><path d="M 86.171875 2.375 C 74.171875 2.375 63.316406 0.125 53.609375 -4.375 C 43.910156 -8.875 35.664062 -14.910156 28.875 -22.484375 C 22.09375 -30.066406 16.882812 -38.90625 13.25 -49 C 9.625 -59.101562 7.8125 -69.675781 7.8125 -80.71875 C 7.8125 -91.769531 9.625 -102.304688 13.25 -112.328125 C 16.882812 -122.347656 22.09375 -131.144531 28.875 -138.71875 C 35.664062 -146.300781 43.910156 -152.300781 53.609375 -156.71875 C 63.316406 -161.132812 74.171875 -163.34375 86.171875 -163.34375 C 94.847656 -163.34375 102.738281 -162.273438 109.84375 -160.140625 C 116.945312 -158.015625 123.335938 -155.054688 129.015625 -151.265625 C 134.703125 -147.484375 139.710938 -143.066406 144.046875 -138.015625 C 148.390625 -132.960938 152.140625 -127.519531 155.296875 -121.6875 L 126.171875 -103.453125 C 121.597656 -111.660156 115.914062 -118.601562 109.125 -124.28125 C 102.34375 -129.96875 94.691406 -132.8125 86.171875 -132.8125 C 79.222656 -132.8125 73.101562 -131.347656 67.8125 -128.421875 C 62.53125 -125.503906 58.070312 -121.640625 54.4375 -116.828125 C 50.8125 -112.015625 48.09375 -106.453125 46.28125 -100.140625 C 44.46875 -93.828125 43.5625 -87.351562 43.5625 -80.71875 C 43.5625 -74.09375 44.46875 -67.625 46.28125 -61.3125 C 48.09375 -55 50.8125 -49.394531 54.4375 -44.5 C 58.070312 -39.613281 62.53125 -35.671875 67.8125 -32.671875 C 73.101562 -29.671875 79.222656 -28.171875 86.171875 -28.171875 C 94.535156 -28.171875 102.269531 -30.734375 109.375 -35.859375 C 116.476562 -40.992188 122.078125 -47.582031 126.171875 -55.625 L 155.296875 -37.171875 C 148.984375 -25.328125 140.222656 -15.773438 129.015625 -8.515625 C 117.816406 -1.253906 103.535156 2.375 86.171875 2.375 Z M 86.171875 2.375 "/></g></g></g><g fill="#000000" fill-opacity="1"><g transform="translate(721.893442, 911.445402)"><g><path d="M 88.53125 -27.9375 C 95.476562 -27.9375 101.675781 -29.316406 107.125 -32.078125 C 112.570312 -34.835938 117.265625 -38.582031 121.203125 -43.3125 C 125.148438 -48.050781 128.148438 -53.613281 130.203125 -60 C 132.253906 -66.394531 133.28125 -73.222656 133.28125 -80.484375 C 133.28125 -87.898438 132.253906 -94.804688 130.203125 -101.203125 C 128.148438 -107.597656 125.191406 -113.125 121.328125 -117.78125 C 117.460938 -122.4375 112.765625 -126.101562 107.234375 -128.78125 C 101.710938 -131.46875 95.476562 -132.8125 88.53125 -132.8125 C 81.59375 -132.8125 75.359375 -131.46875 69.828125 -128.78125 C 64.304688 -126.101562 59.570312 -122.394531 55.625 -117.65625 C 51.6875 -112.925781 48.691406 -107.398438 46.640625 -101.078125 C 44.585938 -94.765625 43.5625 -87.898438 43.5625 -80.484375 C 43.5625 -73.222656 44.585938 -66.394531 46.640625 -60 C 48.691406 -53.613281 51.6875 -48.050781 55.625 -43.3125 C 59.570312 -38.582031 64.304688 -34.835938 69.828125 -32.078125 C 75.359375 -29.316406 81.59375 -27.9375 88.53125 -27.9375 Z M 88.53125 2.375 C 76.539062 2.375 65.613281 0.242188 55.75 -4.015625 C 45.882812 -8.285156 37.398438 -14.128906 30.296875 -21.546875 C 23.203125 -28.960938 17.679688 -37.71875 13.734375 -47.8125 C 9.785156 -57.914062 7.8125 -68.804688 7.8125 -80.484375 C 7.8125 -92.171875 9.785156 -103.0625 13.734375 -113.15625 C 17.679688 -123.257812 23.203125 -132.019531 30.296875 -139.4375 C 37.398438 -146.851562 45.921875 -152.691406 55.859375 -156.953125 C 65.804688 -161.210938 76.695312 -163.34375 88.53125 -163.34375 C 100.375 -163.34375 111.265625 -161.210938 121.203125 -156.953125 C 131.148438 -152.691406 139.671875 -146.851562 146.765625 -139.4375 C 153.867188 -132.019531 159.394531 -123.257812 163.34375 -113.15625 C 167.289062 -103.0625 169.265625 -92.171875 169.265625 -80.484375 C 169.265625 -68.804688 167.289062 -57.914062 163.34375 -47.8125 C 159.394531 -37.71875 153.867188 -28.960938 146.765625 -21.546875 C 139.671875 -14.128906 131.148438 -8.285156 121.203125 -4.015625 C 111.265625 0.242188 100.375 2.375 88.53125 2.375 Z M 88.53125 2.375 "/></g></g></g><g fill="#000000" fill-opacity="1"><g transform="translate(896.597889, 911.445402)"><g><path d="M 14.203125 -160.984375 L 47.828125 -160.984375 L 47.828125 -29.125 L 119.78125 -29.125 L 119.78125 0 L 14.203125 0 Z M 14.203125 -160.984375 "/></g></g></g><g fill="#000000" fill-opacity="1"><g transform="translate(1020.64273, 911.445402)"><g><path d="M 14.203125 -160.984375 L 47.828125 -160.984375 L 47.828125 -29.125 L 119.78125 -29.125 L 119.78125 0 L 14.203125 0 Z M 14.203125 -160.984375 "/></g></g></g><g fill="#000000" fill-opacity="1"><g transform="translate(1144.687571, 911.445402)"><g><path d="M 102.265625 -59.65625 L 78.59375 -127.59375 L 54.921875 -59.65625 Z M 0.953125 0 L 57.53125 -160.984375 L 99.421875 -160.984375 L 156.25 0 L 122.859375 0 L 111.734375 -31.25 L 45.21875 -31.25 L 34.328125 0 Z M 0.953125 0 "/></g></g></g><g fill="#000000" fill-opacity="1"><g transform="translate(1299.743665, 911.445402)"><g><path d="M 3.3125 -160.984375 L 151.984375 -160.984375 L 151.984375 -131.859375 L 94.6875 -131.859375 L 94.6875 0 L 60.84375 0 L 60.84375 -131.859375 L 3.3125 -131.859375 Z M 3.3125 -160.984375 "/></g></g></g><g fill="#000000" fill-opacity="1"><g transform="translate(1452.906007, 911.445402)"><g><path d="M 14.203125 -160.984375 L 130.4375 -160.984375 L 130.4375 -131.859375 L 47.828125 -131.859375 L 47.828125 -93.03125 L 116.234375 -93.03125 L 116.234375 -63.921875 L 47.828125 -63.921875 L 47.828125 -29.125 L 130.4375 -29.125 L 130.4375 0 L 14.203125 0 Z M 14.203125 -160.984375 "/></g></g></g><g fill="#000000" fill-opacity="1"><g transform="translate(1590.444285, 911.445402)"><g><path d="M 47.828125 -130.4375 L 47.828125 -82.390625 L 80.96875 -82.390625 C 86.332031 -82.390625 90.828125 -83.019531 94.453125 -84.28125 C 98.085938 -85.539062 101.007812 -87.273438 103.21875 -89.484375 C 105.425781 -91.691406 107.003906 -94.21875 107.953125 -97.0625 C 108.898438 -99.90625 109.375 -102.984375 109.375 -106.296875 C 109.375 -113.078125 107.320312 -118.796875 103.21875 -123.453125 C 99.113281 -128.109375 91.695312 -130.4375 80.96875 -130.4375 Z M 14.203125 -160.984375 L 82.140625 -160.984375 C 93.191406 -160.984375 102.703125 -159.5625 110.671875 -156.71875 C 118.640625 -153.875 125.1875 -149.96875 130.3125 -145 C 135.445312 -140.03125 139.238281 -134.226562 141.6875 -127.59375 C 144.132812 -120.96875 145.359375 -113.867188 145.359375 -106.296875 C 145.359375 -94.296875 142.28125 -84.035156 136.125 -75.515625 C 129.96875 -66.992188 120.179688 -61.15625 106.765625 -58 L 145.359375 0 L 108.421875 0 L 73.625 -55.15625 L 47.828125 -55.15625 L 47.828125 0 L 14.203125 0 Z M 14.203125 -160.984375 "/></g></g></g><g fill="#000000" fill-opacity="1"><g transform="translate(1741.002536, 911.445402)"><g><path d="M 102.265625 -59.65625 L 78.59375 -127.59375 L 54.921875 -59.65625 Z M 0.953125 0 L 57.53125 -160.984375 L 99.421875 -160.984375 L 156.25 0 L 122.859375 0 L 111.734375 -31.25 L 45.21875 -31.25 L 34.328125 0 Z M 0.953125 0 "/></g></g></g><g fill="#000000" fill-opacity="1"><g transform="translate(1896.05854, 911.445402)"><g><path d="M 14.203125 -160.984375 L 47.828125 -160.984375 L 47.828125 -29.125 L 119.78125 -29.125 L 119.78125 0 L 14.203125 0 Z M 14.203125 -160.984375 "/></g></g></g></svg>