<svg width="340" height="44" viewBox="0 0 340 44" fill="none" xmlns="http://www.w3.org/2000/svg">
  <defs>
    <clipPath id="pub-logo-clip">
      <path d="M 1.757812 0.640625 L 116.507812 0.640625 L 116.507812 109 L 1.757812 109 Z"/>
    </clipPath>
  </defs>
  <g transform="translate(10.6, 10) scale(0.192)" fill="#5C1414">
    <!-- Bottom chevron -->
    <path d="M 59.636719 123.566406 L 34.3125 82.125 L 45.179688 75.484375 L 59.945312 99.648438 L 75.808594 75.144531 L 86.5 82.0625 Z"/>
    <!-- Outer loop (clipped) -->
    <g clip-path="url(#pub-logo-clip)">
      <path d="M 83.375 108.589844 C 78.132812 108.589844 74.0625 105.5625 72.589844 104.464844 C 69.625 102.253906 65.089844 96.898438 59.710938 89.707031 C 54.09375 97.050781 49.230469 102.507812 45.828125 104.707031 C 43.800781 106.019531 37.617188 110.011719 30.75 107.859375 C 25.371094 106.171875 21.28125 101.164062 19.230469 93.765625 L 31.5 90.367188 C 32.472656 93.863281 33.890625 95.5 34.558594 95.710938 C 35.082031 95.875 36.269531 95.714844 38.914062 94.007812 C 41.449219 92.371094 45.957031 87.105469 51.953125 78.933594 C 36.53125 56.84375 17.695312 26.539062 7.785156 10.347656 L 1.855469 0.65625 L 116.726562 0.65625 L 111.03125 10.273438 C 101.410156 26.503906 83.089844 56.828125 67.550781 78.960938 C 73.308594 86.929688 77.773438 92.445312 80.199219 94.253906 C 82.171875 95.71875 83.105469 95.914062 83.53125 95.839844 C 84.265625 95.699219 85.976562 93.992188 87.429688 90.027344 L 99.386719 94.410156 C 96.464844 102.382812 91.820312 107.203125 85.96875 108.339844 C 85.074219 108.511719 84.210938 108.589844 83.375 108.589844 Z M 24.617188 13.390625 C 36.839844 33.121094 49.46875 52.792969 59.777344 67.863281 C 69.355469 53.875 81.28125 35.117188 94.335938 13.390625 Z M 24.617188 13.390625 "/>
    </g>
    <!-- Diagonal bands and connectors -->
    <path d="M 11.75 12.0625 L 19.546875 1.992188 L 94.867188 60.308594 L 87.070312 70.378906 Z"/>
    <path d="M 26.257812 60.371094 L 99.144531 2.046875 L 107.101562 11.992188 L 34.214844 70.316406 Z"/>
    <path d="M 72.203125 104.148438 L 79.171875 93.378906 C 77.164062 91.507812 74.226562 87.941406 70.628906 83.144531 L 63.328125 94.421875 C 66.917969 98.964844 69.957031 102.359375 72.203125 104.148438 Z"/>
    <path d="M 56.421875 93.882812 L 49.382812 82.371094 C 45.777344 87.117188 42.839844 90.570312 40.6875 92.5625 L 47.394531 103.539062 C 49.890625 101.503906 52.964844 98.152344 56.421875 93.882812 Z"/>
    <path d="M 67.976562 55.589844 L 78.074219 63.410156 C 80.394531 59.875 82.722656 56.285156 85.019531 52.679688 L 74.90625 44.847656 C 72.519531 48.601562 70.203125 52.191406 67.976562 55.589844 Z"/>
    <path d="M 44.90625 45.449219 L 34.894531 53.457031 C 37.226562 57.054688 39.578125 60.632812 41.914062 64.152344 L 51.914062 56.15625 C 49.640625 52.722656 47.292969 49.128906 44.90625 45.449219 Z"/>
    <path d="M 60.039062 33.339844 L 49.808594 41.523438 L 60.167969 49.546875 L 70.398438 41.359375 Z"/>
  </g>
  <text x="54" y="28.5" fill="#111111" font-family="'Inter Tight', 'IBM Plex Sans', 'Neue Haas Grotesk Display', 'Helvetica Neue', -apple-system, sans-serif" font-size="18.5" font-weight="500" letter-spacing="0.05em">COLLATERAL</text>
</svg>
