<svg xmlns="http://www.w3.org/2000/svg" xmlns:xlink="http://www.w3.org/1999/xlink" width="1500" zoomAndPan="magnify" viewBox="0 0 1125 299.999988" height="400" preserveAspectRatio="xMidYMid meet" version="1.0"><defs><g/><clipPath id="d195d7cb29"><rect x="0" width="765" y="0" height="113"/></clipPath></defs><path fill="#752122" d="M 225.425781 24.226562 C 227.382812 24.226562 229.335938 24.273438 231.289062 24.371094 C 233.238281 24.464844 235.1875 24.609375 237.132812 24.800781 C 239.078125 24.992188 241.019531 25.230469 242.953125 25.519531 C 244.886719 25.804688 246.8125 26.136719 248.726562 26.519531 C 250.644531 26.902344 252.550781 27.328125 254.449219 27.804688 C 256.34375 28.277344 258.226562 28.800781 260.097656 29.367188 C 261.96875 29.933594 263.824219 30.546875 265.664062 31.203125 C 267.503906 31.863281 269.328125 32.566406 271.132812 33.3125 C 272.941406 34.0625 274.726562 34.851562 276.492188 35.6875 C 278.261719 36.523438 280.003906 37.402344 281.730469 38.324219 C 283.453125 39.246094 285.152344 40.207031 286.832031 41.214844 C 288.507812 42.21875 290.160156 43.261719 291.785156 44.347656 C 293.410156 45.433594 295.007812 46.558594 296.578125 47.722656 C 298.148438 48.886719 299.6875 50.089844 301.199219 51.332031 C 302.710938 52.570312 304.1875 53.847656 305.636719 55.160156 C 307.085938 56.472656 308.5 57.820312 309.882812 59.203125 C 311.265625 60.582031 312.613281 62 313.925781 63.445312 C 315.238281 64.894531 316.515625 66.375 317.753906 67.886719 C 318.996094 69.394531 320.199219 70.9375 321.363281 72.507812 C 322.527344 74.078125 323.652344 75.675781 324.738281 77.300781 C 325.824219 78.925781 326.871094 80.574219 327.875 82.25 C 328.878906 83.929688 329.84375 85.628906 330.765625 87.351562 C 331.6875 89.074219 332.566406 90.820312 333.402344 92.589844 C 334.238281 94.355469 335.027344 96.140625 335.777344 97.945312 C 336.527344 99.753906 337.230469 101.574219 337.886719 103.417969 C 338.546875 105.257812 339.160156 107.113281 339.726562 108.984375 C 340.292969 110.851562 340.816406 112.738281 341.289062 114.632812 C 341.765625 116.527344 342.195312 118.433594 342.574219 120.351562 C 342.957031 122.269531 343.292969 124.195312 343.578125 126.128906 C 343.863281 128.0625 344.105469 130 344.296875 131.945312 C 344.488281 133.890625 344.632812 135.839844 344.726562 137.792969 C 344.824219 139.746094 344.871094 141.699219 344.871094 143.652344 C 344.871094 145.609375 344.824219 147.5625 344.726562 149.511719 C 344.632812 151.464844 344.488281 153.414062 344.296875 155.359375 C 344.105469 157.304688 343.867188 159.246094 343.582031 161.179688 C 343.292969 163.113281 342.960938 165.035156 342.578125 166.953125 C 342.195312 168.871094 341.769531 170.777344 341.292969 172.671875 C 340.820312 174.570312 340.296875 176.453125 339.730469 178.324219 C 339.164062 180.195312 338.550781 182.050781 337.890625 183.890625 C 337.234375 185.730469 336.53125 187.554688 335.78125 189.359375 C 335.035156 191.164062 334.242188 192.953125 333.40625 194.71875 C 332.570312 196.484375 331.695312 198.230469 330.773438 199.957031 C 329.851562 201.679688 328.886719 203.378906 327.882812 205.054688 C 326.878906 206.734375 325.832031 208.382812 324.746094 210.007812 C 323.660156 211.632812 322.535156 213.230469 321.371094 214.800781 C 320.207031 216.371094 319.003906 217.914062 317.765625 219.425781 C 316.527344 220.933594 315.25 222.414062 313.9375 223.863281 C 312.625 225.3125 311.277344 226.726562 309.894531 228.109375 C 308.511719 229.492188 307.097656 230.839844 305.648438 232.152344 C 304.199219 233.464844 302.722656 234.742188 301.210938 235.980469 C 299.699219 237.222656 298.160156 238.421875 296.589844 239.585938 C 295.019531 240.753906 293.421875 241.878906 291.796875 242.964844 C 290.171875 244.050781 288.519531 245.09375 286.84375 246.101562 C 285.167969 247.105469 283.46875 248.066406 281.742188 248.988281 C 280.019531 249.910156 278.273438 250.789062 276.507812 251.625 C 274.738281 252.460938 272.953125 253.253906 271.148438 254 C 269.34375 254.75 267.519531 255.453125 265.679688 256.109375 C 263.839844 256.769531 261.984375 257.382812 260.113281 257.949219 C 258.242188 258.519531 256.359375 259.039062 254.460938 259.515625 C 252.566406 259.988281 250.660156 260.417969 248.742188 260.796875 C 246.824219 261.179688 244.898438 261.515625 242.964844 261.800781 C 241.03125 262.089844 239.09375 262.328125 237.148438 262.519531 C 235.203125 262.710938 233.253906 262.855469 231.300781 262.949219 C 229.351562 263.046875 227.394531 263.09375 225.441406 263.09375 C 223.488281 263.09375 221.535156 263.046875 219.582031 262.949219 C 217.628906 262.855469 215.679688 262.710938 213.734375 262.519531 C 211.789062 262.328125 209.851562 262.089844 207.917969 261.800781 C 205.984375 261.515625 204.058594 261.179688 202.140625 260.800781 C 200.222656 260.417969 198.316406 259.992188 196.421875 259.515625 C 194.523438 259.039062 192.640625 258.519531 190.769531 257.953125 C 188.902344 257.386719 187.046875 256.773438 185.203125 256.113281 C 183.363281 255.457031 181.542969 254.753906 179.734375 254.003906 C 177.929688 253.257812 176.144531 252.464844 174.375 251.628906 C 172.609375 250.792969 170.863281 249.914062 169.140625 248.992188 C 167.414062 248.070312 165.714844 247.109375 164.039062 246.105469 C 162.363281 245.097656 160.710938 244.054688 159.085938 242.96875 C 157.460938 241.882812 155.863281 240.757812 154.292969 239.59375 C 152.722656 238.425781 151.183594 237.226562 149.671875 235.984375 C 148.160156 234.746094 146.679688 233.46875 145.234375 232.15625 C 143.785156 230.84375 142.367188 229.496094 140.988281 228.113281 C 139.605469 226.730469 138.257812 225.316406 136.945312 223.867188 C 135.632812 222.421875 134.355469 220.941406 133.117188 219.429688 C 131.875 217.917969 130.671875 216.378906 129.507812 214.808594 C 128.34375 213.238281 127.21875 211.640625 126.132812 210.015625 C 125.046875 208.390625 124 206.738281 122.996094 205.0625 C 121.992188 203.386719 121.027344 201.6875 120.105469 199.960938 C 119.1875 198.238281 118.308594 196.492188 117.472656 194.726562 C 116.636719 192.960938 115.84375 191.171875 115.097656 189.367188 C 114.347656 187.5625 113.644531 185.738281 112.984375 183.898438 C 112.328125 182.058594 111.714844 180.203125 111.148438 178.332031 C 110.578125 176.460938 110.058594 174.578125 109.582031 172.679688 C 109.109375 170.785156 108.679688 168.878906 108.300781 166.960938 C 107.917969 165.042969 107.582031 163.117188 107.296875 161.183594 C 107.011719 159.25 106.769531 157.3125 106.578125 155.367188 C 106.386719 153.421875 106.242188 151.472656 106.148438 149.519531 C 106.050781 147.570312 106.003906 145.613281 106.003906 143.660156 C 106.003906 141.707031 106.050781 139.753906 106.148438 137.800781 C 106.242188 135.847656 106.386719 133.898438 106.578125 131.953125 C 106.769531 130.007812 107.011719 128.070312 107.296875 126.136719 C 107.582031 124.203125 107.917969 122.277344 108.296875 120.363281 C 108.679688 118.445312 109.109375 116.539062 109.582031 114.640625 C 110.058594 112.746094 110.578125 110.863281 111.144531 108.992188 C 111.714844 107.121094 112.328125 105.265625 112.984375 103.425781 C 113.644531 101.585938 114.347656 99.761719 115.09375 97.957031 C 115.84375 96.152344 116.632812 94.367188 117.46875 92.597656 C 118.304688 90.832031 119.183594 89.085938 120.105469 87.363281 C 121.027344 85.640625 121.988281 83.9375 122.992188 82.261719 C 124 80.585938 125.042969 78.933594 126.128906 77.308594 C 127.214844 75.683594 128.339844 74.085938 129.503906 72.515625 C 130.667969 70.949219 131.871094 69.40625 133.109375 67.894531 C 134.351562 66.386719 135.628906 64.90625 136.941406 63.457031 C 138.253906 62.007812 139.597656 60.59375 140.980469 59.210938 C 142.363281 57.828125 143.777344 56.480469 145.226562 55.167969 C 146.675781 53.855469 148.152344 52.582031 149.664062 51.339844 C 151.175781 50.101562 152.714844 48.898438 154.285156 47.734375 C 155.855469 46.570312 157.453125 45.445312 159.078125 44.359375 C 160.703125 43.273438 162.355469 42.226562 164.03125 41.222656 C 165.707031 40.21875 167.40625 39.253906 169.128906 38.332031 C 170.855469 37.410156 172.597656 36.53125 174.367188 35.695312 C 176.132812 34.859375 177.917969 34.070312 179.726562 33.320312 C 181.53125 32.574219 183.351562 31.871094 185.195312 31.210938 C 187.035156 30.550781 188.890625 29.941406 190.757812 29.371094 C 192.628906 28.804688 194.511719 28.28125 196.410156 27.808594 C 198.304688 27.332031 200.210938 26.90625 202.128906 26.523438 C 204.042969 26.140625 205.96875 25.808594 207.902344 25.519531 C 209.835938 25.234375 211.777344 24.996094 213.722656 24.800781 C 215.664062 24.609375 217.613281 24.46875 219.566406 24.371094 C 221.519531 24.273438 223.472656 24.226562 225.425781 24.226562 Z M 225.425781 24.226562 " fill-opacity="1" fill-rule="nonzero"/><path fill="#3b0001" d="M 339.140625 180.289062 C 338.417969 182.53125 337.628906 184.753906 336.773438 186.949219 C 335.917969 189.148438 335 191.320312 334.015625 193.460938 C 333.035156 195.605469 331.988281 197.71875 330.878906 199.800781 C 329.769531 201.878906 328.601562 203.925781 327.371094 205.941406 C 326.144531 207.953125 324.855469 209.925781 323.507812 211.863281 C 322.164062 213.796875 320.761719 215.691406 319.300781 217.542969 C 317.84375 219.398438 316.332031 221.207031 314.765625 222.96875 C 313.199219 224.730469 311.582031 226.449219 309.914062 228.113281 C 308.25 229.78125 306.53125 231.398438 304.769531 232.964844 C 303.007812 234.53125 301.199219 236.042969 299.347656 237.503906 C 297.492188 238.960938 295.601562 240.363281 293.664062 241.710938 C 291.726562 243.058594 289.753906 244.34375 287.742188 245.574219 C 285.730469 246.804688 283.683594 247.972656 281.601562 249.082031 C 279.519531 250.191406 277.410156 251.238281 275.265625 252.21875 C 273.121094 253.203125 270.953125 254.125 268.753906 254.976562 C 266.558594 255.832031 264.335938 256.621094 262.089844 257.34375 C 259.847656 258.070312 257.582031 258.726562 255.300781 259.316406 C 253.015625 259.902344 250.71875 260.425781 248.402344 260.878906 C 246.089844 261.332031 243.765625 261.714844 241.429688 262.03125 C 239.089844 262.347656 236.746094 262.59375 234.394531 262.769531 C 232.042969 262.945312 229.6875 263.054688 227.332031 263.089844 C 224.972656 263.128906 222.617188 263.09375 220.261719 262.992188 C 217.90625 262.890625 215.554688 262.71875 213.207031 262.476562 C 210.863281 262.234375 208.527344 261.921875 206.199219 261.542969 C 203.871094 261.164062 201.558594 260.714844 199.257812 260.199219 C 196.957031 259.679688 194.671875 259.097656 192.40625 258.445312 C 190.140625 257.792969 187.898438 257.074219 185.671875 256.289062 C 183.449219 255.5 181.25 254.652344 179.078125 253.734375 C 176.90625 252.820312 174.761719 251.839844 172.644531 250.800781 C 170.53125 249.757812 168.449219 248.652344 166.398438 247.488281 C 164.347656 246.320312 162.335938 245.097656 160.359375 243.8125 C 158.382812 242.527344 156.445312 241.183594 154.546875 239.785156 C 152.648438 238.382812 150.792969 236.929688 148.984375 235.417969 C 147.171875 233.910156 145.40625 232.347656 143.6875 230.734375 C 141.96875 229.121094 140.296875 227.457031 138.675781 225.742188 C 137.058594 224.03125 135.488281 222.269531 133.972656 220.464844 C 132.457031 218.660156 130.996094 216.808594 129.585938 214.917969 C 128.179688 213.023438 126.832031 211.09375 125.539062 209.121094 C 124.246094 207.148438 123.015625 205.136719 121.839844 203.09375 C 120.667969 201.046875 119.554688 198.96875 118.503906 196.859375 C 117.457031 194.746094 116.46875 192.605469 115.542969 190.4375 C 114.621094 188.265625 113.761719 186.070312 112.96875 183.851562 C 112.175781 181.628906 111.449219 179.386719 110.789062 177.125 C 110.128906 174.859375 109.535156 172.578125 109.007812 170.28125 C 108.484375 167.980469 108.027344 165.671875 107.636719 163.34375 C 107.25 161.019531 106.929688 158.683594 106.679688 156.339844 C 106.429688 153.992188 106.25 151.644531 106.136719 149.289062 C 106.027344 146.933594 105.984375 144.574219 106.011719 142.21875 C 106.042969 139.859375 106.140625 137.503906 106.308594 135.152344 C 106.476562 132.800781 106.714844 130.457031 107.019531 128.117188 C 107.328125 125.78125 107.703125 123.453125 108.148438 121.136719 C 108.589844 118.820312 109.105469 116.519531 109.683594 114.234375 C 110.265625 111.949219 110.914062 109.683594 111.628906 107.4375 C 112.34375 105.191406 113.125 102.964844 113.972656 100.765625 C 114.820312 98.566406 115.730469 96.390625 116.707031 94.242188 C 117.679688 92.097656 118.71875 89.980469 119.820312 87.894531 C 120.921875 85.8125 122.082031 83.757812 123.304688 81.742188 C 124.527344 79.726562 125.808594 77.746094 127.148438 75.808594 C 128.488281 73.867188 129.882812 71.96875 131.335938 70.109375 C 132.789062 68.25 134.292969 66.4375 135.851562 64.667969 C 137.410156 62.898438 139.023438 61.179688 140.683594 59.503906 C 142.34375 57.832031 144.054688 56.210938 145.8125 54.636719 C 147.570312 53.066406 149.371094 51.546875 151.21875 50.082031 C 153.066406 48.617188 154.957031 47.207031 156.886719 45.851562 C 156.167969 48.082031 155.519531 50.332031 154.933594 52.601562 C 154.351562 54.867188 153.832031 57.152344 153.382812 59.449219 C 152.933594 61.75 152.550781 64.058594 152.238281 66.378906 C 151.921875 68.699219 151.675781 71.03125 151.5 73.363281 C 151.324219 75.699219 151.214844 78.039062 151.175781 80.382812 C 151.132812 82.722656 151.164062 85.066406 151.261719 87.40625 C 151.359375 89.746094 151.527344 92.082031 151.761719 94.410156 C 151.996094 96.742188 152.300781 99.0625 152.671875 101.375 C 153.042969 103.6875 153.480469 105.988281 153.988281 108.273438 C 154.496094 110.5625 155.070312 112.832031 155.710938 115.085938 C 156.351562 117.335938 157.054688 119.570312 157.828125 121.78125 C 158.601562 123.992188 159.4375 126.179688 160.335938 128.34375 C 161.238281 130.503906 162.199219 132.640625 163.226562 134.746094 C 164.25 136.851562 165.335938 138.925781 166.484375 140.964844 C 167.632812 143.007812 168.839844 145.015625 170.105469 146.984375 C 171.371094 148.957031 172.695312 150.886719 174.074219 152.78125 C 175.453125 154.675781 176.886719 156.527344 178.375 158.335938 C 179.863281 160.144531 181.402344 161.90625 182.996094 163.625 C 184.585938 165.34375 186.226562 167.011719 187.917969 168.636719 C 189.605469 170.257812 191.34375 171.828125 193.125 173.347656 C 194.90625 174.867188 196.734375 176.332031 198.601562 177.746094 C 200.472656 179.15625 202.378906 180.515625 204.328125 181.816406 C 206.277344 183.113281 208.261719 184.355469 210.28125 185.539062 C 212.304688 186.722656 214.359375 187.847656 216.445312 188.910156 C 218.53125 189.972656 220.648438 190.972656 222.796875 191.910156 C 224.941406 192.847656 227.113281 193.722656 229.3125 194.53125 C 231.507812 195.34375 233.730469 196.089844 235.96875 196.769531 C 238.210938 197.449219 240.472656 198.0625 242.75 198.609375 C 245.027344 199.15625 247.320312 199.636719 249.625 200.046875 C 251.929688 200.460938 254.246094 200.804688 256.570312 201.082031 C 258.898438 201.355469 261.230469 201.5625 263.566406 201.703125 C 265.90625 201.84375 268.246094 201.910156 270.589844 201.914062 C 276.6875 201.925781 282.75 201.46875 288.777344 200.546875 C 294.804688 199.625 300.726562 198.246094 306.539062 196.410156 C 312.355469 194.574219 317.996094 192.308594 323.460938 189.605469 C 328.925781 186.902344 334.152344 183.796875 339.140625 180.289062 Z M 339.140625 180.289062 " fill-opacity="1" fill-rule="nonzero"/><path fill="#752122" d="M 105.925781 108.128906 C 82.953125 91.273438 70 78.964844 72.292969 74.984375 C 74.589844 71.003906 91.851562 76.003906 119.570312 88.324219 C 122.824219 82.136719 126.59375 76.28125 130.875 70.757812 C 61.621094 38.253906 12.976562 24.417969 6.136719 36.253906 C -0.046875 46.984375 28.871094 76.339844 78.375 112.71875 C 110.910156 136.628906 152.34375 163.589844 198.542969 190.234375 C 236.359375 212.066406 272.714844 231.035156 304.945312 246.09375 C 372.027344 277.453125 421.15625 291.875 428.109375 279.871094 C 435.0625 267.863281 398.457031 232.683594 335.917969 189.152344 C 333.253906 195.601562 330.054688 201.777344 326.308594 207.667969 C 350.648438 225.382812 363.808594 237.953125 361.511719 241.941406 C 358.800781 246.625 335.589844 238.800781 301.4375 222.726562 C 275.335938 210.460938 242.859375 193.332031 208.265625 173.402344 C 166.96875 149.550781 130.648438 126.230469 105.925781 108.128906 Z M 105.925781 108.128906 " fill-opacity="1" fill-rule="nonzero"/><path fill="#000000" d="M 40.707031 56.886719 C 45.230469 48.972656 77.378906 57.9375 124.769531 79.371094 C 125.359375 78.453125 125.898438 77.550781 126.554688 76.65625 C 127.921875 74.636719 129.339844 72.671875 130.816406 70.757812 C 61.609375 38.253906 12.976562 24.417969 6.136719 36.253906 C -0.046875 46.984375 28.871094 76.339844 78.375 112.71875 C 87.136719 119.1875 96.53125 125.800781 106.480469 132.605469 C 133.609375 151.085938 164.777344 170.722656 198.542969 190.257812 C 232.3125 209.792969 264.949219 226.988281 294.5 241.128906 C 298.023438 242.824219 301.507812 244.476562 304.945312 246.082031 C 372.027344 277.453125 421.15625 291.875 428.109375 279.871094 C 435.0625 267.863281 398.457031 232.683594 335.917969 189.152344 C 334.570312 192.40625 333.089844 195.585938 331.476562 198.691406 C 373.621094 228.941406 397.539062 252.34375 392.972656 260.257812 C 388.125 268.65625 352.570312 257.996094 302.59375 234.890625 C 298.976562 233.214844 295.289062 231.484375 291.535156 229.6875 C 264.765625 216.890625 234.480469 200.917969 202.90625 182.695312 C 166.925781 161.917969 134.3125 141.117188 107.878906 122.476562 C 105.992188 121.140625 104.128906 119.820312 102.308594 118.507812 C 60.707031 88.664062 36.0625 64.921875 40.707031 56.886719 Z M 40.707031 56.886719 " fill-opacity="1" fill-rule="nonzero"/><path fill="#ffffff" d="M 250.792969 49.097656 C 250.421875 49 250.066406 48.863281 249.71875 48.695312 C 249.375 48.527344 249.050781 48.328125 248.746094 48.09375 C 248.4375 47.859375 248.160156 47.601562 247.90625 47.3125 C 247.652344 47.023438 247.425781 46.714844 247.234375 46.382812 C 247.042969 46.050781 246.882812 45.703125 246.757812 45.339844 C 246.632812 44.976562 246.546875 44.605469 246.496094 44.222656 C 246.441406 43.84375 246.429688 43.460938 246.453125 43.078125 C 246.476562 42.695312 246.539062 42.316406 246.636719 41.945312 C 246.734375 41.574219 246.871094 41.214844 247.039062 40.871094 C 247.207031 40.527344 247.40625 40.203125 247.640625 39.894531 C 247.875 39.589844 248.132812 39.3125 248.421875 39.058594 C 248.710938 38.804688 249.019531 38.578125 249.351562 38.386719 C 249.683594 38.195312 250.03125 38.035156 250.394531 37.910156 C 250.757812 37.785156 251.132812 37.699219 251.511719 37.648438 C 251.894531 37.597656 252.273438 37.582031 252.660156 37.609375 C 253.042969 37.632812 253.417969 37.695312 253.789062 37.792969 C 263.074219 40.285156 271.882812 43.9375 280.210938 48.746094 C 280.539062 48.9375 280.847656 49.15625 281.136719 49.40625 C 281.421875 49.65625 281.683594 49.933594 281.917969 50.234375 C 282.148438 50.535156 282.351562 50.855469 282.519531 51.199219 C 282.691406 51.539062 282.824219 51.894531 282.925781 52.261719 C 283.023438 52.628906 283.085938 53.003906 283.113281 53.382812 C 283.140625 53.765625 283.128906 54.144531 283.078125 54.523438 C 283.03125 54.898438 282.945312 55.269531 282.824219 55.628906 C 282.703125 55.992188 282.546875 56.335938 282.355469 56.667969 C 282.167969 57 281.945312 57.308594 281.695312 57.59375 C 281.445312 57.882812 281.167969 58.140625 280.867188 58.375 C 280.566406 58.605469 280.242188 58.808594 279.902344 58.976562 C 279.558594 59.144531 279.207031 59.28125 278.835938 59.378906 C 278.46875 59.480469 278.097656 59.542969 277.714844 59.566406 C 277.335938 59.59375 276.957031 59.582031 276.578125 59.53125 C 276.199219 59.484375 275.832031 59.398438 275.46875 59.277344 C 275.109375 59.152344 274.761719 58.996094 274.433594 58.808594 C 266.980469 54.535156 259.101562 51.296875 250.792969 49.097656 Z M 250.792969 49.097656 " fill-opacity="1" fill-rule="nonzero"/><path fill="#ffffff" d="M 289.875 69.863281 C 289.585938 69.613281 289.328125 69.335938 289.09375 69.035156 C 288.863281 68.730469 288.664062 68.410156 288.492188 68.070312 C 288.324219 67.726562 288.191406 67.371094 288.089844 67.003906 C 287.992188 66.636719 287.929688 66.261719 287.902344 65.882812 C 287.878906 65.5 287.890625 65.121094 287.941406 64.746094 C 287.988281 64.367188 288.074219 63.996094 288.195312 63.636719 C 288.320312 63.273438 288.476562 62.929688 288.664062 62.597656 C 288.855469 62.269531 289.074219 61.960938 289.328125 61.671875 C 289.578125 61.386719 289.855469 61.125 290.15625 60.894531 C 290.457031 60.660156 290.78125 60.460938 291.121094 60.292969 C 291.460938 60.121094 291.816406 59.988281 292.183594 59.890625 C 292.554688 59.789062 292.925781 59.726562 293.308594 59.703125 C 293.6875 59.675781 294.066406 59.6875 294.445312 59.738281 C 294.824219 59.789062 295.191406 59.875 295.554688 59.996094 C 295.914062 60.117188 296.261719 60.273438 296.589844 60.464844 C 296.921875 60.652344 297.230469 60.875 297.515625 61.125 C 301.589844 64.683594 305.382812 68.519531 308.890625 72.636719 C 312.394531 76.757812 315.578125 81.109375 318.441406 85.699219 C 321.304688 90.292969 323.808594 95.066406 325.964844 100.027344 C 328.117188 104.992188 329.894531 110.082031 331.296875 115.308594 C 331.394531 115.675781 331.453125 116.050781 331.480469 116.433594 C 331.503906 116.8125 331.492188 117.195312 331.441406 117.574219 C 331.390625 117.949219 331.304688 118.320312 331.179688 118.683594 C 331.058594 119.042969 330.898438 119.390625 330.707031 119.71875 C 330.515625 120.050781 330.296875 120.359375 330.042969 120.644531 C 329.792969 120.933594 329.515625 121.191406 329.210938 121.421875 C 328.90625 121.65625 328.585938 121.855469 328.242188 122.023438 C 327.898438 122.191406 327.542969 122.328125 327.175781 122.425781 C 326.804688 122.523438 326.429688 122.585938 326.050781 122.609375 C 325.667969 122.632812 325.289062 122.621094 324.910156 122.570312 C 324.53125 122.519531 324.160156 122.433594 323.800781 122.308594 C 323.4375 122.1875 323.09375 122.03125 322.761719 121.839844 C 322.433594 121.648438 322.125 121.425781 321.835938 121.171875 C 321.550781 120.921875 321.292969 120.644531 321.058594 120.339844 C 320.828125 120.035156 320.625 119.714844 320.457031 119.371094 C 320.289062 119.027344 320.15625 118.671875 320.058594 118.304688 C 318.804688 113.636719 317.214844 109.082031 315.289062 104.648438 C 313.363281 100.214844 311.121094 95.945312 308.5625 91.84375 C 306.007812 87.738281 303.164062 83.847656 300.03125 80.164062 C 296.898438 76.480469 293.511719 73.046875 289.875 69.863281 Z M 289.875 69.863281 " fill-opacity="1" fill-rule="nonzero"/><g transform="matrix(1, 0, 0, 1, 356, 95)"><g clip-path="url(#d195d7cb29)"><g fill="#ffffff" fill-opacity="1"><g transform="translate(1.437813, 90.997869)"><g><path d="M 41.40625 -74.292969 C 52.457031 -74.292969 61.238281 -71.488281 67.761719 -65.882812 C 74.382812 -60.191406 77.691406 -52.136719 77.691406 -41.714844 L 77.691406 -39.527344 L 51.578125 -39.527344 L 51.578125 -41.714844 C 51.578125 -45.277344 50.683594 -48.050781 48.898438 -50.039062 C 47.167969 -51.957031 44.636719 -52.917969 41.304688 -52.917969 C 37.433594 -52.917969 34.636719 -51.769531 32.910156 -49.46875 C 31.039062 -46.972656 30.101562 -43.394531 30.101562 -38.730469 L 30.101562 -32.136719 C 30.101562 -27.539062 31.042969 -23.972656 32.917969 -21.441406 C 34.644531 -19.113281 37.371094 -17.949219 41.097656 -17.949219 C 44.890625 -17.949219 47.703125 -18.867188 49.542969 -20.707031 C 51.382812 -22.546875 52.300781 -25.222656 52.300781 -28.738281 L 52.300781 -30.925781 L 77.691406 -30.925781 L 77.691406 -28.738281 C 77.691406 -18.390625 74.46875 -10.421875 68.027344 -4.835938 C 61.675781 0.671875 52.800781 3.425781 41.40625 3.425781 C 28.71875 3.425781 19.054688 0.121094 12.414062 -6.480469 C 5.769531 -13.089844 2.445312 -22.742188 2.445312 -35.433594 C 2.445312 -48.125 5.769531 -57.777344 12.414062 -64.386719 C 19.054688 -70.988281 28.71875 -74.292969 41.40625 -74.292969 Z M 41.40625 -69.914062 C 29.925781 -69.914062 21.289062 -67.035156 15.5 -61.28125 C 9.714844 -55.527344 6.824219 -46.914062 6.824219 -35.433594 C 6.824219 -23.953125 9.714844 -15.339844 15.5 -9.585938 C 21.289062 -3.832031 29.925781 -0.953125 41.40625 -0.953125 C 51.714844 -0.953125 59.628906 -3.351562 65.160156 -8.144531 C 70.59375 -12.855469 73.3125 -19.722656 73.3125 -28.738281 L 75.503906 -28.738281 L 75.503906 -26.550781 L 54.488281 -26.550781 L 54.488281 -28.738281 L 56.679688 -28.738281 C 56.679688 -24.011719 55.332031 -20.304688 52.636719 -17.609375 C 49.945312 -14.917969 46.097656 -13.570312 41.097656 -13.570312 C 35.898438 -13.570312 32 -15.324219 29.398438 -18.832031 C 26.949219 -22.140625 25.726562 -26.574219 25.726562 -32.136719 L 25.726562 -38.730469 C 25.726562 -44.367188 26.953125 -48.820312 29.40625 -52.09375 C 32.007812 -55.5625 35.972656 -57.296875 41.304688 -57.296875 C 45.9375 -57.296875 49.554688 -55.851562 52.152344 -52.964844 C 54.6875 -50.148438 55.957031 -46.398438 55.957031 -41.714844 L 53.769531 -41.714844 L 53.769531 -43.90625 L 75.503906 -43.90625 L 75.503906 -41.714844 L 73.3125 -41.714844 C 73.3125 -50.796875 70.511719 -57.746094 64.90625 -62.5625 C 59.207031 -67.464844 51.375 -69.914062 41.40625 -69.914062 Z M 41.40625 -69.914062 "/></g></g></g><g fill="#ffffff" fill-opacity="1"><g transform="translate(81.569999, 90.997869)"><g><path d="M 42.851562 -74.292969 C 55.648438 -74.292969 65.589844 -70.96875 72.671875 -64.324219 C 79.796875 -57.644531 83.355469 -48.015625 83.355469 -35.433594 C 83.355469 -22.851562 79.796875 -13.222656 72.671875 -6.539062 C 65.589844 0.101562 55.648438 3.425781 42.851562 3.425781 C 30.050781 3.425781 20.125 0.121094 13.078125 -6.488281 C 5.988281 -13.136719 2.445312 -22.785156 2.445312 -35.433594 C 2.445312 -48.082031 5.988281 -57.730469 13.078125 -64.378906 C 20.125 -70.988281 30.050781 -74.292969 42.851562 -74.292969 Z M 42.851562 -69.914062 C 31.203125 -69.914062 22.277344 -67.003906 16.074219 -61.183594 C 9.90625 -55.402344 6.824219 -46.820312 6.824219 -35.433594 C 6.824219 -24.046875 9.90625 -15.464844 16.074219 -9.683594 C 22.277344 -3.863281 31.203125 -0.953125 42.851562 -0.953125 C 54.496094 -0.953125 63.4375 -3.878906 69.679688 -9.734375 C 75.878906 -15.550781 78.976562 -24.117188 78.976562 -35.433594 C 78.976562 -46.75 75.878906 -55.316406 69.679688 -61.132812 C 63.4375 -66.988281 54.496094 -69.914062 42.851562 -69.914062 Z M 42.851562 -52.917969 C 38.644531 -52.917969 35.488281 -51.695312 33.382812 -49.25 C 31.195312 -46.707031 30.101562 -43.199219 30.101562 -38.730469 L 30.101562 -32.136719 C 30.101562 -27.664062 31.195312 -24.160156 33.382812 -21.617188 C 35.488281 -19.171875 38.644531 -17.949219 42.851562 -17.949219 C 47.0625 -17.949219 50.238281 -19.175781 52.375 -21.628906 C 54.589844 -24.167969 55.699219 -27.671875 55.699219 -32.136719 L 55.699219 -38.730469 C 55.699219 -43.195312 54.589844 -46.699219 52.375 -49.238281 C 50.238281 -51.691406 47.0625 -52.917969 42.851562 -52.917969 Z M 42.851562 -57.296875 C 48.390625 -57.296875 52.664062 -55.570312 55.675781 -52.117188 C 58.609375 -48.75 60.078125 -44.289062 60.078125 -38.730469 L 60.078125 -32.136719 C 60.078125 -26.578125 58.609375 -22.113281 55.675781 -18.75 C 52.664062 -15.296875 48.390625 -13.570312 42.851562 -13.570312 C 37.304688 -13.570312 33.042969 -15.300781 30.066406 -18.761719 C 27.171875 -22.125 25.726562 -26.582031 25.726562 -32.136719 L 25.726562 -38.730469 C 25.726562 -44.285156 27.171875 -48.742188 30.066406 -52.105469 C 33.042969 -55.566406 37.304688 -57.296875 42.851562 -57.296875 Z M 42.851562 -57.296875 "/></g></g></g><g fill="#ffffff" fill-opacity="1"><g transform="translate(167.367058, 90.997869)"><g><path d="M 7.621094 -73.054688 L 32.574219 -73.054688 L 32.574219 -18.128906 L 30.386719 -18.128906 L 30.386719 -20.316406 L 68.9375 -20.316406 L 68.9375 2.1875 L 5.433594 2.1875 L 5.433594 -73.054688 Z M 7.621094 -68.679688 L 7.621094 -70.867188 L 9.8125 -70.867188 L 9.8125 0 L 7.621094 0 L 7.621094 -2.1875 L 66.746094 -2.1875 L 66.746094 0 L 64.558594 0 L 64.558594 -18.128906 L 66.746094 -18.128906 L 66.746094 -15.941406 L 28.199219 -15.941406 L 28.199219 -70.867188 L 30.386719 -70.867188 L 30.386719 -68.679688 Z M 7.621094 -68.679688 "/></g></g></g><g fill="#ffffff" fill-opacity="1"><g transform="translate(236.066503, 90.997869)"><g><path d="M 7.621094 -73.054688 L 32.574219 -73.054688 L 32.574219 -18.128906 L 30.386719 -18.128906 L 30.386719 -20.316406 L 68.9375 -20.316406 L 68.9375 2.1875 L 5.433594 2.1875 L 5.433594 -73.054688 Z M 7.621094 -68.679688 L 7.621094 -70.867188 L 9.8125 -70.867188 L 9.8125 0 L 7.621094 0 L 7.621094 -2.1875 L 66.746094 -2.1875 L 66.746094 0 L 64.558594 0 L 64.558594 -18.128906 L 66.746094 -18.128906 L 66.746094 -15.941406 L 28.199219 -15.941406 L 28.199219 -70.867188 L 30.386719 -70.867188 L 30.386719 -68.679688 Z M 7.621094 -68.679688 "/></g></g></g><g fill="#ffffff" fill-opacity="1"><g transform="translate(304.765937, 90.997869)"><g><path d="M 53.011719 0.628906 L 50.023438 -9.363281 L 52.121094 -9.992188 L 52.121094 -7.800781 L 27.296875 -7.800781 L 27.296875 -9.992188 L 29.394531 -9.363281 L 25.9375 2.1875 L -2.097656 2.1875 L 25.351562 -73.054688 L 54.886719 -73.054688 L 82.339844 2.1875 L 53.476562 2.1875 Z M 57.203125 -0.628906 L 55.105469 0 L 55.105469 -2.1875 L 79.210938 -2.1875 L 79.210938 0 L 77.152344 0.75 L 51.300781 -70.117188 L 53.355469 -70.867188 L 53.355469 -68.679688 L 26.882812 -68.679688 L 26.882812 -70.867188 L 28.941406 -70.117188 L 3.085938 0.75 L 1.03125 0 L 1.03125 -2.1875 L 24.308594 -2.1875 L 24.308594 0 L 22.210938 -0.628906 L 25.664062 -12.179688 L 53.75 -12.179688 Z M 32.035156 -28.042969 L 47.382812 -28.042969 L 47.382812 -25.855469 L 45.28125 -25.238281 L 37.867188 -50.472656 L 39.964844 -51.089844 L 39.964844 -48.902344 L 39.554688 -48.902344 L 39.554688 -51.089844 L 41.652344 -50.464844 L 34.132812 -25.230469 L 32.035156 -25.855469 Z M 29.097656 -23.664062 L 37.921875 -53.277344 L 41.605469 -53.277344 L 50.308594 -23.664062 Z M 29.097656 -23.664062 "/></g></g></g><g fill="#ffffff" fill-opacity="1"><g transform="translate(384.898135, 90.997869)"><g><path d="M 50.601562 -52.738281 L 50.601562 2.1875 L 23.460938 2.1875 L 23.460938 -52.738281 L 25.648438 -52.738281 L 25.648438 -50.550781 L 0.179688 -50.550781 L 0.179688 -73.054688 L 73.777344 -73.054688 L 73.777344 -50.550781 L 48.410156 -50.550781 L 48.410156 -52.738281 Z M 46.222656 -54.925781 L 71.589844 -54.925781 L 71.589844 -52.738281 L 69.398438 -52.738281 L 69.398438 -70.867188 L 71.589844 -70.867188 L 71.589844 -68.679688 L 2.367188 -68.679688 L 2.367188 -70.867188 L 4.558594 -70.867188 L 4.558594 -52.738281 L 2.367188 -52.738281 L 2.367188 -54.925781 L 27.835938 -54.925781 L 27.835938 0 L 25.648438 0 L 25.648438 -2.1875 L 48.410156 -2.1875 L 48.410156 0 L 46.222656 0 Z M 46.222656 -54.925781 "/></g></g></g><g fill="#ffffff" fill-opacity="1"><g transform="translate(459.262453, 90.997869)"><g><path d="M 7.621094 -73.054688 L 71.097656 -73.054688 L 71.097656 -51.683594 L 30.386719 -51.683594 L 30.386719 -53.871094 L 32.574219 -53.871094 L 32.574219 -44.085938 L 30.386719 -44.085938 L 30.386719 -46.273438 L 65.535156 -46.273438 L 65.535156 -25.621094 L 30.386719 -25.621094 L 30.386719 -27.8125 L 32.574219 -27.8125 L 32.574219 -16.996094 L 30.386719 -16.996094 L 30.386719 -19.183594 L 71.820312 -19.183594 L 71.820312 2.1875 L 5.433594 2.1875 L 5.433594 -73.054688 Z M 7.621094 -68.679688 L 7.621094 -70.867188 L 9.8125 -70.867188 L 9.8125 0 L 7.621094 0 L 7.621094 -2.1875 L 69.632812 -2.1875 L 69.632812 0 L 67.441406 0 L 67.441406 -16.996094 L 69.632812 -16.996094 L 69.632812 -14.808594 L 28.199219 -14.808594 L 28.199219 -30 L 63.347656 -30 L 63.347656 -27.8125 L 61.160156 -27.8125 L 61.160156 -44.085938 L 63.347656 -44.085938 L 63.347656 -41.898438 L 28.199219 -41.898438 L 28.199219 -56.058594 L 68.910156 -56.058594 L 68.910156 -53.871094 L 66.722656 -53.871094 L 66.722656 -70.867188 L 68.910156 -70.867188 L 68.910156 -68.679688 Z M 7.621094 -68.679688 "/></g></g></g><g fill="#ffffff" fill-opacity="1"><g transform="translate(533.626772, 90.997869)"><g><path d="M 77.074219 -49.132812 C 77.074219 -44.363281 75.785156 -40.046875 73.203125 -36.175781 C 70.605469 -32.277344 66.851562 -29.425781 61.941406 -27.613281 L 61.183594 -29.664062 L 63.117188 -30.691406 L 80.585938 2.1875 L 50.027344 2.1875 L 36.863281 -24.898438 L 38.832031 -25.855469 L 38.832031 -23.664062 L 30.386719 -23.664062 L 30.386719 -25.855469 L 32.574219 -25.855469 L 32.574219 2.1875 L 5.433594 2.1875 L 5.433594 -73.054688 L 50.988281 -73.054688 C 56.4375 -73.054688 61.128906 -71.988281 65.0625 -69.855469 C 69.042969 -67.691406 72.050781 -64.757812 74.074219 -61.050781 C 76.074219 -57.390625 77.074219 -53.417969 77.074219 -49.132812 Z M 72.695312 -49.132812 C 72.695312 -52.675781 71.875 -55.945312 70.234375 -58.949219 C 68.621094 -61.902344 66.199219 -64.253906 62.972656 -66.007812 C 59.695312 -67.789062 55.699219 -68.679688 50.988281 -68.679688 L 7.621094 -68.679688 L 7.621094 -70.867188 L 9.8125 -70.867188 L 9.8125 0 L 7.621094 0 L 7.621094 -2.1875 L 30.386719 -2.1875 L 30.386719 0 L 28.199219 0 L 28.199219 -28.042969 L 40.203125 -28.042969 L 53.367188 -0.957031 L 51.398438 0 L 51.398438 -2.1875 L 76.945312 -2.1875 L 76.945312 0 L 75.011719 1.027344 L 58.074219 -30.851562 L 60.425781 -31.71875 C 64.445312 -33.203125 67.488281 -35.496094 69.5625 -38.605469 C 71.648438 -41.738281 72.695312 -45.25 72.695312 -49.132812 Z M 49.519531 -48.207031 C 49.519531 -49.457031 49.113281 -50.484375 48.304688 -51.292969 C 47.496094 -52.101562 46.503906 -52.507812 45.320312 -52.507812 L 30.386719 -52.507812 L 30.386719 -54.695312 L 32.574219 -54.695312 L 32.574219 -41.613281 L 30.386719 -41.613281 L 30.386719 -43.804688 L 45.320312 -43.804688 C 46.492188 -43.804688 47.480469 -44.21875 48.285156 -45.046875 C 49.109375 -45.890625 49.519531 -46.945312 49.519531 -48.207031 Z M 53.898438 -48.207031 C 53.898438 -45.757812 53.074219 -43.6875 51.421875 -41.992188 C 49.757812 -40.28125 47.722656 -39.425781 45.320312 -39.425781 L 28.199219 -39.425781 L 28.199219 -56.882812 L 45.320312 -56.882812 C 47.710938 -56.882812 49.738281 -56.050781 51.402344 -54.390625 C 53.066406 -52.726562 53.898438 -50.664062 53.898438 -48.207031 Z M 53.898438 -48.207031 "/></g></g></g><g fill="#ffffff" fill-opacity="1"><g transform="translate(613.75897, 90.997869)"><g><path d="M 53.011719 0.628906 L 50.023438 -9.363281 L 52.121094 -9.992188 L 52.121094 -7.800781 L 27.296875 -7.800781 L 27.296875 -9.992188 L 29.394531 -9.363281 L 25.9375 2.1875 L -2.097656 2.1875 L 25.351562 -73.054688 L 54.886719 -73.054688 L 82.339844 2.1875 L 53.476562 2.1875 Z M 57.203125 -0.628906 L 55.105469 0 L 55.105469 -2.1875 L 79.210938 -2.1875 L 79.210938 0 L 77.152344 0.75 L 51.300781 -70.117188 L 53.355469 -70.867188 L 53.355469 -68.679688 L 26.882812 -68.679688 L 26.882812 -70.867188 L 28.941406 -70.117188 L 3.085938 0.75 L 1.03125 0 L 1.03125 -2.1875 L 24.308594 -2.1875 L 24.308594 0 L 22.210938 -0.628906 L 25.664062 -12.179688 L 53.75 -12.179688 Z M 32.035156 -28.042969 L 47.382812 -28.042969 L 47.382812 -25.855469 L 45.28125 -25.238281 L 37.867188 -50.472656 L 39.964844 -51.089844 L 39.964844 -48.902344 L 39.554688 -48.902344 L 39.554688 -51.089844 L 41.652344 -50.464844 L 34.132812 -25.230469 L 32.035156 -25.855469 Z M 29.097656 -23.664062 L 37.921875 -53.277344 L 41.605469 -53.277344 L 50.308594 -23.664062 Z M 29.097656 -23.664062 "/></g></g></g><g fill="#ffffff" fill-opacity="1"><g transform="translate(693.891167, 90.997869)"><g><path d="M 7.621094 -73.054688 L 32.574219 -73.054688 L 32.574219 -18.128906 L 30.386719 -18.128906 L 30.386719 -20.316406 L 68.9375 -20.316406 L 68.9375 2.1875 L 5.433594 2.1875 L 5.433594 -73.054688 Z M 7.621094 -68.679688 L 7.621094 -70.867188 L 9.8125 -70.867188 L 9.8125 0 L 7.621094 0 L 7.621094 -2.1875 L 66.746094 -2.1875 L 66.746094 0 L 64.558594 0 L 64.558594 -18.128906 L 66.746094 -18.128906 L 66.746094 -15.941406 L 28.199219 -15.941406 L 28.199219 -70.867188 L 30.386719 -70.867188 L 30.386719 -68.679688 Z M 7.621094 -68.679688 "/></g></g></g><g fill="#000000" fill-opacity="1"><g transform="translate(1.437813, 90.997869)"><g><path d="M 41.40625 -72.09375 C 51.914062 -72.09375 60.222656 -69.46875 66.328125 -64.21875 C 72.441406 -58.96875 75.5 -51.46875 75.5 -41.71875 L 53.765625 -41.71875 C 53.765625 -45.832031 52.679688 -49.09375 50.515625 -51.5 C 48.359375 -53.90625 45.285156 -55.109375 41.296875 -55.109375 C 36.703125 -55.109375 33.320312 -53.664062 31.15625 -50.78125 C 28.988281 -47.894531 27.90625 -43.878906 27.90625 -38.734375 L 27.90625 -32.140625 C 27.90625 -27.054688 28.988281 -23.054688 31.15625 -20.140625 C 33.320312 -17.222656 36.632812 -15.765625 41.09375 -15.765625 C 45.488281 -15.765625 48.816406 -16.894531 51.078125 -19.15625 C 53.347656 -21.425781 54.484375 -24.617188 54.484375 -28.734375 L 75.5 -28.734375 C 75.5 -19.054688 72.53125 -11.640625 66.59375 -6.484375 C 60.65625 -1.335938 52.257812 1.234375 41.40625 1.234375 C 29.320312 1.234375 20.171875 -1.851562 13.953125 -8.03125 C 7.742188 -14.207031 4.640625 -23.34375 4.640625 -35.4375 C 4.640625 -47.519531 7.742188 -56.648438 13.953125 -62.828125 C 20.171875 -69.003906 29.320312 -72.09375 41.40625 -72.09375 Z M 41.40625 -72.09375 "/></g></g></g><g fill="#000000" fill-opacity="1"><g transform="translate(81.569999, 90.997869)"><g><path d="M 42.84375 -72.09375 C 55.070312 -72.09375 64.515625 -68.96875 71.171875 -62.71875 C 77.828125 -56.476562 81.15625 -47.382812 81.15625 -35.4375 C 81.15625 -23.488281 77.828125 -14.390625 71.171875 -8.140625 C 64.515625 -1.890625 55.070312 1.234375 42.84375 1.234375 C 30.625 1.234375 21.203125 -1.867188 14.578125 -8.078125 C 7.953125 -14.296875 4.640625 -23.414062 4.640625 -35.4375 C 4.640625 -47.445312 7.953125 -56.554688 14.578125 -62.765625 C 21.203125 -68.984375 30.625 -72.09375 42.84375 -72.09375 Z M 42.84375 -55.109375 C 37.96875 -55.109375 34.257812 -53.628906 31.71875 -50.671875 C 29.175781 -47.722656 27.90625 -43.742188 27.90625 -38.734375 L 27.90625 -32.140625 C 27.90625 -27.117188 29.175781 -23.132812 31.71875 -20.1875 C 34.257812 -17.238281 37.96875 -15.765625 42.84375 -15.765625 C 47.71875 -15.765625 51.441406 -17.238281 54.015625 -20.1875 C 56.597656 -23.132812 57.890625 -27.117188 57.890625 -32.140625 L 57.890625 -38.734375 C 57.890625 -43.742188 56.597656 -47.722656 54.015625 -50.671875 C 51.441406 -53.628906 47.71875 -55.109375 42.84375 -55.109375 Z M 42.84375 -55.109375 "/></g></g></g><g fill="#000000" fill-opacity="1"><g transform="translate(167.367058, 90.997869)"><g><path d="M 7.625 -70.859375 L 30.390625 -70.859375 L 30.390625 -18.125 L 66.75 -18.125 L 66.75 0 L 7.625 0 Z M 7.625 -70.859375 "/></g></g></g><g fill="#000000" fill-opacity="1"><g transform="translate(236.066503, 90.997869)"><g><path d="M 7.625 -70.859375 L 30.390625 -70.859375 L 30.390625 -18.125 L 66.75 -18.125 L 66.75 0 L 7.625 0 Z M 7.625 -70.859375 "/></g></g></g><g fill="#000000" fill-opacity="1"><g transform="translate(304.765937, 90.997869)"><g><path d="M 55.109375 0 L 52.125 -9.984375 L 27.296875 -9.984375 L 24.3125 0 L 1.03125 0 L 26.890625 -70.859375 L 53.359375 -70.859375 L 79.203125 0 Z M 32.03125 -25.859375 L 47.375 -25.859375 L 39.96875 -51.09375 L 39.546875 -51.09375 Z M 32.03125 -25.859375 "/></g></g></g><g fill="#000000" fill-opacity="1"><g transform="translate(384.898135, 90.997869)"><g><path d="M 48.40625 -52.734375 L 48.40625 0 L 25.640625 0 L 25.640625 -52.734375 L 2.375 -52.734375 L 2.375 -70.859375 L 71.578125 -70.859375 L 71.578125 -52.734375 Z M 48.40625 -52.734375 "/></g></g></g><g fill="#000000" fill-opacity="1"><g transform="translate(459.262453, 90.997869)"><g><path d="M 7.625 -70.859375 L 68.90625 -70.859375 L 68.90625 -53.875 L 30.390625 -53.875 L 30.390625 -44.078125 L 63.34375 -44.078125 L 63.34375 -27.8125 L 30.390625 -27.8125 L 30.390625 -17 L 69.625 -17 L 69.625 0 L 7.625 0 Z M 7.625 -70.859375 "/></g></g></g><g fill="#000000" fill-opacity="1"><g transform="translate(533.626772, 90.997869)"><g><path d="M 74.875 -49.125 C 74.875 -44.800781 73.707031 -40.890625 71.375 -37.390625 C 69.039062 -33.890625 65.644531 -31.3125 61.1875 -29.65625 L 76.9375 0 L 51.390625 0 L 38.828125 -25.859375 L 30.390625 -25.859375 L 30.390625 0 L 7.625 0 L 7.625 -70.859375 L 50.984375 -70.859375 C 56.066406 -70.859375 60.410156 -69.878906 64.015625 -67.921875 C 67.617188 -65.972656 70.328125 -63.332031 72.140625 -60 C 73.960938 -56.664062 74.875 -53.039062 74.875 -49.125 Z M 51.703125 -48.203125 C 51.703125 -50.054688 51.082031 -51.597656 49.84375 -52.828125 C 48.613281 -54.066406 47.101562 -54.6875 45.3125 -54.6875 L 30.390625 -54.6875 L 30.390625 -41.609375 L 45.3125 -41.609375 C 47.101562 -41.609375 48.613281 -42.242188 49.84375 -43.515625 C 51.082031 -44.785156 51.703125 -46.347656 51.703125 -48.203125 Z M 51.703125 -48.203125 "/></g></g></g><g fill="#000000" fill-opacity="1"><g transform="translate(613.75897, 90.997869)"><g><path d="M 55.109375 0 L 52.125 -9.984375 L 27.296875 -9.984375 L 24.3125 0 L 1.03125 0 L 26.890625 -70.859375 L 53.359375 -70.859375 L 79.203125 0 Z M 32.03125 -25.859375 L 47.375 -25.859375 L 39.96875 -51.09375 L 39.546875 -51.09375 Z M 32.03125 -25.859375 "/></g></g></g><g fill="#000000" fill-opacity="1"><g transform="translate(693.891167, 90.997869)"><g><path d="M 7.625 -70.859375 L 30.390625 -70.859375 L 30.390625 -18.125 L 66.75 -18.125 L 66.75 0 L 7.625 0 Z M 7.625 -70.859375 "/></g></g></g></g></g></svg>