<svg xmlns="http://www.w3.org/2000/svg" xmlns:xlink="http://www.w3.org/1999/xlink" width="2000" zoomAndPan="magnify" viewBox="0 0 1500 599.999999" height="800" preserveAspectRatio="xMidYMid meet" version="1.0"><defs><g/><clipPath id="58a1039714"><path d="M 511 13.09375 L 1023 13.09375 L 1023 525 L 511 525 Z M 511 13.09375 " clip-rule="nonzero"/></clipPath></defs><rect x="-150" width="1800" fill="#ffffff" y="-60" height="719.999999" fill-opacity="1"/><rect x="-150" width="1800" fill="#ffffff" y="-60" height="719.999999" fill-opacity="1"/><g clip-path="url(#58a1039714)"><path fill="#752122" d="M 766.828125 13.621094 C 771.011719 13.621094 775.191406 13.722656 779.367188 13.929688 C 783.546875 14.132812 787.714844 14.441406 791.878906 14.847656 C 796.039062 15.257812 800.1875 15.769531 804.324219 16.382812 C 808.460938 16.996094 812.582031 17.710938 816.683594 18.527344 C 820.785156 19.34375 824.863281 20.257812 828.921875 21.273438 C 832.980469 22.289062 837.007812 23.40625 841.011719 24.617188 C 845.011719 25.832031 848.984375 27.144531 852.921875 28.550781 C 856.859375 29.960938 860.757812 31.464844 864.625 33.0625 C 868.488281 34.664062 872.308594 36.359375 876.089844 38.144531 C 879.871094 39.933594 883.605469 41.8125 887.292969 43.785156 C 890.980469 45.753906 894.621094 47.816406 898.207031 49.964844 C 901.796875 52.117188 905.328125 54.351562 908.804688 56.675781 C 912.28125 59 915.699219 61.40625 919.058594 63.898438 C 922.417969 66.386719 925.714844 68.960938 928.949219 71.613281 C 932.183594 74.265625 935.347656 76.996094 938.445312 79.804688 C 941.546875 82.613281 944.574219 85.496094 947.53125 88.453125 C 950.488281 91.410156 953.371094 94.4375 956.179688 97.535156 C 958.988281 100.632812 961.71875 103.800781 964.375 107.03125 C 967.027344 110.265625 969.601562 113.558594 972.089844 116.917969 C 974.582031 120.277344 976.992188 123.695312 979.3125 127.171875 C 981.636719 130.652344 983.875 134.183594 986.023438 137.769531 C 988.175781 141.355469 990.238281 144.996094 992.207031 148.683594 C 994.179688 152.371094 996.058594 156.105469 997.847656 159.886719 C 999.636719 163.664062 1001.332031 167.488281 1002.933594 171.351562 C 1004.53125 175.214844 1006.039062 179.117188 1007.445312 183.054688 C 1008.855469 186.992188 1010.167969 190.960938 1011.382812 194.960938 C 1012.597656 198.964844 1013.710938 202.992188 1014.726562 207.050781 C 1015.746094 211.105469 1016.660156 215.1875 1017.476562 219.289062 C 1018.292969 223.390625 1019.007812 227.507812 1019.621094 231.644531 C 1020.234375 235.78125 1020.75 239.933594 1021.160156 244.09375 C 1021.570312 248.257812 1021.875 252.425781 1022.082031 256.601562 C 1022.289062 260.78125 1022.390625 264.960938 1022.390625 269.140625 C 1022.390625 273.324219 1022.289062 277.503906 1022.082031 281.679688 C 1021.878906 285.859375 1021.570312 290.027344 1021.160156 294.1875 C 1020.753906 298.351562 1020.242188 302.5 1019.628906 306.636719 C 1019.011719 310.773438 1018.300781 314.894531 1017.484375 318.996094 C 1016.667969 323.097656 1015.753906 327.175781 1014.734375 331.234375 C 1013.71875 335.289062 1012.605469 339.320312 1011.390625 343.320312 C 1010.179688 347.324219 1008.867188 351.292969 1007.457031 355.230469 C 1006.050781 359.167969 1004.542969 363.070312 1002.945312 366.933594 C 1001.34375 370.796875 999.648438 374.621094 997.863281 378.402344 C 996.074219 382.183594 994.195312 385.917969 992.222656 389.605469 C 990.253906 393.292969 988.191406 396.929688 986.042969 400.519531 C 983.890625 404.105469 981.65625 407.636719 979.332031 411.117188 C 977.007812 414.59375 974.601562 418.011719 972.109375 421.371094 C 969.621094 424.730469 967.046875 428.027344 964.394531 431.257812 C 961.742188 434.492188 959.011719 437.65625 956.203125 440.757812 C 953.394531 443.855469 950.511719 446.882812 947.554688 449.839844 C 944.597656 452.796875 941.570312 455.679688 938.46875 458.488281 C 935.371094 461.296875 932.207031 464.03125 928.972656 466.683594 C 925.742188 469.335938 922.445312 471.910156 919.085938 474.398438 C 915.726562 476.890625 912.308594 479.300781 908.832031 481.621094 C 905.355469 483.945312 901.824219 486.183594 898.234375 488.332031 C 894.648438 490.484375 891.011719 492.542969 887.324219 494.515625 C 883.632812 496.488281 879.898438 498.367188 876.121094 500.15625 C 872.339844 501.945312 868.515625 503.636719 864.652344 505.238281 C 860.789062 506.839844 856.886719 508.34375 852.949219 509.753906 C 849.011719 511.164062 845.042969 512.472656 841.042969 513.6875 C 837.039062 514.902344 833.011719 516.019531 828.953125 517.035156 C 824.898438 518.050781 820.816406 518.964844 816.714844 519.78125 C 812.613281 520.597656 808.496094 521.3125 804.359375 521.925781 C 800.222656 522.542969 796.070312 523.054688 791.910156 523.464844 C 787.746094 523.875 783.578125 524.179688 779.402344 524.386719 C 775.222656 524.589844 771.042969 524.695312 766.863281 524.695312 C 762.679688 524.695312 758.5 524.59375 754.324219 524.386719 C 750.144531 524.183594 745.976562 523.875 741.816406 523.464844 C 737.652344 523.054688 733.503906 522.542969 729.367188 521.929688 C 725.230469 521.316406 721.109375 520.601562 717.007812 519.785156 C 712.90625 518.96875 708.828125 518.054688 704.769531 517.039062 C 700.714844 516.023438 696.683594 514.90625 692.683594 513.691406 C 688.679688 512.480469 684.710938 511.167969 680.773438 509.757812 C 676.835938 508.351562 672.933594 506.84375 669.070312 505.246094 C 665.207031 503.644531 661.382812 501.949219 657.601562 500.164062 C 653.824219 498.375 650.089844 496.496094 646.398438 494.523438 C 642.710938 492.550781 639.074219 490.492188 635.488281 488.339844 C 631.898438 486.191406 628.367188 483.953125 624.890625 481.632812 C 621.414062 479.308594 617.992188 476.902344 614.636719 474.410156 C 611.277344 471.917969 607.980469 469.347656 604.746094 466.691406 C 601.515625 464.039062 598.347656 461.308594 595.25 458.5 C 592.152344 455.691406 589.121094 452.808594 586.164062 449.851562 C 583.207031 446.894531 580.324219 443.867188 577.515625 440.769531 C 574.707031 437.667969 571.976562 434.503906 569.324219 431.269531 C 566.671875 428.039062 564.097656 424.742188 561.605469 421.382812 C 559.117188 418.023438 556.707031 414.605469 554.386719 411.128906 C 552.0625 407.652344 549.824219 404.121094 547.675781 400.53125 C 545.523438 396.945312 543.464844 393.308594 541.492188 389.617188 C 539.519531 385.929688 537.640625 382.195312 535.851562 378.414062 C 534.066406 374.636719 532.371094 370.8125 530.769531 366.949219 C 529.167969 363.085938 527.664062 359.183594 526.253906 355.246094 C 524.847656 351.308594 523.535156 347.339844 522.320312 343.335938 C 521.105469 339.335938 519.992188 335.304688 518.976562 331.25 C 517.960938 327.191406 517.042969 323.113281 516.226562 319.011719 C 515.410156 314.910156 514.695312 310.789062 514.082031 306.652344 C 513.46875 302.515625 512.957031 298.367188 512.546875 294.207031 C 512.136719 290.042969 511.832031 285.875 511.625 281.695312 C 511.421875 277.519531 511.316406 273.339844 511.316406 269.15625 C 511.316406 264.976562 511.421875 260.796875 511.625 256.621094 C 511.832031 252.441406 512.136719 248.273438 512.546875 244.113281 C 512.957031 239.949219 513.46875 235.800781 514.082031 231.664062 C 514.695312 227.527344 515.410156 223.410156 516.226562 219.308594 C 517.042969 215.207031 517.957031 211.128906 518.976562 207.070312 C 519.992188 203.015625 521.105469 198.984375 522.320312 194.984375 C 523.535156 190.980469 524.84375 187.011719 526.253906 183.074219 C 527.660156 179.136719 529.167969 175.238281 530.765625 171.375 C 532.367188 167.511719 534.0625 163.6875 535.847656 159.90625 C 537.636719 156.128906 539.515625 152.394531 541.488281 148.707031 C 543.457031 145.015625 545.519531 141.378906 547.667969 137.792969 C 549.820312 134.207031 552.054688 130.675781 554.378906 127.195312 C 556.703125 123.71875 559.109375 120.300781 561.597656 116.941406 C 564.089844 113.582031 566.664062 110.289062 569.316406 107.054688 C 571.96875 103.824219 574.699219 100.65625 577.507812 97.558594 C 580.316406 94.460938 583.195312 91.433594 586.152344 88.476562 C 589.109375 85.519531 592.136719 82.636719 595.238281 79.828125 C 598.335938 77.019531 601.5 74.289062 604.734375 71.632812 C 607.964844 68.980469 611.261719 66.410156 614.621094 63.917969 C 617.976562 61.425781 621.394531 59.019531 624.871094 56.695312 C 628.351562 54.371094 631.882812 52.136719 635.46875 49.984375 C 639.054688 47.835938 642.691406 45.773438 646.378906 43.800781 C 650.066406 41.832031 653.800781 39.953125 657.582031 38.164062 C 661.363281 36.375 665.183594 34.679688 669.046875 33.078125 C 672.910156 31.480469 676.8125 29.972656 680.75 28.566406 C 684.6875 27.15625 688.65625 25.84375 692.65625 24.628906 C 696.660156 23.417969 700.6875 22.300781 704.742188 21.285156 C 708.800781 20.269531 712.878906 19.351562 716.980469 18.535156 C 721.082031 17.71875 725.199219 17.003906 729.335938 16.390625 C 733.472656 15.777344 737.621094 15.265625 741.785156 14.855469 C 745.945312 14.445312 750.117188 14.136719 754.292969 13.929688 C 758.46875 13.726562 762.648438 13.621094 766.828125 13.621094 Z M 766.828125 13.621094 " fill-opacity="1" fill-rule="nonzero"/></g><path fill="#3b0001" d="M 1010.128906 347.523438 C 1008.582031 352.328125 1006.894531 357.078125 1005.0625 361.78125 C 1003.234375 366.484375 1001.269531 371.125 999.164062 375.710938 C 997.0625 380.296875 994.824219 384.816406 992.453125 389.269531 C 990.082031 393.722656 987.582031 398.101562 984.949219 402.410156 C 982.320312 406.714844 979.5625 410.9375 976.683594 415.078125 C 973.800781 419.222656 970.800781 423.273438 967.679688 427.238281 C 964.558594 431.203125 961.324219 435.070312 957.976562 438.84375 C 954.625 442.617188 951.167969 446.285156 947.597656 449.855469 C 944.03125 453.421875 940.363281 456.878906 936.589844 460.230469 C 932.816406 463.582031 928.949219 466.816406 924.984375 469.9375 C 921.023438 473.058594 916.96875 476.0625 912.828125 478.941406 C 908.6875 481.824219 904.464844 484.578125 900.160156 487.210938 C 895.855469 489.84375 891.476562 492.34375 887.023438 494.714844 C 882.570312 497.085938 878.050781 499.324219 873.464844 501.429688 C 868.878906 503.535156 864.234375 505.5 859.53125 507.328125 C 854.832031 509.160156 850.078125 510.847656 845.277344 512.394531 C 840.476562 513.941406 835.632812 515.347656 830.746094 516.605469 C 825.859375 517.867188 820.941406 518.984375 815.992188 519.953125 C 811.039062 520.921875 806.066406 521.746094 801.066406 522.417969 C 796.066406 523.09375 791.050781 523.621094 786.019531 524 C 780.988281 524.375 775.949219 524.605469 770.90625 524.683594 C 765.859375 524.765625 760.816406 524.695312 755.777344 524.476562 C 750.738281 524.257812 745.707031 523.886719 740.6875 523.371094 C 735.671875 522.855469 730.671875 522.1875 725.691406 521.375 C 720.710938 520.5625 715.761719 519.601562 710.839844 518.496094 C 705.917969 517.390625 701.03125 516.140625 696.183594 514.742188 C 691.335938 513.347656 686.53125 511.808594 681.773438 510.128906 C 677.019531 508.449219 672.3125 506.628906 667.664062 504.671875 C 663.015625 502.714844 658.429688 500.617188 653.902344 498.386719 C 649.378906 496.15625 644.921875 493.796875 640.535156 491.300781 C 636.152344 488.808594 631.84375 486.183594 627.613281 483.4375 C 623.382812 480.6875 619.238281 477.8125 615.175781 474.820312 C 611.117188 471.824219 607.148438 468.710938 603.273438 465.480469 C 599.398438 462.253906 595.621094 458.910156 591.941406 455.457031 C 588.265625 452.003906 584.691406 448.445312 581.222656 444.777344 C 577.757812 441.113281 574.402344 437.347656 571.15625 433.484375 C 567.914062 429.621094 564.785156 425.664062 561.777344 421.617188 C 558.765625 417.566406 555.878906 413.433594 553.113281 409.210938 C 550.347656 404.992188 547.710938 400.695312 545.203125 396.316406 C 542.691406 391.941406 540.3125 387.496094 538.066406 382.976562 C 535.816406 378.460938 533.707031 373.878906 531.730469 369.238281 C 529.753906 364.597656 527.917969 359.898438 526.21875 355.148438 C 524.523438 350.398438 522.96875 345.601562 521.554688 340.757812 C 520.140625 335.914062 518.871094 331.03125 517.746094 326.113281 C 516.621094 321.195312 515.644531 316.25 514.8125 311.273438 C 513.980469 306.296875 513.296875 301.300781 512.761719 296.285156 C 512.226562 291.265625 511.839844 286.238281 511.601562 281.199219 C 511.363281 276.160156 511.277344 271.117188 511.335938 266.070312 C 511.398438 261.027344 511.609375 255.988281 511.96875 250.957031 C 512.328125 245.921875 512.835938 240.90625 513.492188 235.902344 C 514.148438 230.902344 514.953125 225.921875 515.902344 220.96875 C 516.855469 216.015625 517.949219 211.089844 519.195312 206.203125 C 520.4375 201.3125 521.824219 196.464844 523.351562 191.65625 C 524.882812 186.847656 526.554688 182.089844 528.367188 177.382812 C 530.175781 172.671875 532.128906 168.023438 534.214844 163.429688 C 536.300781 158.835938 538.523438 154.308594 540.878906 149.847656 C 543.234375 145.382812 545.71875 140.996094 548.335938 136.683594 C 550.949219 132.367188 553.691406 128.132812 556.554688 123.980469 C 559.421875 119.828125 562.410156 115.765625 565.515625 111.789062 C 568.621094 107.816406 571.84375 103.933594 575.179688 100.152344 C 578.515625 96.367188 581.960938 92.683594 585.515625 89.105469 C 589.070312 85.523438 592.726562 82.050781 596.488281 78.6875 C 600.25 75.324219 604.105469 72.074219 608.058594 68.9375 C 612.011719 65.804688 616.050781 62.789062 620.183594 59.890625 C 618.648438 64.664062 617.257812 69.476562 616.007812 74.328125 C 614.757812 79.179688 613.652344 84.066406 612.6875 88.984375 C 611.726562 93.902344 610.90625 98.84375 610.234375 103.8125 C 609.5625 108.777344 609.039062 113.757812 608.660156 118.757812 C 608.277344 123.753906 608.046875 128.757812 607.960938 133.769531 C 607.875 138.777344 607.9375 143.789062 608.148438 148.796875 C 608.355469 153.800781 608.714844 158.800781 609.214844 163.785156 C 609.71875 168.773438 610.371094 173.738281 611.164062 178.6875 C 611.960938 183.636719 612.898438 188.554688 613.984375 193.449219 C 615.070312 198.339844 616.296875 203.199219 617.667969 208.019531 C 619.035156 212.839844 620.546875 217.613281 622.199219 222.347656 C 623.851562 227.078125 625.636719 231.757812 627.566406 236.382812 C 629.492188 241.011719 631.550781 245.578125 633.746094 250.082031 C 635.941406 254.585938 638.265625 259.023438 640.722656 263.394531 C 643.175781 267.761719 645.757812 272.054688 648.464844 276.273438 C 651.175781 280.488281 654.003906 284.621094 656.957031 288.671875 C 659.90625 292.722656 662.972656 296.683594 666.15625 300.554688 C 669.34375 304.425781 672.636719 308.199219 676.042969 311.875 C 679.449219 315.550781 682.960938 319.125 686.574219 322.59375 C 690.191406 326.0625 693.90625 329.425781 697.71875 332.675781 C 701.535156 335.925781 705.4375 339.0625 709.4375 342.085938 C 713.433594 345.105469 717.519531 348.007812 721.6875 350.789062 C 725.855469 353.574219 730.101562 356.230469 734.425781 358.761719 C 738.753906 361.292969 743.148438 363.695312 747.613281 365.96875 C 752.082031 368.242188 756.609375 370.382812 761.203125 372.390625 C 765.792969 374.398438 770.441406 376.269531 775.144531 378.003906 C 779.84375 379.738281 784.59375 381.332031 789.390625 382.785156 C 794.183594 384.238281 799.019531 385.554688 803.890625 386.722656 C 808.765625 387.894531 813.667969 388.917969 818.601562 389.800781 C 823.535156 390.683594 828.488281 391.421875 833.46875 392.011719 C 838.445312 392.601562 843.433594 393.046875 848.4375 393.34375 C 853.4375 393.640625 858.445312 393.789062 863.457031 393.792969 C 869.96875 393.804688 876.476562 393.566406 882.96875 393.078125 C 889.464844 392.589844 895.933594 391.851562 902.371094 390.867188 C 908.808594 389.882812 915.199219 388.652344 921.542969 387.175781 C 927.886719 385.695312 934.164062 383.980469 940.375 382.019531 C 946.589844 380.058594 952.714844 377.863281 958.757812 375.433594 C 964.800781 373.003906 970.742188 370.34375 976.578125 367.457031 C 982.417969 364.570312 988.136719 361.460938 993.738281 358.136719 C 999.335938 354.808594 1004.800781 351.269531 1010.128906 347.523438 Z M 1010.128906 347.523438 " fill-opacity="1" fill-rule="nonzero"/><path fill="#752122" d="M 511.148438 193.136719 C 462 157.074219 434.28125 130.734375 439.191406 122.222656 C 444.101562 113.707031 481.035156 124.398438 540.34375 150.761719 C 547.304688 137.527344 555.367188 124.996094 564.527344 113.175781 C 416.359375 43.636719 312.28125 14.03125 297.648438 39.355469 C 284.417969 62.308594 346.289062 125.125 452.203125 202.957031 C 521.816406 254.113281 610.460938 311.800781 709.3125 368.808594 C 790.21875 415.515625 868.003906 456.101562 936.960938 488.316406 C 1080.488281 555.410156 1185.605469 586.273438 1200.480469 560.589844 C 1215.355469 534.902344 1137.039062 459.632812 1003.234375 366.488281 C 997.539062 380.292969 990.683594 393.5 982.675781 406.105469 C 1034.75 444.007812 1062.902344 470.902344 1057.992188 479.441406 C 1052.1875 489.453125 1002.53125 472.714844 929.464844 438.324219 C 873.617188 412.078125 804.125 375.4375 730.113281 332.792969 C 641.757812 281.757812 564.046875 231.863281 511.148438 193.136719 Z M 511.148438 193.136719 " fill-opacity="1" fill-rule="nonzero"/><path fill="#000000" d="M 371.613281 83.496094 C 381.289062 66.566406 450.074219 85.746094 551.46875 131.605469 C 552.726562 129.648438 553.886719 127.710938 555.289062 125.800781 C 558.207031 121.480469 561.246094 117.269531 564.40625 113.175781 C 416.335938 43.636719 312.28125 14.03125 297.648438 39.355469 C 284.417969 62.308594 346.289062 125.125 452.203125 202.957031 C 470.949219 216.792969 491.046875 230.941406 512.332031 245.503906 C 570.382812 285.046875 637.066406 327.0625 709.3125 368.855469 C 781.558594 410.652344 851.386719 447.441406 914.613281 477.699219 C 922.160156 481.328125 929.609375 484.859375 936.960938 488.292969 C 1080.488281 555.410156 1185.605469 586.273438 1200.480469 560.589844 C 1215.355469 534.902344 1137.039062 459.632812 1003.234375 366.488281 C 1000.347656 373.453125 997.179688 380.257812 993.730469 386.902344 C 1083.898438 451.625 1135.078125 501.691406 1125.308594 518.625 C 1114.929688 536.59375 1038.863281 513.785156 931.929688 464.347656 C 924.191406 460.769531 916.304688 457.058594 908.277344 453.222656 C 851 425.839844 786.203125 391.664062 718.648438 352.675781 C 641.660156 308.21875 571.882812 263.714844 515.332031 223.832031 C 511.292969 220.976562 507.300781 218.148438 503.410156 215.339844 C 414.398438 151.488281 361.671875 100.695312 371.613281 83.496094 Z M 371.613281 83.496094 " fill-opacity="1" fill-rule="nonzero"/><path fill="#ffffff" d="M 821.105469 66.832031 C 820.3125 66.621094 819.542969 66.335938 818.808594 65.976562 C 818.070312 65.613281 817.371094 65.183594 816.71875 64.6875 C 816.066406 64.1875 815.46875 63.632812 814.921875 63.015625 C 814.378906 62.398438 813.902344 61.734375 813.488281 61.027344 C 813.074219 60.316406 812.734375 59.570312 812.46875 58.792969 C 812.203125 58.015625 812.015625 57.222656 811.90625 56.40625 C 811.796875 55.59375 811.765625 54.773438 811.816406 53.953125 C 811.871094 53.132812 812 52.328125 812.210938 51.53125 C 812.421875 50.738281 812.707031 49.972656 813.070312 49.234375 C 813.429688 48.496094 813.859375 47.800781 814.359375 47.148438 C 814.859375 46.496094 815.414062 45.894531 816.03125 45.351562 C 816.648438 44.808594 817.3125 44.332031 818.023438 43.917969 C 818.734375 43.507812 819.476562 43.167969 820.253906 42.902344 C 821.03125 42.632812 821.828125 42.445312 822.640625 42.335938 C 823.457031 42.230469 824.273438 42.199219 825.09375 42.25 C 825.914062 42.304688 826.722656 42.433594 827.515625 42.644531 C 847.382812 47.984375 866.226562 55.796875 884.039062 66.082031 C 884.746094 66.488281 885.410156 66.957031 886.023438 67.496094 C 886.640625 68.03125 887.195312 68.621094 887.695312 69.265625 C 888.191406 69.910156 888.625 70.597656 888.984375 71.328125 C 889.347656 72.058594 889.636719 72.820312 889.851562 73.605469 C 890.0625 74.394531 890.199219 75.191406 890.253906 76.007812 C 890.308594 76.820312 890.285156 77.632812 890.179688 78.441406 C 890.074219 79.25 889.894531 80.039062 889.632812 80.8125 C 889.375 81.585938 889.039062 82.324219 888.632812 83.03125 C 888.226562 83.738281 887.757812 84.398438 887.222656 85.015625 C 886.683594 85.628906 886.09375 86.183594 885.449219 86.683594 C 884.800781 87.179688 884.113281 87.609375 883.382812 87.972656 C 882.652344 88.335938 881.894531 88.621094 881.105469 88.835938 C 880.320312 89.046875 879.519531 89.179688 878.707031 89.234375 C 877.890625 89.289062 877.082031 89.265625 876.273438 89.160156 C 875.464844 89.054688 874.671875 88.871094 873.898438 88.609375 C 873.128906 88.351562 872.386719 88.015625 871.679688 87.609375 C 855.734375 78.464844 838.875 71.539062 821.105469 66.832031 Z M 821.105469 66.832031 " fill-opacity="1" fill-rule="nonzero"/><path fill="#ffffff" d="M 904.71875 111.265625 C 904.105469 110.726562 903.550781 110.136719 903.054688 109.488281 C 902.554688 108.84375 902.125 108.15625 901.765625 107.425781 C 901.402344 106.695312 901.117188 105.933594 900.90625 105.148438 C 900.691406 104.359375 900.558594 103.558594 900.503906 102.746094 C 900.449219 101.933594 900.476562 101.121094 900.582031 100.3125 C 900.6875 99.503906 900.871094 98.714844 901.128906 97.941406 C 901.390625 97.167969 901.726562 96.429688 902.132812 95.722656 C 902.539062 95.015625 903.011719 94.355469 903.546875 93.742188 C 904.085938 93.128906 904.675781 92.570312 905.320312 92.074219 C 905.96875 91.578125 906.65625 91.148438 907.386719 90.785156 C 908.117188 90.425781 908.878906 90.136719 909.664062 89.925781 C 910.453125 89.714844 911.253906 89.578125 912.066406 89.523438 C 912.878906 89.472656 913.691406 89.496094 914.5 89.601562 C 915.308594 89.707031 916.097656 89.890625 916.871094 90.152344 C 917.644531 90.410156 918.382812 90.746094 919.089844 91.152344 C 919.796875 91.558594 920.457031 92.03125 921.070312 92.566406 C 929.789062 100.179688 937.902344 108.390625 945.402344 117.199219 C 952.90625 126.011719 959.71875 135.328125 965.839844 145.148438 C 971.960938 154.972656 977.328125 165.1875 981.9375 175.804688 C 986.546875 186.421875 990.347656 197.316406 993.34375 208.496094 C 993.550781 209.285156 993.683594 210.089844 993.734375 210.902344 C 993.789062 211.71875 993.761719 212.53125 993.652344 213.339844 C 993.546875 214.152344 993.359375 214.941406 993.097656 215.714844 C 992.832031 216.488281 992.496094 217.230469 992.085938 217.933594 C 991.679688 218.640625 991.203125 219.300781 990.664062 219.917969 C 990.125 220.53125 989.53125 221.085938 988.882812 221.582031 C 988.234375 222.078125 987.542969 222.503906 986.808594 222.867188 C 986.078125 223.226562 985.316406 223.511719 984.527344 223.722656 C 983.738281 223.933594 982.933594 224.0625 982.117188 224.117188 C 981.304688 224.167969 980.492188 224.140625 979.679688 224.035156 C 978.871094 223.925781 978.082031 223.742188 977.308594 223.476562 C 976.535156 223.214844 975.792969 222.878906 975.085938 222.46875 C 974.378906 222.058594 973.71875 221.585938 973.105469 221.042969 C 972.492188 220.503906 971.9375 219.910156 971.441406 219.261719 C 970.945312 218.613281 970.515625 217.921875 970.15625 217.191406 C 969.796875 216.457031 969.511719 215.695312 969.300781 214.90625 C 966.617188 204.917969 963.214844 195.175781 959.09375 185.691406 C 954.972656 176.203125 950.175781 167.070312 944.707031 158.289062 C 939.234375 149.511719 933.148438 141.179688 926.449219 133.300781 C 919.75 125.421875 912.507812 118.074219 904.71875 111.265625 Z M 904.71875 111.265625 " fill-opacity="1" fill-rule="nonzero"/><g fill="#ffffff" fill-opacity="1"><g transform="translate(168.634695, 351.374991)"><g><path d="M 63.25 -113.484375 C 80.125 -113.484375 93.546875 -109.203125 103.507812 -100.636719 C 113.621094 -91.945312 118.675781 -79.640625 118.675781 -63.722656 L 118.675781 -60.378906 L 78.789062 -60.378906 L 78.789062 -63.722656 C 78.789062 -69.160156 77.421875 -73.398438 74.691406 -76.433594 C 72.050781 -79.367188 68.183594 -80.835938 63.09375 -80.835938 C 57.179688 -80.835938 52.90625 -79.078125 50.269531 -75.5625 C 47.414062 -71.753906 45.984375 -66.285156 45.984375 -59.160156 L 45.984375 -49.089844 C 45.984375 -42.066406 47.417969 -36.617188 50.28125 -32.75 C 52.917969 -29.195312 57.082031 -27.417969 62.78125 -27.417969 C 68.570312 -27.417969 72.867188 -28.820312 75.675781 -31.628906 C 78.484375 -34.4375 79.890625 -38.527344 79.890625 -43.898438 L 79.890625 -47.242188 L 118.675781 -47.242188 L 118.675781 -43.898438 C 118.675781 -28.089844 113.753906 -15.921875 103.914062 -7.386719 C 94.210938 1.027344 80.65625 5.230469 63.25 5.230469 C 43.871094 5.230469 29.105469 0.1875 18.960938 -9.902344 C 8.8125 -19.996094 3.738281 -34.738281 3.738281 -54.125 C 3.738281 -73.515625 8.8125 -88.253906 18.960938 -98.351562 C 29.105469 -108.4375 43.871094 -113.484375 63.25 -113.484375 Z M 63.25 -106.796875 C 45.710938 -106.796875 32.519531 -102.398438 23.675781 -93.609375 C 14.84375 -84.820312 10.425781 -71.660156 10.425781 -54.125 C 10.425781 -36.589844 14.84375 -23.429688 23.675781 -14.644531 C 32.519531 -5.851562 45.710938 -1.457031 63.25 -1.457031 C 78.992188 -1.457031 91.085938 -5.117188 99.53125 -12.4375 C 107.835938 -19.640625 111.988281 -30.125 111.988281 -43.898438 L 115.332031 -43.898438 L 115.332031 -40.554688 L 83.234375 -40.554688 L 83.234375 -43.898438 L 86.578125 -43.898438 C 86.578125 -36.679688 84.519531 -31.015625 80.40625 -26.902344 C 76.292969 -22.785156 70.417969 -20.730469 62.78125 -20.730469 C 54.839844 -20.730469 48.882812 -23.410156 44.910156 -28.769531 C 41.167969 -33.820312 39.296875 -40.59375 39.296875 -49.089844 L 39.296875 -59.160156 C 39.296875 -67.769531 41.171875 -74.574219 44.921875 -79.574219 C 48.894531 -84.875 54.953125 -87.523438 63.09375 -87.523438 C 70.171875 -87.523438 75.695312 -85.316406 79.660156 -80.90625 C 83.539062 -76.601562 85.476562 -70.871094 85.476562 -63.722656 L 82.132812 -63.722656 L 82.132812 -67.066406 L 115.332031 -67.066406 L 115.332031 -63.722656 L 111.988281 -63.722656 C 111.988281 -77.59375 107.707031 -88.210938 99.148438 -95.566406 C 90.441406 -103.054688 78.472656 -106.796875 63.25 -106.796875 Z M 63.25 -106.796875 "/></g></g></g><g fill="#ffffff" fill-opacity="1"><g transform="translate(291.042, 351.374991)"><g><path d="M 65.453125 -113.484375 C 85.007812 -113.484375 100.191406 -108.410156 111.011719 -98.261719 C 121.890625 -88.054688 127.328125 -73.34375 127.328125 -54.125 C 127.328125 -34.910156 121.890625 -20.199219 111.011719 -9.992188 C 100.191406 0.15625 85.007812 5.230469 65.453125 5.230469 C 45.902344 5.230469 30.742188 0.183594 19.976562 -9.914062 C 9.148438 -20.066406 3.738281 -34.804688 3.738281 -54.125 C 3.738281 -73.449219 9.148438 -88.1875 19.976562 -98.339844 C 30.742188 -108.433594 45.902344 -113.484375 65.453125 -113.484375 Z M 65.453125 -106.796875 C 47.664062 -106.796875 34.03125 -102.351562 24.550781 -93.460938 C 15.132812 -84.628906 10.425781 -71.515625 10.425781 -54.125 C 10.425781 -36.734375 15.132812 -23.621094 24.550781 -14.789062 C 34.03125 -5.898438 47.664062 -1.457031 65.453125 -1.457031 C 83.242188 -1.457031 96.90625 -5.925781 106.4375 -14.867188 C 115.90625 -23.753906 120.640625 -36.839844 120.640625 -54.125 C 120.640625 -71.414062 115.90625 -84.5 106.4375 -93.382812 C 96.90625 -102.324219 83.242188 -106.796875 65.453125 -106.796875 Z M 65.453125 -80.835938 C 59.03125 -80.835938 54.210938 -78.96875 50.996094 -75.230469 C 47.652344 -71.347656 45.984375 -65.992188 45.984375 -59.160156 L 45.984375 -49.089844 C 45.984375 -42.261719 47.652344 -36.902344 50.996094 -33.019531 C 54.210938 -29.285156 59.03125 -27.417969 65.453125 -27.417969 C 71.886719 -27.417969 76.738281 -29.289062 80.007812 -33.035156 C 83.390625 -36.917969 85.082031 -42.269531 85.082031 -49.089844 L 85.082031 -59.160156 C 85.082031 -65.984375 83.390625 -71.335938 80.007812 -75.214844 C 76.738281 -78.960938 71.886719 -80.835938 65.453125 -80.835938 Z M 65.453125 -87.523438 C 73.914062 -87.523438 80.445312 -84.882812 85.046875 -79.609375 C 89.527344 -74.46875 91.769531 -67.652344 91.769531 -59.160156 L 91.769531 -49.089844 C 91.769531 -40.597656 89.527344 -33.78125 85.046875 -28.640625 C 80.445312 -23.367188 73.914062 -20.730469 65.453125 -20.730469 C 56.984375 -20.730469 50.476562 -23.371094 45.925781 -28.660156 C 41.507812 -33.796875 39.296875 -40.605469 39.296875 -49.089844 L 39.296875 -59.160156 C 39.296875 -67.644531 41.507812 -74.457031 45.925781 -79.59375 C 50.476562 -84.878906 56.984375 -87.523438 65.453125 -87.523438 Z M 65.453125 -87.523438 "/></g></g></g><g fill="#ffffff" fill-opacity="1"><g transform="translate(422.102777, 351.374991)"><g><path d="M 11.644531 -111.59375 L 49.757812 -111.59375 L 49.757812 -27.691406 L 46.417969 -27.691406 L 46.417969 -31.035156 L 105.300781 -31.035156 L 105.300781 3.34375 L 8.300781 3.34375 L 8.300781 -111.59375 Z M 11.644531 -104.90625 L 11.644531 -108.25 L 14.988281 -108.25 L 14.988281 0 L 11.644531 0 L 11.644531 -3.34375 L 101.957031 -3.34375 L 101.957031 0 L 98.613281 0 L 98.613281 -27.691406 L 101.957031 -27.691406 L 101.957031 -24.347656 L 43.074219 -24.347656 L 43.074219 -108.25 L 46.417969 -108.25 L 46.417969 -104.90625 Z M 11.644531 -104.90625 "/></g></g></g><g fill="#ffffff" fill-opacity="1"><g transform="translate(527.045804, 351.374991)"><g><path d="M 11.644531 -111.59375 L 49.757812 -111.59375 L 49.757812 -27.691406 L 46.417969 -27.691406 L 46.417969 -31.035156 L 105.300781 -31.035156 L 105.300781 3.34375 L 8.300781 3.34375 L 8.300781 -111.59375 Z M 11.644531 -104.90625 L 11.644531 -108.25 L 14.988281 -108.25 L 14.988281 0 L 11.644531 0 L 11.644531 -3.34375 L 101.957031 -3.34375 L 101.957031 0 L 98.613281 0 L 98.613281 -27.691406 L 101.957031 -27.691406 L 101.957031 -24.347656 L 43.074219 -24.347656 L 43.074219 -108.25 L 46.417969 -108.25 L 46.417969 -104.90625 Z M 11.644531 -104.90625 "/></g></g></g><g fill="#ffffff" fill-opacity="1"><g transform="translate(631.988831, 351.374991)"><g><path d="M 80.976562 0.957031 L 76.410156 -14.304688 L 79.617188 -15.261719 L 79.617188 -11.917969 L 41.695312 -11.917969 L 41.695312 -15.261719 L 44.898438 -14.304688 L 39.621094 3.34375 L -3.207031 3.34375 L 38.726562 -111.59375 L 83.84375 -111.59375 L 125.773438 3.34375 L 81.6875 3.34375 Z M 87.382812 -0.957031 L 84.179688 0 L 84.179688 -3.34375 L 120.996094 -3.34375 L 120.996094 0 L 117.855469 1.144531 L 78.363281 -107.105469 L 81.503906 -108.25 L 81.503906 -104.90625 L 41.066406 -104.90625 L 41.066406 -108.25 L 44.207031 -107.105469 L 4.714844 1.144531 L 1.574219 0 L 1.574219 -3.34375 L 37.132812 -3.34375 L 37.132812 0 L 33.929688 -0.957031 L 39.207031 -18.605469 L 82.105469 -18.605469 Z M 48.933594 -42.835938 L 72.378906 -42.835938 L 72.378906 -39.492188 L 69.167969 -38.550781 L 57.839844 -77.097656 L 61.050781 -78.042969 L 61.050781 -74.699219 L 60.417969 -74.699219 L 60.417969 -78.042969 L 63.625 -77.085938 L 52.136719 -38.539062 L 48.933594 -39.492188 Z M 44.449219 -36.148438 L 57.925781 -81.386719 L 63.550781 -81.386719 L 76.84375 -36.148438 Z M 44.449219 -36.148438 "/></g></g></g><g fill="#ffffff" fill-opacity="1"><g transform="translate(754.396114, 351.374991)"><g><path d="M 77.292969 -80.558594 L 77.292969 3.34375 L 35.835938 3.34375 L 35.835938 -80.558594 L 39.179688 -80.558594 L 39.179688 -77.214844 L 0.273438 -77.214844 L 0.273438 -111.59375 L 112.695312 -111.59375 L 112.695312 -77.214844 L 73.949219 -77.214844 L 73.949219 -80.558594 Z M 70.605469 -83.902344 L 109.351562 -83.902344 L 109.351562 -80.558594 L 106.007812 -80.558594 L 106.007812 -108.25 L 109.351562 -108.25 L 109.351562 -104.90625 L 3.617188 -104.90625 L 3.617188 -108.25 L 6.960938 -108.25 L 6.960938 -80.558594 L 3.617188 -80.558594 L 3.617188 -83.902344 L 42.523438 -83.902344 L 42.523438 0 L 39.179688 0 L 39.179688 -3.34375 L 73.949219 -3.34375 L 73.949219 0 L 70.605469 0 Z M 70.605469 -83.902344 "/></g></g></g><g fill="#ffffff" fill-opacity="1"><g transform="translate(867.992636, 351.374991)"><g><path d="M 11.644531 -111.59375 L 108.605469 -111.59375 L 108.605469 -78.945312 L 46.417969 -78.945312 L 46.417969 -82.289062 L 49.757812 -82.289062 L 49.757812 -67.34375 L 46.417969 -67.34375 L 46.417969 -70.6875 L 100.109375 -70.6875 L 100.109375 -39.140625 L 46.417969 -39.140625 L 46.417969 -42.484375 L 49.757812 -42.484375 L 49.757812 -25.960938 L 46.417969 -25.960938 L 46.417969 -29.304688 L 109.707031 -29.304688 L 109.707031 3.34375 L 8.300781 3.34375 L 8.300781 -111.59375 Z M 11.644531 -104.90625 L 11.644531 -108.25 L 14.988281 -108.25 L 14.988281 0 L 11.644531 0 L 11.644531 -3.34375 L 106.363281 -3.34375 L 106.363281 0 L 103.019531 0 L 103.019531 -25.960938 L 106.363281 -25.960938 L 106.363281 -22.617188 L 43.074219 -22.617188 L 43.074219 -45.824219 L 96.765625 -45.824219 L 96.765625 -42.484375 L 93.421875 -42.484375 L 93.421875 -67.34375 L 96.765625 -67.34375 L 96.765625 -64 L 43.074219 -64 L 43.074219 -85.632812 L 105.261719 -85.632812 L 105.261719 -82.289062 L 101.917969 -82.289062 L 101.917969 -108.25 L 105.261719 -108.25 L 105.261719 -104.90625 Z M 11.644531 -104.90625 "/></g></g></g><g fill="#ffffff" fill-opacity="1"><g transform="translate(981.589158, 351.374991)"><g><path d="M 117.730469 -75.050781 C 117.730469 -67.769531 115.761719 -61.171875 111.820312 -55.261719 C 107.851562 -49.308594 102.117188 -44.945312 94.621094 -42.179688 L 93.460938 -45.316406 L 96.414062 -46.882812 L 123.097656 3.34375 L 76.421875 3.34375 L 56.3125 -38.03125 L 59.316406 -39.492188 L 59.316406 -36.148438 L 46.417969 -36.148438 L 46.417969 -39.492188 L 49.757812 -39.492188 L 49.757812 3.34375 L 8.300781 3.34375 L 8.300781 -111.59375 L 77.882812 -111.59375 C 86.210938 -111.59375 93.378906 -109.964844 99.382812 -106.707031 C 105.46875 -103.402344 110.058594 -98.917969 113.152344 -93.253906 C 116.207031 -87.667969 117.730469 -81.601562 117.730469 -75.050781 Z M 111.042969 -75.050781 C 111.042969 -80.460938 109.792969 -85.460938 107.285156 -90.046875 C 104.820312 -94.558594 101.121094 -98.152344 96.191406 -100.828125 C 91.183594 -103.546875 85.082031 -104.90625 77.882812 -104.90625 L 11.644531 -104.90625 L 11.644531 -108.25 L 14.988281 -108.25 L 14.988281 0 L 11.644531 0 L 11.644531 -3.34375 L 46.417969 -3.34375 L 46.417969 0 L 43.074219 0 L 43.074219 -42.835938 L 61.410156 -42.835938 L 81.519531 -1.460938 L 78.515625 0 L 78.515625 -3.34375 L 117.535156 -3.34375 L 117.535156 0 L 114.582031 1.570312 L 88.714844 -47.125 L 92.304688 -48.453125 C 98.441406 -50.71875 103.09375 -54.222656 106.257812 -58.96875 C 109.449219 -63.757812 111.042969 -69.117188 111.042969 -75.050781 Z M 75.640625 -73.636719 C 75.640625 -75.546875 75.023438 -77.117188 73.789062 -78.351562 C 72.554688 -79.585938 71.035156 -80.207031 69.230469 -80.207031 L 46.417969 -80.207031 L 46.417969 -83.550781 L 49.757812 -83.550781 L 49.757812 -63.566406 L 46.417969 -63.566406 L 46.417969 -66.910156 L 69.230469 -66.910156 C 71.015625 -66.910156 72.527344 -67.542969 73.757812 -68.808594 C 75.015625 -70.101562 75.640625 -71.710938 75.640625 -73.636719 Z M 82.328125 -73.636719 C 82.328125 -69.898438 81.070312 -66.734375 78.550781 -64.144531 C 76.003906 -61.53125 72.898438 -60.222656 69.230469 -60.222656 L 43.074219 -60.222656 L 43.074219 -86.890625 L 69.230469 -86.890625 C 72.882812 -86.890625 75.976562 -85.621094 78.519531 -83.082031 C 81.058594 -80.539062 82.328125 -77.390625 82.328125 -73.636719 Z M 82.328125 -73.636719 "/></g></g></g><g fill="#ffffff" fill-opacity="1"><g transform="translate(1103.996441, 351.374991)"><g><path d="M 80.976562 0.957031 L 76.410156 -14.304688 L 79.617188 -15.261719 L 79.617188 -11.917969 L 41.695312 -11.917969 L 41.695312 -15.261719 L 44.898438 -14.304688 L 39.621094 3.34375 L -3.207031 3.34375 L 38.726562 -111.59375 L 83.84375 -111.59375 L 125.773438 3.34375 L 81.6875 3.34375 Z M 87.382812 -0.957031 L 84.179688 0 L 84.179688 -3.34375 L 120.996094 -3.34375 L 120.996094 0 L 117.855469 1.144531 L 78.363281 -107.105469 L 81.503906 -108.25 L 81.503906 -104.90625 L 41.066406 -104.90625 L 41.066406 -108.25 L 44.207031 -107.105469 L 4.714844 1.144531 L 1.574219 0 L 1.574219 -3.34375 L 37.132812 -3.34375 L 37.132812 0 L 33.929688 -0.957031 L 39.207031 -18.605469 L 82.105469 -18.605469 Z M 48.933594 -42.835938 L 72.378906 -42.835938 L 72.378906 -39.492188 L 69.167969 -38.550781 L 57.839844 -77.097656 L 61.050781 -78.042969 L 61.050781 -74.699219 L 60.417969 -74.699219 L 60.417969 -78.042969 L 63.625 -77.085938 L 52.136719 -38.539062 L 48.933594 -39.492188 Z M 44.449219 -36.148438 L 57.925781 -81.386719 L 63.550781 -81.386719 L 76.84375 -36.148438 Z M 44.449219 -36.148438 "/></g></g></g><g fill="#ffffff" fill-opacity="1"><g transform="translate(1226.403723, 351.374991)"><g><path d="M 11.644531 -111.59375 L 49.757812 -111.59375 L 49.757812 -27.691406 L 46.417969 -27.691406 L 46.417969 -31.035156 L 105.300781 -31.035156 L 105.300781 3.34375 L 8.300781 3.34375 L 8.300781 -111.59375 Z M 11.644531 -104.90625 L 11.644531 -108.25 L 14.988281 -108.25 L 14.988281 0 L 11.644531 0 L 11.644531 -3.34375 L 101.957031 -3.34375 L 101.957031 0 L 98.613281 0 L 98.613281 -27.691406 L 101.957031 -27.691406 L 101.957031 -24.347656 L 43.074219 -24.347656 L 43.074219 -108.25 L 46.417969 -108.25 L 46.417969 -104.90625 Z M 11.644531 -104.90625 "/></g></g></g><g fill="#000000" fill-opacity="1"><g transform="translate(168.634695, 351.374991)"><g><path d="M 63.25 -110.140625 C 79.300781 -110.140625 91.992188 -106.125 101.328125 -98.09375 C 110.660156 -90.070312 115.328125 -78.613281 115.328125 -63.71875 L 82.140625 -63.71875 C 82.140625 -70.019531 80.484375 -75.003906 77.171875 -78.671875 C 73.867188 -82.335938 69.175781 -84.171875 63.09375 -84.171875 C 56.0625 -84.171875 50.894531 -81.96875 47.59375 -77.5625 C 44.289062 -73.164062 42.640625 -67.03125 42.640625 -59.15625 L 42.640625 -49.09375 C 42.640625 -41.332031 44.289062 -35.222656 47.59375 -30.765625 C 50.894531 -26.304688 55.957031 -24.078125 62.78125 -24.078125 C 69.488281 -24.078125 74.570312 -25.804688 78.03125 -29.265625 C 81.5 -32.722656 83.234375 -37.601562 83.234375 -43.90625 L 115.328125 -43.90625 C 115.328125 -29.113281 110.789062 -17.78125 101.71875 -9.90625 C 92.644531 -2.039062 79.820312 1.890625 63.25 1.890625 C 44.789062 1.890625 30.8125 -2.828125 21.3125 -12.265625 C 11.820312 -21.710938 7.078125 -35.664062 7.078125 -54.125 C 7.078125 -72.582031 11.820312 -86.53125 21.3125 -95.96875 C 30.8125 -105.414062 44.789062 -110.140625 63.25 -110.140625 Z M 63.25 -110.140625 "/></g></g></g><g fill="#000000" fill-opacity="1"><g transform="translate(291.042, 351.374991)"><g><path d="M 65.453125 -110.140625 C 84.128906 -110.140625 98.550781 -105.363281 108.71875 -95.8125 C 118.894531 -86.269531 123.984375 -72.375 123.984375 -54.125 C 123.984375 -35.875 118.894531 -21.972656 108.71875 -12.421875 C 98.550781 -2.878906 84.128906 1.890625 65.453125 1.890625 C 46.785156 1.890625 32.390625 -2.851562 22.265625 -12.34375 C 12.140625 -21.84375 7.078125 -35.769531 7.078125 -54.125 C 7.078125 -72.476562 12.140625 -86.398438 22.265625 -95.890625 C 32.390625 -105.390625 46.785156 -110.140625 65.453125 -110.140625 Z M 65.453125 -84.171875 C 58.003906 -84.171875 52.335938 -81.914062 48.453125 -77.40625 C 44.578125 -72.894531 42.640625 -66.8125 42.640625 -59.15625 L 42.640625 -49.09375 C 42.640625 -41.4375 44.578125 -35.351562 48.453125 -30.84375 C 52.335938 -26.332031 58.003906 -24.078125 65.453125 -24.078125 C 72.898438 -24.078125 78.585938 -26.332031 82.515625 -30.84375 C 86.453125 -35.351562 88.421875 -41.4375 88.421875 -49.09375 L 88.421875 -59.15625 C 88.421875 -66.8125 86.453125 -72.894531 82.515625 -77.40625 C 78.585938 -81.914062 72.898438 -84.171875 65.453125 -84.171875 Z M 65.453125 -84.171875 "/></g></g></g><g fill="#000000" fill-opacity="1"><g transform="translate(422.102777, 351.374991)"><g><path d="M 11.640625 -108.25 L 46.421875 -108.25 L 46.421875 -27.6875 L 101.953125 -27.6875 L 101.953125 0 L 11.640625 0 Z M 11.640625 -108.25 "/></g></g></g><g fill="#000000" fill-opacity="1"><g transform="translate(527.045804, 351.374991)"><g><path d="M 11.640625 -108.25 L 46.421875 -108.25 L 46.421875 -27.6875 L 101.953125 -27.6875 L 101.953125 0 L 11.640625 0 Z M 11.640625 -108.25 "/></g></g></g><g fill="#000000" fill-opacity="1"><g transform="translate(631.988831, 351.374991)"><g><path d="M 84.171875 0 L 79.609375 -15.265625 L 41.703125 -15.265625 L 37.140625 0 L 1.578125 0 L 41.0625 -108.25 L 81.5 -108.25 L 121 0 Z M 48.9375 -39.5 L 72.375 -39.5 L 61.046875 -78.046875 L 60.421875 -78.046875 Z M 48.9375 -39.5 "/></g></g></g><g fill="#000000" fill-opacity="1"><g transform="translate(754.396114, 351.374991)"><g><path d="M 73.953125 -80.5625 L 73.953125 0 L 39.171875 0 L 39.171875 -80.5625 L 3.625 -80.5625 L 3.625 -108.25 L 109.359375 -108.25 L 109.359375 -80.5625 Z M 73.953125 -80.5625 "/></g></g></g><g fill="#000000" fill-opacity="1"><g transform="translate(867.992636, 351.374991)"><g><path d="M 11.640625 -108.25 L 105.265625 -108.25 L 105.265625 -82.296875 L 46.421875 -82.296875 L 46.421875 -67.34375 L 96.765625 -67.34375 L 96.765625 -42.484375 L 46.421875 -42.484375 L 46.421875 -25.96875 L 106.359375 -25.96875 L 106.359375 0 L 11.640625 0 Z M 11.640625 -108.25 "/></g></g></g><g fill="#000000" fill-opacity="1"><g transform="translate(981.589158, 351.374991)"><g><path d="M 114.390625 -75.046875 C 114.390625 -68.441406 112.601562 -62.460938 109.03125 -57.109375 C 105.46875 -51.765625 100.28125 -47.832031 93.46875 -45.3125 L 117.53125 0 L 78.515625 0 L 59.3125 -39.5 L 46.421875 -39.5 L 46.421875 0 L 11.640625 0 L 11.640625 -108.25 L 77.890625 -108.25 C 85.648438 -108.25 92.28125 -106.753906 97.78125 -103.765625 C 103.289062 -100.773438 107.4375 -96.734375 110.21875 -91.640625 C 113 -86.554688 114.390625 -81.023438 114.390625 -75.046875 Z M 78.984375 -73.640625 C 78.984375 -76.472656 78.039062 -78.832031 76.15625 -80.71875 C 74.269531 -82.601562 71.960938 -83.546875 69.234375 -83.546875 L 46.421875 -83.546875 L 46.421875 -63.5625 L 69.234375 -63.5625 C 71.960938 -63.5625 74.269531 -64.53125 76.15625 -66.46875 C 78.039062 -68.414062 78.984375 -70.804688 78.984375 -73.640625 Z M 78.984375 -73.640625 "/></g></g></g><g fill="#000000" fill-opacity="1"><g transform="translate(1103.996441, 351.374991)"><g><path d="M 84.171875 0 L 79.609375 -15.265625 L 41.703125 -15.265625 L 37.140625 0 L 1.578125 0 L 41.0625 -108.25 L 81.5 -108.25 L 121 0 Z M 48.9375 -39.5 L 72.375 -39.5 L 61.046875 -78.046875 L 60.421875 -78.046875 Z M 48.9375 -39.5 "/></g></g></g><g fill="#000000" fill-opacity="1"><g transform="translate(1226.403723, 351.374991)"><g><path d="M 11.640625 -108.25 L 46.421875 -108.25 L 46.421875 -27.6875 L 101.953125 -27.6875 L 101.953125 0 L 11.640625 0 Z M 11.640625 -108.25 "/></g></g></g></svg>