<svg xmlns="http://www.w3.org/2000/svg" xmlns:xlink="http://www.w3.org/1999/xlink" width="2750" zoomAndPan="magnify" viewBox="0 0 2062.5 1124.99995" height="1500" preserveAspectRatio="xMidYMid meet" version="1.0"><defs><g/><clipPath id="05fe72e665"><path d="M 0 0.136719 L 2062 0.136719 L 2062 1124.863281 L 0 1124.863281 Z M 0 0.136719 " clip-rule="nonzero"/></clipPath><clipPath id="215e015c80"><path d="M 1883 46 L 2055.460938 46 L 2055.460938 250 L 1883 250 Z M 1883 46 " clip-rule="nonzero"/></clipPath><clipPath id="46bea1e20a"><rect x="0" width="2056" y="0" height="303"/></clipPath></defs><g clip-path="url(#05fe72e665)"><path fill="#ffffff" d="M 0 0.136719 L 2062 0.136719 L 2062 1124.863281 L 0 1124.863281 Z M 0 0.136719 " fill-opacity="1" fill-rule="nonzero"/><path fill="#ffffff" d="M 0 0.136719 L 2062 0.136719 L 2062 1124.863281 L 0 1124.863281 Z M 0 0.136719 " fill-opacity="1" fill-rule="nonzero"/></g><path fill="#752122" d="M 1055.277344 176.472656 C 1061.3125 176.472656 1067.339844 176.617188 1073.367188 176.914062 C 1079.390625 177.210938 1085.40625 177.652344 1091.410156 178.242188 C 1097.414062 178.832031 1103.398438 179.570312 1109.367188 180.457031 C 1115.332031 181.339844 1121.277344 182.371094 1127.191406 183.546875 C 1133.109375 184.722656 1138.992188 186.042969 1144.847656 187.511719 C 1150.699219 188.976562 1156.511719 190.582031 1162.285156 192.332031 C 1168.054688 194.085938 1173.78125 195.976562 1179.464844 198.007812 C 1185.144531 200.039062 1190.769531 202.210938 1196.34375 204.515625 C 1201.917969 206.824219 1207.429688 209.269531 1212.882812 211.847656 C 1218.339844 214.425781 1223.726562 217.136719 1229.046875 219.980469 C 1234.367188 222.824219 1239.613281 225.796875 1244.789062 228.898438 C 1249.964844 232 1255.058594 235.222656 1260.074219 238.574219 C 1265.089844 241.925781 1270.023438 245.398438 1274.867188 248.992188 C 1279.714844 252.585938 1284.46875 256.296875 1289.132812 260.121094 C 1293.796875 263.949219 1298.363281 267.886719 1302.832031 271.9375 C 1307.304688 275.988281 1311.671875 280.148438 1315.9375 284.414062 C 1320.203125 288.679688 1324.363281 293.046875 1328.414062 297.515625 C 1332.464844 301.984375 1336.40625 306.550781 1340.230469 311.214844 C 1344.058594 315.878906 1347.769531 320.632812 1351.363281 325.476562 C 1354.957031 330.320312 1358.429688 335.25 1361.78125 340.269531 C 1365.136719 345.285156 1368.363281 350.378906 1371.464844 355.550781 C 1374.566406 360.726562 1377.539062 365.972656 1380.382812 371.292969 C 1383.226562 376.613281 1385.9375 382 1388.519531 387.453125 C 1391.097656 392.90625 1393.542969 398.421875 1395.851562 403.992188 C 1398.160156 409.566406 1400.332031 415.191406 1402.363281 420.875 C 1404.398438 426.554688 1406.289062 432.277344 1408.039062 438.050781 C 1409.792969 443.824219 1411.402344 449.636719 1412.867188 455.488281 C 1414.332031 461.339844 1415.65625 467.222656 1416.832031 473.140625 C 1418.007812 479.058594 1419.039062 485 1419.925781 490.96875 C 1420.8125 496.933594 1421.550781 502.917969 1422.140625 508.921875 C 1422.734375 514.925781 1423.179688 520.941406 1423.472656 526.964844 C 1423.769531 532.992188 1423.917969 539.019531 1423.917969 545.054688 C 1423.921875 551.085938 1423.773438 557.117188 1423.476562 563.140625 C 1423.179688 569.164062 1422.738281 575.179688 1422.148438 581.183594 C 1421.554688 587.1875 1420.816406 593.171875 1419.933594 599.140625 C 1419.046875 605.109375 1418.019531 611.050781 1416.839844 616.96875 C 1415.664062 622.882812 1414.34375 628.769531 1412.878906 634.621094 C 1411.414062 640.472656 1409.804688 646.285156 1408.054688 652.058594 C 1406.304688 657.832031 1404.410156 663.558594 1402.378906 669.238281 C 1400.347656 674.917969 1398.175781 680.542969 1395.867188 686.117188 C 1393.5625 691.691406 1391.117188 697.203125 1388.539062 702.65625 C 1385.960938 708.113281 1383.246094 713.5 1380.40625 718.820312 C 1377.5625 724.140625 1374.589844 729.386719 1371.488281 734.5625 C 1368.386719 739.734375 1365.160156 744.832031 1361.808594 749.847656 C 1358.457031 754.863281 1354.984375 759.792969 1351.390625 764.640625 C 1347.796875 769.484375 1344.089844 774.238281 1340.261719 778.902344 C 1336.433594 783.566406 1332.496094 788.132812 1328.445312 792.605469 C 1324.394531 797.074219 1320.234375 801.441406 1315.96875 805.707031 C 1311.703125 809.972656 1307.335938 814.132812 1302.867188 818.183594 C 1298.398438 822.234375 1293.832031 826.175781 1289.167969 830.003906 C 1284.503906 833.828125 1279.75 837.539062 1274.90625 841.132812 C 1270.058594 844.726562 1265.128906 848.199219 1260.113281 851.550781 C 1255.097656 854.902344 1250.003906 858.128906 1244.828125 861.230469 C 1239.65625 864.332031 1234.40625 867.308594 1229.085938 870.152344 C 1223.765625 872.996094 1218.378906 875.707031 1212.925781 878.285156 C 1207.472656 880.867188 1201.960938 883.308594 1196.386719 885.617188 C 1190.8125 887.925781 1185.1875 890.097656 1179.507812 892.128906 C 1173.828125 894.164062 1168.101562 896.054688 1162.328125 897.804688 C 1156.554688 899.558594 1150.742188 901.167969 1144.890625 902.632812 C 1139.039062 904.097656 1133.15625 905.421875 1127.238281 906.597656 C 1121.320312 907.773438 1115.378906 908.804688 1109.414062 909.691406 C 1103.445312 910.578125 1097.460938 911.316406 1091.457031 911.90625 C 1085.453125 912.496094 1079.4375 912.941406 1073.414062 913.238281 C 1067.386719 913.535156 1061.359375 913.683594 1055.324219 913.683594 C 1049.292969 913.683594 1043.265625 913.535156 1037.238281 913.238281 C 1031.214844 912.941406 1025.199219 912.5 1019.195312 911.910156 C 1013.191406 911.316406 1007.207031 910.578125 1001.238281 909.695312 C 995.273438 908.808594 989.328125 907.777344 983.414062 906.601562 C 977.496094 905.425781 971.613281 904.105469 965.761719 902.636719 C 959.90625 901.171875 954.09375 899.5625 948.324219 897.8125 C 942.550781 896.0625 936.824219 894.171875 931.144531 892.136719 C 925.464844 890.105469 919.835938 887.9375 914.261719 885.628906 C 908.691406 883.320312 903.175781 880.875 897.722656 878.296875 C 892.269531 875.714844 886.882812 873.003906 881.5625 870.160156 C 876.242188 867.316406 870.992188 864.34375 865.820312 861.246094 C 860.644531 858.144531 855.550781 854.917969 850.535156 851.566406 C 845.519531 848.214844 840.585938 844.742188 835.742188 841.148438 C 830.894531 837.554688 826.140625 833.84375 821.476562 830.015625 C 816.816406 826.191406 812.25 822.25 807.777344 818.199219 C 803.308594 814.148438 798.941406 809.988281 794.675781 805.722656 C 790.410156 801.457031 786.25 797.089844 782.199219 792.621094 C 778.148438 788.152344 774.207031 783.585938 770.382812 778.921875 C 766.554688 774.257812 762.84375 769.503906 759.25 764.660156 C 755.65625 759.8125 752.183594 754.882812 748.832031 749.867188 C 745.480469 744.851562 742.253906 739.753906 739.152344 734.582031 C 736.050781 729.40625 733.078125 724.160156 730.234375 718.839844 C 727.390625 713.519531 724.679688 708.132812 722.101562 702.679688 C 719.519531 697.226562 717.078125 691.710938 714.769531 686.140625 C 712.460938 680.566406 710.289062 674.9375 708.257812 669.257812 C 706.222656 663.578125 704.332031 657.851562 702.582031 652.078125 C 700.828125 646.304688 699.222656 640.496094 697.753906 634.640625 C 696.289062 628.789062 694.96875 622.90625 693.792969 616.988281 C 692.613281 611.074219 691.582031 605.132812 690.699219 599.164062 C 689.8125 593.195312 689.074219 587.210938 688.484375 581.207031 C 687.890625 575.203125 687.449219 569.1875 687.152344 563.164062 C 686.855469 557.136719 686.707031 551.109375 686.707031 545.078125 C 686.707031 539.042969 686.855469 533.015625 687.152344 526.992188 C 687.449219 520.964844 687.890625 514.953125 688.484375 508.949219 C 689.074219 502.945312 689.8125 496.960938 690.699219 490.996094 C 691.582031 485.027344 692.613281 479.085938 693.789062 473.167969 C 694.96875 467.253906 696.289062 461.371094 697.753906 455.519531 C 699.21875 449.667969 700.828125 443.855469 702.578125 438.082031 C 704.328125 432.308594 706.222656 426.585938 708.253906 420.90625 C 710.285156 415.226562 712.457031 409.597656 714.765625 404.027344 C 717.070312 398.453125 719.515625 392.941406 722.09375 387.488281 C 724.671875 382.035156 727.382812 376.648438 730.226562 371.328125 C 733.070312 366.007812 736.042969 360.761719 739.144531 355.585938 C 742.246094 350.410156 745.472656 345.316406 748.824219 340.300781 C 752.171875 335.285156 755.644531 330.355469 759.238281 325.511719 C 762.832031 320.664062 766.542969 315.910156 770.367188 311.246094 C 774.195312 306.585938 778.132812 302.019531 782.183594 297.546875 C 786.234375 293.078125 790.394531 288.710938 794.660156 284.445312 C 798.921875 280.179688 803.289062 276.023438 807.761719 271.96875 C 812.230469 267.917969 816.796875 263.980469 821.457031 260.152344 C 826.121094 256.328125 830.875 252.617188 835.71875 249.023438 C 840.5625 245.429688 845.496094 241.957031 850.511719 238.605469 C 855.523438 235.253906 860.621094 232.027344 865.792969 228.925781 C 870.96875 225.824219 876.214844 222.851562 881.535156 220.007812 C 886.851562 217.164062 892.238281 214.453125 897.691406 211.871094 C 903.144531 209.292969 908.65625 206.847656 914.230469 204.539062 C 919.804688 202.230469 925.429688 200.058594 931.109375 198.027344 C 936.789062 195.996094 942.515625 194.101562 948.285156 192.351562 C 954.058594 190.601562 959.871094 188.992188 965.722656 187.523438 C 971.574219 186.058594 977.457031 184.738281 983.371094 183.558594 C 989.289062 182.382812 995.230469 181.351562 1001.195312 180.464844 C 1007.164062 179.578125 1013.148438 178.839844 1019.152344 178.25 C 1025.15625 177.65625 1031.167969 177.214844 1037.195312 176.917969 C 1043.21875 176.621094 1049.246094 176.472656 1055.277344 176.472656 Z M 1055.277344 176.472656 " fill-opacity="1" fill-rule="nonzero"/><path fill="#3b0001" d="M 1406.230469 658.117188 C 1404 665.046875 1401.5625 671.898438 1398.925781 678.683594 C 1396.289062 685.464844 1393.453125 692.164062 1390.417969 698.777344 C 1387.382812 705.394531 1384.15625 711.914062 1380.734375 718.335938 C 1377.316406 724.761719 1373.707031 731.078125 1369.914062 737.289062 C 1366.117188 743.496094 1362.144531 749.589844 1357.988281 755.566406 C 1353.832031 761.539062 1349.503906 767.386719 1345.003906 773.105469 C 1340.5 778.820312 1335.832031 784.402344 1331 789.84375 C 1326.167969 795.285156 1321.179688 800.578125 1316.035156 805.726562 C 1310.890625 810.871094 1305.59375 815.863281 1300.152344 820.695312 C 1294.714844 825.527344 1289.132812 830.195312 1283.414062 834.699219 C 1277.699219 839.199219 1271.851562 843.53125 1265.878906 847.6875 C 1259.902344 851.84375 1253.8125 855.816406 1247.601562 859.613281 C 1241.394531 863.410156 1235.078125 867.015625 1228.652344 870.4375 C 1222.230469 873.859375 1215.710938 877.085938 1209.097656 880.121094 C 1202.480469 883.160156 1195.785156 885.996094 1189 888.632812 C 1182.21875 891.273438 1175.363281 893.707031 1168.4375 895.941406 C 1161.511719 898.171875 1154.523438 900.199219 1147.476562 902.015625 C 1140.429688 903.835938 1133.335938 905.445312 1126.195312 906.84375 C 1119.050781 908.242188 1111.875 909.425781 1104.664062 910.402344 C 1097.449219 911.375 1090.214844 912.132812 1082.957031 912.679688 C 1075.703125 913.222656 1068.433594 913.554688 1061.15625 913.667969 C 1053.882812 913.78125 1046.609375 913.683594 1039.335938 913.367188 C 1032.066406 913.050781 1024.8125 912.519531 1017.570312 911.773438 C 1010.332031 911.027344 1003.121094 910.066406 995.9375 908.894531 C 988.757812 907.722656 981.613281 906.335938 974.515625 904.742188 C 967.414062 903.144531 960.367188 901.339844 953.375 899.328125 C 946.378906 897.316406 939.453125 895.097656 932.589844 892.671875 C 925.726562 890.25 918.941406 887.625 912.234375 884.800781 C 905.527344 881.972656 898.910156 878.953125 892.382812 875.734375 C 885.855469 872.519531 879.429688 869.109375 873.101562 865.511719 C 866.777344 861.914062 860.5625 858.132812 854.460938 854.167969 C 848.359375 850.203125 842.378906 846.058594 836.523438 841.738281 C 830.667969 837.417969 824.941406 832.929688 819.351562 828.269531 C 813.761719 823.609375 808.3125 818.789062 803.007812 813.808594 C 797.703125 808.828125 792.550781 803.691406 787.546875 798.40625 C 782.546875 793.121094 777.707031 787.6875 773.027344 782.117188 C 768.347656 776.542969 763.835938 770.835938 759.496094 764.992188 C 755.152344 759.152344 750.988281 753.1875 747 747.101562 C 743.011719 741.015625 739.207031 734.8125 735.585938 728.5 C 731.964844 722.1875 728.53125 715.773438 725.292969 709.257812 C 722.050781 702.742188 719.003906 696.136719 716.15625 689.441406 C 713.304688 682.742188 710.65625 675.96875 708.207031 669.117188 C 705.757812 662.261719 703.511719 655.34375 701.472656 648.355469 C 699.433594 641.371094 697.605469 634.332031 695.984375 627.234375 C 694.359375 620.140625 692.949219 613.003906 691.75 605.828125 C 690.550781 598.648438 689.566406 591.441406 688.792969 584.203125 C 688.019531 576.96875 687.460938 569.714844 687.121094 562.445312 C 686.777344 555.175781 686.648438 547.902344 686.738281 540.625 C 686.824219 533.347656 687.128906 526.082031 687.644531 518.820312 C 688.164062 511.5625 688.898438 504.324219 689.84375 497.109375 C 690.789062 489.894531 691.949219 482.710938 693.324219 475.566406 C 694.695312 468.417969 696.277344 461.316406 698.070312 454.265625 C 699.863281 447.210938 701.863281 440.214844 704.070312 433.28125 C 706.277344 426.347656 708.6875 419.484375 711.300781 412.691406 C 713.914062 405.898438 716.726562 399.191406 719.738281 392.5625 C 722.746094 385.9375 725.953125 379.40625 729.347656 372.972656 C 732.746094 366.535156 736.332031 360.207031 740.105469 353.984375 C 743.878906 347.757812 747.832031 341.652344 751.964844 335.664062 C 756.097656 329.675781 760.40625 323.8125 764.886719 318.078125 C 769.367188 312.34375 774.015625 306.746094 778.828125 301.289062 C 783.640625 295.828125 788.613281 290.515625 793.738281 285.351562 C 798.867188 280.1875 804.140625 275.179688 809.566406 270.328125 C 814.988281 265.476562 820.550781 260.789062 826.253906 256.265625 C 831.957031 251.742188 837.785156 247.390625 843.746094 243.214844 C 841.535156 250.097656 839.527344 257.039062 837.722656 264.039062 C 835.917969 271.039062 834.324219 278.085938 832.933594 285.179688 C 831.546875 292.277344 830.367188 299.40625 829.394531 306.566406 C 828.425781 313.730469 827.667969 320.917969 827.121094 328.125 C 826.574219 335.335938 826.238281 342.550781 826.113281 349.78125 C 825.992188 357.007812 826.082031 364.234375 826.382812 371.457031 C 826.6875 378.679688 827.199219 385.886719 827.925781 393.078125 C 828.652344 400.273438 829.589844 407.4375 830.734375 414.574219 C 831.882812 421.710938 833.238281 428.808594 834.804688 435.867188 C 836.367188 442.925781 838.136719 449.929688 840.113281 456.882812 C 842.089844 463.839844 844.269531 470.726562 846.652344 477.554688 C 849.035156 484.378906 851.613281 491.128906 854.390625 497.800781 C 857.171875 504.476562 860.144531 511.0625 863.308594 517.5625 C 866.472656 524.058594 869.828125 530.460938 873.371094 536.761719 C 876.914062 543.0625 880.636719 549.257812 884.542969 555.339844 C 888.449219 561.421875 892.53125 567.382812 896.789062 573.226562 C 901.042969 579.070312 905.46875 584.78125 910.0625 590.363281 C 914.65625 595.949219 919.410156 601.390625 924.320312 606.695312 C 929.234375 611.996094 934.296875 617.152344 939.515625 622.15625 C 944.730469 627.160156 950.089844 632.007812 955.589844 636.699219 C 961.089844 641.390625 966.726562 645.914062 972.492188 650.273438 C 978.257812 654.632812 984.148438 658.816406 990.164062 662.832031 C 996.175781 666.84375 1002.300781 670.675781 1008.539062 674.328125 C 1014.777344 677.980469 1021.117188 681.445312 1027.5625 684.726562 C 1034.003906 688.003906 1040.535156 691.09375 1047.160156 693.988281 C 1053.785156 696.882812 1060.488281 699.582031 1067.269531 702.082031 C 1074.054688 704.582031 1080.902344 706.882812 1087.820312 708.980469 C 1094.738281 711.082031 1101.710938 712.972656 1108.742188 714.660156 C 1115.769531 716.351562 1122.84375 717.832031 1129.960938 719.101562 C 1137.074219 720.375 1144.222656 721.4375 1151.402344 722.289062 C 1158.582031 723.140625 1165.777344 723.78125 1172.992188 724.210938 C 1180.210938 724.640625 1187.433594 724.855469 1194.660156 724.863281 C 1204.058594 724.878906 1213.441406 724.535156 1222.808594 723.828125 C 1232.175781 723.125 1241.503906 722.0625 1250.792969 720.640625 C 1260.082031 719.21875 1269.300781 717.441406 1278.449219 715.3125 C 1287.601562 713.183594 1296.65625 710.703125 1305.617188 707.875 C 1314.574219 705.050781 1323.414062 701.882812 1332.132812 698.378906 C 1340.847656 694.871094 1349.417969 691.035156 1357.839844 686.871094 C 1366.261719 682.707031 1374.511719 678.222656 1382.585938 673.425781 C 1390.664062 668.625 1398.546875 663.523438 1406.230469 658.117188 Z M 1406.230469 658.117188 " fill-opacity="1" fill-rule="nonzero"/><path fill="#752122" d="M 686.464844 435.417969 C 615.570312 383.398438 575.585938 345.40625 582.667969 333.125 C 589.75 320.84375 643.027344 336.265625 728.574219 374.292969 C 738.621094 355.203125 750.25 337.128906 763.464844 320.074219 C 549.734375 219.769531 399.605469 177.066406 378.496094 213.59375 C 359.410156 246.703125 448.660156 337.3125 601.4375 449.585938 C 701.851562 523.375 829.71875 606.585938 972.3125 688.820312 C 1089.015625 756.191406 1201.222656 814.734375 1300.691406 861.207031 C 1507.722656 957.992188 1659.351562 1002.511719 1680.808594 965.457031 C 1702.265625 928.40625 1589.292969 819.832031 1396.289062 685.472656 C 1388.070312 705.386719 1378.183594 724.4375 1366.632812 742.621094 C 1441.75 797.292969 1482.359375 836.089844 1475.277344 848.40625 C 1466.902344 862.847656 1395.277344 838.707031 1289.875 789.09375 C 1209.316406 751.238281 1109.078125 698.378906 1002.316406 636.871094 C 874.867188 563.253906 762.765625 491.277344 686.464844 435.417969 Z M 686.464844 435.417969 " fill-opacity="1" fill-rule="nonzero"/><path fill="#000000" d="M 485.1875 277.265625 C 499.144531 252.84375 598.367188 280.511719 744.625 346.660156 C 746.4375 343.835938 748.113281 341.042969 750.136719 338.289062 C 754.347656 332.054688 758.730469 325.984375 763.289062 320.074219 C 549.699219 219.769531 399.605469 177.066406 378.496094 213.59375 C 359.410156 246.703125 448.660156 337.3125 601.4375 449.585938 C 628.476562 469.542969 657.472656 489.953125 688.175781 510.957031 C 771.910156 568 868.097656 628.601562 972.3125 688.890625 C 1076.527344 749.179688 1177.253906 802.246094 1268.453125 845.890625 C 1279.339844 851.125 1290.085938 856.21875 1300.691406 861.175781 C 1507.722656 957.992188 1659.351562 1002.511719 1680.808594 965.457031 C 1702.265625 928.40625 1589.292969 819.832031 1396.289062 685.472656 C 1392.125 695.519531 1387.554688 705.335938 1382.574219 714.917969 C 1512.644531 808.28125 1586.46875 880.503906 1572.375 904.925781 C 1557.40625 930.847656 1447.679688 897.949219 1293.433594 826.632812 C 1282.269531 821.46875 1270.894531 816.121094 1259.3125 810.585938 C 1176.695312 771.089844 1083.226562 721.792969 985.78125 665.550781 C 874.726562 601.421875 774.070312 537.226562 692.5 479.695312 C 686.675781 475.578125 680.917969 471.496094 675.300781 467.449219 C 546.90625 375.339844 470.847656 302.074219 485.1875 277.265625 Z M 485.1875 277.265625 " fill-opacity="1" fill-rule="nonzero"/><path fill="#ffffff" d="M 1133.570312 253.226562 C 1133 253.078125 1132.4375 252.898438 1131.882812 252.691406 C 1131.328125 252.484375 1130.785156 252.25 1130.253906 251.992188 C 1129.722656 251.730469 1129.207031 251.445312 1128.703125 251.136719 C 1128.199219 250.824219 1127.714844 250.492188 1127.242188 250.132812 C 1126.773438 249.773438 1126.320312 249.394531 1125.890625 248.992188 C 1125.457031 248.585938 1125.042969 248.164062 1124.652344 247.722656 C 1124.261719 247.277344 1123.894531 246.816406 1123.546875 246.335938 C 1123.203125 245.859375 1122.878906 245.363281 1122.582031 244.851562 C 1122.285156 244.339844 1122.015625 243.816406 1121.769531 243.277344 C 1121.523438 242.738281 1121.304688 242.191406 1121.113281 241.632812 C 1120.921875 241.074219 1120.757812 240.503906 1120.621094 239.929688 C 1120.484375 239.355469 1120.378906 238.773438 1120.300781 238.1875 C 1120.222656 237.601562 1120.171875 237.011719 1120.148438 236.421875 C 1120.128906 235.832031 1120.136719 235.242188 1120.171875 234.652344 C 1120.210938 234.0625 1120.277344 233.472656 1120.371094 232.890625 C 1120.464844 232.308594 1120.589844 231.730469 1120.742188 231.15625 C 1120.890625 230.585938 1121.070312 230.023438 1121.277344 229.46875 C 1121.484375 228.914062 1121.71875 228.375 1121.976562 227.84375 C 1122.238281 227.3125 1122.523438 226.792969 1122.835938 226.292969 C 1123.144531 225.789062 1123.480469 225.300781 1123.839844 224.832031 C 1124.199219 224.363281 1124.578125 223.910156 1124.980469 223.480469 C 1125.382812 223.046875 1125.808594 222.632812 1126.25 222.242188 C 1126.695312 221.851562 1127.15625 221.484375 1127.636719 221.136719 C 1128.117188 220.792969 1128.609375 220.472656 1129.121094 220.175781 C 1129.632812 219.878906 1130.160156 219.605469 1130.695312 219.359375 C 1131.234375 219.117188 1131.78125 218.898438 1132.34375 218.707031 C 1132.902344 218.515625 1133.46875 218.351562 1134.042969 218.214844 C 1134.621094 218.078125 1135.199219 217.972656 1135.785156 217.894531 C 1136.371094 217.816406 1136.960938 217.765625 1137.550781 217.746094 C 1138.144531 217.722656 1138.734375 217.734375 1139.324219 217.769531 C 1139.914062 217.808594 1140.5 217.875 1141.085938 217.96875 C 1141.667969 218.0625 1142.246094 218.1875 1142.816406 218.339844 C 1171.476562 226.039062 1198.65625 237.304688 1224.351562 252.144531 C 1224.863281 252.4375 1225.355469 252.753906 1225.832031 253.09375 C 1226.3125 253.433594 1226.773438 253.796875 1227.214844 254.183594 C 1227.65625 254.566406 1228.078125 254.972656 1228.480469 255.402344 C 1228.882812 255.828125 1229.265625 256.273438 1229.621094 256.738281 C 1229.980469 257.203125 1230.316406 257.683594 1230.628906 258.179688 C 1230.9375 258.675781 1231.226562 259.1875 1231.488281 259.714844 C 1231.746094 260.238281 1231.980469 260.777344 1232.191406 261.324219 C 1232.398438 261.875 1232.578125 262.429688 1232.734375 262.996094 C 1232.886719 263.5625 1233.011719 264.136719 1233.109375 264.714844 C 1233.207031 265.292969 1233.273438 265.875 1233.316406 266.460938 C 1233.355469 267.046875 1233.367188 267.632812 1233.347656 268.21875 C 1233.332031 268.804688 1233.285156 269.390625 1233.210938 269.96875 C 1233.132812 270.550781 1233.03125 271.128906 1232.898438 271.699219 C 1232.769531 272.273438 1232.609375 272.835938 1232.421875 273.394531 C 1232.234375 273.949219 1232.019531 274.496094 1231.777344 275.027344 C 1231.539062 275.5625 1231.273438 276.085938 1230.980469 276.59375 C 1230.6875 277.105469 1230.371094 277.597656 1230.03125 278.074219 C 1229.691406 278.550781 1229.328125 279.011719 1228.941406 279.453125 C 1228.554688 279.894531 1228.148438 280.316406 1227.722656 280.71875 C 1227.292969 281.121094 1226.847656 281.503906 1226.382812 281.859375 C 1225.917969 282.21875 1225.4375 282.554688 1224.941406 282.863281 C 1224.441406 283.175781 1223.929688 283.460938 1223.40625 283.722656 C 1222.878906 283.980469 1222.34375 284.214844 1221.792969 284.421875 C 1221.246094 284.632812 1220.6875 284.8125 1220.121094 284.964844 C 1219.554688 285.117188 1218.980469 285.242188 1218.402344 285.339844 C 1217.824219 285.4375 1217.242188 285.503906 1216.65625 285.542969 C 1216.070312 285.582031 1215.484375 285.59375 1214.898438 285.574219 C 1214.3125 285.558594 1213.726562 285.511719 1213.148438 285.433594 C 1212.566406 285.359375 1211.988281 285.253906 1211.417969 285.121094 C 1210.84375 284.988281 1210.28125 284.828125 1209.726562 284.640625 C 1209.167969 284.453125 1208.625 284.238281 1208.089844 284 C 1207.554688 283.757812 1207.03125 283.492188 1206.523438 283.199219 C 1183.519531 270.007812 1159.203125 260.019531 1133.570312 253.226562 Z M 1133.570312 253.226562 " fill-opacity="1" fill-rule="nonzero"/><path fill="#ffffff" d="M 1254.183594 317.320312 C 1253.742188 316.933594 1253.320312 316.527344 1252.917969 316.097656 C 1252.515625 315.671875 1252.136719 315.226562 1251.777344 314.757812 C 1251.421875 314.292969 1251.085938 313.8125 1250.777344 313.316406 C 1250.464844 312.816406 1250.179688 312.304688 1249.921875 311.78125 C 1249.660156 311.253906 1249.425781 310.71875 1249.21875 310.167969 C 1249.011719 309.621094 1248.832031 309.0625 1248.679688 308.496094 C 1248.527344 307.929688 1248.402344 307.355469 1248.304688 306.777344 C 1248.210938 306.199219 1248.140625 305.617188 1248.101562 305.03125 C 1248.0625 304.445312 1248.050781 303.859375 1248.070312 303.273438 C 1248.089844 302.6875 1248.136719 302.101562 1248.210938 301.519531 C 1248.289062 300.941406 1248.390625 300.363281 1248.523438 299.792969 C 1248.65625 299.21875 1248.816406 298.65625 1249.003906 298.101562 C 1249.191406 297.542969 1249.40625 297 1249.648438 296.464844 C 1249.890625 295.929688 1250.15625 295.40625 1250.449219 294.898438 C 1250.742188 294.390625 1251.058594 293.898438 1251.398438 293.421875 C 1251.742188 292.941406 1252.105469 292.484375 1252.492188 292.042969 C 1252.878906 291.601562 1253.285156 291.179688 1253.710938 290.777344 C 1254.140625 290.375 1254.585938 289.996094 1255.050781 289.636719 C 1255.515625 289.28125 1255.996094 288.945312 1256.496094 288.636719 C 1256.992188 288.324219 1257.503906 288.039062 1258.03125 287.78125 C 1258.554688 287.519531 1259.09375 287.285156 1259.640625 287.078125 C 1260.191406 286.871094 1260.75 286.691406 1261.316406 286.539062 C 1261.882812 286.386719 1262.453125 286.261719 1263.03125 286.164062 C 1263.613281 286.066406 1264.195312 286 1264.777344 285.960938 C 1265.363281 285.921875 1265.949219 285.910156 1266.535156 285.929688 C 1267.125 285.949219 1267.707031 285.996094 1268.289062 286.070312 C 1268.871094 286.148438 1269.449219 286.25 1270.019531 286.382812 C 1270.589844 286.515625 1271.15625 286.675781 1271.710938 286.863281 C 1272.265625 287.050781 1272.8125 287.265625 1273.347656 287.507812 C 1273.882812 287.75 1274.402344 288.015625 1274.910156 288.308594 C 1275.417969 288.601562 1275.914062 288.917969 1276.390625 289.257812 C 1276.867188 289.601562 1277.328125 289.964844 1277.769531 290.351562 C 1284.046875 295.832031 1290.117188 301.535156 1295.976562 307.46875 C 1301.832031 313.398438 1307.464844 319.535156 1312.867188 325.882812 C 1318.269531 332.230469 1323.433594 338.765625 1328.351562 345.496094 C 1333.273438 352.222656 1337.9375 359.125 1342.347656 366.199219 C 1346.757812 373.273438 1350.898438 380.5 1354.773438 387.878906 C 1358.648438 395.257812 1362.246094 402.769531 1365.566406 410.417969 C 1368.886719 418.0625 1371.917969 425.820312 1374.664062 433.691406 C 1377.410156 441.5625 1379.859375 449.523438 1382.019531 457.574219 C 1382.167969 458.140625 1382.292969 458.714844 1382.386719 459.296875 C 1382.480469 459.875 1382.546875 460.460938 1382.585938 461.046875 C 1382.625 461.632812 1382.632812 462.21875 1382.613281 462.808594 C 1382.59375 463.394531 1382.542969 463.980469 1382.464844 464.5625 C 1382.390625 465.144531 1382.285156 465.722656 1382.148438 466.292969 C 1382.015625 466.867188 1381.851562 467.429688 1381.664062 467.988281 C 1381.472656 468.542969 1381.257812 469.089844 1381.015625 469.625 C 1380.769531 470.160156 1380.503906 470.679688 1380.207031 471.191406 C 1379.914062 471.699219 1379.59375 472.191406 1379.25 472.667969 C 1378.910156 473.144531 1378.542969 473.605469 1378.15625 474.046875 C 1377.765625 474.488281 1377.359375 474.910156 1376.929688 475.3125 C 1376.5 475.710938 1376.050781 476.089844 1375.585938 476.449219 C 1375.117188 476.804688 1374.632812 477.140625 1374.136719 477.449219 C 1373.636719 477.757812 1373.121094 478.042969 1372.59375 478.300781 C 1372.066406 478.5625 1371.527344 478.792969 1370.976562 479 C 1370.425781 479.207031 1369.867188 479.386719 1369.300781 479.539062 C 1368.734375 479.6875 1368.160156 479.8125 1367.578125 479.90625 C 1367 480 1366.414062 480.066406 1365.828125 480.105469 C 1365.242188 480.144531 1364.65625 480.152344 1364.066406 480.132812 C 1363.480469 480.113281 1362.894531 480.0625 1362.3125 479.988281 C 1361.730469 479.910156 1361.152344 479.804688 1360.582031 479.667969 C 1360.007812 479.535156 1359.445312 479.371094 1358.886719 479.183594 C 1358.332031 478.992188 1357.785156 478.777344 1357.25 478.535156 C 1356.714844 478.289062 1356.195312 478.023438 1355.683594 477.726562 C 1355.175781 477.433594 1354.683594 477.113281 1354.207031 476.769531 C 1353.730469 476.429688 1353.269531 476.0625 1352.828125 475.675781 C 1352.386719 475.285156 1351.964844 474.878906 1351.566406 474.449219 C 1351.164062 474.019531 1350.785156 473.570312 1350.425781 473.105469 C 1350.070312 472.636719 1349.734375 472.152344 1349.425781 471.65625 C 1349.117188 471.15625 1348.832031 470.640625 1348.574219 470.113281 C 1348.3125 469.585938 1348.082031 469.046875 1347.875 468.496094 C 1347.667969 467.945312 1347.488281 467.386719 1347.335938 466.820312 C 1345.40625 459.625 1343.210938 452.511719 1340.753906 445.476562 C 1338.296875 438.445312 1335.582031 431.511719 1332.613281 424.675781 C 1329.644531 417.84375 1326.429688 411.128906 1322.964844 404.53125 C 1319.503906 397.9375 1315.800781 391.476562 1311.859375 385.152344 C 1307.921875 378.828125 1303.753906 372.660156 1299.359375 366.644531 C 1294.964844 360.628906 1290.351562 354.78125 1285.527344 349.105469 C 1280.699219 343.429688 1275.671875 337.941406 1270.441406 332.636719 C 1265.210938 327.332031 1259.789062 322.226562 1254.183594 317.320312 Z M 1254.183594 317.320312 " fill-opacity="1" fill-rule="nonzero"/><g transform="matrix(1, 0, 0, 1, 3, 437)"><g clip-path="url(#46bea1e20a)"><g fill="#ffffff" fill-opacity="1"><g transform="translate(1.74686, 243.253808)"><g><path d="M 111.65625 -200.324219 C 141.445312 -200.324219 165.132812 -192.769531 182.71875 -177.652344 C 200.566406 -162.308594 209.492188 -140.589844 209.492188 -112.488281 L 209.492188 -106.585938 L 139.082031 -106.585938 L 139.082031 -112.488281 C 139.082031 -122.089844 136.671875 -129.566406 131.847656 -134.925781 C 127.1875 -140.105469 120.363281 -142.691406 111.378906 -142.691406 C 100.9375 -142.691406 93.394531 -139.589844 88.742188 -133.386719 C 83.695312 -126.660156 81.171875 -117.007812 81.171875 -104.433594 L 81.171875 -86.65625 C 81.171875 -74.253906 83.703125 -64.640625 88.761719 -57.8125 C 93.414062 -51.535156 100.765625 -48.398438 110.820312 -48.398438 C 121.042969 -48.398438 128.632812 -50.875 133.589844 -55.835938 C 138.546875 -60.792969 141.027344 -68.011719 141.027344 -77.492188 L 141.027344 -83.394531 L 209.492188 -83.394531 L 209.492188 -77.492188 C 209.492188 -49.585938 200.804688 -28.101562 183.429688 -13.039062 C 166.304688 1.808594 142.378906 9.234375 111.65625 9.234375 C 77.441406 9.234375 51.382812 0.332031 33.472656 -17.480469 C 15.554688 -35.296875 6.597656 -61.320312 6.597656 -95.546875 C 6.597656 -129.769531 15.554688 -155.792969 33.472656 -173.613281 C 51.382812 -191.421875 77.441406 -200.324219 111.65625 -200.324219 Z M 111.65625 -188.523438 C 80.6875 -188.523438 57.402344 -180.761719 41.796875 -165.242188 C 26.199219 -149.730469 18.402344 -126.5 18.402344 -95.546875 C 18.402344 -64.59375 26.199219 -41.359375 41.796875 -25.847656 C 57.402344 -10.328125 80.6875 -2.570312 111.65625 -2.570312 C 139.441406 -2.570312 160.789062 -9.03125 175.699219 -21.957031 C 190.359375 -34.667969 197.6875 -53.179688 197.6875 -77.492188 L 203.589844 -77.492188 L 203.589844 -71.589844 L 146.929688 -71.589844 L 146.929688 -77.492188 L 152.832031 -77.492188 C 152.832031 -64.753906 149.199219 -54.75 141.9375 -47.488281 C 134.671875 -40.226562 124.300781 -36.59375 110.820312 -36.59375 C 96.804688 -36.59375 86.289062 -41.324219 79.277344 -50.785156 C 72.671875 -59.699219 69.367188 -71.65625 69.367188 -86.65625 L 69.367188 -104.433594 C 69.367188 -119.632812 72.675781 -131.644531 79.296875 -140.472656 C 86.308594 -149.820312 97.003906 -154.496094 111.378906 -154.496094 C 123.867188 -154.496094 133.617188 -150.605469 140.621094 -142.824219 C 147.464844 -135.21875 150.886719 -125.109375 150.886719 -112.488281 L 144.984375 -112.488281 L 144.984375 -118.390625 L 203.589844 -118.390625 L 203.589844 -112.488281 L 197.6875 -112.488281 C 197.6875 -136.976562 190.132812 -155.710938 175.023438 -168.699219 C 159.648438 -181.914062 138.527344 -188.523438 111.65625 -188.523438 Z M 111.65625 -188.523438 "/></g></g></g><g fill="#ffffff" fill-opacity="1"><g transform="translate(217.825965, 243.253808)"><g><path d="M 115.542969 -200.324219 C 150.058594 -200.324219 176.867188 -191.367188 195.960938 -173.453125 C 215.167969 -155.4375 224.769531 -129.46875 224.769531 -95.546875 C 224.769531 -61.621094 215.167969 -35.652344 195.960938 -17.636719 C 176.867188 0.277344 150.058594 9.234375 115.542969 9.234375 C 81.027344 9.234375 54.269531 0.324219 35.265625 -17.5 C 16.152344 -35.421875 6.597656 -61.4375 6.597656 -95.546875 C 6.597656 -129.652344 16.152344 -155.667969 35.265625 -173.59375 C 54.269531 -191.414062 81.027344 -200.324219 115.542969 -200.324219 Z M 115.542969 -188.523438 C 84.140625 -188.523438 60.070312 -180.675781 43.339844 -164.984375 C 26.714844 -149.390625 18.402344 -126.246094 18.402344 -95.546875 C 18.402344 -64.847656 26.714844 -41.699219 43.339844 -26.109375 C 60.070312 -10.414062 84.140625 -2.570312 115.542969 -2.570312 C 146.945312 -2.570312 171.058594 -10.460938 187.886719 -26.246094 C 204.605469 -41.929688 212.964844 -65.03125 212.964844 -95.546875 C 212.964844 -126.058594 204.605469 -149.160156 187.886719 -164.84375 C 171.058594 -180.628906 146.945312 -188.523438 115.542969 -188.523438 Z M 115.542969 -142.691406 C 104.203125 -142.691406 95.695312 -139.394531 90.019531 -132.800781 C 84.121094 -125.945312 81.171875 -116.492188 81.171875 -104.433594 L 81.171875 -86.65625 C 81.171875 -74.601562 84.121094 -65.144531 90.019531 -58.289062 C 95.695312 -51.695312 104.203125 -48.398438 115.542969 -48.398438 C 126.902344 -48.398438 135.464844 -51.703125 141.230469 -58.316406 C 147.207031 -65.167969 150.191406 -74.613281 150.191406 -86.65625 L 150.191406 -104.433594 C 150.191406 -116.476562 147.207031 -125.921875 141.230469 -132.773438 C 135.464844 -139.386719 126.902344 -142.691406 115.542969 -142.691406 Z M 115.542969 -154.496094 C 130.480469 -154.496094 142.007812 -149.84375 150.128906 -140.53125 C 158.039062 -131.457031 161.996094 -119.425781 161.996094 -104.433594 L 161.996094 -86.65625 C 161.996094 -71.664062 158.039062 -59.632812 150.128906 -50.558594 C 142.007812 -41.25 130.480469 -36.59375 115.542969 -36.59375 C 100.589844 -36.59375 89.101562 -41.257812 81.074219 -50.589844 C 73.269531 -59.65625 69.367188 -71.679688 69.367188 -86.65625 L 69.367188 -104.433594 C 69.367188 -119.410156 73.269531 -131.433594 81.074219 -140.5 C 89.101562 -149.832031 100.589844 -154.496094 115.542969 -154.496094 Z M 115.542969 -154.496094 "/></g></g></g><g fill="#ffffff" fill-opacity="1"><g transform="translate(449.180584, 243.253808)"><g><path d="M 20.554688 -196.992188 L 87.839844 -196.992188 L 87.839844 -48.882812 L 81.9375 -48.882812 L 81.9375 -54.785156 L 185.882812 -54.785156 L 185.882812 5.902344 L 14.652344 5.902344 L 14.652344 -196.992188 Z M 20.554688 -185.1875 L 20.554688 -191.089844 L 26.457031 -191.089844 L 26.457031 0 L 20.554688 0 L 20.554688 -5.902344 L 179.980469 -5.902344 L 179.980469 0 L 174.078125 0 L 174.078125 -48.882812 L 179.980469 -48.882812 L 179.980469 -42.980469 L 76.035156 -42.980469 L 76.035156 -191.089844 L 81.9375 -191.089844 L 81.9375 -185.1875 Z M 20.554688 -185.1875 "/></g></g></g><g fill="#ffffff" fill-opacity="1"><g transform="translate(634.430928, 243.253808)"><g><path d="M 20.554688 -196.992188 L 87.839844 -196.992188 L 87.839844 -48.882812 L 81.9375 -48.882812 L 81.9375 -54.785156 L 185.882812 -54.785156 L 185.882812 5.902344 L 14.652344 5.902344 L 14.652344 -196.992188 Z M 20.554688 -185.1875 L 20.554688 -191.089844 L 26.457031 -191.089844 L 26.457031 0 L 20.554688 0 L 20.554688 -5.902344 L 179.980469 -5.902344 L 179.980469 0 L 174.078125 0 L 174.078125 -48.882812 L 179.980469 -48.882812 L 179.980469 -42.980469 L 76.035156 -42.980469 L 76.035156 -191.089844 L 81.9375 -191.089844 L 81.9375 -185.1875 Z M 20.554688 -185.1875 "/></g></g></g><g fill="#ffffff" fill-opacity="1"><g transform="translate(819.681272, 243.253808)"><g><path d="M 142.941406 1.691406 L 134.886719 -25.25 L 140.539062 -26.941406 L 140.539062 -21.039062 L 73.601562 -21.039062 L 73.601562 -26.941406 L 79.257812 -25.25 L 69.945312 5.902344 L -5.660156 5.902344 L 68.363281 -196.992188 L 148.003906 -196.992188 L 222.023438 5.902344 L 144.199219 5.902344 Z M 154.25 -1.691406 L 148.59375 0 L 148.59375 -5.902344 L 213.589844 -5.902344 L 213.589844 0 L 208.042969 2.023438 L 138.328125 -189.066406 L 143.875 -191.089844 L 143.875 -185.1875 L 72.492188 -185.1875 L 72.492188 -191.089844 L 78.035156 -189.066406 L 8.320312 2.023438 L 2.777344 0 L 2.777344 -5.902344 L 65.546875 -5.902344 L 65.546875 0 L 59.894531 -1.691406 L 69.207031 -32.84375 L 144.9375 -32.84375 Z M 86.378906 -75.617188 L 127.765625 -75.617188 L 127.765625 -69.714844 L 122.101562 -68.050781 L 102.105469 -136.097656 L 107.765625 -137.761719 L 107.765625 -131.859375 L 106.65625 -131.859375 L 106.65625 -137.761719 L 112.3125 -136.078125 L 92.035156 -68.03125 L 86.378906 -69.714844 Z M 78.460938 -63.8125 L 102.253906 -143.664062 L 112.183594 -143.664062 L 135.652344 -63.8125 Z M 78.460938 -63.8125 "/></g></g></g><g fill="#ffffff" fill-opacity="1"><g transform="translate(1035.760338, 243.253808)"><g><path d="M 136.445312 -142.207031 L 136.445312 5.902344 L 63.257812 5.902344 L 63.257812 -142.207031 L 69.160156 -142.207031 L 69.160156 -136.304688 L 0.484375 -136.304688 L 0.484375 -196.992188 L 198.9375 -196.992188 L 198.9375 -136.304688 L 130.542969 -136.304688 L 130.542969 -142.207031 Z M 124.640625 -148.109375 L 193.035156 -148.109375 L 193.035156 -142.207031 L 187.132812 -142.207031 L 187.132812 -191.089844 L 193.035156 -191.089844 L 193.035156 -185.1875 L 6.386719 -185.1875 L 6.386719 -191.089844 L 12.289062 -191.089844 L 12.289062 -142.207031 L 6.386719 -142.207031 L 6.386719 -148.109375 L 75.0625 -148.109375 L 75.0625 0 L 69.160156 0 L 69.160156 -5.902344 L 130.542969 -5.902344 L 130.542969 0 L 124.640625 0 Z M 124.640625 -148.109375 "/></g></g></g><g fill="#ffffff" fill-opacity="1"><g transform="translate(1236.286237, 243.253808)"><g><path d="M 20.554688 -196.992188 L 191.714844 -196.992188 L 191.714844 -139.359375 L 81.9375 -139.359375 L 81.9375 -145.261719 L 87.839844 -145.261719 L 87.839844 -118.875 L 81.9375 -118.875 L 81.9375 -124.777344 L 176.71875 -124.777344 L 176.71875 -69.089844 L 81.9375 -69.089844 L 81.9375 -74.992188 L 87.839844 -74.992188 L 87.839844 -45.828125 L 81.9375 -45.828125 L 81.9375 -51.730469 L 193.660156 -51.730469 L 193.660156 5.902344 L 14.652344 5.902344 L 14.652344 -196.992188 Z M 20.554688 -185.1875 L 20.554688 -191.089844 L 26.457031 -191.089844 L 26.457031 0 L 20.554688 0 L 20.554688 -5.902344 L 187.757812 -5.902344 L 187.757812 0 L 181.855469 0 L 181.855469 -45.828125 L 187.757812 -45.828125 L 187.757812 -39.925781 L 76.035156 -39.925781 L 76.035156 -80.894531 L 170.816406 -80.894531 L 170.816406 -74.992188 L 164.914062 -74.992188 L 164.914062 -118.875 L 170.816406 -118.875 L 170.816406 -112.972656 L 76.035156 -112.972656 L 76.035156 -151.164062 L 185.8125 -151.164062 L 185.8125 -145.261719 L 179.910156 -145.261719 L 179.910156 -191.089844 L 185.8125 -191.089844 L 185.8125 -185.1875 Z M 20.554688 -185.1875 "/></g></g></g><g fill="#ffffff" fill-opacity="1"><g transform="translate(1436.812136, 243.253808)"><g><path d="M 207.824219 -132.484375 C 207.824219 -119.628906 204.347656 -107.984375 197.390625 -97.546875 C 190.386719 -87.039062 180.261719 -79.34375 167.027344 -74.453125 L 164.984375 -79.992188 L 170.195312 -82.761719 L 217.296875 5.902344 L 134.902344 5.902344 L 99.402344 -67.132812 L 104.710938 -69.714844 L 104.710938 -63.8125 L 81.9375 -63.8125 L 81.9375 -69.714844 L 87.839844 -69.714844 L 87.839844 5.902344 L 14.652344 5.902344 L 14.652344 -196.992188 L 137.484375 -196.992188 C 152.1875 -196.992188 164.835938 -194.117188 175.4375 -188.363281 C 186.175781 -182.53125 194.277344 -174.617188 199.742188 -164.617188 C 205.132812 -154.757812 207.824219 -144.046875 207.824219 -132.484375 Z M 196.019531 -132.484375 C 196.019531 -142.035156 193.808594 -150.859375 189.382812 -158.957031 C 185.03125 -166.921875 178.507812 -173.265625 169.804688 -177.988281 C 160.960938 -182.789062 150.1875 -185.1875 137.484375 -185.1875 L 20.554688 -185.1875 L 20.554688 -191.089844 L 26.457031 -191.089844 L 26.457031 0 L 20.554688 0 L 20.554688 -5.902344 L 81.9375 -5.902344 L 81.9375 0 L 76.035156 0 L 76.035156 -75.617188 L 108.40625 -75.617188 L 143.90625 -2.582031 L 138.597656 0 L 138.597656 -5.902344 L 207.476562 -5.902344 L 207.476562 0 L 202.265625 2.769531 L 156.601562 -83.1875 L 162.9375 -85.527344 C 173.773438 -89.527344 181.984375 -95.71875 187.570312 -104.097656 C 193.203125 -112.546875 196.019531 -122.011719 196.019531 -132.484375 Z M 133.527344 -129.984375 C 133.527344 -133.355469 132.4375 -136.132812 130.257812 -138.3125 C 128.078125 -140.492188 125.394531 -141.582031 122.210938 -141.582031 L 81.9375 -141.582031 L 81.9375 -147.484375 L 87.839844 -147.484375 L 87.839844 -112.210938 L 81.9375 -112.210938 L 81.9375 -118.113281 L 122.210938 -118.113281 C 125.363281 -118.113281 128.027344 -119.230469 130.199219 -121.464844 C 132.417969 -123.746094 133.527344 -126.585938 133.527344 -129.984375 Z M 145.332031 -129.984375 C 145.332031 -123.386719 143.109375 -117.804688 138.660156 -113.234375 C 134.167969 -108.617188 128.683594 -106.308594 122.210938 -106.308594 L 76.035156 -106.308594 L 76.035156 -153.386719 L 122.210938 -153.386719 C 128.652344 -153.386719 134.117188 -151.144531 138.605469 -146.660156 C 143.089844 -142.171875 145.332031 -136.617188 145.332031 -129.984375 Z M 145.332031 -129.984375 "/></g></g></g><g fill="#ffffff" fill-opacity="1"><g transform="translate(1652.891202, 243.253808)"><g><path d="M 142.941406 1.691406 L 134.886719 -25.25 L 140.539062 -26.941406 L 140.539062 -21.039062 L 73.601562 -21.039062 L 73.601562 -26.941406 L 79.257812 -25.25 L 69.945312 5.902344 L -5.660156 5.902344 L 68.363281 -196.992188 L 148.003906 -196.992188 L 222.023438 5.902344 L 144.199219 5.902344 Z M 154.25 -1.691406 L 148.59375 0 L 148.59375 -5.902344 L 213.589844 -5.902344 L 213.589844 0 L 208.042969 2.023438 L 138.328125 -189.066406 L 143.875 -191.089844 L 143.875 -185.1875 L 72.492188 -185.1875 L 72.492188 -191.089844 L 78.035156 -189.066406 L 8.320312 2.023438 L 2.777344 0 L 2.777344 -5.902344 L 65.546875 -5.902344 L 65.546875 0 L 59.894531 -1.691406 L 69.207031 -32.84375 L 144.9375 -32.84375 Z M 86.378906 -75.617188 L 127.765625 -75.617188 L 127.765625 -69.714844 L 122.101562 -68.050781 L 102.105469 -136.097656 L 107.765625 -137.761719 L 107.765625 -131.859375 L 106.65625 -131.859375 L 106.65625 -137.761719 L 112.3125 -136.078125 L 92.035156 -68.03125 L 86.378906 -69.714844 Z M 78.460938 -63.8125 L 102.253906 -143.664062 L 112.183594 -143.664062 L 135.652344 -63.8125 Z M 78.460938 -63.8125 "/></g></g></g><g clip-path="url(#215e015c80)"><g fill="#ffffff" fill-opacity="1"><g transform="translate(1868.970267, 243.253808)"><g><path d="M 20.554688 -196.992188 L 87.839844 -196.992188 L 87.839844 -48.882812 L 81.9375 -48.882812 L 81.9375 -54.785156 L 185.882812 -54.785156 L 185.882812 5.902344 L 14.652344 5.902344 L 14.652344 -196.992188 Z M 20.554688 -185.1875 L 20.554688 -191.089844 L 26.457031 -191.089844 L 26.457031 0 L 20.554688 0 L 20.554688 -5.902344 L 179.980469 -5.902344 L 179.980469 0 L 174.078125 0 L 174.078125 -48.882812 L 179.980469 -48.882812 L 179.980469 -42.980469 L 76.035156 -42.980469 L 76.035156 -191.089844 L 81.9375 -191.089844 L 81.9375 -185.1875 Z M 20.554688 -185.1875 "/></g></g></g></g><g fill="#000000" fill-opacity="1"><g transform="translate(1.74686, 243.253808)"><g><path d="M 111.65625 -194.421875 C 139.988281 -194.421875 162.394531 -187.335938 178.875 -173.171875 C 195.351562 -159.003906 203.59375 -138.773438 203.59375 -112.484375 L 144.984375 -112.484375 C 144.984375 -123.597656 142.066406 -132.394531 136.234375 -138.875 C 130.398438 -145.351562 122.113281 -148.59375 111.375 -148.59375 C 98.96875 -148.59375 89.847656 -144.703125 84.015625 -136.921875 C 78.179688 -129.148438 75.265625 -118.320312 75.265625 -104.4375 L 75.265625 -86.65625 C 75.265625 -72.957031 78.179688 -62.171875 84.015625 -54.296875 C 89.847656 -46.429688 98.785156 -42.5 110.828125 -42.5 C 122.671875 -42.5 131.648438 -45.550781 137.765625 -51.65625 C 143.878906 -57.769531 146.9375 -66.382812 146.9375 -77.5 L 203.59375 -77.5 C 203.59375 -51.382812 195.582031 -31.382812 179.5625 -17.5 C 163.550781 -3.613281 140.914062 3.328125 111.65625 3.328125 C 79.0625 3.328125 54.382812 -5 37.625 -21.65625 C 20.875 -38.320312 12.5 -62.953125 12.5 -95.546875 C 12.5 -128.140625 20.875 -152.765625 37.625 -169.421875 C 54.382812 -186.085938 79.0625 -194.421875 111.65625 -194.421875 Z M 111.65625 -194.421875 "/></g></g></g><g fill="#000000" fill-opacity="1"><g transform="translate(217.825965, 243.253808)"><g><path d="M 115.546875 -194.421875 C 148.503906 -194.421875 173.960938 -185.992188 191.921875 -169.140625 C 209.878906 -152.296875 218.859375 -127.765625 218.859375 -95.546875 C 218.859375 -63.328125 209.878906 -38.789062 191.921875 -21.9375 C 173.960938 -5.09375 148.503906 3.328125 115.546875 3.328125 C 82.585938 3.328125 57.171875 -5.046875 39.296875 -21.796875 C 21.429688 -38.554688 12.5 -63.140625 12.5 -95.546875 C 12.5 -127.953125 21.429688 -152.53125 39.296875 -169.28125 C 57.171875 -186.039062 82.585938 -194.421875 115.546875 -194.421875 Z M 115.546875 -148.59375 C 102.398438 -148.59375 92.398438 -144.609375 85.546875 -136.640625 C 78.691406 -128.679688 75.265625 -117.945312 75.265625 -104.4375 L 75.265625 -86.65625 C 75.265625 -73.132812 78.691406 -62.394531 85.546875 -54.4375 C 92.398438 -46.476562 102.398438 -42.5 115.546875 -42.5 C 128.691406 -42.5 138.734375 -46.476562 145.671875 -54.4375 C 152.617188 -62.394531 156.09375 -73.132812 156.09375 -86.65625 L 156.09375 -104.4375 C 156.09375 -117.945312 152.617188 -128.679688 145.671875 -136.640625 C 138.734375 -144.609375 128.691406 -148.59375 115.546875 -148.59375 Z M 115.546875 -148.59375 "/></g></g></g><g fill="#000000" fill-opacity="1"><g transform="translate(449.180584, 243.253808)"><g><path d="M 20.546875 -191.09375 L 81.9375 -191.09375 L 81.9375 -48.890625 L 179.984375 -48.890625 L 179.984375 0 L 20.546875 0 Z M 20.546875 -191.09375 "/></g></g></g><g fill="#000000" fill-opacity="1"><g transform="translate(634.430928, 243.253808)"><g><path d="M 20.546875 -191.09375 L 81.9375 -191.09375 L 81.9375 -48.890625 L 179.984375 -48.890625 L 179.984375 0 L 20.546875 0 Z M 20.546875 -191.09375 "/></g></g></g><g fill="#000000" fill-opacity="1"><g transform="translate(819.681272, 243.253808)"><g><path d="M 148.59375 0 L 140.546875 -26.9375 L 73.609375 -26.9375 L 65.546875 0 L 2.78125 0 L 72.5 -191.09375 L 143.875 -191.09375 L 213.59375 0 Z M 86.375 -69.71875 L 127.765625 -69.71875 L 107.765625 -137.765625 L 106.65625 -137.765625 Z M 86.375 -69.71875 "/></g></g></g><g fill="#000000" fill-opacity="1"><g transform="translate(1035.760338, 243.253808)"><g><path d="M 130.546875 -142.203125 L 130.546875 0 L 69.15625 0 L 69.15625 -142.203125 L 6.390625 -142.203125 L 6.390625 -191.09375 L 193.03125 -191.09375 L 193.03125 -142.203125 Z M 130.546875 -142.203125 "/></g></g></g><g fill="#000000" fill-opacity="1"><g transform="translate(1236.286237, 243.253808)"><g><path d="M 20.546875 -191.09375 L 185.8125 -191.09375 L 185.8125 -145.265625 L 81.9375 -145.265625 L 81.9375 -118.875 L 170.8125 -118.875 L 170.8125 -75 L 81.9375 -75 L 81.9375 -45.828125 L 187.765625 -45.828125 L 187.765625 0 L 20.546875 0 Z M 20.546875 -191.09375 "/></g></g></g><g fill="#000000" fill-opacity="1"><g transform="translate(1436.812136, 243.253808)"><g><path d="M 201.921875 -132.484375 C 201.921875 -120.816406 198.769531 -110.257812 192.46875 -100.8125 C 186.175781 -91.375 177.015625 -84.429688 164.984375 -79.984375 L 207.484375 0 L 138.59375 0 L 104.71875 -69.71875 L 81.9375 -69.71875 L 81.9375 0 L 20.546875 0 L 20.546875 -191.09375 L 137.484375 -191.09375 C 151.191406 -191.09375 162.90625 -188.453125 172.625 -183.171875 C 182.34375 -177.898438 189.65625 -170.769531 194.5625 -161.78125 C 199.46875 -152.800781 201.921875 -143.035156 201.921875 -132.484375 Z M 139.4375 -129.984375 C 139.4375 -134.984375 137.769531 -139.148438 134.4375 -142.484375 C 131.101562 -145.816406 127.023438 -147.484375 122.203125 -147.484375 L 81.9375 -147.484375 L 81.9375 -112.21875 L 122.203125 -112.21875 C 127.023438 -112.21875 131.101562 -113.925781 134.4375 -117.34375 C 137.769531 -120.769531 139.4375 -124.984375 139.4375 -129.984375 Z M 139.4375 -129.984375 "/></g></g></g><g fill="#000000" fill-opacity="1"><g transform="translate(1652.891202, 243.253808)"><g><path d="M 148.59375 0 L 140.546875 -26.9375 L 73.609375 -26.9375 L 65.546875 0 L 2.78125 0 L 72.5 -191.09375 L 143.875 -191.09375 L 213.59375 0 Z M 86.375 -69.71875 L 127.765625 -69.71875 L 107.765625 -137.765625 L 106.65625 -137.765625 Z M 86.375 -69.71875 "/></g></g></g><g fill="#000000" fill-opacity="1"><g transform="translate(1868.970267, 243.253808)"><g><path d="M 20.546875 -191.09375 L 81.9375 -191.09375 L 81.9375 -48.890625 L 179.984375 -48.890625 L 179.984375 0 L 20.546875 0 Z M 20.546875 -191.09375 "/></g></g></g></g></g></svg>