<svg xmlns="http://www.w3.org/2000/svg" xmlns:xlink="http://www.w3.org/1999/xlink" width="2750" zoomAndPan="magnify" viewBox="0 690 2062.5 310" height="310" preserveAspectRatio="xMidYMid meet" version="1.0"><defs><g/><clipPath id="e152d43d44"><path d="M 10 692.894531 L 613 692.894531 L 613 994.304688 L 10 994.304688 Z M 10 692.894531 " clip-rule="nonzero"/></clipPath><clipPath id="4b8eaaeed7"><path d="M 0.851562 38 L 602 38 L 602 267 L 0.851562 267 Z M 0.851562 38 " clip-rule="nonzero"/></clipPath><clipPath id="bfd0520b93"><rect x="0" width="603" y="0" height="303"/></clipPath></defs><g clip-path="url(#e152d43d44)"><g transform="matrix(1, 0, 0, 1, 10, 692)"><g clip-path="url(#bfd0520b93)"><path fill="#6b0103" d="M 292.4375 181.570312 C 244.101562 167.046875 199.800781 149.773438 167.695312 132.941406 C 162.234375 130.074219 157.433594 127.386719 153.226562 124.867188 C 165.796875 54.464844 227.335938 1.023438 301.351562 1.023438 C 384.457031 1.023438 451.828125 68.394531 451.828125 151.503906 C 451.824219 172.632812 447.472656 192.746094 439.609375 210.992188 C 403.078125 209.34375 349.125 198.605469 292.4375 181.570312 Z M 292.4375 181.570312 " fill-opacity="1" fill-rule="evenodd"/><path fill="#6b0103" d="M 278.59375 227.648438 C 314.445312 238.421875 349.988281 247.507812 384.234375 254.652344 L 384.234375 254.65625 L 385.5625 254.929688 C 392.644531 256.394531 399.65625 257.777344 406.578125 259.066406 C 379.445312 285.617188 342.308594 301.980469 301.351562 301.980469 C 229.128906 301.976562 168.789062 251.097656 154.226562 183.226562 C 192.058594 199.210938 234.269531 214.328125 278.59375 227.648438 Z M 278.59375 227.648438 " fill-opacity="1" fill-rule="evenodd"/><path fill="#ffffff" d="M 387.488281 258.789062 C 437.699219 205.9375 431.933594 118.941406 374.613281 64.484375 C 338.929688 30.585938 291.683594 17.289062 248.988281 24.824219 C 297.648438 4.722656 355.699219 13.628906 396.335938 52.234375 C 451.417969 104.566406 453.648438 191.644531 401.316406 246.730469 C 396.121094 252.195312 390.582031 257.136719 384.765625 261.558594 C 385.683594 260.652344 386.59375 259.730469 387.488281 258.789062 Z M 387.488281 258.789062 " fill-opacity="1" fill-rule="evenodd"/><path fill="#6b0103" d="M 533.621094 169.199219 C 533.617188 169.195312 533.617188 169.195312 533.613281 169.191406 C 533.617188 169.195312 533.617188 169.199219 533.621094 169.199219 Z M 533.621094 169.199219 " fill-opacity="1" fill-rule="evenodd"/><path fill="#6b0103" d="M 533.621094 169.199219 C 533.617188 169.195312 533.617188 169.195312 533.613281 169.191406 C 533.617188 169.195312 533.617188 169.199219 533.621094 169.199219 Z M 533.621094 169.199219 " fill-opacity="1" fill-rule="evenodd"/><path fill="#6b0103" d="M 537.367188 171.441406 C 537.363281 171.4375 537.359375 171.433594 537.355469 171.433594 C 537.359375 171.433594 537.363281 171.4375 537.367188 171.441406 Z M 537.367188 171.441406 " fill-opacity="1" fill-rule="evenodd"/><path fill="#6b0103" d="M 537.367188 171.441406 C 537.363281 171.4375 537.359375 171.433594 537.355469 171.433594 C 537.359375 171.433594 537.363281 171.4375 537.367188 171.441406 Z M 537.367188 171.441406 " fill-opacity="1" fill-rule="evenodd"/><g clip-path="url(#4b8eaaeed7)"><path fill="#6b0103" d="M 447.15625 259.832031 C 446.992188 259.808594 446.820312 259.785156 446.652344 259.761719 C 446.820312 259.785156 446.992188 259.808594 447.15625 259.832031 Z M 459.195312 261.441406 C 459.046875 261.421875 458.898438 261.40625 458.746094 261.386719 C 458.898438 261.40625 459.050781 261.421875 459.195312 261.441406 Z M 499.71875 265.273438 C 499.664062 265.269531 499.609375 265.265625 499.554688 265.261719 C 499.609375 265.261719 499.664062 265.269531 499.71875 265.273438 Z M 529.449219 166.753906 C 529.816406 166.96875 530.175781 167.183594 530.542969 167.394531 C 530.175781 167.183594 529.816406 166.96875 529.449219 166.753906 Z M 517.078125 159.816406 C 517.519531 160.058594 517.960938 160.296875 518.402344 160.539062 C 517.960938 160.296875 517.523438 160.058594 517.078125 159.816406 Z M 521.027344 161.988281 C 521.414062 162.203125 521.804688 162.417969 522.191406 162.632812 C 521.804688 162.417969 521.414062 162.203125 521.027344 161.988281 Z M 504.046875 152.914062 C 504.46875 153.132812 504.898438 153.351562 505.316406 153.570312 C 504.898438 153.351562 504.46875 153.132812 504.046875 152.914062 Z M 499.78125 150.734375 C 500.261719 150.980469 500.742188 151.222656 501.21875 151.464844 C 500.742188 151.222656 500.261719 150.980469 499.78125 150.734375 Z M 495.597656 148.632812 C 496.03125 148.847656 496.464844 149.066406 496.894531 149.285156 C 496.460938 149.0625 496.03125 148.851562 495.597656 148.632812 Z M 491.382812 146.546875 C 491.390625 146.550781 491.402344 146.558594 491.410156 146.5625 C 491.402344 146.558594 491.390625 146.550781 491.382812 146.546875 Z M 485.769531 143.828125 C 486.222656 144.042969 486.675781 144.261719 487.125 144.480469 C 486.675781 144.261719 486.222656 144.046875 485.769531 143.828125 Z M 481.195312 141.648438 C 481.710938 141.890625 482.222656 142.132812 482.734375 142.375 C 482.222656 142.132812 481.710938 141.890625 481.195312 141.648438 Z M 476.722656 139.546875 C 477.1875 139.765625 477.648438 139.980469 478.113281 140.199219 C 477.648438 139.980469 477.1875 139.765625 476.722656 139.546875 Z M 513.195312 157.71875 C 513.601562 157.933594 514 158.148438 514.402344 158.367188 C 514 158.148438 513.601562 157.933594 513.195312 157.71875 Z M 1.683594 61.867188 C 9.421875 36.113281 77.257812 30.671875 181.960938 48.125 C 172.085938 60.601562 161.570312 77.660156 155.46875 92.621094 C 133.726562 89.757812 120.808594 91.429688 119.089844 97.148438 C 113.238281 116.613281 190.101562 156.917969 290.757812 187.164062 C 391.417969 217.414062 477.761719 226.15625 483.609375 206.691406 C 485.339844 200.933594 476.683594 189.28125 455.730469 180.699219 C 457.542969 168.84375 457.777344 167.617188 457.925781 153.570312 C 457.980469 147.964844 457.183594 134.714844 456.78125 129.941406 C 472.949219 137.332031 502.414062 151.859375 516.050781 159.253906 C 516.078125 159.265625 516.105469 159.28125 516.132812 159.296875 C 518.292969 160.46875 520.417969 161.640625 522.511719 162.8125 C 522.601562 162.863281 522.699219 162.917969 522.792969 162.96875 C 524.820312 164.101562 526.8125 165.238281 528.773438 166.367188 C 528.898438 166.4375 529.023438 166.511719 529.148438 166.582031 C 530.09375 167.128906 531.03125 167.675781 531.960938 168.21875 C 532.085938 168.292969 532.214844 168.371094 532.339844 168.445312 C 532.765625 168.691406 533.191406 168.945312 533.613281 169.191406 C 533.410156 169.074219 533.207031 168.957031 533.007812 168.835938 C 533.40625 169.074219 533.808594 169.3125 534.210938 169.550781 C 534.011719 169.433594 533.820312 169.316406 533.621094 169.199219 C 534.050781 169.453125 534.472656 169.707031 534.898438 169.960938 C 535.003906 170.019531 535.109375 170.082031 535.210938 170.144531 C 535.933594 170.574219 536.644531 171.003906 537.355469 171.433594 C 537.113281 171.285156 536.859375 171.136719 536.617188 170.992188 C 536.964844 171.203125 537.320312 171.414062 537.667969 171.625 C 537.566406 171.5625 537.464844 171.5 537.367188 171.441406 C 537.527344 171.539062 537.6875 171.632812 537.847656 171.730469 C 538.03125 171.84375 538.214844 171.957031 538.398438 172.070312 C 539.273438 172.601562 540.144531 173.132812 541.003906 173.664062 C 583.296875 199.8125 606.320312 224.320312 601.015625 241.972656 C 595.242188 261.183594 557.003906 268.671875 499.726562 265.273438 C 499.664062 265.269531 499.601562 265.265625 499.542969 265.261719 C 498.714844 265.210938 497.878906 265.160156 497.046875 265.105469 C 497.039062 265.105469 497.039062 265.105469 497.035156 265.105469 C 497.039062 265.105469 497.039062 265.105469 497.046875 265.105469 C 486.070312 264.394531 474.417969 263.296875 462.179688 261.8125 C 462.1875 261.808594 462.191406 261.8125 462.199219 261.8125 C 462.191406 261.8125 462.1875 261.8125 462.179688 261.8125 C 461.195312 261.691406 460.203125 261.570312 459.207031 261.441406 C 459.046875 261.421875 458.894531 261.40625 458.734375 261.386719 C 457.734375 261.257812 456.730469 261.128906 455.722656 261 C 455.71875 260.996094 455.714844 261 455.707031 261 C 455.714844 260.996094 455.71875 261 455.722656 261 C 453.910156 260.761719 452.085938 260.519531 450.25 260.265625 C 450.257812 260.265625 450.265625 260.265625 450.273438 260.269531 C 450.265625 260.265625 450.257812 260.265625 450.25 260.265625 C 449.222656 260.121094 448.191406 259.980469 447.160156 259.832031 C 446.988281 259.808594 446.816406 259.785156 446.648438 259.761719 C 445.617188 259.613281 444.585938 259.46875 443.546875 259.316406 C 443.539062 259.3125 443.527344 259.3125 443.519531 259.308594 C 443.527344 259.3125 443.539062 259.316406 443.546875 259.316406 C 425.59375 256.695312 406.578125 253.320312 386.75 249.210938 C 386.648438 249.191406 386.550781 249.171875 386.449219 249.152344 C 386.105469 249.078125 385.769531 249.007812 385.425781 248.9375 C 385.519531 248.953125 385.613281 248.976562 385.707031 248.992188 C 352.425781 242.058594 316.890625 233.058594 280.273438 222.054688 C 114.769531 172.320312 -9.957031 100.601562 1.683594 61.867188 Z M 1.683594 61.867188 " fill-opacity="1" fill-rule="evenodd"/></g><path fill="#000000" d="M 404.496094 252.734375 C 405.269531 252.882812 406.039062 253.027344 406.804688 253.171875 C 406.039062 253.027344 405.269531 252.882812 404.496094 252.734375 Z M 404.496094 252.734375 " fill-opacity="1" fill-rule="evenodd"/><path fill="#000000" d="M 396.667969 251.222656 C 399.175781 251.714844 401.671875 252.199219 404.15625 252.671875 C 401.671875 252.195312 399.175781 251.714844 396.667969 251.222656 Z M 396.667969 251.222656 " fill-opacity="1" fill-rule="evenodd"/><path fill="#000000" d="M 393.867188 250.664062 C 394.640625 250.816406 395.414062 250.972656 396.1875 251.125 C 395.414062 250.972656 394.644531 250.816406 393.867188 250.664062 Z M 393.867188 250.664062 " fill-opacity="1" fill-rule="evenodd"/><path fill="#000000" d="M 386.015625 249.058594 C 388.445312 249.5625 390.863281 250.058594 393.269531 250.542969 C 390.863281 250.058594 388.445312 249.5625 386.015625 249.058594 Z M 386.015625 249.058594 " fill-opacity="1" fill-rule="evenodd"/><path fill="#000000" d="M 385.707031 248.992188 C 385.808594 249.011719 385.914062 249.035156 386.015625 249.058594 C 385.820312 249.015625 385.625 248.976562 385.429688 248.9375 C 385.519531 248.953125 385.613281 248.976562 385.707031 248.992188 Z M 385.707031 248.992188 " fill-opacity="1" fill-rule="evenodd"/><path fill="#ffffff" d="M 430.351562 254.609375 C 428.085938 254.292969 425.800781 253.96875 423.5 253.628906 C 425.800781 253.96875 428.085938 254.292969 430.351562 254.609375 Z M 442.441406 256.1875 C 440.265625 255.921875 438.074219 255.644531 435.859375 255.351562 C 438.074219 255.644531 440.265625 255.921875 442.441406 256.1875 Z M 483.019531 259.867188 C 481.289062 259.773438 479.539062 259.671875 477.773438 259.554688 C 479.539062 259.667969 481.289062 259.773438 483.019531 259.867188 Z M 364.871094 243.082031 C 364.773438 243.058594 364.679688 243.042969 364.585938 243.023438 C 364.785156 243.0625 364.984375 243.105469 365.179688 243.144531 C 367.644531 243.660156 370.097656 244.171875 372.535156 244.664062 C 370.097656 244.171875 367.644531 243.664062 365.179688 243.144531 C 365.078125 243.121094 364.972656 243.101562 364.871094 243.082031 C 470.644531 264.328125 548.878906 261.039062 557.359375 230.355469 C 563.675781 207.496094 529.980469 174.117188 471.441406 139.695312 C 470.671875 139.066406 458.542969 132.128906 458.496094 131.5625 C 465.789062 135.15625 485.609375 145.175781 492.308594 148.765625 C 549.09375 182.117188 581.6875 214.386719 575.515625 236.546875 C 567.152344 266.558594 490.007812 269.773438 385.707031 248.992188 C 353.191406 242.21875 318.523438 233.46875 282.804688 222.808594 C 311.160156 230.8125 338.707031 237.582031 364.871094 243.082031 Z M 364.871094 243.082031 " fill-opacity="1" fill-rule="evenodd"/></g></g></g><g fill="#ffffff" fill-opacity="1"><g transform="translate(607.718421, 898.679674)"><g><path d="M 80.785156 6.933594 C 68.847656 6.933594 58.011719 4.679688 48.285156 0.171875 C 38.597656 -4.316406 30.359375 -10.351562 23.5625 -17.9375 C 16.792969 -25.496094 11.601562 -34.296875 7.988281 -44.34375 C 4.402344 -54.332031 2.609375 -64.773438 2.609375 -75.679688 C 2.609375 -86.589844 4.402344 -97 7.992188 -106.914062 C 11.605469 -116.882812 16.792969 -125.644531 23.5625 -133.199219 C 30.363281 -140.792969 38.613281 -146.796875 48.3125 -151.210938 C 58.035156 -155.636719 68.855469 -157.851562 80.785156 -157.851562 C 89.382812 -157.851562 97.234375 -156.785156 104.332031 -154.65625 C 111.441406 -152.523438 117.851562 -149.550781 123.570312 -145.738281 C 129.253906 -141.949219 134.273438 -137.523438 138.625 -132.460938 C 142.914062 -127.46875 146.617188 -122.089844 149.738281 -116.316406 L 151.839844 -112.425781 L 116.589844 -90.355469 L 114.171875 -94.6875 C 110.164062 -101.875 105.203125 -107.945312 99.285156 -112.898438 C 93.796875 -117.492188 87.632812 -119.789062 80.785156 -119.789062 C 75.085938 -119.789062 70.109375 -118.617188 65.863281 -116.269531 C 61.496094 -113.859375 57.808594 -110.664062 54.808594 -106.683594 C 51.757812 -102.636719 49.460938 -97.933594 47.921875 -92.574219 C 46.339844 -87.082031 45.550781 -81.449219 45.550781 -75.679688 C 45.550781 -69.910156 46.339844 -64.277344 47.921875 -58.785156 C 49.464844 -53.414062 51.769531 -48.664062 54.832031 -44.535156 C 57.839844 -40.480469 61.53125 -37.210938 65.910156 -34.730469 C 70.144531 -32.328125 75.105469 -31.125 80.785156 -31.125 C 87.609375 -31.125 93.9375 -33.234375 99.773438 -37.445312 C 105.816406 -41.808594 110.585938 -47.425781 114.089844 -54.296875 L 116.441406 -58.910156 L 151.808594 -36.484375 L 149.75 -32.625 C 143.449219 -20.808594 134.707031 -11.28125 123.519531 -4.03125 C 112.234375 3.28125 97.988281 6.933594 80.785156 6.933594 Z M 80.785156 -2.496094 C 96.128906 -2.496094 108.664062 -5.648438 118.390625 -11.949219 C 128.210938 -18.3125 135.890625 -26.683594 141.425781 -37.0625 L 145.589844 -34.84375 L 143.0625 -30.859375 L 115.765625 -48.171875 L 118.289062 -52.15625 L 122.492188 -50.011719 C 118.300781 -41.789062 112.566406 -35.054688 105.292969 -29.800781 C 97.8125 -24.394531 89.640625 -21.695312 80.785156 -21.695312 C 73.445312 -21.695312 66.9375 -23.304688 61.257812 -26.523438 C 55.722656 -29.664062 51.054688 -33.792969 47.257812 -38.914062 C 43.515625 -43.957031 40.714844 -49.710938 38.855469 -56.179688 C 37.03125 -62.523438 36.121094 -69.023438 36.121094 -75.679688 C 36.121094 -82.335938 37.03125 -88.835938 38.855469 -95.179688 C 40.71875 -101.660156 43.527344 -107.386719 47.28125 -112.363281 C 51.085938 -117.410156 55.761719 -121.464844 61.304688 -124.527344 C 66.96875 -127.65625 73.464844 -129.222656 80.785156 -129.222656 C 89.917969 -129.222656 98.101562 -126.191406 105.339844 -120.132812 C 112.144531 -114.433594 117.835938 -107.484375 122.410156 -99.28125 L 118.289062 -96.984375 L 115.789062 -100.984375 L 143.085938 -118.070312 L 145.589844 -114.074219 L 141.441406 -111.832031 C 138.640625 -117.007812 135.320312 -121.835938 131.46875 -126.3125 C 127.683594 -130.722656 123.304688 -134.582031 118.339844 -137.890625 C 113.402344 -141.183594 107.832031 -143.757812 101.621094 -145.621094 C 95.40625 -147.484375 88.460938 -148.417969 80.785156 -148.417969 C 70.222656 -148.417969 60.699219 -146.488281 52.222656 -142.628906 C 43.722656 -138.757812 36.511719 -133.519531 30.589844 -126.90625 C 24.632812 -120.257812 20.058594 -112.523438 16.863281 -103.703125 C 13.648438 -94.824219 12.039062 -85.484375 12.039062 -75.679688 C 12.039062 -65.871094 13.648438 -56.488281 16.867188 -47.535156 C 20.0625 -38.644531 24.636719 -30.875 30.589844 -24.230469 C 36.519531 -17.609375 43.738281 -12.328125 52.25 -8.382812 C 60.722656 -4.460938 70.234375 -2.496094 80.785156 -2.496094 Z M 80.785156 -2.496094 "/></g></g></g><g fill="#ffffff" fill-opacity="1"><g transform="translate(757.523776, 898.679674)"><g><path d="M 83.003906 -30.90625 C 88.761719 -30.90625 93.859375 -32.027344 98.292969 -34.277344 C 102.816406 -36.574219 106.722656 -39.691406 110.007812 -43.632812 C 113.316406 -47.601562 115.835938 -52.292969 117.574219 -57.703125 C 119.347656 -63.226562 120.234375 -69.144531 120.234375 -75.457031 C 120.234375 -81.917969 119.347656 -87.910156 117.574219 -93.433594 C 115.835938 -98.847656 113.347656 -103.503906 110.113281 -107.398438 C 106.921875 -111.242188 103.042969 -114.273438 98.476562 -116.488281 C 93.949219 -118.6875 88.789062 -119.789062 83.003906 -119.789062 C 77.214844 -119.789062 72.058594 -118.6875 67.53125 -116.488281 C 62.960938 -114.269531 59.042969 -111.199219 55.777344 -107.28125 C 52.464844 -103.308594 49.941406 -98.652344 48.207031 -93.308594 C 46.4375 -87.863281 45.550781 -81.914062 45.550781 -75.457031 C 45.550781 -69.144531 46.4375 -63.226562 48.210938 -57.703125 C 49.949219 -52.292969 52.46875 -47.601562 55.777344 -43.632812 C 59.054688 -39.699219 62.988281 -36.585938 67.578125 -34.289062 C 72.09375 -32.03125 77.234375 -30.90625 83.003906 -30.90625 Z M 83.003906 -21.472656 C 75.75 -21.472656 69.203125 -22.933594 63.363281 -25.855469 C 57.59375 -28.738281 52.652344 -32.652344 48.53125 -37.59375 C 44.441406 -42.503906 41.339844 -48.246094 39.230469 -54.820312 C 37.15625 -61.28125 36.121094 -68.160156 36.121094 -75.457031 C 36.121094 -82.910156 37.160156 -89.832031 39.234375 -96.222656 C 41.347656 -102.71875 44.445312 -108.417969 48.53125 -113.320312 C 52.664062 -118.277344 57.625 -122.164062 63.410156 -124.972656 C 69.238281 -127.804688 75.769531 -129.222656 83.003906 -129.222656 C 90.238281 -129.222656 96.769531 -127.804688 102.597656 -124.972656 C 108.386719 -122.164062 113.308594 -118.3125 117.371094 -113.425781 C 121.382812 -108.59375 124.445312 -102.890625 126.554688 -96.316406 C 128.628906 -89.855469 129.664062 -82.902344 129.664062 -75.457031 C 129.664062 -68.160156 128.628906 -61.28125 126.554688 -54.820312 C 124.445312 -48.246094 121.34375 -42.503906 117.253906 -37.59375 C 113.140625 -32.65625 108.242188 -28.75 102.558594 -25.867188 C 96.785156 -22.9375 90.265625 -21.472656 83.003906 -21.472656 Z M 83.003906 6.933594 C 71.109375 6.933594 60.238281 4.808594 50.394531 0.554688 C 40.5625 -3.691406 32.097656 -9.519531 25 -16.933594 C 17.914062 -24.339844 12.40625 -33.066406 8.480469 -43.113281 C 4.566406 -53.136719 2.609375 -63.917969 2.609375 -75.457031 C 2.609375 -87 4.566406 -97.78125 8.480469 -107.800781 C 12.40625 -117.851562 17.914062 -126.578125 25 -133.980469 C 32.101562 -141.398438 40.609375 -147.230469 50.519531 -151.476562 C 60.433594 -155.726562 71.261719 -157.851562 83.003906 -157.851562 C 94.746094 -157.851562 105.574219 -155.726562 115.488281 -151.476562 C 125.398438 -147.230469 133.90625 -141.398438 141.003906 -133.980469 C 148.09375 -126.578125 153.601562 -117.851562 157.527344 -107.800781 C 161.441406 -97.78125 163.398438 -87 163.398438 -75.457031 C 163.398438 -63.917969 161.441406 -53.136719 157.527344 -43.113281 C 153.601562 -33.066406 148.09375 -24.339844 141.003906 -16.933594 C 133.90625 -9.515625 125.398438 -3.683594 115.488281 0.5625 C 105.574219 4.8125 94.746094 6.933594 83.003906 6.933594 Z M 83.003906 -2.496094 C 93.453125 -2.496094 103.042969 -4.367188 111.773438 -8.109375 C 120.503906 -11.851562 127.976562 -16.964844 134.191406 -23.457031 C 140.417969 -29.960938 145.269531 -37.65625 148.742188 -46.546875 C 152.226562 -55.464844 153.96875 -65.101562 153.96875 -75.457031 C 153.96875 -85.8125 152.226562 -95.449219 148.742188 -104.367188 C 145.269531 -113.257812 140.417969 -120.953125 134.191406 -127.457031 C 127.976562 -133.949219 120.503906 -139.066406 111.773438 -142.808594 C 103.042969 -146.546875 93.453125 -148.417969 83.003906 -148.417969 C 72.550781 -148.417969 62.960938 -146.546875 54.234375 -142.808594 C 45.503906 -139.066406 38.027344 -133.949219 31.8125 -127.457031 C 25.585938 -120.953125 20.738281 -113.257812 17.265625 -104.367188 C 13.78125 -95.449219 12.039062 -85.8125 12.039062 -75.457031 C 12.039062 -65.101562 13.78125 -55.464844 17.265625 -46.546875 C 20.738281 -37.65625 25.585938 -29.960938 31.8125 -23.457031 C 38.03125 -16.964844 45.472656 -11.84375 54.136719 -8.101562 C 62.785156 -4.367188 72.410156 -2.496094 83.003906 -2.496094 Z M 83.003906 -2.496094 "/></g></g></g><g fill="#ffffff" fill-opacity="1"><g transform="translate(921.310972, 898.679674)"><g><path d="M 13.316406 -155.632812 L 49.546875 -155.632812 L 49.546875 -27.296875 L 44.832031 -27.296875 L 44.832031 -32.015625 L 117.015625 -32.015625 L 117.015625 4.714844 L 8.601562 4.714844 L 8.601562 -155.632812 Z M 13.316406 -146.199219 L 13.316406 -150.914062 L 18.03125 -150.914062 L 18.03125 0 L 13.316406 0 L 13.316406 -4.714844 L 112.296875 -4.714844 L 112.296875 0 L 107.582031 0 L 107.582031 -27.296875 L 112.296875 -27.296875 L 112.296875 -22.582031 L 40.113281 -22.582031 L 40.113281 -150.914062 L 44.832031 -150.914062 L 44.832031 -146.199219 Z M 13.316406 -146.199219 "/></g></g></g><g fill="#ffffff" fill-opacity="1"><g transform="translate(1037.604326, 898.679674)"><g><path d="M 13.316406 -155.632812 L 49.546875 -155.632812 L 49.546875 -27.296875 L 44.832031 -27.296875 L 44.832031 -32.015625 L 117.015625 -32.015625 L 117.015625 4.714844 L 8.601562 4.714844 L 8.601562 -155.632812 Z M 13.316406 -146.199219 L 13.316406 -150.914062 L 18.03125 -150.914062 L 18.03125 0 L 13.316406 0 L 13.316406 -4.714844 L 112.296875 -4.714844 L 112.296875 0 L 107.582031 0 L 107.582031 -27.296875 L 112.296875 -27.296875 L 112.296875 -22.582031 L 40.113281 -22.582031 L 40.113281 -150.914062 L 44.832031 -150.914062 L 44.832031 -146.199219 Z M 13.316406 -146.199219 "/></g></g></g><g fill="#ffffff" fill-opacity="1"><g transform="translate(1153.897634, 898.679674)"><g><path d="M 91.421875 -54.375 L 69.230469 -118.070312 L 73.683594 -119.621094 L 78.136719 -118.070312 L 55.941406 -54.375 L 51.488281 -55.925781 L 51.488281 -60.644531 L 95.875 -60.644531 L 95.875 -55.925781 Z M 102.511719 -51.210938 L 44.851562 -51.210938 L 73.683594 -133.957031 L 100.328125 -57.480469 Z M -3.5625 -1.5625 L 50.589844 -155.632812 L 96.550781 -155.632812 L 153.140625 4.714844 L 111.855469 4.714844 L 100.308594 -27.714844 L 104.753906 -29.296875 L 104.753906 -24.578125 L 42.390625 -24.578125 L 42.390625 -29.296875 L 46.84375 -27.742188 L 35.53125 4.714844 L -5.769531 4.714844 Z M 5.335938 1.5625 L 0.886719 0 L 0.886719 -4.714844 L 32.179688 -4.714844 L 32.179688 0 L 27.726562 -1.550781 L 39.039062 -34.011719 L 108.078125 -34.011719 L 119.625 -1.582031 L 115.183594 0 L 115.183594 -4.714844 L 146.476562 -4.714844 L 146.476562 0 L 142.03125 1.570312 L 88.765625 -149.34375 L 93.210938 -150.914062 L 93.210938 -146.199219 L 53.929688 -146.199219 L 53.929688 -150.914062 L 58.378906 -149.351562 Z M 5.335938 1.5625 "/></g></g></g><g fill="#ffffff" fill-opacity="1"><g transform="translate(1299.264327, 898.679674)"><g><path d="M 3.105469 -155.632812 L 147.199219 -155.632812 L 147.199219 -118.902344 L 88.773438 -118.902344 L 88.773438 -123.617188 L 93.488281 -123.617188 L 93.488281 4.714844 L 52.320312 4.714844 L 52.320312 -123.617188 L 57.035156 -123.617188 L 57.035156 -118.902344 L -1.609375 -118.902344 L -1.609375 -155.632812 Z M 3.105469 -146.199219 L 3.105469 -150.914062 L 7.824219 -150.914062 L 7.824219 -123.617188 L 3.105469 -123.617188 L 3.105469 -128.332031 L 61.753906 -128.332031 L 61.753906 0 L 57.035156 0 L 57.035156 -4.714844 L 88.773438 -4.714844 L 88.773438 0 L 84.058594 0 L 84.058594 -128.332031 L 142.480469 -128.332031 L 142.480469 -123.617188 L 137.765625 -123.617188 L 137.765625 -150.914062 L 142.480469 -150.914062 L 142.480469 -146.199219 Z M 3.105469 -146.199219 "/></g></g></g><g fill="#ffffff" fill-opacity="1"><g transform="translate(1442.85556, 898.679674)"><g><path d="M 13.316406 -155.632812 L 127 -155.632812 L 127 -118.902344 L 44.832031 -118.902344 L 44.832031 -123.617188 L 49.546875 -123.617188 L 49.546875 -87.21875 L 44.832031 -87.21875 L 44.832031 -91.9375 L 113.6875 -91.9375 L 113.6875 -55.207031 L 44.832031 -55.207031 L 44.832031 -59.921875 L 49.546875 -59.921875 L 49.546875 -27.296875 L 44.832031 -27.296875 L 44.832031 -32.015625 L 127 -32.015625 L 127 4.714844 L 8.601562 4.714844 L 8.601562 -155.632812 Z M 13.316406 -146.199219 L 13.316406 -150.914062 L 18.03125 -150.914062 L 18.03125 0 L 13.316406 0 L 13.316406 -4.714844 L 122.285156 -4.714844 L 122.285156 0 L 117.570312 0 L 117.570312 -27.296875 L 122.285156 -27.296875 L 122.285156 -22.582031 L 40.113281 -22.582031 L 40.113281 -64.636719 L 108.96875 -64.636719 L 108.96875 -59.921875 L 104.253906 -59.921875 L 104.253906 -87.21875 L 108.96875 -87.21875 L 108.96875 -82.503906 L 40.113281 -82.503906 L 40.113281 -128.332031 L 122.285156 -128.332031 L 122.285156 -123.617188 L 117.570312 -123.617188 L 117.570312 -150.914062 L 122.285156 -150.914062 L 122.285156 -146.199219 Z M 13.316406 -146.199219 "/></g></g></g><g fill="#ffffff" fill-opacity="1"><g transform="translate(1571.799128, 898.679674)"><g><path d="M 49.546875 -122.285156 L 49.546875 -77.234375 L 44.832031 -77.234375 L 44.832031 -81.949219 L 75.902344 -81.949219 C 80.402344 -81.949219 84.101562 -82.453125 87.003906 -83.464844 C 89.726562 -84.410156 91.867188 -85.664062 93.429688 -87.226562 C 94.976562 -88.773438 96.074219 -90.523438 96.726562 -92.484375 C 97.453125 -94.664062 97.816406 -97.050781 97.816406 -99.648438 C 97.816406 -104.824219 96.285156 -109.148438 93.226562 -112.621094 C 90.316406 -115.917969 84.542969 -117.570312 75.902344 -117.570312 L 44.832031 -117.570312 L 44.832031 -122.285156 Z M 40.113281 -127 L 75.902344 -127 C 87.382812 -127 95.515625 -124.285156 100.300781 -118.855469 C 104.933594 -113.601562 107.25 -107.199219 107.25 -99.648438 C 107.25 -96.03125 106.726562 -92.648438 105.675781 -89.5 C 104.554688 -86.132812 102.695312 -83.152344 100.097656 -80.554688 C 97.515625 -77.976562 94.183594 -75.976562 90.101562 -74.554688 C 86.195312 -73.195312 81.464844 -72.515625 75.902344 -72.515625 L 40.113281 -72.515625 Z M 13.316406 -155.632812 L 77.011719 -155.632812 C 87.910156 -155.632812 97.355469 -154.207031 105.335938 -151.363281 C 113.453125 -148.46875 120.160156 -144.457031 125.457031 -139.320312 C 130.78125 -134.164062 134.710938 -128.140625 137.253906 -121.253906 C 139.738281 -114.515625 140.984375 -107.3125 140.984375 -99.648438 C 140.984375 -87.386719 137.800781 -76.847656 131.433594 -68.035156 C 124.976562 -59.09375 114.890625 -53.011719 101.171875 -49.78125 L 100.09375 -54.375 L 104.019531 -56.984375 L 145.070312 4.714844 L 99.046875 4.714844 L 65.03125 -49.195312 L 69.023438 -51.710938 L 69.023438 -46.996094 L 44.832031 -46.996094 L 44.832031 -51.710938 L 49.546875 -51.710938 L 49.546875 4.714844 L 8.601562 4.714844 L 8.601562 -155.632812 Z M 13.316406 -146.199219 L 13.316406 -150.914062 L 18.03125 -150.914062 L 18.03125 0 L 13.316406 0 L 13.316406 -4.714844 L 44.832031 -4.714844 L 44.832031 0 L 40.113281 0 L 40.113281 -56.425781 L 71.621094 -56.425781 L 105.632812 -2.515625 L 101.644531 0 L 101.644531 -4.714844 L 136.269531 -4.714844 L 136.269531 0 L 132.339844 2.613281 L 92.40625 -57.410156 L 99.011719 -58.964844 C 110.445312 -61.65625 118.707031 -66.519531 123.789062 -73.558594 C 128.964844 -80.722656 131.550781 -89.421875 131.550781 -99.648438 C 131.550781 -106.1875 130.503906 -112.300781 128.402344 -117.988281 C 126.359375 -123.53125 123.1875 -128.386719 118.890625 -132.546875 C 114.574219 -136.734375 109 -140.042969 102.171875 -142.476562 C 95.210938 -144.957031 86.824219 -146.199219 77.011719 -146.199219 Z M 13.316406 -146.199219 "/></g></g></g><g fill="#ffffff" fill-opacity="1"><g transform="translate(1712.94901, 898.679674)"><g><path d="M 91.421875 -54.375 L 69.230469 -118.070312 L 73.683594 -119.621094 L 78.136719 -118.070312 L 55.941406 -54.375 L 51.488281 -55.925781 L 51.488281 -60.644531 L 95.875 -60.644531 L 95.875 -55.925781 Z M 102.511719 -51.210938 L 44.851562 -51.210938 L 73.683594 -133.957031 L 100.328125 -57.480469 Z M -3.5625 -1.5625 L 50.589844 -155.632812 L 96.550781 -155.632812 L 153.140625 4.714844 L 111.855469 4.714844 L 100.308594 -27.714844 L 104.753906 -29.296875 L 104.753906 -24.578125 L 42.390625 -24.578125 L 42.390625 -29.296875 L 46.84375 -27.742188 L 35.53125 4.714844 L -5.769531 4.714844 Z M 5.335938 1.5625 L 0.886719 0 L 0.886719 -4.714844 L 32.179688 -4.714844 L 32.179688 0 L 27.726562 -1.550781 L 39.039062 -34.011719 L 108.078125 -34.011719 L 119.625 -1.582031 L 115.183594 0 L 115.183594 -4.714844 L 146.476562 -4.714844 L 146.476562 0 L 142.03125 1.570312 L 88.765625 -149.34375 L 93.210938 -150.914062 L 93.210938 -146.199219 L 53.929688 -146.199219 L 53.929688 -150.914062 L 58.378906 -149.351562 Z M 5.335938 1.5625 "/></g></g></g><g fill="#ffffff" fill-opacity="1"><g transform="translate(1858.315658, 898.679674)"><g><path d="M 13.316406 -155.632812 L 49.546875 -155.632812 L 49.546875 -27.296875 L 44.832031 -27.296875 L 44.832031 -32.015625 L 117.015625 -32.015625 L 117.015625 4.714844 L 8.601562 4.714844 L 8.601562 -155.632812 Z M 13.316406 -146.199219 L 13.316406 -150.914062 L 18.03125 -150.914062 L 18.03125 0 L 13.316406 0 L 13.316406 -4.714844 L 112.296875 -4.714844 L 112.296875 0 L 107.582031 0 L 107.582031 -27.296875 L 112.296875 -27.296875 L 112.296875 -22.582031 L 40.113281 -22.582031 L 40.113281 -150.914062 L 44.832031 -150.914062 L 44.832031 -146.199219 Z M 13.316406 -146.199219 "/></g></g></g><g fill="#000000" fill-opacity="1"><g transform="translate(607.718421, 898.679674)"><g><path d="M 80.78125 2.21875 C 69.539062 2.21875 59.367188 0.109375 50.265625 -4.109375 C 41.171875 -8.328125 33.441406 -13.984375 27.078125 -21.078125 C 20.710938 -28.179688 15.828125 -36.46875 12.421875 -45.9375 C 9.023438 -55.40625 7.328125 -65.320312 7.328125 -75.6875 C 7.328125 -86.039062 9.023438 -95.914062 12.421875 -105.3125 C 15.828125 -114.707031 20.710938 -122.953125 27.078125 -130.046875 C 33.441406 -137.148438 41.171875 -142.773438 50.265625 -146.921875 C 59.367188 -151.066406 69.539062 -153.140625 80.78125 -153.140625 C 88.914062 -153.140625 96.3125 -152.140625 102.96875 -150.140625 C 109.632812 -148.140625 115.628906 -145.363281 120.953125 -141.8125 C 126.285156 -138.257812 130.984375 -134.113281 135.046875 -129.375 C 139.117188 -124.644531 142.632812 -119.546875 145.59375 -114.078125 L 118.296875 -96.984375 C 114.003906 -104.679688 108.675781 -111.191406 102.3125 -116.515625 C 95.945312 -121.835938 88.769531 -124.5 80.78125 -124.5 C 74.269531 -124.5 68.535156 -123.128906 63.578125 -120.390625 C 58.628906 -117.660156 54.453125 -114.035156 51.046875 -109.515625 C 47.640625 -105.003906 45.085938 -99.789062 43.390625 -93.875 C 41.691406 -87.957031 40.84375 -81.894531 40.84375 -75.6875 C 40.84375 -69.46875 41.691406 -63.398438 43.390625 -57.484375 C 45.085938 -51.566406 47.640625 -46.3125 51.046875 -41.71875 C 54.453125 -37.132812 58.628906 -33.4375 63.578125 -30.625 C 68.535156 -27.8125 74.269531 -26.40625 80.78125 -26.40625 C 88.625 -26.40625 95.875 -28.8125 102.53125 -33.625 C 109.1875 -38.4375 114.441406 -44.613281 118.296875 -52.15625 L 145.59375 -34.84375 C 139.675781 -23.75 131.460938 -14.796875 120.953125 -7.984375 C 110.453125 -1.179688 97.0625 2.21875 80.78125 2.21875 Z M 80.78125 2.21875 "/></g></g></g><g fill="#000000" fill-opacity="1"><g transform="translate(757.523776, 898.679674)"><g><path d="M 83 -26.1875 C 89.507812 -26.1875 95.316406 -27.476562 100.421875 -30.0625 C 105.523438 -32.65625 109.925781 -36.171875 113.625 -40.609375 C 117.332031 -45.046875 120.144531 -50.257812 122.0625 -56.25 C 123.988281 -62.25 124.953125 -68.648438 124.953125 -75.453125 C 124.953125 -82.410156 123.988281 -88.882812 122.0625 -94.875 C 120.144531 -100.863281 117.375 -106.039062 113.75 -110.40625 C 110.125 -114.78125 105.71875 -118.222656 100.53125 -120.734375 C 95.351562 -123.242188 89.507812 -124.5 83 -124.5 C 76.488281 -124.5 70.644531 -123.242188 65.46875 -120.734375 C 60.289062 -118.222656 55.851562 -114.742188 52.15625 -110.296875 C 48.457031 -105.859375 45.644531 -100.679688 43.71875 -94.765625 C 41.800781 -88.847656 40.84375 -82.410156 40.84375 -75.453125 C 40.84375 -68.648438 41.800781 -62.25 43.71875 -56.25 C 45.644531 -50.257812 48.457031 -45.046875 52.15625 -40.609375 C 55.851562 -36.171875 60.289062 -32.65625 65.46875 -30.0625 C 70.644531 -27.476562 76.488281 -26.1875 83 -26.1875 Z M 83 2.21875 C 71.757812 2.21875 61.515625 0.222656 52.265625 -3.765625 C 43.015625 -7.765625 35.0625 -13.238281 28.40625 -20.1875 C 21.75 -27.144531 16.570312 -35.359375 12.875 -44.828125 C 9.175781 -54.296875 7.328125 -64.503906 7.328125 -75.453125 C 7.328125 -86.398438 9.175781 -96.609375 12.875 -106.078125 C 16.570312 -115.554688 21.75 -123.769531 28.40625 -130.71875 C 35.0625 -137.675781 43.050781 -143.148438 52.375 -147.140625 C 61.695312 -151.140625 71.90625 -153.140625 83 -153.140625 C 94.101562 -153.140625 104.3125 -151.140625 113.625 -147.140625 C 122.945312 -143.148438 130.9375 -137.675781 137.59375 -130.71875 C 144.257812 -123.769531 149.441406 -115.554688 153.140625 -106.078125 C 156.835938 -96.609375 158.6875 -86.398438 158.6875 -75.453125 C 158.6875 -64.503906 156.835938 -54.296875 153.140625 -44.828125 C 149.441406 -35.359375 144.257812 -27.144531 137.59375 -20.1875 C 130.9375 -13.238281 122.945312 -7.765625 113.625 -3.765625 C 104.3125 0.222656 94.101562 2.21875 83 2.21875 Z M 83 2.21875 "/></g></g></g><g fill="#000000" fill-opacity="1"><g transform="translate(921.310972, 898.679674)"><g><path d="M 13.3125 -150.921875 L 44.828125 -150.921875 L 44.828125 -27.296875 L 112.296875 -27.296875 L 112.296875 0 L 13.3125 0 Z M 13.3125 -150.921875 "/></g></g></g><g fill="#000000" fill-opacity="1"><g transform="translate(1037.604326, 898.679674)"><g><path d="M 13.3125 -150.921875 L 44.828125 -150.921875 L 44.828125 -27.296875 L 112.296875 -27.296875 L 112.296875 0 L 13.3125 0 Z M 13.3125 -150.921875 "/></g></g></g><g fill="#000000" fill-opacity="1"><g transform="translate(1153.897634, 898.679674)"><g><path d="M 95.875 -55.921875 L 73.6875 -119.625 L 51.484375 -55.921875 Z M 0.890625 0 L 53.9375 -150.921875 L 93.21875 -150.921875 L 146.484375 0 L 115.1875 0 L 104.75 -29.296875 L 42.390625 -29.296875 L 32.1875 0 Z M 0.890625 0 "/></g></g></g><g fill="#000000" fill-opacity="1"><g transform="translate(1299.264327, 898.679674)"><g><path d="M 3.109375 -150.921875 L 142.484375 -150.921875 L 142.484375 -123.625 L 88.78125 -123.625 L 88.78125 0 L 57.03125 0 L 57.03125 -123.625 L 3.109375 -123.625 Z M 3.109375 -150.921875 "/></g></g></g><g fill="#000000" fill-opacity="1"><g transform="translate(1442.85556, 898.679674)"><g><path d="M 13.3125 -150.921875 L 122.28125 -150.921875 L 122.28125 -123.625 L 44.828125 -123.625 L 44.828125 -87.21875 L 108.96875 -87.21875 L 108.96875 -59.921875 L 44.828125 -59.921875 L 44.828125 -27.296875 L 122.28125 -27.296875 L 122.28125 0 L 13.3125 0 Z M 13.3125 -150.921875 "/></g></g></g><g fill="#000000" fill-opacity="1"><g transform="translate(1571.799128, 898.679674)"><g><path d="M 44.828125 -122.28125 L 44.828125 -77.234375 L 75.90625 -77.234375 C 80.9375 -77.234375 85.148438 -77.820312 88.546875 -79 C 91.953125 -80.1875 94.691406 -81.816406 96.765625 -83.890625 C 98.835938 -85.960938 100.316406 -88.328125 101.203125 -90.984375 C 102.085938 -93.648438 102.53125 -96.539062 102.53125 -99.65625 C 102.53125 -106.007812 100.609375 -111.367188 96.765625 -115.734375 C 92.921875 -120.097656 85.96875 -122.28125 75.90625 -122.28125 Z M 13.3125 -150.921875 L 77.015625 -150.921875 C 87.367188 -150.921875 96.28125 -149.585938 103.75 -146.921875 C 111.226562 -144.253906 117.367188 -140.59375 122.171875 -135.9375 C 126.984375 -131.28125 130.535156 -125.84375 132.828125 -119.625 C 135.117188 -113.40625 136.265625 -106.75 136.265625 -99.65625 C 136.265625 -88.40625 133.378906 -78.785156 127.609375 -70.796875 C 121.835938 -62.804688 112.664062 -57.332031 100.09375 -54.375 L 136.265625 0 L 101.640625 0 L 69.015625 -51.71875 L 44.828125 -51.71875 L 44.828125 0 L 13.3125 0 Z M 13.3125 -150.921875 "/></g></g></g><g fill="#000000" fill-opacity="1"><g transform="translate(1712.94901, 898.679674)"><g><path d="M 95.875 -55.921875 L 73.6875 -119.625 L 51.484375 -55.921875 Z M 0.890625 0 L 53.9375 -150.921875 L 93.21875 -150.921875 L 146.484375 0 L 115.1875 0 L 104.75 -29.296875 L 42.390625 -29.296875 L 32.1875 0 Z M 0.890625 0 "/></g></g></g><g fill="#000000" fill-opacity="1"><g transform="translate(1858.315658, 898.679674)"><g><path d="M 13.3125 -150.921875 L 44.828125 -150.921875 L 44.828125 -27.296875 L 112.296875 -27.296875 L 112.296875 0 L 13.3125 0 Z M 13.3125 -150.921875 "/></g></g></g></svg>