<svg xmlns="http://www.w3.org/2000/svg" xmlns:xlink="http://www.w3.org/1999/xlink" width="2750" zoomAndPan="magnify" viewBox="0 670 2062.5 370" height="370" preserveAspectRatio="xMidYMid meet" version="1.0"><defs><g/><clipPath id="b4f3576a60"><path d="M 12 675.222656 L 731 675.222656 L 731 1034.363281 L 12 1034.363281 Z M 12 675.222656 " clip-rule="nonzero"/></clipPath><clipPath id="08e9308b94"><path d="M 182 0.222656 L 539 0.222656 L 539 251 L 182 251 Z M 182 0.222656 " clip-rule="nonzero"/></clipPath><clipPath id="67bfa52037"><path d="M 183 217 L 485 217 L 485 359.363281 L 183 359.363281 Z M 183 217 " clip-rule="nonzero"/></clipPath><clipPath id="3c68f5a786"><rect x="0" width="719" y="0" height="360"/></clipPath></defs><g clip-path="url(#b4f3576a60)"><g transform="matrix(1, 0, 0, 1, 12, 675)"><g clip-path="url(#3c68f5a786)"><g clip-path="url(#08e9308b94)"><path fill="#3b0001" d="M 348.730469 215.730469 C 291.074219 198.40625 238.234375 177.804688 199.941406 157.730469 C 193.425781 154.308594 187.699219 151.101562 182.679688 148.097656 C 197.675781 64.125 271.074219 0.382812 359.363281 0.382812 C 458.488281 0.378906 538.847656 80.738281 538.847656 179.867188 C 538.84375 205.070312 533.648438 229.0625 524.269531 250.828125 C 480.699219 248.855469 416.34375 236.050781 348.730469 215.730469 Z M 348.730469 215.730469 " fill-opacity="1" fill-rule="evenodd"/></g><g clip-path="url(#67bfa52037)"><path fill="#3b0001" d="M 332.214844 270.691406 C 374.980469 283.542969 417.375 294.382812 458.222656 302.898438 L 458.222656 302.90625 L 459.808594 303.230469 C 468.253906 304.980469 476.617188 306.628906 484.875 308.167969 C 452.511719 339.835938 408.214844 359.355469 359.363281 359.355469 C 273.214844 359.351562 201.246094 298.664062 183.875 217.707031 C 229 236.773438 279.347656 254.804688 332.214844 270.691406 Z M 332.214844 270.691406 " fill-opacity="1" fill-rule="evenodd"/></g><path fill="#ffffff" d="M 462.105469 307.835938 C 521.996094 244.792969 515.117188 141.03125 446.746094 76.074219 C 404.183594 35.640625 347.832031 19.78125 296.902344 28.765625 C 354.945312 4.792969 424.183594 15.417969 472.65625 61.464844 C 538.359375 123.882812 541.019531 227.75 478.597656 293.449219 C 472.398438 299.96875 465.792969 305.863281 458.855469 311.140625 C 459.949219 310.058594 461.039062 308.960938 462.105469 307.835938 Z M 462.105469 307.835938 " fill-opacity="1" fill-rule="evenodd"/><path fill="#3b0001" d="M 636.410156 200.976562 C 636.40625 200.972656 636.402344 200.96875 636.398438 200.96875 C 636.402344 200.96875 636.40625 200.972656 636.410156 200.976562 Z M 636.410156 200.976562 " fill-opacity="1" fill-rule="evenodd"/><path fill="#3b0001" d="M 636.410156 200.976562 C 636.40625 200.972656 636.402344 200.96875 636.398438 200.96875 C 636.402344 200.96875 636.40625 200.972656 636.410156 200.976562 Z M 636.410156 200.976562 " fill-opacity="1" fill-rule="evenodd"/><path fill="#3b0001" d="M 640.875 203.648438 C 640.871094 203.644531 640.867188 203.640625 640.863281 203.640625 C 640.867188 203.640625 640.871094 203.644531 640.875 203.648438 Z M 640.875 203.648438 " fill-opacity="1" fill-rule="evenodd"/><path fill="#3b0001" d="M 640.875 203.648438 C 640.871094 203.644531 640.867188 203.640625 640.863281 203.640625 C 640.867188 203.640625 640.871094 203.644531 640.875 203.648438 Z M 640.875 203.648438 " fill-opacity="1" fill-rule="evenodd"/><path fill="#3b0001" d="M 533.273438 309.082031 C 533.078125 309.054688 532.871094 309.023438 532.675781 308.996094 C 532.871094 309.023438 533.078125 309.054688 533.273438 309.082031 Z M 547.636719 311 C 547.457031 310.976562 547.28125 310.957031 547.101562 310.933594 C 547.277344 310.957031 547.460938 310.976562 547.636719 311 Z M 595.96875 315.570312 C 595.902344 315.5625 595.839844 315.558594 595.773438 315.554688 C 595.835938 315.558594 595.902344 315.566406 595.96875 315.570312 Z M 631.429688 198.058594 C 631.867188 198.316406 632.300781 198.570312 632.734375 198.824219 C 632.300781 198.570312 631.867188 198.316406 631.429688 198.058594 Z M 616.675781 189.78125 C 617.203125 190.070312 617.730469 190.355469 618.257812 190.644531 C 617.730469 190.355469 617.207031 190.070312 616.675781 189.78125 Z M 621.382812 192.371094 C 621.847656 192.628906 622.3125 192.886719 622.777344 193.144531 C 622.3125 192.886719 621.847656 192.628906 621.382812 192.371094 Z M 601.128906 181.550781 C 601.636719 181.8125 602.144531 182.070312 602.648438 182.332031 C 602.144531 182.070312 601.636719 181.8125 601.128906 181.550781 Z M 596.042969 178.953125 C 596.617188 179.242188 597.191406 179.535156 597.761719 179.824219 C 597.191406 179.535156 596.617188 179.246094 596.042969 178.953125 Z M 591.054688 176.445312 C 591.570312 176.703125 592.085938 176.960938 592.597656 177.21875 C 592.085938 176.957031 591.574219 176.703125 591.054688 176.445312 Z M 586.023438 173.957031 C 586.035156 173.960938 586.046875 173.96875 586.058594 173.972656 C 586.046875 173.96875 586.035156 173.960938 586.023438 173.957031 Z M 579.332031 170.710938 C 579.871094 170.96875 580.410156 171.230469 580.945312 171.488281 C 580.410156 171.230469 579.871094 170.972656 579.332031 170.710938 Z M 573.878906 168.109375 C 574.488281 168.402344 575.101562 168.691406 575.710938 168.980469 C 575.101562 168.691406 574.488281 168.402344 573.878906 168.109375 Z M 568.539062 165.605469 C 569.09375 165.867188 569.648438 166.125 570.199219 166.382812 C 569.648438 166.121094 569.097656 165.867188 568.539062 165.605469 Z M 612.046875 187.28125 C 612.527344 187.535156 613.003906 187.796875 613.484375 188.054688 C 613.003906 187.796875 612.527344 187.539062 612.046875 187.28125 Z M 1.925781 72.949219 C 11.15625 42.234375 92.070312 35.746094 216.957031 56.558594 C 205.175781 71.445312 192.636719 91.792969 185.355469 109.632812 C 159.421875 106.21875 144.015625 108.210938 141.964844 115.035156 C 134.984375 138.25 226.664062 186.324219 346.726562 222.40625 C 466.789062 258.484375 569.777344 268.914062 576.757812 245.695312 C 578.820312 238.824219 568.496094 224.925781 543.503906 214.691406 C 545.664062 200.554688 545.945312 199.085938 546.121094 182.332031 C 546.1875 175.644531 545.234375 159.84375 544.753906 154.148438 C 564.042969 162.964844 599.183594 180.289062 615.449219 189.113281 C 615.484375 189.128906 615.515625 189.144531 615.546875 189.164062 C 618.121094 190.5625 620.660156 191.960938 623.15625 193.355469 C 623.265625 193.417969 623.378906 193.480469 623.492188 193.542969 C 625.910156 194.898438 628.285156 196.25 630.625 197.597656 C 630.773438 197.683594 630.925781 197.769531 631.074219 197.855469 C 632.199219 198.507812 633.316406 199.15625 634.425781 199.808594 C 634.578125 199.894531 634.730469 199.988281 634.882812 200.078125 C 635.386719 200.371094 635.894531 200.671875 636.398438 200.96875 C 636.15625 200.824219 635.914062 200.683594 635.675781 200.542969 C 636.152344 200.824219 636.632812 201.109375 637.109375 201.394531 C 636.875 201.253906 636.644531 201.117188 636.40625 200.976562 C 636.917969 201.277344 637.425781 201.582031 637.929688 201.882812 C 638.054688 201.957031 638.179688 202.027344 638.304688 202.105469 C 639.164062 202.617188 640.015625 203.128906 640.863281 203.640625 C 640.570312 203.460938 640.273438 203.285156 639.980469 203.113281 C 640.398438 203.363281 640.820312 203.617188 641.234375 203.871094 C 641.113281 203.792969 640.996094 203.722656 640.875 203.648438 C 641.066406 203.765625 641.257812 203.878906 641.449219 203.996094 C 641.667969 204.128906 641.886719 204.265625 642.105469 204.398438 C 643.152344 205.03125 644.1875 205.667969 645.210938 206.300781 C 695.660156 237.492188 723.125 266.71875 716.796875 287.777344 C 709.910156 310.691406 664.296875 319.625 595.980469 315.570312 C 595.90625 315.5625 595.832031 315.558594 595.757812 315.554688 C 594.773438 315.496094 593.777344 315.4375 592.78125 315.371094 C 592.777344 315.371094 592.773438 315.371094 592.769531 315.371094 C 592.773438 315.371094 592.777344 315.371094 592.78125 315.371094 C 579.691406 314.523438 565.792969 313.210938 551.195312 311.441406 C 551.203125 311.4375 551.207031 311.441406 551.214844 311.441406 C 551.207031 311.441406 551.203125 311.441406 551.195312 311.441406 C 550.019531 311.296875 548.835938 311.152344 547.648438 311 C 547.457031 310.976562 547.273438 310.957031 547.085938 310.933594 C 545.890625 310.78125 544.695312 310.628906 543.496094 310.472656 C 543.488281 310.46875 543.480469 310.472656 543.476562 310.472656 C 543.480469 310.46875 543.488281 310.472656 543.496094 310.472656 C 541.332031 310.1875 539.152344 309.898438 536.964844 309.597656 C 536.976562 309.597656 536.984375 309.597656 536.992188 309.601562 C 536.984375 309.597656 536.976562 309.597656 536.964844 309.597656 C 535.742188 309.425781 534.511719 309.257812 533.277344 309.082031 C 533.074219 309.054688 532.871094 309.023438 532.667969 308.996094 C 531.441406 308.820312 530.210938 308.644531 528.96875 308.464844 C 528.957031 308.460938 528.945312 308.460938 528.9375 308.457031 C 528.945312 308.460938 528.957031 308.460938 528.96875 308.464844 C 507.554688 305.339844 484.871094 301.316406 461.222656 296.414062 C 461.101562 296.386719 460.984375 296.363281 460.863281 296.339844 C 460.457031 296.253906 460.054688 296.171875 459.644531 296.085938 C 459.753906 296.105469 459.867188 296.128906 459.976562 296.152344 C 420.28125 287.882812 377.894531 277.144531 334.222656 264.019531 C 136.8125 204.695312 -11.960938 119.15625 1.925781 72.949219 Z M 1.925781 72.949219 " fill-opacity="1" fill-rule="evenodd"/><path fill="#000000" d="M 482.390625 300.613281 C 483.3125 300.792969 484.230469 300.964844 485.144531 301.136719 C 484.230469 300.964844 483.3125 300.792969 482.390625 300.613281 Z M 482.390625 300.613281 " fill-opacity="1" fill-rule="evenodd"/><path fill="#000000" d="M 473.050781 298.808594 C 476.046875 299.398438 479.023438 299.976562 481.984375 300.539062 C 479.023438 299.972656 476.046875 299.398438 473.050781 298.808594 Z M 473.050781 298.808594 " fill-opacity="1" fill-rule="evenodd"/><path fill="#000000" d="M 469.710938 298.144531 C 470.636719 298.328125 471.558594 298.511719 472.476562 298.695312 C 471.558594 298.511719 470.636719 298.328125 469.710938 298.144531 Z M 469.710938 298.144531 " fill-opacity="1" fill-rule="evenodd"/><path fill="#000000" d="M 460.347656 296.226562 C 463.242188 296.828125 466.128906 297.421875 469 297.996094 C 466.128906 297.421875 463.242188 296.832031 460.347656 296.226562 Z M 460.347656 296.226562 " fill-opacity="1" fill-rule="evenodd"/><path fill="#000000" d="M 459.980469 296.148438 C 460.101562 296.175781 460.226562 296.203125 460.347656 296.230469 C 460.113281 296.179688 459.878906 296.132812 459.644531 296.085938 C 459.757812 296.105469 459.867188 296.128906 459.980469 296.148438 Z M 459.980469 296.148438 " fill-opacity="1" fill-rule="evenodd"/><path fill="#ffffff" d="M 513.226562 302.851562 C 510.527344 302.472656 507.800781 302.085938 505.054688 301.679688 C 507.800781 302.085938 510.527344 302.476562 513.226562 302.851562 Z M 527.652344 304.730469 C 525.054688 304.414062 522.441406 304.082031 519.800781 303.738281 C 522.441406 304.082031 525.058594 304.414062 527.652344 304.730469 Z M 576.050781 309.121094 C 573.984375 309.007812 571.898438 308.886719 569.792969 308.75 C 571.898438 308.886719 573.984375 309.011719 576.050781 309.121094 Z M 435.125 289.097656 C 435.011719 289.074219 434.898438 289.054688 434.785156 289.027344 C 435.023438 289.078125 435.257812 289.128906 435.496094 289.175781 C 438.433594 289.789062 441.363281 290.398438 444.269531 290.988281 C 441.359375 290.398438 438.4375 289.792969 435.496094 289.175781 C 435.375 289.148438 435.25 289.125 435.128906 289.097656 C 561.289062 314.441406 654.609375 310.519531 664.722656 273.921875 C 672.257812 246.652344 632.0625 206.839844 562.238281 165.78125 C 561.324219 165.035156 546.855469 156.761719 546.800781 156.082031 C 555.5 160.371094 579.140625 172.320312 587.132812 176.601562 C 654.863281 216.382812 693.742188 254.875 686.378906 281.308594 C 676.402344 317.101562 584.386719 320.9375 459.980469 296.152344 C 421.195312 288.070312 379.84375 277.636719 337.238281 264.917969 C 371.0625 274.46875 403.917969 282.542969 435.125 289.097656 Z M 435.125 289.097656 " fill-opacity="1" fill-rule="evenodd"/></g></g></g><g fill="#ffffff" fill-opacity="1"><g transform="translate(671.711792, 902.357568)"><g><path d="M 71.863281 -128.933594 C 91.035156 -128.933594 106.28125 -124.066406 117.597656 -114.339844 C 129.085938 -104.464844 134.832031 -90.484375 134.832031 -72.398438 L 134.832031 -68.601562 L 89.515625 -68.601562 L 89.515625 -72.398438 C 89.515625 -78.578125 87.964844 -83.390625 84.859375 -86.839844 C 81.859375 -90.171875 77.46875 -91.839844 71.683594 -91.839844 C 64.964844 -91.839844 60.109375 -89.84375 57.113281 -85.851562 C 53.867188 -81.519531 52.242188 -75.308594 52.242188 -67.214844 L 52.242188 -55.773438 C 52.242188 -47.792969 53.871094 -41.601562 57.128906 -37.210938 C 60.121094 -33.167969 64.855469 -31.148438 71.324219 -31.148438 C 77.902344 -31.148438 82.789062 -32.746094 85.980469 -35.9375 C 89.171875 -39.125 90.765625 -43.773438 90.765625 -49.875 L 90.765625 -53.671875 L 134.832031 -53.671875 L 134.832031 -49.875 C 134.832031 -31.914062 129.242188 -18.085938 118.058594 -8.390625 C 107.035156 1.164062 91.636719 5.945312 71.863281 5.945312 C 49.84375 5.945312 33.070312 0.210938 21.542969 -11.25 C 10.011719 -22.71875 4.246094 -39.464844 4.246094 -61.492188 C 4.246094 -83.523438 10.011719 -100.269531 21.542969 -111.738281 C 33.070312 -123.199219 49.84375 -128.933594 71.863281 -128.933594 Z M 71.863281 -121.335938 C 51.933594 -121.335938 36.945312 -116.339844 26.902344 -106.351562 C 16.863281 -96.367188 11.84375 -81.414062 11.84375 -61.492188 C 11.84375 -41.574219 16.863281 -26.621094 26.902344 -16.636719 C 36.945312 -6.648438 51.933594 -1.652344 71.863281 -1.652344 C 89.746094 -1.652344 103.488281 -5.8125 113.082031 -14.132812 C 122.515625 -22.3125 127.234375 -34.226562 127.234375 -49.875 L 131.03125 -49.875 L 131.03125 -46.074219 L 94.566406 -46.074219 L 94.566406 -49.875 L 98.363281 -49.875 C 98.363281 -41.675781 96.027344 -35.238281 91.351562 -30.5625 C 86.675781 -25.890625 80.003906 -23.550781 71.324219 -23.550781 C 62.304688 -23.550781 55.535156 -26.597656 51.023438 -32.6875 C 46.773438 -38.421875 44.644531 -46.117188 44.644531 -55.773438 L 44.644531 -67.214844 C 44.644531 -76.996094 46.777344 -84.726562 51.035156 -90.410156 C 55.550781 -96.425781 62.433594 -99.4375 71.683594 -99.4375 C 79.722656 -99.4375 85.996094 -96.933594 90.507812 -91.921875 C 94.910156 -87.027344 97.113281 -80.519531 97.113281 -72.398438 L 93.3125 -72.398438 L 93.3125 -76.199219 L 131.03125 -76.199219 L 131.03125 -72.398438 L 127.234375 -72.398438 C 127.234375 -88.160156 122.371094 -100.21875 112.648438 -108.578125 C 102.753906 -117.082031 89.15625 -121.335938 71.863281 -121.335938 Z M 71.863281 -121.335938 "/></g></g></g><g fill="#ffffff" fill-opacity="1"><g transform="translate(809.171703, 902.357568)"><g><path d="M 74.363281 -128.933594 C 96.578125 -128.933594 113.832031 -123.167969 126.125 -111.636719 C 138.484375 -100.042969 144.664062 -83.328125 144.664062 -61.492188 C 144.664062 -39.660156 138.484375 -22.945312 126.125 -11.351562 C 113.832031 0.179688 96.582031 5.945312 74.363281 5.945312 C 52.148438 5.945312 34.925781 0.207031 22.695312 -11.261719 C 10.394531 -22.796875 4.246094 -39.542969 4.246094 -61.492188 C 4.246094 -83.445312 10.394531 -100.191406 22.695312 -111.726562 C 34.925781 -123.195312 52.148438 -128.933594 74.363281 -128.933594 Z M 74.363281 -121.335938 C 54.152344 -121.335938 38.664062 -116.285156 27.894531 -106.183594 C 17.191406 -96.148438 11.84375 -81.253906 11.84375 -61.492188 C 11.84375 -41.734375 17.191406 -26.839844 27.894531 -16.804688 C 38.664062 -6.703125 54.152344 -1.652344 74.363281 -1.652344 C 94.574219 -1.652344 110.097656 -6.734375 120.925781 -16.894531 C 131.6875 -26.988281 137.066406 -41.855469 137.066406 -61.492188 C 137.066406 -81.132812 131.6875 -96 120.925781 -106.09375 C 110.097656 -116.253906 94.574219 -121.335938 74.363281 -121.335938 Z M 74.363281 -91.839844 C 67.066406 -91.839844 61.589844 -89.71875 57.9375 -85.472656 C 54.140625 -81.0625 52.242188 -74.976562 52.242188 -67.214844 L 52.242188 -55.773438 C 52.242188 -48.011719 54.140625 -41.925781 57.9375 -37.515625 C 61.589844 -33.269531 67.066406 -31.148438 74.363281 -31.148438 C 81.675781 -31.148438 87.1875 -33.277344 90.898438 -37.535156 C 94.742188 -41.941406 96.664062 -48.023438 96.664062 -55.773438 L 96.664062 -67.214844 C 96.664062 -74.964844 94.742188 -81.046875 90.898438 -85.453125 C 87.1875 -89.710938 81.675781 -91.839844 74.363281 -91.839844 Z M 74.363281 -99.4375 C 83.976562 -99.4375 91.398438 -96.441406 96.625 -90.449219 C 101.714844 -84.609375 104.261719 -76.863281 104.261719 -67.214844 L 104.261719 -55.773438 C 104.261719 -46.125 101.714844 -38.378906 96.625 -32.539062 C 91.398438 -26.546875 83.976562 -23.550781 74.363281 -23.550781 C 64.742188 -23.550781 57.347656 -26.554688 52.179688 -32.558594 C 47.15625 -38.394531 44.644531 -46.132812 44.644531 -55.773438 L 44.644531 -67.214844 C 44.644531 -76.855469 47.15625 -84.59375 52.179688 -90.429688 C 57.347656 -96.433594 64.742188 -99.4375 74.363281 -99.4375 Z M 74.363281 -99.4375 "/></g></g></g><g fill="#ffffff" fill-opacity="1"><g transform="translate(956.462948, 902.357568)"><g><path d="M 13.226562 -126.785156 L 56.535156 -126.785156 L 56.535156 -31.460938 L 52.734375 -31.460938 L 52.734375 -35.261719 L 119.636719 -35.261719 L 119.636719 3.796875 L 9.429688 3.796875 L 9.429688 -126.785156 Z M 13.226562 -119.191406 L 13.226562 -122.988281 L 17.027344 -122.988281 L 17.027344 0 L 13.226562 0 L 13.226562 -3.796875 L 115.835938 -3.796875 L 115.835938 0 L 112.039062 0 L 112.039062 -31.460938 L 115.835938 -31.460938 L 115.835938 -27.664062 L 48.9375 -27.664062 L 48.9375 -122.988281 L 52.734375 -122.988281 L 52.734375 -119.191406 Z M 13.226562 -119.191406 "/></g></g></g><g fill="#ffffff" fill-opacity="1"><g transform="translate(1074.081432, 902.357568)"><g><path d="M 13.226562 -126.785156 L 56.535156 -126.785156 L 56.535156 -31.460938 L 52.734375 -31.460938 L 52.734375 -35.261719 L 119.636719 -35.261719 L 119.636719 3.796875 L 9.429688 3.796875 L 9.429688 -126.785156 Z M 13.226562 -119.191406 L 13.226562 -122.988281 L 17.027344 -122.988281 L 17.027344 0 L 13.226562 0 L 13.226562 -3.796875 L 115.835938 -3.796875 L 115.835938 0 L 112.039062 0 L 112.039062 -31.460938 L 115.835938 -31.460938 L 115.835938 -27.664062 L 48.9375 -27.664062 L 48.9375 -122.988281 L 52.734375 -122.988281 L 52.734375 -119.191406 Z M 13.226562 -119.191406 "/></g></g></g><g fill="#ffffff" fill-opacity="1"><g transform="translate(1191.699894, 902.357568)"><g><path d="M 92 1.089844 L 86.8125 -16.25 L 90.453125 -17.339844 L 90.453125 -13.542969 L 47.371094 -13.542969 L 47.371094 -17.339844 L 51.011719 -16.25 L 45.015625 3.796875 L -3.640625 3.796875 L 44 -126.785156 L 95.257812 -126.785156 L 142.898438 3.796875 L 92.808594 3.796875 Z M 99.277344 -1.089844 L 95.636719 0 L 95.636719 -3.796875 L 137.46875 -3.796875 L 137.46875 0 L 133.898438 1.300781 L 89.03125 -121.6875 L 92.597656 -122.988281 L 92.597656 -119.191406 L 46.65625 -119.191406 L 46.65625 -122.988281 L 50.226562 -121.6875 L 5.355469 1.300781 L 1.789062 0 L 1.789062 -3.796875 L 42.1875 -3.796875 L 42.1875 0 L 38.546875 -1.089844 L 44.542969 -21.140625 L 93.28125 -21.140625 Z M 55.59375 -48.667969 L 82.230469 -48.667969 L 82.230469 -44.871094 L 78.585938 -43.796875 L 65.714844 -87.59375 L 69.359375 -88.664062 L 69.359375 -84.867188 L 68.644531 -84.867188 L 68.644531 -88.664062 L 72.285156 -87.582031 L 59.234375 -43.785156 L 55.59375 -44.871094 Z M 50.5 -41.070312 L 65.8125 -92.464844 L 72.203125 -92.464844 L 87.304688 -41.070312 Z M 50.5 -41.070312 "/></g></g></g><g fill="#ffffff" fill-opacity="1"><g transform="translate(1329.159827, 902.357568)"><g><path d="M 87.816406 -91.527344 L 87.816406 3.796875 L 40.714844 3.796875 L 40.714844 -91.527344 L 44.511719 -91.527344 L 44.511719 -87.726562 L 0.3125 -87.726562 L 0.3125 -126.785156 L 128.039062 -126.785156 L 128.039062 -87.726562 L 84.019531 -87.726562 L 84.019531 -91.527344 Z M 80.21875 -95.324219 L 124.238281 -95.324219 L 124.238281 -91.527344 L 120.441406 -91.527344 L 120.441406 -122.988281 L 124.238281 -122.988281 L 124.238281 -119.191406 L 4.113281 -119.191406 L 4.113281 -122.988281 L 7.910156 -122.988281 L 7.910156 -91.527344 L 4.113281 -91.527344 L 4.113281 -95.324219 L 48.308594 -95.324219 L 48.308594 0 L 44.511719 0 L 44.511719 -3.796875 L 84.019531 -3.796875 L 84.019531 0 L 80.21875 0 Z M 80.21875 -95.324219 "/></g></g></g><g fill="#ffffff" fill-opacity="1"><g transform="translate(1456.609605, 902.357568)"><g><path d="M 13.226562 -126.785156 L 123.390625 -126.785156 L 123.390625 -89.695312 L 52.734375 -89.695312 L 52.734375 -93.492188 L 56.535156 -93.492188 L 56.535156 -76.511719 L 52.734375 -76.511719 L 52.734375 -80.308594 L 113.738281 -80.308594 L 113.738281 -44.46875 L 52.734375 -44.46875 L 52.734375 -48.265625 L 56.535156 -48.265625 L 56.535156 -29.496094 L 52.734375 -29.496094 L 52.734375 -33.292969 L 124.640625 -33.292969 L 124.640625 3.796875 L 9.429688 3.796875 L 9.429688 -126.785156 Z M 13.226562 -119.191406 L 13.226562 -122.988281 L 17.027344 -122.988281 L 17.027344 0 L 13.226562 0 L 13.226562 -3.796875 L 120.84375 -3.796875 L 120.84375 0 L 117.042969 0 L 117.042969 -29.496094 L 120.84375 -29.496094 L 120.84375 -25.695312 L 48.9375 -25.695312 L 48.9375 -52.066406 L 109.9375 -52.066406 L 109.9375 -48.265625 L 106.140625 -48.265625 L 106.140625 -76.511719 L 109.9375 -76.511719 L 109.9375 -72.710938 L 48.9375 -72.710938 L 48.9375 -97.292969 L 119.59375 -97.292969 L 119.59375 -93.492188 L 115.792969 -93.492188 L 115.792969 -122.988281 L 119.59375 -122.988281 L 119.59375 -119.191406 Z M 13.226562 -119.191406 "/></g></g></g><g fill="#ffffff" fill-opacity="1"><g transform="translate(1584.059383, 902.357568)"><g><path d="M 133.757812 -85.269531 C 133.757812 -76.996094 131.519531 -69.5 127.042969 -62.785156 C 122.535156 -56.019531 116.019531 -51.066406 107.5 -47.917969 L 106.183594 -51.484375 L 109.539062 -53.265625 L 139.855469 3.796875 L 86.824219 3.796875 L 63.976562 -43.207031 L 67.394531 -44.871094 L 67.394531 -41.070312 L 52.734375 -41.070312 L 52.734375 -44.871094 L 56.535156 -44.871094 L 56.535156 3.796875 L 9.429688 3.796875 L 9.429688 -126.785156 L 88.488281 -126.785156 C 97.949219 -126.785156 106.089844 -124.933594 112.914062 -121.230469 C 119.824219 -117.480469 125.039062 -112.386719 128.554688 -105.949219 C 132.023438 -99.601562 133.757812 -92.710938 133.757812 -85.269531 Z M 126.160156 -85.269531 C 126.160156 -91.414062 124.738281 -97.09375 121.890625 -102.308594 C 119.089844 -107.433594 114.890625 -111.515625 109.289062 -114.554688 C 103.597656 -117.644531 96.664062 -119.191406 88.488281 -119.191406 L 13.226562 -119.191406 L 13.226562 -122.988281 L 17.027344 -122.988281 L 17.027344 0 L 13.226562 0 L 13.226562 -3.796875 L 52.734375 -3.796875 L 52.734375 0 L 48.9375 0 L 48.9375 -48.667969 L 69.769531 -48.667969 L 92.617188 -1.660156 L 89.203125 0 L 89.203125 -3.796875 L 133.535156 -3.796875 L 133.535156 0 L 130.179688 1.78125 L 100.789062 -53.542969 L 104.867188 -55.046875 C 111.84375 -57.621094 117.125 -61.605469 120.722656 -66.996094 C 124.347656 -72.4375 126.160156 -78.527344 126.160156 -85.269531 Z M 85.941406 -83.660156 C 85.941406 -85.828125 85.238281 -87.617188 83.835938 -89.019531 C 82.429688 -90.421875 80.703125 -91.125 78.65625 -91.125 L 52.734375 -91.125 L 52.734375 -94.921875 L 56.535156 -94.921875 L 56.535156 -72.21875 L 52.734375 -72.21875 L 52.734375 -76.019531 L 78.65625 -76.019531 C 80.683594 -76.019531 82.398438 -76.738281 83.796875 -78.175781 C 85.226562 -79.644531 85.941406 -81.472656 85.941406 -83.660156 Z M 93.539062 -83.660156 C 93.539062 -79.414062 92.105469 -75.820312 89.242188 -72.878906 C 86.351562 -69.90625 82.824219 -68.421875 78.65625 -68.421875 L 48.9375 -68.421875 L 48.9375 -98.722656 L 78.65625 -98.722656 C 82.804688 -98.722656 86.320312 -97.277344 89.207031 -94.390625 C 92.09375 -91.503906 93.539062 -87.925781 93.539062 -83.660156 Z M 93.539062 -83.660156 "/></g></g></g><g fill="#ffffff" fill-opacity="1"><g transform="translate(1721.519316, 902.357568)"><g><path d="M 92 1.089844 L 86.8125 -16.25 L 90.453125 -17.339844 L 90.453125 -13.542969 L 47.371094 -13.542969 L 47.371094 -17.339844 L 51.011719 -16.25 L 45.015625 3.796875 L -3.640625 3.796875 L 44 -126.785156 L 95.257812 -126.785156 L 142.898438 3.796875 L 92.808594 3.796875 Z M 99.277344 -1.089844 L 95.636719 0 L 95.636719 -3.796875 L 137.46875 -3.796875 L 137.46875 0 L 133.898438 1.300781 L 89.03125 -121.6875 L 92.597656 -122.988281 L 92.597656 -119.191406 L 46.65625 -119.191406 L 46.65625 -122.988281 L 50.226562 -121.6875 L 5.355469 1.300781 L 1.789062 0 L 1.789062 -3.796875 L 42.1875 -3.796875 L 42.1875 0 L 38.546875 -1.089844 L 44.542969 -21.140625 L 93.28125 -21.140625 Z M 55.59375 -48.667969 L 82.230469 -48.667969 L 82.230469 -44.871094 L 78.585938 -43.796875 L 65.714844 -87.59375 L 69.359375 -88.664062 L 69.359375 -84.867188 L 68.644531 -84.867188 L 68.644531 -88.664062 L 72.285156 -87.582031 L 59.234375 -43.785156 L 55.59375 -44.871094 Z M 50.5 -41.070312 L 65.8125 -92.464844 L 72.203125 -92.464844 L 87.304688 -41.070312 Z M 50.5 -41.070312 "/></g></g></g><g fill="#ffffff" fill-opacity="1"><g transform="translate(1858.979249, 902.357568)"><g><path d="M 13.226562 -126.785156 L 56.535156 -126.785156 L 56.535156 -31.460938 L 52.734375 -31.460938 L 52.734375 -35.261719 L 119.636719 -35.261719 L 119.636719 3.796875 L 9.429688 3.796875 L 9.429688 -126.785156 Z M 13.226562 -119.191406 L 13.226562 -122.988281 L 17.027344 -122.988281 L 17.027344 0 L 13.226562 0 L 13.226562 -3.796875 L 115.835938 -3.796875 L 115.835938 0 L 112.039062 0 L 112.039062 -31.460938 L 115.835938 -31.460938 L 115.835938 -27.664062 L 48.9375 -27.664062 L 48.9375 -122.988281 L 52.734375 -122.988281 L 52.734375 -119.191406 Z M 13.226562 -119.191406 "/></g></g></g><g fill="#000000" fill-opacity="1"><g transform="translate(671.711792, 902.357568)"><g><path d="M 71.859375 -125.140625 C 90.097656 -125.140625 104.519531 -120.578125 115.125 -111.453125 C 125.726562 -102.335938 131.03125 -89.320312 131.03125 -72.40625 L 93.3125 -72.40625 C 93.3125 -79.550781 91.429688 -85.207031 87.671875 -89.375 C 83.921875 -93.550781 78.59375 -95.640625 71.6875 -95.640625 C 63.695312 -95.640625 57.828125 -93.132812 54.078125 -88.125 C 50.328125 -83.125 48.453125 -76.15625 48.453125 -67.21875 L 48.453125 -55.78125 C 48.453125 -46.957031 50.328125 -40.007812 54.078125 -34.9375 C 57.828125 -29.875 63.578125 -27.34375 71.328125 -27.34375 C 78.953125 -27.34375 84.726562 -29.3125 88.65625 -33.25 C 92.59375 -37.1875 94.5625 -42.726562 94.5625 -49.875 L 131.03125 -49.875 C 131.03125 -33.070312 125.875 -20.203125 115.5625 -11.265625 C 105.257812 -2.328125 90.691406 2.140625 71.859375 2.140625 C 50.890625 2.140625 35.007812 -3.21875 24.21875 -13.9375 C 13.4375 -24.664062 8.046875 -40.519531 8.046875 -61.5 C 8.046875 -82.46875 13.4375 -98.316406 24.21875 -109.046875 C 35.007812 -119.773438 50.890625 -125.140625 71.859375 -125.140625 Z M 71.859375 -125.140625 "/></g></g></g><g fill="#000000" fill-opacity="1"><g transform="translate(809.171703, 902.357568)"><g><path d="M 74.359375 -125.140625 C 95.578125 -125.140625 111.96875 -119.710938 123.53125 -108.859375 C 135.09375 -98.015625 140.875 -82.226562 140.875 -61.5 C 140.875 -40.757812 135.09375 -24.96875 123.53125 -14.125 C 111.96875 -3.28125 95.578125 2.140625 74.359375 2.140625 C 53.148438 2.140625 36.796875 -3.25 25.296875 -14.03125 C 13.796875 -24.820312 8.046875 -40.644531 8.046875 -61.5 C 8.046875 -82.351562 13.796875 -98.171875 25.296875 -108.953125 C 36.796875 -119.742188 53.148438 -125.140625 74.359375 -125.140625 Z M 74.359375 -95.640625 C 65.898438 -95.640625 59.46875 -93.078125 55.0625 -87.953125 C 50.65625 -82.828125 48.453125 -75.914062 48.453125 -67.21875 L 48.453125 -55.78125 C 48.453125 -47.070312 50.65625 -40.15625 55.0625 -35.03125 C 59.46875 -29.90625 65.898438 -27.34375 74.359375 -27.34375 C 82.828125 -27.34375 89.296875 -29.90625 93.765625 -35.03125 C 98.234375 -40.15625 100.46875 -47.070312 100.46875 -55.78125 L 100.46875 -67.21875 C 100.46875 -75.914062 98.234375 -82.828125 93.765625 -87.953125 C 89.296875 -93.078125 82.828125 -95.640625 74.359375 -95.640625 Z M 74.359375 -95.640625 "/></g></g></g><g fill="#000000" fill-opacity="1"><g transform="translate(956.462948, 902.357568)"><g><path d="M 13.234375 -122.984375 L 52.734375 -122.984375 L 52.734375 -31.46875 L 115.84375 -31.46875 L 115.84375 0 L 13.234375 0 Z M 13.234375 -122.984375 "/></g></g></g><g fill="#000000" fill-opacity="1"><g transform="translate(1074.081432, 902.357568)"><g><path d="M 13.234375 -122.984375 L 52.734375 -122.984375 L 52.734375 -31.46875 L 115.84375 -31.46875 L 115.84375 0 L 13.234375 0 Z M 13.234375 -122.984375 "/></g></g></g><g fill="#000000" fill-opacity="1"><g transform="translate(1191.699894, 902.357568)"><g><path d="M 95.640625 0 L 90.453125 -17.34375 L 47.375 -17.34375 L 42.1875 0 L 1.78125 0 L 46.65625 -122.984375 L 92.59375 -122.984375 L 137.46875 0 Z M 55.59375 -44.875 L 82.234375 -44.875 L 69.359375 -88.671875 L 68.640625 -88.671875 Z M 55.59375 -44.875 "/></g></g></g><g fill="#000000" fill-opacity="1"><g transform="translate(1329.159827, 902.357568)"><g><path d="M 84.015625 -91.53125 L 84.015625 0 L 44.515625 0 L 44.515625 -91.53125 L 4.109375 -91.53125 L 4.109375 -122.984375 L 124.234375 -122.984375 L 124.234375 -91.53125 Z M 84.015625 -91.53125 "/></g></g></g><g fill="#000000" fill-opacity="1"><g transform="translate(1456.609605, 902.357568)"><g><path d="M 13.234375 -122.984375 L 119.59375 -122.984375 L 119.59375 -93.5 L 52.734375 -93.5 L 52.734375 -76.515625 L 109.9375 -76.515625 L 109.9375 -48.265625 L 52.734375 -48.265625 L 52.734375 -29.5 L 120.84375 -29.5 L 120.84375 0 L 13.234375 0 Z M 13.234375 -122.984375 "/></g></g></g><g fill="#000000" fill-opacity="1"><g transform="translate(1584.059383, 902.357568)"><g><path d="M 129.96875 -85.265625 C 129.96875 -77.765625 127.941406 -70.972656 123.890625 -64.890625 C 119.835938 -58.816406 113.9375 -54.347656 106.1875 -51.484375 L 133.53125 0 L 89.203125 0 L 67.390625 -44.875 L 52.734375 -44.875 L 52.734375 0 L 13.234375 0 L 13.234375 -122.984375 L 88.484375 -122.984375 C 97.304688 -122.984375 104.84375 -121.285156 111.09375 -117.890625 C 117.351562 -114.492188 122.0625 -109.90625 125.21875 -104.125 C 128.382812 -98.34375 129.96875 -92.054688 129.96875 -85.265625 Z M 89.734375 -83.65625 C 89.734375 -86.875 88.660156 -89.554688 86.515625 -91.703125 C 84.378906 -93.847656 81.757812 -94.921875 78.65625 -94.921875 L 52.734375 -94.921875 L 52.734375 -72.21875 L 78.65625 -72.21875 C 81.757812 -72.21875 84.378906 -73.316406 86.515625 -75.515625 C 88.660156 -77.722656 89.734375 -80.4375 89.734375 -83.65625 Z M 89.734375 -83.65625 "/></g></g></g><g fill="#000000" fill-opacity="1"><g transform="translate(1721.519316, 902.357568)"><g><path d="M 95.640625 0 L 90.453125 -17.34375 L 47.375 -17.34375 L 42.1875 0 L 1.78125 0 L 46.65625 -122.984375 L 92.59375 -122.984375 L 137.46875 0 Z M 55.59375 -44.875 L 82.234375 -44.875 L 69.359375 -88.671875 L 68.640625 -88.671875 Z M 55.59375 -44.875 "/></g></g></g><g fill="#000000" fill-opacity="1"><g transform="translate(1858.979249, 902.357568)"><g><path d="M 13.234375 -122.984375 L 52.734375 -122.984375 L 52.734375 -31.46875 L 115.84375 -31.46875 L 115.84375 0 L 13.234375 0 Z M 13.234375 -122.984375 "/></g></g></g></svg>