<svg xmlns="http://www.w3.org/2000/svg" xmlns:xlink="http://www.w3.org/1999/xlink" width="2250" zoomAndPan="magnify" viewBox="0 0 1687.5 862.499974" height="1150" preserveAspectRatio="xMidYMid meet" version="1.0"><defs><g/><clipPath id="4e1e9a47d3"><path d="M 0.238281 0 L 1686.761719 0 L 1686.761719 862 L 0.238281 862 Z M 0.238281 0 " clip-rule="nonzero"/></clipPath><clipPath id="976ab468dd"><path d="M 1540 37 L 1680.824219 37 L 1680.824219 204 L 1540 204 Z M 1540 37 " clip-rule="nonzero"/></clipPath><clipPath id="555d199de9"><rect x="0" width="1681" y="0" height="248"/></clipPath></defs><g clip-path="url(#4e1e9a47d3)"><path fill="#ffffff" d="M 0.238281 0 L 1686.761719 0 L 1686.761719 862 L 0.238281 862 Z M 0.238281 0 " fill-opacity="1" fill-rule="nonzero"/><path fill="#ffffff" d="M 0.238281 0 L 1686.761719 0 L 1686.761719 862 L 0.238281 862 Z M 0.238281 0 " fill-opacity="1" fill-rule="nonzero"/></g><path fill="#752122" d="M 868.296875 31.25 C 874.457031 31.25 880.617188 31.402344 886.769531 31.703125 C 892.921875 32.003906 899.066406 32.457031 905.195312 33.058594 C 911.328125 33.664062 917.441406 34.417969 923.535156 35.320312 C 929.628906 36.222656 935.699219 37.277344 941.742188 38.476562 C 947.785156 39.679688 953.792969 41.027344 959.769531 42.523438 C 965.746094 44.019531 971.683594 45.664062 977.578125 47.449219 C 983.476562 49.238281 989.324219 51.171875 995.125 53.246094 C 1000.925781 55.320312 1006.671875 57.535156 1012.363281 59.894531 C 1018.058594 62.25 1023.6875 64.746094 1029.257812 67.378906 C 1034.828125 70.015625 1040.328125 72.78125 1045.761719 75.6875 C 1051.199219 78.589844 1056.558594 81.625 1061.839844 84.792969 C 1067.125 87.960938 1072.332031 91.253906 1077.453125 94.675781 C 1082.578125 98.101562 1087.613281 101.644531 1092.5625 105.316406 C 1097.511719 108.984375 1102.367188 112.773438 1107.128906 116.683594 C 1111.890625 120.589844 1116.554688 124.613281 1121.121094 128.75 C 1125.6875 132.886719 1130.148438 137.132812 1134.503906 141.492188 C 1138.863281 145.847656 1143.109375 150.308594 1147.246094 154.871094 C 1151.382812 159.4375 1155.40625 164.101562 1159.316406 168.863281 C 1163.226562 173.625 1167.015625 178.480469 1170.6875 183.429688 C 1174.355469 188.375 1177.902344 193.410156 1181.328125 198.535156 C 1184.75 203.65625 1188.046875 208.859375 1191.214844 214.144531 C 1194.382812 219.429688 1197.417969 224.789062 1200.324219 230.222656 C 1203.226562 235.65625 1205.996094 241.15625 1208.632812 246.726562 C 1211.265625 252.292969 1213.761719 257.925781 1216.121094 263.617188 C 1218.480469 269.308594 1220.695312 275.054688 1222.773438 280.855469 C 1224.847656 286.65625 1226.78125 292.503906 1228.570312 298.402344 C 1230.359375 304.296875 1232 310.234375 1233.5 316.207031 C 1234.996094 322.183594 1236.347656 328.195312 1237.546875 334.238281 C 1238.75 340.28125 1239.804688 346.347656 1240.707031 352.441406 C 1241.613281 358.535156 1242.367188 364.648438 1242.972656 370.78125 C 1243.574219 376.914062 1244.03125 383.054688 1244.332031 389.207031 C 1244.632812 395.363281 1244.785156 401.519531 1244.785156 407.679688 C 1244.785156 413.84375 1244.636719 420 1244.335938 426.152344 C 1244.03125 432.304688 1243.578125 438.449219 1242.976562 444.582031 C 1242.371094 450.710938 1241.617188 456.824219 1240.714844 462.917969 C 1239.8125 469.015625 1238.757812 475.082031 1237.558594 481.125 C 1236.355469 487.167969 1235.007812 493.175781 1233.511719 499.152344 C 1232.011719 505.128906 1230.371094 511.066406 1228.582031 516.960938 C 1226.792969 522.859375 1224.863281 528.707031 1222.789062 534.507812 C 1220.710938 540.308594 1218.496094 546.054688 1216.140625 551.746094 C 1213.78125 557.441406 1211.285156 563.070312 1208.652344 568.640625 C 1206.019531 574.210938 1203.25 579.710938 1200.34375 585.144531 C 1197.441406 590.578125 1194.40625 595.9375 1191.238281 601.222656 C 1188.070312 606.507812 1184.777344 611.710938 1181.351562 616.835938 C 1177.929688 621.957031 1174.382812 626.992188 1170.714844 631.941406 C 1167.042969 636.890625 1163.253906 641.746094 1159.347656 646.511719 C 1155.4375 651.273438 1151.417969 655.9375 1147.277344 660.503906 C 1143.140625 665.066406 1138.894531 669.527344 1134.539062 673.886719 C 1130.183594 678.242188 1125.722656 682.488281 1121.15625 686.625 C 1116.59375 690.765625 1111.929688 694.789062 1107.164062 698.695312 C 1102.402344 702.605469 1097.546875 706.394531 1092.597656 710.066406 C 1087.652344 713.734375 1082.617188 717.28125 1077.492188 720.707031 C 1072.371094 724.128906 1067.167969 727.425781 1061.882812 730.589844 C 1056.597656 733.757812 1051.238281 736.796875 1045.804688 739.699219 C 1040.371094 742.605469 1034.871094 745.375 1029.300781 748.007812 C 1023.730469 750.644531 1018.101562 753.140625 1012.410156 755.496094 C 1006.71875 757.855469 1000.96875 760.070312 995.167969 762.148438 C 989.367188 764.222656 983.519531 766.15625 977.625 767.945312 C 971.730469 769.734375 965.792969 771.375 959.816406 772.875 C 953.839844 774.371094 947.832031 775.71875 941.789062 776.921875 C 935.746094 778.125 929.675781 779.175781 923.582031 780.082031 C 917.488281 780.984375 911.375 781.742188 905.246094 782.34375 C 899.113281 782.949219 892.96875 783.402344 886.816406 783.703125 C 880.664062 784.007812 874.503906 784.15625 868.34375 784.160156 C 862.183594 784.160156 856.027344 784.007812 849.871094 783.707031 C 843.71875 783.402344 837.578125 782.949219 831.445312 782.347656 C 825.3125 781.742188 819.199219 780.988281 813.105469 780.085938 C 807.011719 779.179688 800.941406 778.128906 794.902344 776.925781 C 788.859375 775.726562 782.847656 774.375 776.871094 772.878906 C 770.894531 771.382812 764.960938 769.738281 759.0625 767.953125 C 753.167969 766.164062 747.320312 764.230469 741.519531 762.15625 C 735.71875 760.078125 729.96875 757.863281 724.277344 755.507812 C 718.585938 753.148438 712.957031 750.652344 707.386719 748.019531 C 701.816406 745.382812 696.316406 742.613281 690.878906 739.710938 C 685.445312 736.808594 680.089844 733.769531 674.804688 730.605469 C 669.519531 727.4375 664.316406 724.140625 659.191406 720.71875 C 654.070312 717.296875 649.035156 713.75 644.085938 710.078125 C 639.136719 706.410156 634.28125 702.621094 629.519531 698.710938 C 624.753906 694.804688 620.089844 690.78125 615.527344 686.644531 C 610.960938 682.503906 606.5 678.257812 602.144531 673.902344 C 597.789062 669.546875 593.539062 665.085938 589.402344 660.519531 C 585.265625 655.953125 581.242188 651.289062 577.332031 646.527344 C 573.425781 641.765625 569.636719 636.910156 565.964844 631.960938 C 562.292969 627.011719 558.75 621.976562 555.324219 616.855469 C 551.902344 611.730469 548.605469 606.527344 545.441406 601.242188 C 542.273438 595.960938 539.234375 590.601562 536.332031 585.167969 C 533.425781 579.734375 530.65625 574.230469 528.023438 568.664062 C 525.390625 563.09375 522.894531 557.460938 520.535156 551.769531 C 518.179688 546.078125 515.960938 540.332031 513.886719 534.53125 C 511.808594 528.730469 509.878906 522.882812 508.089844 516.984375 C 506.300781 511.089844 504.660156 505.152344 503.160156 499.175781 C 501.664062 493.199219 500.316406 487.191406 499.113281 481.148438 C 497.910156 475.105469 496.859375 469.039062 495.953125 462.941406 C 495.050781 456.847656 494.296875 450.734375 493.691406 444.605469 C 493.085938 438.472656 492.632812 432.332031 492.332031 426.175781 C 492.03125 420.023438 491.878906 413.867188 491.878906 407.703125 C 491.878906 401.542969 492.03125 395.386719 492.332031 389.234375 C 492.632812 383.082031 493.085938 376.9375 493.691406 370.808594 C 494.296875 364.675781 495.050781 358.566406 495.953125 352.46875 C 496.855469 346.375 497.910156 340.308594 499.113281 334.265625 C 500.3125 328.222656 501.664062 322.214844 503.160156 316.238281 C 504.65625 310.261719 506.296875 304.328125 508.085938 298.433594 C 509.875 292.535156 511.808594 286.6875 513.882812 280.886719 C 515.957031 275.085938 518.175781 269.339844 520.53125 263.648438 C 522.890625 257.957031 525.382812 252.328125 528.019531 246.757812 C 530.652344 241.191406 533.421875 235.6875 536.324219 230.253906 C 539.230469 224.820312 542.265625 219.464844 545.429688 214.179688 C 548.597656 208.894531 551.894531 203.691406 555.316406 198.570312 C 558.738281 193.445312 562.285156 188.410156 565.953125 183.460938 C 569.625 178.515625 573.410156 173.660156 577.320312 168.898438 C 581.226562 164.132812 585.25 159.472656 589.386719 154.90625 C 593.523438 150.339844 597.769531 145.878906 602.128906 141.523438 C 606.484375 137.167969 610.941406 132.921875 615.507812 128.785156 C 620.070312 124.644531 624.734375 120.621094 629.496094 116.714844 C 634.257812 112.804688 639.113281 109.015625 644.0625 105.347656 C 649.011719 101.675781 654.046875 98.128906 659.167969 94.707031 C 664.289062 91.285156 669.492188 87.988281 674.777344 84.820312 C 680.0625 81.652344 685.417969 78.617188 690.851562 75.714844 C 696.285156 72.808594 701.785156 70.039062 707.355469 67.40625 C 712.921875 64.769531 718.554688 62.273438 724.246094 59.917969 C 729.9375 57.558594 735.683594 55.34375 741.484375 53.265625 C 747.285156 51.191406 753.132812 49.257812 759.027344 47.46875 C 764.921875 45.679688 770.855469 44.039062 776.832031 42.539062 C 782.808594 41.042969 788.816406 39.691406 794.859375 38.488281 C 800.902344 37.289062 806.96875 36.234375 813.0625 35.328125 C 819.15625 34.425781 825.269531 33.671875 831.402344 33.066406 C 837.53125 32.460938 843.671875 32.007812 849.828125 31.707031 C 855.980469 31.402344 862.136719 31.25 868.296875 31.25 Z M 868.296875 31.25 " fill-opacity="1" fill-rule="nonzero"/><path fill="#3b0001" d="M 1226.722656 523.152344 C 1224.441406 530.226562 1221.957031 537.226562 1219.261719 544.15625 C 1216.566406 551.082031 1213.671875 557.925781 1210.570312 564.679688 C 1207.472656 571.433594 1204.175781 578.09375 1200.683594 584.652344 C 1197.191406 591.214844 1193.503906 597.664062 1189.628906 604.007812 C 1185.753906 610.351562 1181.695312 616.570312 1177.453125 622.675781 C 1173.207031 628.777344 1168.785156 634.746094 1164.1875 640.585938 C 1159.589844 646.425781 1154.824219 652.125 1149.890625 657.683594 C 1144.953125 663.242188 1139.859375 668.648438 1134.605469 673.902344 C 1129.347656 679.160156 1123.941406 684.253906 1118.386719 689.191406 C 1112.828125 694.125 1107.128906 698.894531 1101.289062 703.492188 C 1095.453125 708.089844 1089.480469 712.511719 1083.378906 716.757812 C 1077.277344 721 1071.058594 725.0625 1064.714844 728.9375 C 1058.375 732.8125 1051.921875 736.5 1045.363281 739.992188 C 1038.800781 743.488281 1032.144531 746.785156 1025.390625 749.882812 C 1018.632812 752.984375 1011.792969 755.882812 1004.867188 758.578125 C 997.9375 761.269531 990.9375 763.757812 983.863281 766.039062 C 976.789062 768.320312 969.65625 770.386719 962.457031 772.246094 C 955.261719 774.101562 948.015625 775.746094 940.722656 777.171875 C 933.429688 778.601562 926.097656 779.8125 918.730469 780.808594 C 911.367188 781.800781 903.976562 782.578125 896.566406 783.132812 C 889.15625 783.691406 881.734375 784.027344 874.300781 784.144531 C 866.871094 784.261719 859.441406 784.160156 852.015625 783.835938 C 844.589844 783.511719 837.179688 782.96875 829.785156 782.207031 C 822.394531 781.445312 815.027344 780.46875 807.695312 779.269531 C 800.359375 778.070312 793.066406 776.65625 785.8125 775.027344 C 778.5625 773.398438 771.363281 771.554688 764.222656 769.5 C 757.078125 767.441406 750.003906 765.175781 742.996094 762.703125 C 735.988281 760.226562 729.058594 757.546875 722.207031 754.660156 C 715.359375 751.777344 708.601562 748.691406 701.933594 745.402344 C 695.265625 742.117188 688.703125 738.636719 682.242188 734.964844 C 675.78125 731.289062 669.433594 727.425781 663.203125 723.375 C 656.972656 719.324219 650.863281 715.09375 644.882812 710.683594 C 638.902344 706.269531 633.054688 701.6875 627.347656 696.925781 C 621.636719 692.167969 616.074219 687.246094 610.652344 682.160156 C 605.234375 677.070312 599.972656 671.828125 594.863281 666.425781 C 589.757812 661.027344 584.8125 655.480469 580.035156 649.789062 C 575.253906 644.097656 570.648438 638.269531 566.214844 632.304688 C 561.78125 626.339844 557.527344 620.246094 553.453125 614.03125 C 549.378906 607.8125 545.496094 601.480469 541.796875 595.035156 C 538.097656 588.585938 534.59375 582.035156 531.285156 575.382812 C 527.972656 568.726562 524.863281 561.980469 521.953125 555.140625 C 519.039062 548.300781 516.335938 541.382812 513.835938 534.382812 C 511.332031 527.386719 509.042969 520.316406 506.960938 513.183594 C 504.875 506.046875 503.007812 498.859375 501.351562 491.613281 C 499.695312 484.367188 498.253906 477.078125 497.027344 469.746094 C 495.804688 462.417969 494.796875 455.054688 494.007812 447.664062 C 493.21875 440.273438 492.648438 432.867188 492.300781 425.441406 C 491.949219 418.019531 491.816406 410.589844 491.90625 403.160156 C 491.996094 395.726562 492.308594 388.304688 492.835938 380.890625 C 493.367188 373.476562 494.113281 366.085938 495.082031 358.714844 C 496.046875 351.347656 497.230469 344.011719 498.632812 336.710938 C 500.035156 329.414062 501.652344 322.160156 503.480469 314.957031 C 505.3125 307.753906 507.355469 300.613281 509.609375 293.527344 C 511.863281 286.445312 514.324219 279.4375 516.996094 272.5 C 519.664062 265.5625 522.535156 258.710938 525.609375 251.945312 C 528.683594 245.179688 531.957031 238.507812 535.425781 231.933594 C 538.898438 225.363281 542.558594 218.898438 546.410156 212.542969 C 550.265625 206.1875 554.300781 199.949219 558.523438 193.832031 C 562.746094 187.714844 567.144531 181.730469 571.722656 175.871094 C 576.300781 170.015625 581.046875 164.300781 585.960938 158.726562 C 590.875 153.148438 595.953125 147.726562 601.1875 142.449219 C 606.425781 137.175781 611.8125 132.0625 617.351562 127.105469 C 622.890625 122.148438 628.574219 117.363281 634.394531 112.742188 C 640.21875 108.125 646.171875 103.679688 652.257812 99.414062 C 650 106.445312 647.949219 113.535156 646.109375 120.683594 C 644.265625 127.832031 642.636719 135.03125 641.21875 142.273438 C 639.800781 149.519531 638.59375 156.800781 637.605469 164.117188 C 636.613281 171.433594 635.839844 178.773438 635.28125 186.132812 C 634.722656 193.496094 634.378906 200.867188 634.253906 208.25 C 634.128906 215.632812 634.21875 223.011719 634.527344 230.386719 C 634.835938 237.765625 635.363281 245.125 636.101562 252.472656 C 636.84375 259.816406 637.800781 267.132812 638.972656 274.421875 C 640.144531 281.714844 641.527344 288.960938 643.125 296.167969 C 644.722656 303.378906 646.53125 310.53125 648.550781 317.632812 C 650.570312 324.734375 652.796875 331.773438 655.226562 338.742188 C 657.660156 345.714844 660.296875 352.605469 663.132812 359.421875 C 665.96875 366.238281 669.003906 372.964844 672.238281 379.601562 C 675.472656 386.238281 678.898438 392.777344 682.515625 399.210938 C 686.132812 405.648438 689.9375 411.972656 693.925781 418.183594 C 697.914062 424.398438 702.082031 430.488281 706.429688 436.453125 C 710.777344 442.421875 715.296875 448.253906 719.988281 453.957031 C 724.679688 459.660156 729.53125 465.21875 734.550781 470.632812 C 739.566406 476.050781 744.742188 481.3125 750.066406 486.425781 C 755.394531 491.535156 760.867188 496.488281 766.484375 501.277344 C 772.101562 506.066406 777.855469 510.6875 783.746094 515.140625 C 789.636719 519.59375 795.652344 523.867188 801.792969 527.964844 C 807.933594 532.0625 814.191406 535.976562 820.5625 539.707031 C 826.933594 543.4375 833.410156 546.976562 839.988281 550.328125 C 846.570312 553.675781 853.242188 556.828125 860.003906 559.785156 C 866.769531 562.742188 873.617188 565.5 880.542969 568.054688 C 887.46875 570.609375 894.464844 572.957031 901.53125 575.097656 C 908.597656 577.242188 915.71875 579.175781 922.898438 580.902344 C 930.078125 582.625 937.300781 584.136719 944.566406 585.4375 C 951.835938 586.734375 959.132812 587.820312 966.464844 588.691406 C 973.796875 589.5625 981.148438 590.214844 988.519531 590.652344 C 995.886719 591.089844 1003.265625 591.3125 1010.648438 591.316406 C 1020.242188 591.335938 1029.824219 590.984375 1039.394531 590.261719 C 1048.960938 589.542969 1058.488281 588.457031 1067.972656 587.007812 C 1077.457031 585.554688 1086.875 583.742188 1096.21875 581.566406 C 1105.566406 579.390625 1114.8125 576.859375 1123.964844 573.972656 C 1133.113281 571.085938 1142.140625 567.851562 1151.042969 564.269531 C 1159.945312 560.6875 1168.699219 556.769531 1177.300781 552.519531 C 1185.898438 548.265625 1194.324219 543.6875 1202.574219 538.785156 C 1210.824219 533.882812 1218.871094 528.671875 1226.722656 523.152344 Z M 1226.722656 523.152344 " fill-opacity="1" fill-rule="nonzero"/><path fill="#752122" d="M 491.628906 295.710938 C 419.226562 242.585938 378.390625 203.78125 385.625 191.238281 C 392.855469 178.695312 447.265625 194.445312 534.636719 233.285156 C 544.898438 213.785156 556.773438 195.328125 570.269531 177.914062 C 351.988281 75.46875 198.660156 31.855469 177.105469 69.164062 C 157.613281 102.976562 248.761719 195.515625 404.792969 310.179688 C 507.34375 385.542969 637.933594 470.523438 783.5625 554.507812 C 902.753906 623.316406 1017.347656 683.105469 1118.933594 730.566406 C 1330.375 829.410156 1485.234375 874.878906 1507.144531 837.035156 C 1529.058594 799.195312 1413.683594 688.308594 1216.566406 551.089844 C 1208.171875 571.425781 1198.078125 590.882812 1186.277344 609.453125 C 1262.996094 665.289062 1304.46875 704.914062 1297.238281 717.492188 C 1288.6875 732.242188 1215.53125 707.585938 1107.886719 656.914062 C 1025.613281 618.253906 923.242188 564.273438 814.207031 501.453125 C 684.042969 426.269531 569.558594 352.757812 491.628906 295.710938 Z M 491.628906 295.710938 " fill-opacity="1" fill-rule="nonzero"/><path fill="#000000" d="M 286.066406 134.191406 C 300.320312 109.25 401.660156 137.503906 551.027344 205.0625 C 552.882812 202.179688 554.589844 199.328125 556.65625 196.511719 C 560.957031 190.144531 565.4375 183.945312 570.089844 177.914062 C 351.953125 75.46875 198.660156 31.855469 177.105469 69.164062 C 157.613281 102.976562 248.761719 195.515625 404.792969 310.179688 C 432.410156 330.5625 462.019531 351.40625 493.375 372.855469 C 578.894531 431.113281 677.128906 493.007812 783.5625 554.582031 C 889.996094 616.152344 992.867188 670.347656 1086.007812 714.925781 C 1097.125 720.269531 1108.101562 725.472656 1118.933594 730.53125 C 1330.375 829.410156 1485.234375 874.878906 1507.144531 837.035156 C 1529.058594 799.195312 1413.683594 688.308594 1216.566406 551.089844 C 1212.3125 561.351562 1207.644531 571.375 1202.5625 581.160156 C 1335.398438 676.511719 1410.796875 750.273438 1396.402344 775.214844 C 1381.117188 801.6875 1269.050781 768.089844 1111.523438 695.257812 C 1100.121094 689.984375 1088.503906 684.519531 1076.675781 678.867188 C 992.296875 638.53125 896.839844 588.179688 797.316406 530.742188 C 683.902344 465.25 581.101562 399.6875 497.792969 340.929688 C 491.84375 336.726562 485.964844 332.554688 480.226562 328.421875 C 349.101562 234.355469 271.421875 159.527344 286.066406 134.191406 Z M 286.066406 134.191406 " fill-opacity="1" fill-rule="nonzero"/><path fill="#ffffff" d="M 948.253906 109.640625 C 947.671875 109.488281 947.097656 109.304688 946.53125 109.09375 C 945.964844 108.882812 945.410156 108.644531 944.867188 108.378906 C 944.328125 108.113281 943.796875 107.824219 943.285156 107.503906 C 942.769531 107.1875 942.273438 106.847656 941.792969 106.480469 C 941.3125 106.113281 940.851562 105.726562 940.410156 105.3125 C 939.96875 104.902344 939.546875 104.46875 939.148438 104.019531 C 938.75 103.566406 938.371094 103.09375 938.019531 102.605469 C 937.664062 102.113281 937.335938 101.609375 937.035156 101.085938 C 936.730469 100.5625 936.453125 100.027344 936.203125 99.480469 C 935.953125 98.929688 935.730469 98.371094 935.53125 97.796875 C 935.335938 97.226562 935.167969 96.648438 935.03125 96.058594 C 934.890625 95.472656 934.78125 94.878906 934.703125 94.28125 C 934.621094 93.683594 934.570312 93.082031 934.550781 92.476562 C 934.527344 91.875 934.535156 91.273438 934.574219 90.667969 C 934.609375 90.066406 934.679688 89.46875 934.773438 88.871094 C 934.871094 88.273438 934.996094 87.683594 935.152344 87.101562 C 935.308594 86.519531 935.488281 85.945312 935.699219 85.378906 C 935.910156 84.8125 936.152344 84.257812 936.417969 83.714844 C 936.679688 83.171875 936.972656 82.644531 937.289062 82.132812 C 937.609375 81.617188 937.949219 81.121094 938.316406 80.640625 C 938.683594 80.160156 939.070312 79.699219 939.484375 79.257812 C 939.894531 78.816406 940.328125 78.394531 940.78125 77.996094 C 941.234375 77.597656 941.703125 77.222656 942.195312 76.867188 C 942.683594 76.515625 943.191406 76.1875 943.710938 75.882812 C 944.234375 75.582031 944.769531 75.304688 945.320312 75.054688 C 945.871094 74.804688 946.429688 74.582031 947 74.382812 C 947.574219 74.1875 948.152344 74.023438 948.738281 73.882812 C 949.328125 73.746094 949.921875 73.636719 950.519531 73.554688 C 951.117188 73.476562 951.71875 73.425781 952.320312 73.402344 C 952.925781 73.382812 953.527344 73.390625 954.132812 73.429688 C 954.734375 73.464844 955.332031 73.535156 955.929688 73.632812 C 956.523438 73.726562 957.113281 73.855469 957.699219 74.007812 C 986.96875 81.871094 1014.726562 93.382812 1040.96875 108.535156 C 1041.492188 108.835938 1041.996094 109.15625 1042.484375 109.503906 C 1042.972656 109.851562 1043.441406 110.222656 1043.894531 110.617188 C 1044.34375 111.011719 1044.777344 111.425781 1045.1875 111.859375 C 1045.597656 112.296875 1045.988281 112.75 1046.351562 113.226562 C 1046.71875 113.699219 1047.0625 114.191406 1047.378906 114.699219 C 1047.699219 115.207031 1047.988281 115.730469 1048.257812 116.265625 C 1048.523438 116.800781 1048.761719 117.351562 1048.976562 117.910156 C 1049.1875 118.472656 1049.371094 119.039062 1049.53125 119.617188 C 1049.6875 120.195312 1049.8125 120.78125 1049.914062 121.371094 C 1050.011719 121.964844 1050.082031 122.558594 1050.125 123.15625 C 1050.164062 123.753906 1050.175781 124.351562 1050.15625 124.949219 C 1050.140625 125.550781 1050.09375 126.144531 1050.015625 126.742188 C 1049.9375 127.335938 1049.832031 127.925781 1049.699219 128.507812 C 1049.566406 129.09375 1049.402344 129.667969 1049.210938 130.234375 C 1049.019531 130.804688 1048.800781 131.359375 1048.554688 131.90625 C 1048.308594 132.453125 1048.035156 132.988281 1047.738281 133.507812 C 1047.441406 134.027344 1047.117188 134.53125 1046.769531 135.015625 C 1046.421875 135.503906 1046.050781 135.976562 1045.65625 136.425781 C 1045.261719 136.878906 1044.847656 137.308594 1044.410156 137.71875 C 1043.972656 138.128906 1043.519531 138.519531 1043.042969 138.882812 C 1042.570312 139.25 1042.078125 139.589844 1041.570312 139.910156 C 1041.0625 140.226562 1040.539062 140.519531 1040.003906 140.785156 C 1039.464844 141.050781 1038.917969 141.289062 1038.355469 141.5 C 1037.796875 141.714844 1037.226562 141.898438 1036.648438 142.054688 C 1036.070312 142.210938 1035.484375 142.335938 1034.894531 142.4375 C 1034.304688 142.535156 1033.707031 142.605469 1033.109375 142.644531 C 1032.511719 142.683594 1031.914062 142.695312 1031.316406 142.675781 C 1030.714844 142.660156 1030.121094 142.609375 1029.527344 142.535156 C 1028.929688 142.457031 1028.34375 142.351562 1027.757812 142.214844 C 1027.175781 142.078125 1026.597656 141.917969 1026.03125 141.726562 C 1025.464844 141.53125 1024.90625 141.3125 1024.359375 141.066406 C 1023.816406 140.820312 1023.28125 140.546875 1022.761719 140.25 C 999.269531 126.777344 974.433594 116.578125 948.253906 109.640625 Z M 948.253906 109.640625 " fill-opacity="1" fill-rule="nonzero"/><path fill="#ffffff" d="M 1071.4375 175.097656 C 1070.984375 174.703125 1070.554688 174.289062 1070.144531 173.851562 C 1069.734375 173.414062 1069.347656 172.957031 1068.980469 172.484375 C 1068.617188 172.007812 1068.273438 171.515625 1067.957031 171.007812 C 1067.640625 170.5 1067.347656 169.976562 1067.082031 169.441406 C 1066.816406 168.902344 1066.578125 168.355469 1066.367188 167.792969 C 1066.15625 167.234375 1065.96875 166.664062 1065.816406 166.085938 C 1065.660156 165.507812 1065.53125 164.921875 1065.433594 164.332031 C 1065.335938 163.738281 1065.265625 163.144531 1065.226562 162.546875 C 1065.183594 161.949219 1065.175781 161.351562 1065.195312 160.753906 C 1065.210938 160.152344 1065.261719 159.558594 1065.335938 158.964844 C 1065.414062 158.367188 1065.523438 157.78125 1065.65625 157.195312 C 1065.792969 156.613281 1065.957031 156.035156 1066.148438 155.46875 C 1066.339844 154.902344 1066.558594 154.34375 1066.804688 153.796875 C 1067.050781 153.253906 1067.324219 152.71875 1067.621094 152.199219 C 1067.921875 151.679688 1068.246094 151.175781 1068.59375 150.691406 C 1068.941406 150.203125 1069.3125 149.734375 1069.707031 149.28125 C 1070.101562 148.832031 1070.519531 148.402344 1070.953125 147.992188 C 1071.390625 147.582031 1071.847656 147.191406 1072.320312 146.828125 C 1072.796875 146.460938 1073.289062 146.121094 1073.796875 145.804688 C 1074.304688 145.484375 1074.828125 145.195312 1075.367188 144.929688 C 1075.902344 144.664062 1076.449219 144.425781 1077.011719 144.210938 C 1077.570312 144 1078.140625 143.816406 1078.71875 143.660156 C 1079.296875 143.503906 1079.882812 143.378906 1080.472656 143.277344 C 1081.066406 143.179688 1081.660156 143.113281 1082.257812 143.070312 C 1082.855469 143.03125 1083.453125 143.019531 1084.054688 143.039062 C 1084.652344 143.058594 1085.25 143.105469 1085.84375 143.183594 C 1086.4375 143.261719 1087.027344 143.367188 1087.609375 143.503906 C 1088.191406 143.636719 1088.769531 143.800781 1089.335938 143.992188 C 1089.902344 144.183594 1090.460938 144.40625 1091.007812 144.652344 C 1091.554688 144.898438 1092.085938 145.171875 1092.605469 145.46875 C 1093.125 145.769531 1093.628906 146.089844 1094.117188 146.441406 C 1094.601562 146.789062 1095.074219 147.160156 1095.523438 147.554688 C 1101.9375 153.152344 1108.136719 158.980469 1114.117188 165.035156 C 1120.101562 171.09375 1125.851562 177.359375 1131.371094 183.84375 C 1136.886719 190.324219 1142.160156 197 1147.183594 203.875 C 1152.210938 210.746094 1156.972656 217.792969 1161.476562 225.015625 C 1165.980469 232.242188 1170.210938 239.621094 1174.167969 247.160156 C 1178.128906 254.695312 1181.800781 262.367188 1185.191406 270.175781 C 1188.582031 277.988281 1191.679688 285.910156 1194.480469 293.949219 C 1197.285156 301.984375 1199.789062 310.117188 1201.992188 318.339844 C 1202.148438 318.917969 1202.273438 319.503906 1202.371094 320.097656 C 1202.46875 320.691406 1202.535156 321.285156 1202.574219 321.882812 C 1202.613281 322.484375 1202.621094 323.082031 1202.601562 323.683594 C 1202.578125 324.28125 1202.53125 324.878906 1202.449219 325.476562 C 1202.371094 326.070312 1202.265625 326.660156 1202.128906 327.246094 C 1201.988281 327.828125 1201.824219 328.40625 1201.632812 328.972656 C 1201.4375 329.542969 1201.214844 330.097656 1200.96875 330.644531 C 1200.71875 331.191406 1200.445312 331.726562 1200.144531 332.246094 C 1199.84375 332.761719 1199.519531 333.265625 1199.167969 333.753906 C 1198.816406 334.242188 1198.445312 334.710938 1198.046875 335.160156 C 1197.652344 335.613281 1197.234375 336.042969 1196.796875 336.453125 C 1196.355469 336.863281 1195.898438 337.25 1195.421875 337.613281 C 1194.945312 337.980469 1194.453125 338.320312 1193.941406 338.636719 C 1193.433594 338.953125 1192.90625 339.242188 1192.367188 339.507812 C 1191.832031 339.773438 1191.28125 340.011719 1190.71875 340.222656 C 1190.15625 340.433594 1189.585938 340.613281 1189.003906 340.769531 C 1188.425781 340.925781 1187.839844 341.050781 1187.246094 341.148438 C 1186.652344 341.242188 1186.058594 341.3125 1185.457031 341.351562 C 1184.859375 341.390625 1184.261719 341.398438 1183.660156 341.378906 C 1183.0625 341.355469 1182.464844 341.308594 1181.867188 341.226562 C 1181.273438 341.148438 1180.683594 341.042969 1180.097656 340.902344 C 1179.515625 340.765625 1178.9375 340.601562 1178.371094 340.40625 C 1177.800781 340.214844 1177.246094 339.992188 1176.699219 339.746094 C 1176.152344 339.496094 1175.617188 339.222656 1175.097656 338.921875 C 1174.582031 338.621094 1174.078125 338.292969 1173.589844 337.945312 C 1173.101562 337.59375 1172.632812 337.222656 1172.183594 336.824219 C 1171.730469 336.429688 1171.300781 336.011719 1170.890625 335.570312 C 1170.480469 335.132812 1170.09375 334.675781 1169.730469 334.199219 C 1169.363281 333.722656 1169.023438 333.230469 1168.707031 332.71875 C 1168.390625 332.207031 1168.101562 331.683594 1167.835938 331.144531 C 1167.570312 330.605469 1167.332031 330.058594 1167.121094 329.496094 C 1166.910156 328.933594 1166.730469 328.363281 1166.574219 327.78125 C 1164.601562 320.433594 1162.359375 313.167969 1159.847656 305.984375 C 1157.339844 298.800781 1154.570312 291.71875 1151.539062 284.742188 C 1148.503906 277.761719 1145.222656 270.902344 1141.683594 264.167969 C 1138.148438 257.429688 1134.367188 250.832031 1130.34375 244.375 C 1126.316406 237.917969 1122.0625 231.617188 1117.574219 225.472656 C 1113.085938 219.328125 1108.375 213.359375 1103.445312 207.5625 C 1098.519531 201.765625 1093.382812 196.15625 1088.039062 190.738281 C 1082.699219 185.320312 1077.164062 180.109375 1071.4375 175.097656 Z M 1071.4375 175.097656 " fill-opacity="1" fill-rule="nonzero"/><g transform="matrix(1, 0, 0, 1, 3, 329)"><g clip-path="url(#555d199de9)"><g fill="#ffffff" fill-opacity="1"><g transform="translate(1.121502, 198.311709)"><g><path d="M 91.324219 -163.847656 C 115.6875 -163.847656 135.0625 -157.667969 149.445312 -145.300781 C 164.042969 -132.753906 171.34375 -114.988281 171.34375 -92.003906 L 171.34375 -87.175781 L 113.757812 -87.175781 L 113.757812 -92.003906 C 113.757812 -99.855469 111.785156 -105.972656 107.839844 -110.355469 C 104.027344 -114.59375 98.445312 -116.710938 91.097656 -116.710938 C 82.558594 -116.710938 76.386719 -114.171875 72.582031 -109.097656 C 68.453125 -103.597656 66.390625 -95.703125 66.390625 -85.417969 L 66.390625 -70.878906 C 66.390625 -60.734375 68.460938 -52.871094 72.597656 -47.285156 C 76.402344 -42.152344 82.417969 -39.585938 90.640625 -39.585938 C 99 -39.585938 105.207031 -41.613281 109.265625 -45.667969 C 113.320312 -49.722656 115.347656 -55.628906 115.347656 -63.382812 L 115.347656 -68.207031 L 171.34375 -68.207031 L 171.34375 -63.382812 C 171.34375 -40.558594 164.238281 -22.984375 150.027344 -10.664062 C 136.023438 1.480469 116.453125 7.554688 91.324219 7.554688 C 63.339844 7.554688 42.023438 0.269531 27.378906 -14.296875 C 12.722656 -28.871094 5.394531 -50.152344 5.394531 -78.148438 C 5.394531 -106.140625 12.722656 -127.425781 27.378906 -141.996094 C 42.023438 -156.566406 63.339844 -163.847656 91.324219 -163.847656 Z M 91.324219 -154.191406 C 65.996094 -154.191406 46.949219 -147.847656 34.1875 -135.152344 C 21.429688 -122.464844 15.050781 -103.464844 15.050781 -78.148438 C 15.050781 -52.832031 21.429688 -33.828125 34.1875 -21.140625 C 46.949219 -8.449219 65.996094 -2.101562 91.324219 -2.101562 C 114.050781 -2.101562 131.511719 -7.386719 143.703125 -17.960938 C 155.695312 -28.355469 161.691406 -43.496094 161.691406 -63.382812 L 166.515625 -63.382812 L 166.515625 -58.554688 L 120.175781 -58.554688 L 120.175781 -63.382812 L 125 -63.382812 C 125 -52.960938 122.03125 -44.78125 116.089844 -38.839844 C 110.152344 -32.898438 101.667969 -29.929688 90.640625 -29.929688 C 79.175781 -29.929688 70.578125 -33.800781 64.839844 -41.539062 C 59.4375 -48.828125 56.734375 -58.609375 56.734375 -70.878906 L 56.734375 -85.417969 C 56.734375 -97.847656 59.441406 -107.671875 64.859375 -114.890625 C 70.59375 -122.539062 79.339844 -126.363281 91.097656 -126.363281 C 101.3125 -126.363281 109.285156 -123.179688 115.015625 -116.816406 C 120.613281 -110.597656 123.410156 -102.328125 123.410156 -92.003906 L 118.582031 -92.003906 L 118.582031 -96.832031 L 166.515625 -96.832031 L 166.515625 -92.003906 L 161.691406 -92.003906 C 161.691406 -112.03125 155.511719 -127.359375 143.152344 -137.980469 C 130.578125 -148.789062 113.300781 -154.191406 91.324219 -154.191406 Z M 91.324219 -154.191406 "/></g></g></g><g fill="#ffffff" fill-opacity="1"><g transform="translate(177.853893, 198.311709)"><g><path d="M 94.503906 -163.847656 C 122.734375 -163.847656 144.660156 -156.519531 160.277344 -141.867188 C 175.984375 -127.132812 183.839844 -105.894531 183.839844 -78.148438 C 183.839844 -50.402344 175.984375 -29.160156 160.277344 -14.425781 C 144.660156 0.226562 122.734375 7.554688 94.503906 7.554688 C 66.273438 7.554688 44.386719 0.265625 28.84375 -14.3125 C 13.210938 -28.972656 5.394531 -50.25 5.394531 -78.148438 C 5.394531 -106.042969 13.210938 -127.324219 28.84375 -141.984375 C 44.386719 -156.558594 66.273438 -163.847656 94.503906 -163.847656 Z M 94.503906 -154.191406 C 68.820312 -154.191406 49.132812 -147.773438 35.445312 -134.941406 C 21.847656 -122.1875 15.050781 -103.257812 15.050781 -78.148438 C 15.050781 -53.039062 21.847656 -34.105469 35.445312 -21.355469 C 49.132812 -8.519531 68.820312 -2.101562 94.503906 -2.101562 C 120.1875 -2.101562 139.910156 -8.558594 153.671875 -21.46875 C 167.347656 -34.296875 174.183594 -53.1875 174.183594 -78.148438 C 174.183594 -103.105469 167.347656 -122 153.671875 -134.828125 C 139.910156 -147.738281 120.1875 -154.191406 94.503906 -154.191406 Z M 94.503906 -116.710938 C 85.226562 -116.710938 78.269531 -114.011719 73.628906 -108.621094 C 68.804688 -103.011719 66.390625 -95.277344 66.390625 -85.417969 L 66.390625 -70.878906 C 66.390625 -61.015625 68.804688 -53.28125 73.628906 -47.675781 C 78.269531 -42.28125 85.226562 -39.585938 94.503906 -39.585938 C 103.792969 -39.585938 110.796875 -42.289062 115.511719 -47.699219 C 120.398438 -53.300781 122.84375 -61.027344 122.84375 -70.878906 L 122.84375 -85.417969 C 122.84375 -95.265625 120.398438 -102.992188 115.511719 -108.597656 C 110.796875 -114.003906 103.792969 -116.710938 94.503906 -116.710938 Z M 94.503906 -126.363281 C 106.71875 -126.363281 116.148438 -122.558594 122.789062 -114.941406 C 129.261719 -107.519531 132.5 -97.679688 132.5 -85.417969 L 132.5 -70.878906 C 132.5 -58.617188 129.261719 -48.773438 122.789062 -41.351562 C 116.148438 -33.738281 106.71875 -29.929688 94.503906 -29.929688 C 82.273438 -29.929688 72.875 -33.746094 66.308594 -41.378906 C 59.925781 -48.792969 56.734375 -58.628906 56.734375 -70.878906 L 56.734375 -85.417969 C 56.734375 -97.667969 59.925781 -107.5 66.308594 -114.917969 C 72.875 -122.546875 82.273438 -126.363281 94.503906 -126.363281 Z M 94.503906 -126.363281 "/></g></g></g><g fill="#ffffff" fill-opacity="1"><g transform="translate(367.080218, 198.311709)"><g><path d="M 16.8125 -161.121094 L 71.84375 -161.121094 L 71.84375 -39.980469 L 67.015625 -39.980469 L 67.015625 -44.808594 L 152.035156 -44.808594 L 152.035156 4.828125 L 11.984375 4.828125 L 11.984375 -161.121094 Z M 16.8125 -151.46875 L 16.8125 -156.292969 L 21.636719 -156.292969 L 21.636719 0 L 16.8125 0 L 16.8125 -4.828125 L 147.207031 -4.828125 L 147.207031 0 L 142.378906 0 L 142.378906 -39.980469 L 147.207031 -39.980469 L 147.207031 -35.15625 L 62.1875 -35.15625 L 62.1875 -156.292969 L 67.015625 -156.292969 L 67.015625 -151.46875 Z M 16.8125 -151.46875 "/></g></g></g><g fill="#ffffff" fill-opacity="1"><g transform="translate(518.597581, 198.311709)"><g><path d="M 16.8125 -161.121094 L 71.84375 -161.121094 L 71.84375 -39.980469 L 67.015625 -39.980469 L 67.015625 -44.808594 L 152.035156 -44.808594 L 152.035156 4.828125 L 11.984375 4.828125 L 11.984375 -161.121094 Z M 16.8125 -151.46875 L 16.8125 -156.292969 L 21.636719 -156.292969 L 21.636719 0 L 16.8125 0 L 16.8125 -4.828125 L 147.207031 -4.828125 L 147.207031 0 L 142.378906 0 L 142.378906 -39.980469 L 147.207031 -39.980469 L 147.207031 -35.15625 L 62.1875 -35.15625 L 62.1875 -156.292969 L 67.015625 -156.292969 L 67.015625 -151.46875 Z M 16.8125 -151.46875 "/></g></g></g><g fill="#ffffff" fill-opacity="1"><g transform="translate(670.114944, 198.311709)"><g><path d="M 116.910156 1.382812 L 110.324219 -20.652344 L 114.949219 -22.035156 L 114.949219 -17.207031 L 60.199219 -17.207031 L 60.199219 -22.035156 L 64.824219 -20.652344 L 57.207031 4.828125 L -4.628906 4.828125 L 55.914062 -161.121094 L 121.050781 -161.121094 L 181.59375 4.828125 L 117.941406 4.828125 Z M 126.164062 -1.382812 L 121.535156 0 L 121.535156 -4.828125 L 174.695312 -4.828125 L 174.695312 0 L 170.160156 1.65625 L 113.140625 -154.640625 L 117.675781 -156.292969 L 117.675781 -151.46875 L 59.292969 -151.46875 L 59.292969 -156.292969 L 63.828125 -154.640625 L 6.808594 1.65625 L 2.273438 0 L 2.273438 -4.828125 L 53.613281 -4.828125 L 53.613281 0 L 48.988281 -1.382812 L 56.605469 -26.863281 L 118.542969 -26.863281 Z M 70.652344 -61.847656 L 104.5 -61.847656 L 104.5 -57.019531 L 99.867188 -55.660156 L 83.511719 -111.316406 L 88.144531 -112.675781 L 88.144531 -107.851562 L 87.234375 -107.851562 L 87.234375 -112.675781 L 91.859375 -111.300781 L 75.277344 -55.640625 L 70.652344 -57.019531 Z M 64.175781 -52.191406 L 83.636719 -117.503906 L 91.753906 -117.503906 L 110.949219 -52.191406 Z M 64.175781 -52.191406 "/></g></g></g><g fill="#ffffff" fill-opacity="1"><g transform="translate(846.847302, 198.311709)"><g><path d="M 111.597656 -116.3125 L 111.597656 4.828125 L 51.738281 4.828125 L 51.738281 -116.3125 L 56.566406 -116.3125 L 56.566406 -111.484375 L 0.398438 -111.484375 L 0.398438 -161.121094 L 162.710938 -161.121094 L 162.710938 -111.484375 L 106.769531 -111.484375 L 106.769531 -116.3125 Z M 101.945312 -121.140625 L 157.882812 -121.140625 L 157.882812 -116.3125 L 153.058594 -116.3125 L 153.058594 -156.292969 L 157.882812 -156.292969 L 157.882812 -151.46875 L 5.226562 -151.46875 L 5.226562 -156.292969 L 10.050781 -156.292969 L 10.050781 -116.3125 L 5.226562 -116.3125 L 5.226562 -121.140625 L 61.394531 -121.140625 L 61.394531 0 L 56.566406 0 L 56.566406 -4.828125 L 106.769531 -4.828125 L 106.769531 0 L 101.945312 0 Z M 101.945312 -121.140625 "/></g></g></g><g fill="#ffffff" fill-opacity="1"><g transform="translate(1010.858633, 198.311709)"><g><path d="M 16.8125 -161.121094 L 156.804688 -161.121094 L 156.804688 -113.984375 L 67.015625 -113.984375 L 67.015625 -118.8125 L 71.84375 -118.8125 L 71.84375 -97.230469 L 67.015625 -97.230469 L 67.015625 -102.058594 L 144.539062 -102.058594 L 144.539062 -56.507812 L 67.015625 -56.507812 L 67.015625 -61.335938 L 71.84375 -61.335938 L 71.84375 -37.484375 L 67.015625 -37.484375 L 67.015625 -42.3125 L 158.394531 -42.3125 L 158.394531 4.828125 L 11.984375 4.828125 L 11.984375 -161.121094 Z M 16.8125 -151.46875 L 16.8125 -156.292969 L 21.636719 -156.292969 L 21.636719 0 L 16.8125 0 L 16.8125 -4.828125 L 153.566406 -4.828125 L 153.566406 0 L 148.742188 0 L 148.742188 -37.484375 L 153.566406 -37.484375 L 153.566406 -32.65625 L 62.1875 -32.65625 L 62.1875 -66.164062 L 139.710938 -66.164062 L 139.710938 -61.335938 L 134.882812 -61.335938 L 134.882812 -97.230469 L 139.710938 -97.230469 L 139.710938 -92.402344 L 62.1875 -92.402344 L 62.1875 -123.636719 L 151.976562 -123.636719 L 151.976562 -118.8125 L 147.152344 -118.8125 L 147.152344 -156.292969 L 151.976562 -156.292969 L 151.976562 -151.46875 Z M 16.8125 -151.46875 "/></g></g></g><g fill="#ffffff" fill-opacity="1"><g transform="translate(1174.869963, 198.311709)"><g><path d="M 169.980469 -108.359375 C 169.980469 -97.84375 167.136719 -88.320312 161.445312 -79.785156 C 155.71875 -71.191406 147.4375 -64.894531 136.613281 -60.898438 L 134.941406 -65.425781 L 139.203125 -67.691406 L 177.726562 4.828125 L 110.335938 4.828125 L 81.300781 -54.910156 L 85.644531 -57.019531 L 85.644531 -52.191406 L 67.015625 -52.191406 L 67.015625 -57.019531 L 71.84375 -57.019531 L 71.84375 4.828125 L 11.984375 4.828125 L 11.984375 -161.121094 L 112.449219 -161.121094 C 124.472656 -161.121094 134.820312 -158.769531 143.492188 -154.0625 C 152.277344 -149.292969 158.902344 -142.820312 163.371094 -134.640625 C 167.777344 -126.574219 169.980469 -117.816406 169.980469 -108.359375 Z M 160.328125 -108.359375 C 160.328125 -116.171875 158.515625 -123.390625 154.898438 -130.011719 C 151.339844 -136.527344 146 -141.714844 138.882812 -145.578125 C 131.652344 -149.503906 122.839844 -151.46875 112.449219 -151.46875 L 16.8125 -151.46875 L 16.8125 -156.292969 L 21.636719 -156.292969 L 21.636719 0 L 16.8125 0 L 16.8125 -4.828125 L 67.015625 -4.828125 L 67.015625 0 L 62.1875 0 L 62.1875 -61.847656 L 88.664062 -61.847656 L 117.699219 -2.109375 L 113.359375 0 L 113.359375 -4.828125 L 169.699219 -4.828125 L 169.699219 0 L 165.433594 2.265625 L 128.085938 -68.039062 L 133.269531 -69.953125 C 142.128906 -73.226562 148.84375 -78.289062 153.414062 -85.140625 C 158.023438 -92.054688 160.328125 -99.792969 160.328125 -108.359375 Z M 109.214844 -106.316406 C 109.214844 -109.074219 108.320312 -111.34375 106.539062 -113.125 C 104.753906 -114.910156 102.558594 -115.800781 99.957031 -115.800781 L 67.015625 -115.800781 L 67.015625 -120.628906 L 71.84375 -120.628906 L 71.84375 -91.777344 L 67.015625 -91.777344 L 67.015625 -96.605469 L 99.957031 -96.605469 C 102.535156 -96.605469 104.714844 -97.519531 106.492188 -99.347656 C 108.304688 -101.210938 109.214844 -103.535156 109.214844 -106.316406 Z M 118.867188 -106.316406 C 118.867188 -100.921875 117.050781 -96.351562 113.410156 -92.613281 C 109.738281 -88.839844 105.253906 -86.949219 99.957031 -86.949219 L 62.1875 -86.949219 L 62.1875 -125.457031 L 99.957031 -125.457031 C 105.226562 -125.457031 109.695312 -123.621094 113.363281 -119.953125 C 117.035156 -116.285156 118.867188 -111.738281 118.867188 -106.316406 Z M 118.867188 -106.316406 "/></g></g></g><g fill="#ffffff" fill-opacity="1"><g transform="translate(1351.602322, 198.311709)"><g><path d="M 116.910156 1.382812 L 110.324219 -20.652344 L 114.949219 -22.035156 L 114.949219 -17.207031 L 60.199219 -17.207031 L 60.199219 -22.035156 L 64.824219 -20.652344 L 57.207031 4.828125 L -4.628906 4.828125 L 55.914062 -161.121094 L 121.050781 -161.121094 L 181.59375 4.828125 L 117.941406 4.828125 Z M 126.164062 -1.382812 L 121.535156 0 L 121.535156 -4.828125 L 174.695312 -4.828125 L 174.695312 0 L 170.160156 1.65625 L 113.140625 -154.640625 L 117.675781 -156.292969 L 117.675781 -151.46875 L 59.292969 -151.46875 L 59.292969 -156.292969 L 63.828125 -154.640625 L 6.808594 1.65625 L 2.273438 0 L 2.273438 -4.828125 L 53.613281 -4.828125 L 53.613281 0 L 48.988281 -1.382812 L 56.605469 -26.863281 L 118.542969 -26.863281 Z M 70.652344 -61.847656 L 104.5 -61.847656 L 104.5 -57.019531 L 99.867188 -55.660156 L 83.511719 -111.316406 L 88.144531 -112.675781 L 88.144531 -107.851562 L 87.234375 -107.851562 L 87.234375 -112.675781 L 91.859375 -111.300781 L 75.277344 -55.640625 L 70.652344 -57.019531 Z M 64.175781 -52.191406 L 83.636719 -117.503906 L 91.753906 -117.503906 L 110.949219 -52.191406 Z M 64.175781 -52.191406 "/></g></g></g><g clip-path="url(#976ab468dd)"><g fill="#ffffff" fill-opacity="1"><g transform="translate(1528.33468, 198.311709)"><g><path d="M 16.8125 -161.121094 L 71.84375 -161.121094 L 71.84375 -39.980469 L 67.015625 -39.980469 L 67.015625 -44.808594 L 152.035156 -44.808594 L 152.035156 4.828125 L 11.984375 4.828125 L 11.984375 -161.121094 Z M 16.8125 -151.46875 L 16.8125 -156.292969 L 21.636719 -156.292969 L 21.636719 0 L 16.8125 0 L 16.8125 -4.828125 L 147.207031 -4.828125 L 147.207031 0 L 142.378906 0 L 142.378906 -39.980469 L 147.207031 -39.980469 L 147.207031 -35.15625 L 62.1875 -35.15625 L 62.1875 -156.292969 L 67.015625 -156.292969 L 67.015625 -151.46875 Z M 16.8125 -151.46875 "/></g></g></g></g><g fill="#000000" fill-opacity="1"><g transform="translate(1.121502, 198.311709)"><g><path d="M 91.328125 -159.015625 C 114.492188 -159.015625 132.816406 -153.222656 146.296875 -141.640625 C 159.773438 -130.054688 166.515625 -113.507812 166.515625 -92 L 118.578125 -92 C 118.578125 -101.09375 116.191406 -108.285156 111.421875 -113.578125 C 106.648438 -118.878906 99.875 -121.53125 91.09375 -121.53125 C 80.945312 -121.53125 73.488281 -118.347656 68.71875 -111.984375 C 63.945312 -105.628906 61.5625 -96.773438 61.5625 -85.421875 L 61.5625 -70.875 C 61.5625 -59.664062 63.945312 -50.84375 68.71875 -44.40625 C 73.488281 -37.96875 80.796875 -34.75 90.640625 -34.75 C 100.335938 -34.75 107.679688 -37.25 112.671875 -42.25 C 117.671875 -47.25 120.171875 -54.289062 120.171875 -63.375 L 166.515625 -63.375 C 166.515625 -42.019531 159.960938 -25.664062 146.859375 -14.3125 C 133.765625 -2.957031 115.253906 2.71875 91.328125 2.71875 C 64.671875 2.71875 44.488281 -4.09375 30.78125 -17.71875 C 17.070312 -31.351562 10.21875 -51.492188 10.21875 -78.140625 C 10.21875 -104.796875 17.070312 -124.9375 30.78125 -138.5625 C 44.488281 -152.195312 64.671875 -159.015625 91.328125 -159.015625 Z M 91.328125 -159.015625 "/></g></g></g><g fill="#000000" fill-opacity="1"><g transform="translate(177.853893, 198.311709)"><g><path d="M 94.5 -159.015625 C 121.457031 -159.015625 142.28125 -152.125 156.96875 -138.34375 C 171.664062 -124.5625 179.015625 -104.492188 179.015625 -78.140625 C 179.015625 -51.796875 171.664062 -31.734375 156.96875 -17.953125 C 142.28125 -4.171875 121.457031 2.71875 94.5 2.71875 C 67.539062 2.71875 46.753906 -4.128906 32.140625 -17.828125 C 17.523438 -31.535156 10.21875 -51.640625 10.21875 -78.140625 C 10.21875 -104.648438 17.523438 -124.753906 32.140625 -138.453125 C 46.753906 -152.160156 67.539062 -159.015625 94.5 -159.015625 Z M 94.5 -121.53125 C 83.75 -121.53125 75.570312 -118.273438 69.96875 -111.765625 C 64.363281 -105.253906 61.5625 -96.472656 61.5625 -85.421875 L 61.5625 -70.875 C 61.5625 -59.820312 64.363281 -51.035156 69.96875 -44.515625 C 75.570312 -38.003906 83.75 -34.75 94.5 -34.75 C 105.25 -34.75 113.460938 -38.003906 119.140625 -44.515625 C 124.828125 -51.035156 127.671875 -59.820312 127.671875 -70.875 L 127.671875 -85.421875 C 127.671875 -96.472656 124.828125 -105.253906 119.140625 -111.765625 C 113.460938 -118.273438 105.25 -121.53125 94.5 -121.53125 Z M 94.5 -121.53125 "/></g></g></g><g fill="#000000" fill-opacity="1"><g transform="translate(367.080218, 198.311709)"><g><path d="M 16.8125 -156.296875 L 67.015625 -156.296875 L 67.015625 -39.984375 L 147.203125 -39.984375 L 147.203125 0 L 16.8125 0 Z M 16.8125 -156.296875 "/></g></g></g><g fill="#000000" fill-opacity="1"><g transform="translate(518.597581, 198.311709)"><g><path d="M 16.8125 -156.296875 L 67.015625 -156.296875 L 67.015625 -39.984375 L 147.203125 -39.984375 L 147.203125 0 L 16.8125 0 Z M 16.8125 -156.296875 "/></g></g></g><g fill="#000000" fill-opacity="1"><g transform="translate(670.114944, 198.311709)"><g><path d="M 121.53125 0 L 114.953125 -22.03125 L 60.203125 -22.03125 L 53.609375 0 L 2.265625 0 L 59.296875 -156.296875 L 117.671875 -156.296875 L 174.6875 0 Z M 70.65625 -57.015625 L 104.5 -57.015625 L 88.140625 -112.671875 L 87.234375 -112.671875 Z M 70.65625 -57.015625 "/></g></g></g><g fill="#000000" fill-opacity="1"><g transform="translate(846.847302, 198.311709)"><g><path d="M 106.765625 -116.3125 L 106.765625 0 L 56.5625 0 L 56.5625 -116.3125 L 5.21875 -116.3125 L 5.21875 -156.296875 L 157.890625 -156.296875 L 157.890625 -116.3125 Z M 106.765625 -116.3125 "/></g></g></g><g fill="#000000" fill-opacity="1"><g transform="translate(1010.858633, 198.311709)"><g><path d="M 16.8125 -156.296875 L 151.984375 -156.296875 L 151.984375 -118.8125 L 67.015625 -118.8125 L 67.015625 -97.234375 L 139.703125 -97.234375 L 139.703125 -61.34375 L 67.015625 -61.34375 L 67.015625 -37.484375 L 153.5625 -37.484375 L 153.5625 0 L 16.8125 0 Z M 16.8125 -156.296875 "/></g></g></g><g fill="#000000" fill-opacity="1"><g transform="translate(1174.869963, 198.311709)"><g><path d="M 165.15625 -108.359375 C 165.15625 -98.816406 162.578125 -90.179688 157.421875 -82.453125 C 152.273438 -74.734375 144.78125 -69.054688 134.9375 -65.421875 L 169.703125 0 L 113.359375 0 L 85.640625 -57.015625 L 67.015625 -57.015625 L 67.015625 0 L 16.8125 0 L 16.8125 -156.296875 L 112.453125 -156.296875 C 123.660156 -156.296875 133.238281 -154.132812 141.1875 -149.8125 C 149.132812 -145.5 155.113281 -139.671875 159.125 -132.328125 C 163.144531 -124.984375 165.15625 -116.992188 165.15625 -108.359375 Z M 114.046875 -106.3125 C 114.046875 -110.40625 112.679688 -113.8125 109.953125 -116.53125 C 107.222656 -119.257812 103.890625 -120.625 99.953125 -120.625 L 67.015625 -120.625 L 67.015625 -91.78125 L 99.953125 -91.78125 C 103.890625 -91.78125 107.222656 -93.179688 109.953125 -95.984375 C 112.679688 -98.785156 114.046875 -102.226562 114.046875 -106.3125 Z M 114.046875 -106.3125 "/></g></g></g><g fill="#000000" fill-opacity="1"><g transform="translate(1351.602322, 198.311709)"><g><path d="M 121.53125 0 L 114.953125 -22.03125 L 60.203125 -22.03125 L 53.609375 0 L 2.265625 0 L 59.296875 -156.296875 L 117.671875 -156.296875 L 174.6875 0 Z M 70.65625 -57.015625 L 104.5 -57.015625 L 88.140625 -112.671875 L 87.234375 -112.671875 Z M 70.65625 -57.015625 "/></g></g></g><g fill="#000000" fill-opacity="1"><g transform="translate(1528.33468, 198.311709)"><g><path d="M 16.8125 -156.296875 L 67.015625 -156.296875 L 67.015625 -39.984375 L 147.203125 -39.984375 L 147.203125 0 L 16.8125 0 Z M 16.8125 -156.296875 "/></g></g></g></g></g></svg>