<svg xmlns="http://www.w3.org/2000/svg" xmlns:xlink="http://www.w3.org/1999/xlink" width="2750" zoomAndPan="magnify" viewBox="0 0 2062.5 1687.499945" height="2250" preserveAspectRatio="xMidYMid meet" version="1.0"><defs><g/><clipPath id="0385af3c0d"><path d="M 481 547 L 1586.082031 547 L 1586.082031 1388 L 481 1388 Z M 481 547 " clip-rule="nonzero"/></clipPath><clipPath id="9eefdfce52"><path d="M 951 296.027344 L 1239 296.027344 L 1239 815 L 951 815 Z M 951 296.027344 " clip-rule="nonzero"/></clipPath><clipPath id="a323d29980"><rect x="0" width="1972" y="0" height="294"/></clipPath></defs><g clip-path="url(#0385af3c0d)"><path fill="#690000" d="M 1169.652344 1387.253906 C 1324.808594 1390.917969 1468.882812 1363.019531 1586.070312 1312.867188 C 1543.3125 1322.230469 1500.152344 1328.980469 1456.578125 1333.113281 C 1413.003906 1337.25 1369.34375 1338.738281 1325.589844 1337.585938 C 939.730469 1328.4375 631.519531 1127.617188 637.167969 889.054688 C 640.5625 746.414062 755.386719 622.589844 929.636719 547.992188 C 670.925781 605.648438 485.570312 756.90625 481.253906 938.722656 C 475.625 1177.285156 783.832031 1378.105469 1169.652344 1387.253906 Z M 1169.652344 1387.253906 " fill-opacity="1" fill-rule="nonzero"/></g><g clip-path="url(#9eefdfce52)"><path fill="#690000" d="M 1067.871094 511.769531 C 1073.878906 505.132812 1085.402344 490.421875 1098.953125 428.089844 C 1108.367188 384.566406 1113.984375 340.5625 1115.8125 296.070312 C 1113.570312 319.164062 1113.046875 342.300781 1114.238281 365.472656 C 1115.425781 388.644531 1118.320312 411.605469 1122.914062 434.347656 C 1134.125 489.136719 1148.875 508.925781 1152.984375 514.214844 C 1180.84375 550.039062 1220.417969 561.648438 1238.6875 565.609375 C 1218.898438 564.007812 1173.675781 563.164062 1147.589844 593.34375 C 1136.253906 606.449219 1132.671875 620.734375 1130.730469 629.019531 C 1114.148438 697.988281 1101.691406 780.742188 1096.890625 814.015625 C 1092.675781 719.1875 1087.386719 649.015625 1083.71875 624.84375 C 1082.792969 618.753906 1080.640625 606.976562 1071.644531 597.957031 C 1062.644531 588.9375 1050.421875 587 1046.355469 586.34375 C 1030.40625 583.753906 1002.777344 574.417969 951.53125 544.621094 C 970.136719 546.8125 1031.5625 551.808594 1067.871094 511.769531 Z M 1067.871094 511.769531 " fill-opacity="1" fill-rule="nonzero"/></g><g transform="matrix(1, 0, 0, 1, 46, 759)"><g clip-path="url(#a323d29980)"><g fill="#ffffff" fill-opacity="1"><g transform="translate(1.716428, 236.410647)"><g><path d="M 108.160156 -194.058594 C 137.019531 -194.058594 159.964844 -186.738281 177 -172.09375 C 194.292969 -157.230469 202.9375 -136.1875 202.9375 -108.96875 L 202.9375 -103.25 L 134.730469 -103.25 L 134.730469 -108.96875 C 134.730469 -118.269531 132.394531 -125.511719 127.722656 -130.703125 C 123.207031 -135.71875 116.597656 -138.226562 107.890625 -138.226562 C 97.78125 -138.226562 90.472656 -135.222656 85.964844 -129.214844 C 81.074219 -122.699219 78.632812 -113.347656 78.632812 -101.164062 L 78.632812 -83.945312 C 78.632812 -71.929688 81.082031 -62.617188 85.984375 -56.003906 C 90.492188 -49.925781 97.613281 -46.882812 107.355469 -46.882812 C 117.253906 -46.882812 124.605469 -49.285156 129.410156 -54.085938 C 134.210938 -58.890625 136.613281 -65.882812 136.613281 -75.066406 L 136.613281 -80.785156 L 202.9375 -80.785156 L 202.9375 -75.066406 C 202.9375 -48.035156 194.523438 -27.222656 177.691406 -12.628906 C 161.101562 1.753906 137.925781 8.945312 108.160156 8.945312 C 75.019531 8.945312 49.773438 0.320312 32.425781 -16.933594 C 15.070312 -34.195312 6.390625 -59.402344 6.390625 -92.554688 C 6.390625 -125.710938 15.070312 -150.917969 32.425781 -168.179688 C 49.773438 -185.433594 75.019531 -194.058594 108.160156 -194.058594 Z M 108.160156 -182.621094 C 78.164062 -182.621094 55.605469 -175.105469 40.488281 -160.070312 C 25.378906 -145.046875 17.824219 -122.539062 17.824219 -92.554688 C 17.824219 -62.570312 25.378906 -40.066406 40.488281 -25.039062 C 55.605469 -10.007812 78.164062 -2.488281 108.160156 -2.488281 C 135.078125 -2.488281 155.757812 -8.75 170.199219 -21.269531 C 184.402344 -33.582031 191.5 -51.515625 191.5 -75.066406 L 197.21875 -75.066406 L 197.21875 -69.351562 L 142.332031 -69.351562 L 142.332031 -75.066406 L 148.050781 -75.066406 C 148.050781 -62.726562 144.53125 -53.039062 137.496094 -46 C 130.460938 -38.964844 120.414062 -35.449219 107.355469 -35.449219 C 93.777344 -35.449219 83.589844 -40.03125 76.796875 -49.195312 C 70.398438 -57.832031 67.195312 -69.414062 67.195312 -83.945312 L 67.195312 -101.164062 C 67.195312 -115.890625 70.402344 -127.527344 76.816406 -136.074219 C 83.609375 -145.132812 93.96875 -149.664062 107.890625 -149.664062 C 119.992188 -149.664062 129.4375 -145.894531 136.222656 -138.355469 C 142.851562 -130.988281 146.164062 -121.195312 146.164062 -108.96875 L 140.449219 -108.96875 L 140.449219 -114.6875 L 197.21875 -114.6875 L 197.21875 -108.96875 L 191.5 -108.96875 C 191.5 -132.6875 184.183594 -150.839844 169.546875 -163.421875 C 154.652344 -176.222656 134.191406 -182.621094 108.160156 -182.621094 Z M 108.160156 -182.621094 "/></g></g></g><g fill="#ffffff" fill-opacity="1"><g transform="translate(208.621587, 236.410647)"><g><path d="M 111.929688 -194.058594 C 145.363281 -194.058594 171.332031 -185.378906 189.832031 -168.027344 C 208.433594 -150.574219 217.734375 -125.417969 217.734375 -92.554688 C 217.734375 -59.695312 208.433594 -34.539062 189.832031 -17.085938 C 171.332031 0.269531 145.363281 8.945312 111.929688 8.945312 C 78.492188 8.945312 52.570312 0.3125 34.160156 -16.949219 C 15.648438 -34.3125 6.390625 -59.515625 6.390625 -92.554688 C 6.390625 -125.597656 15.648438 -150.796875 34.160156 -168.160156 C 52.570312 -185.425781 78.492188 -194.058594 111.929688 -194.058594 Z M 111.929688 -182.621094 C 81.507812 -182.621094 58.191406 -175.023438 41.984375 -159.820312 C 25.878906 -144.714844 17.824219 -122.296875 17.824219 -92.554688 C 17.824219 -62.816406 25.878906 -40.394531 41.984375 -25.292969 C 58.191406 -10.089844 81.507812 -2.488281 111.929688 -2.488281 C 142.347656 -2.488281 165.707031 -10.132812 182.007812 -25.425781 C 198.203125 -40.617188 206.300781 -62.996094 206.300781 -92.554688 C 206.300781 -122.117188 198.203125 -144.492188 182.007812 -159.6875 C 165.707031 -174.976562 142.347656 -182.621094 111.929688 -182.621094 Z M 111.929688 -138.226562 C 100.941406 -138.226562 92.699219 -135.035156 87.203125 -128.648438 C 81.488281 -122.007812 78.632812 -112.847656 78.632812 -101.164062 L 78.632812 -83.945312 C 78.632812 -72.265625 81.488281 -63.105469 87.203125 -56.464844 C 92.699219 -50.078125 100.941406 -46.882812 111.929688 -46.882812 C 122.929688 -46.882812 131.226562 -50.085938 136.8125 -56.492188 C 142.597656 -63.128906 145.492188 -72.28125 145.492188 -83.945312 L 145.492188 -101.164062 C 145.492188 -112.832031 142.597656 -121.980469 136.8125 -128.617188 C 131.226562 -135.023438 122.929688 -138.226562 111.929688 -138.226562 Z M 111.929688 -149.664062 C 126.398438 -149.664062 137.5625 -145.152344 145.429688 -136.132812 C 153.09375 -127.34375 156.929688 -115.6875 156.929688 -101.164062 L 156.929688 -83.945312 C 156.929688 -69.421875 153.09375 -57.765625 145.429688 -48.976562 C 137.5625 -39.957031 126.398438 -35.449219 111.929688 -35.449219 C 97.445312 -35.449219 86.3125 -39.96875 78.535156 -49.007812 C 70.976562 -57.792969 67.195312 -69.4375 67.195312 -83.945312 L 67.195312 -101.164062 C 67.195312 -115.675781 70.976562 -127.320312 78.535156 -136.105469 C 86.3125 -145.144531 97.445312 -149.664062 111.929688 -149.664062 Z M 111.929688 -149.664062 "/></g></g></g><g fill="#ffffff" fill-opacity="1"><g transform="translate(430.324889, 236.410647)"><g><path d="M 19.910156 -190.828125 L 85.089844 -190.828125 L 85.089844 -47.355469 L 79.371094 -47.355469 L 79.371094 -53.070312 L 180.066406 -53.070312 L 180.066406 5.71875 L 14.191406 5.71875 L 14.191406 -190.828125 Z M 19.910156 -179.394531 L 19.910156 -185.113281 L 25.628906 -185.113281 L 25.628906 0 L 19.910156 0 L 19.910156 -5.71875 L 174.347656 -5.71875 L 174.347656 0 L 168.632812 0 L 168.632812 -47.355469 L 174.347656 -47.355469 L 174.347656 -41.636719 L 73.65625 -41.636719 L 73.65625 -185.113281 L 79.371094 -185.113281 L 79.371094 -179.394531 Z M 19.910156 -179.394531 "/></g></g></g><g fill="#ffffff" fill-opacity="1"><g transform="translate(607.364652, 236.410647)"><g><path d="M 19.910156 -190.828125 L 85.089844 -190.828125 L 85.089844 -47.355469 L 79.371094 -47.355469 L 79.371094 -53.070312 L 180.066406 -53.070312 L 180.066406 5.71875 L 14.191406 5.71875 L 14.191406 -190.828125 Z M 19.910156 -179.394531 L 19.910156 -185.113281 L 25.628906 -185.113281 L 25.628906 0 L 19.910156 0 L 19.910156 -5.71875 L 174.347656 -5.71875 L 174.347656 0 L 168.632812 0 L 168.632812 -47.355469 L 174.347656 -47.355469 L 174.347656 -41.636719 L 73.65625 -41.636719 L 73.65625 -185.113281 L 79.371094 -185.113281 L 79.371094 -179.394531 Z M 19.910156 -179.394531 "/></g></g></g><g fill="#ffffff" fill-opacity="1"><g transform="translate(784.404447, 236.410647)"><g><path d="M 138.46875 1.636719 L 130.664062 -24.460938 L 136.144531 -26.097656 L 136.144531 -20.382812 L 71.300781 -20.382812 L 71.300781 -26.097656 L 76.777344 -24.460938 L 67.757812 5.71875 L -5.480469 5.71875 L 66.222656 -190.828125 L 143.371094 -190.828125 L 215.078125 5.71875 L 139.6875 5.71875 Z M 149.425781 -1.636719 L 143.945312 0 L 143.945312 -5.71875 L 206.90625 -5.71875 L 206.90625 0 L 201.535156 1.960938 L 134 -183.152344 L 139.371094 -185.113281 L 139.371094 -179.394531 L 70.222656 -179.394531 L 70.222656 -185.113281 L 75.59375 -183.152344 L 8.0625 1.960938 L 2.691406 0 L 2.691406 -5.71875 L 63.496094 -5.71875 L 63.496094 0 L 58.019531 -1.636719 L 67.042969 -31.816406 L 140.402344 -31.816406 Z M 83.675781 -73.25 L 123.765625 -73.25 L 123.765625 -67.535156 L 118.28125 -65.921875 L 98.910156 -131.839844 L 104.394531 -133.453125 L 104.394531 -127.734375 L 103.316406 -127.734375 L 103.316406 -133.453125 L 108.796875 -131.820312 L 89.15625 -65.902344 L 83.675781 -67.535156 Z M 76.007812 -61.816406 L 99.054688 -139.171875 L 108.671875 -139.171875 L 131.40625 -61.816406 Z M 76.007812 -61.816406 "/></g></g></g><g fill="#ffffff" fill-opacity="1"><g transform="translate(991.309585, 236.410647)"><g><path d="M 132.175781 -137.757812 L 132.175781 5.71875 L 61.277344 5.71875 L 61.277344 -137.757812 L 66.996094 -137.757812 L 66.996094 -132.039062 L 0.472656 -132.039062 L 0.472656 -190.828125 L 192.710938 -190.828125 L 192.710938 -132.039062 L 126.457031 -132.039062 L 126.457031 -137.757812 Z M 120.738281 -143.476562 L 186.996094 -143.476562 L 186.996094 -137.757812 L 181.277344 -137.757812 L 181.277344 -185.113281 L 186.996094 -185.113281 L 186.996094 -179.394531 L 6.1875 -179.394531 L 6.1875 -185.113281 L 11.90625 -185.113281 L 11.90625 -137.757812 L 6.1875 -137.757812 L 6.1875 -143.476562 L 72.714844 -143.476562 L 72.714844 0 L 66.996094 0 L 66.996094 -5.71875 L 126.457031 -5.71875 L 126.457031 0 L 120.738281 0 Z M 120.738281 -143.476562 "/></g></g></g><g fill="#ffffff" fill-opacity="1"><g transform="translate(1183.147512, 236.410647)"><g><path d="M 19.910156 -190.828125 L 185.71875 -190.828125 L 185.71875 -135 L 79.371094 -135 L 79.371094 -140.71875 L 85.089844 -140.71875 L 85.089844 -115.15625 L 79.371094 -115.15625 L 79.371094 -120.875 L 171.1875 -120.875 L 171.1875 -66.929688 L 79.371094 -66.929688 L 79.371094 -72.644531 L 85.089844 -72.644531 L 85.089844 -44.394531 L 79.371094 -44.394531 L 79.371094 -50.113281 L 187.601562 -50.113281 L 187.601562 5.71875 L 14.191406 5.71875 L 14.191406 -190.828125 Z M 19.910156 -179.394531 L 19.910156 -185.113281 L 25.628906 -185.113281 L 25.628906 0 L 19.910156 0 L 19.910156 -5.71875 L 181.882812 -5.71875 L 181.882812 0 L 176.164062 0 L 176.164062 -44.394531 L 181.882812 -44.394531 L 181.882812 -38.675781 L 73.65625 -38.675781 L 73.65625 -78.363281 L 165.46875 -78.363281 L 165.46875 -72.644531 L 159.753906 -72.644531 L 159.753906 -115.15625 L 165.46875 -115.15625 L 165.46875 -109.4375 L 73.65625 -109.4375 L 73.65625 -146.433594 L 180 -146.433594 L 180 -140.71875 L 174.28125 -140.71875 L 174.28125 -185.113281 L 180 -185.113281 L 180 -179.394531 Z M 19.910156 -179.394531 "/></g></g></g><g fill="#ffffff" fill-opacity="1"><g transform="translate(1374.985439, 236.410647)"><g><path d="M 201.324219 -128.339844 C 201.324219 -115.886719 197.953125 -104.605469 191.214844 -94.496094 C 184.429688 -84.316406 174.625 -76.859375 161.800781 -72.125 L 159.820312 -77.488281 L 164.871094 -80.171875 L 210.496094 5.71875 L 130.683594 5.71875 L 96.292969 -65.035156 L 101.433594 -67.535156 L 101.433594 -61.816406 L 79.371094 -61.816406 L 79.371094 -67.535156 L 85.089844 -67.535156 L 85.089844 5.71875 L 14.191406 5.71875 L 14.191406 -190.828125 L 133.183594 -190.828125 C 147.425781 -190.828125 159.679688 -188.042969 169.949219 -182.46875 C 180.351562 -176.820312 188.199219 -169.152344 193.492188 -159.46875 C 198.710938 -149.914062 201.324219 -139.539062 201.324219 -128.339844 Z M 189.886719 -128.339844 C 189.886719 -137.589844 187.746094 -146.140625 183.457031 -153.984375 C 179.242188 -161.699219 172.921875 -167.84375 164.492188 -172.417969 C 155.925781 -177.070312 145.488281 -179.394531 133.183594 -179.394531 L 19.910156 -179.394531 L 19.910156 -185.113281 L 25.628906 -185.113281 L 25.628906 0 L 19.910156 0 L 19.910156 -5.71875 L 79.371094 -5.71875 L 79.371094 0 L 73.65625 0 L 73.65625 -73.25 L 105.011719 -73.25 L 139.402344 -2.5 L 134.261719 0 L 134.261719 -5.71875 L 200.984375 -5.71875 L 200.984375 0 L 195.9375 2.683594 L 151.699219 -80.585938 L 157.839844 -82.851562 C 168.335938 -86.726562 176.289062 -92.722656 181.699219 -100.839844 C 187.160156 -109.027344 189.886719 -118.195312 189.886719 -128.339844 Z M 129.347656 -125.917969 C 129.347656 -129.183594 128.292969 -131.871094 126.179688 -133.984375 C 124.070312 -136.097656 121.46875 -137.152344 118.386719 -137.152344 L 79.371094 -137.152344 L 79.371094 -142.871094 L 85.089844 -142.871094 L 85.089844 -108.699219 L 79.371094 -108.699219 L 79.371094 -114.417969 L 118.386719 -114.417969 C 121.441406 -114.417969 124.019531 -115.5 126.125 -117.664062 C 128.273438 -119.871094 129.347656 -122.625 129.347656 -125.917969 Z M 140.785156 -125.917969 C 140.785156 -119.527344 138.628906 -114.117188 134.320312 -109.691406 C 129.972656 -105.21875 124.660156 -102.980469 118.386719 -102.980469 L 73.65625 -102.980469 L 73.65625 -148.585938 L 118.386719 -148.585938 C 124.628906 -148.585938 129.921875 -146.414062 134.265625 -142.070312 C 138.613281 -137.722656 140.785156 -132.339844 140.785156 -125.917969 Z M 140.785156 -125.917969 "/></g></g></g><g fill="#ffffff" fill-opacity="1"><g transform="translate(1581.890577, 236.410647)"><g><path d="M 138.46875 1.636719 L 130.664062 -24.460938 L 136.144531 -26.097656 L 136.144531 -20.382812 L 71.300781 -20.382812 L 71.300781 -26.097656 L 76.777344 -24.460938 L 67.757812 5.71875 L -5.480469 5.71875 L 66.222656 -190.828125 L 143.371094 -190.828125 L 215.078125 5.71875 L 139.6875 5.71875 Z M 149.425781 -1.636719 L 143.945312 0 L 143.945312 -5.71875 L 206.90625 -5.71875 L 206.90625 0 L 201.535156 1.960938 L 134 -183.152344 L 139.371094 -185.113281 L 139.371094 -179.394531 L 70.222656 -179.394531 L 70.222656 -185.113281 L 75.59375 -183.152344 L 8.0625 1.960938 L 2.691406 0 L 2.691406 -5.71875 L 63.496094 -5.71875 L 63.496094 0 L 58.019531 -1.636719 L 67.042969 -31.816406 L 140.402344 -31.816406 Z M 83.675781 -73.25 L 123.765625 -73.25 L 123.765625 -67.535156 L 118.28125 -65.921875 L 98.910156 -131.839844 L 104.394531 -133.453125 L 104.394531 -127.734375 L 103.316406 -127.734375 L 103.316406 -133.453125 L 108.796875 -131.820312 L 89.15625 -65.902344 L 83.675781 -67.535156 Z M 76.007812 -61.816406 L 99.054688 -139.171875 L 108.671875 -139.171875 L 131.40625 -61.816406 Z M 76.007812 -61.816406 "/></g></g></g><g fill="#ffffff" fill-opacity="1"><g transform="translate(1788.795715, 236.410647)"><g><path d="M 19.910156 -190.828125 L 85.089844 -190.828125 L 85.089844 -47.355469 L 79.371094 -47.355469 L 79.371094 -53.070312 L 180.066406 -53.070312 L 180.066406 5.71875 L 14.191406 5.71875 L 14.191406 -190.828125 Z M 19.910156 -179.394531 L 19.910156 -185.113281 L 25.628906 -185.113281 L 25.628906 0 L 19.910156 0 L 19.910156 -5.71875 L 174.347656 -5.71875 L 174.347656 0 L 168.632812 0 L 168.632812 -47.355469 L 174.347656 -47.355469 L 174.347656 -41.636719 L 73.65625 -41.636719 L 73.65625 -185.113281 L 79.371094 -185.113281 L 79.371094 -179.394531 Z M 19.910156 -179.394531 "/></g></g></g><g fill="#000000" fill-opacity="1"><g transform="translate(1.716428, 236.410647)"><g><path d="M 108.15625 -188.34375 C 135.601562 -188.34375 157.304688 -181.476562 173.265625 -167.75 C 189.234375 -154.03125 197.21875 -134.4375 197.21875 -108.96875 L 140.453125 -108.96875 C 140.453125 -119.726562 137.625 -128.25 131.96875 -134.53125 C 126.320312 -140.8125 118.296875 -143.953125 107.890625 -143.953125 C 95.867188 -143.953125 87.035156 -140.179688 81.390625 -132.640625 C 75.742188 -125.109375 72.921875 -114.617188 72.921875 -101.171875 L 72.921875 -83.953125 C 72.921875 -70.671875 75.742188 -60.21875 81.390625 -52.59375 C 87.035156 -44.976562 95.691406 -41.171875 107.359375 -41.171875 C 118.835938 -41.171875 127.535156 -44.128906 133.453125 -50.046875 C 139.367188 -55.960938 142.328125 -64.300781 142.328125 -75.0625 L 197.21875 -75.0625 C 197.21875 -49.769531 189.457031 -30.394531 173.9375 -16.9375 C 158.425781 -3.488281 136.5 3.234375 108.15625 3.234375 C 76.59375 3.234375 52.691406 -4.835938 36.453125 -20.984375 C 20.222656 -37.128906 12.109375 -60.988281 12.109375 -92.5625 C 12.109375 -124.125 20.222656 -147.976562 36.453125 -164.125 C 52.691406 -180.269531 76.59375 -188.34375 108.15625 -188.34375 Z M 108.15625 -188.34375 "/></g></g></g><g fill="#000000" fill-opacity="1"><g transform="translate(208.621587, 236.410647)"><g><path d="M 111.9375 -188.34375 C 143.863281 -188.34375 168.523438 -180.179688 185.921875 -163.859375 C 203.316406 -147.535156 212.015625 -123.769531 212.015625 -92.5625 C 212.015625 -61.34375 203.316406 -37.570312 185.921875 -21.25 C 168.523438 -4.925781 143.863281 3.234375 111.9375 3.234375 C 80 3.234375 55.375 -4.878906 38.0625 -21.109375 C 20.757812 -37.347656 12.109375 -61.164062 12.109375 -92.5625 C 12.109375 -123.945312 20.757812 -147.753906 38.0625 -163.984375 C 55.375 -180.222656 80 -188.34375 111.9375 -188.34375 Z M 111.9375 -143.953125 C 99.195312 -143.953125 89.507812 -140.09375 82.875 -132.375 C 76.238281 -124.664062 72.921875 -114.265625 72.921875 -101.171875 L 72.921875 -83.953125 C 72.921875 -70.859375 76.238281 -60.453125 82.875 -52.734375 C 89.507812 -45.023438 99.195312 -41.171875 111.9375 -41.171875 C 124.664062 -41.171875 134.394531 -45.023438 141.125 -52.734375 C 147.851562 -60.453125 151.21875 -70.859375 151.21875 -83.953125 L 151.21875 -101.171875 C 151.21875 -114.265625 147.851562 -124.664062 141.125 -132.375 C 134.394531 -140.09375 124.664062 -143.953125 111.9375 -143.953125 Z M 111.9375 -143.953125 "/></g></g></g><g fill="#000000" fill-opacity="1"><g transform="translate(430.324889, 236.410647)"><g><path d="M 19.90625 -185.109375 L 79.375 -185.109375 L 79.375 -47.359375 L 174.359375 -47.359375 L 174.359375 0 L 19.90625 0 Z M 19.90625 -185.109375 "/></g></g></g><g fill="#000000" fill-opacity="1"><g transform="translate(607.364652, 236.410647)"><g><path d="M 19.90625 -185.109375 L 79.375 -185.109375 L 79.375 -47.359375 L 174.359375 -47.359375 L 174.359375 0 L 19.90625 0 Z M 19.90625 -185.109375 "/></g></g></g><g fill="#000000" fill-opacity="1"><g transform="translate(784.404447, 236.410647)"><g><path d="M 143.953125 0 L 136.140625 -26.09375 L 71.296875 -26.09375 L 63.5 0 L 2.6875 0 L 70.21875 -185.109375 L 139.375 -185.109375 L 206.90625 0 Z M 83.671875 -67.53125 L 123.765625 -67.53125 L 104.390625 -133.453125 L 103.3125 -133.453125 Z M 83.671875 -67.53125 "/></g></g></g><g fill="#000000" fill-opacity="1"><g transform="translate(991.309585, 236.410647)"><g><path d="M 126.453125 -137.765625 L 126.453125 0 L 67 0 L 67 -137.765625 L 6.1875 -137.765625 L 6.1875 -185.109375 L 187 -185.109375 L 187 -137.765625 Z M 126.453125 -137.765625 "/></g></g></g><g fill="#000000" fill-opacity="1"><g transform="translate(1183.147512, 236.410647)"><g><path d="M 19.90625 -185.109375 L 180 -185.109375 L 180 -140.71875 L 79.375 -140.71875 L 79.375 -115.15625 L 165.46875 -115.15625 L 165.46875 -72.640625 L 79.375 -72.640625 L 79.375 -44.390625 L 181.890625 -44.390625 L 181.890625 0 L 19.90625 0 Z M 19.90625 -185.109375 "/></g></g></g><g fill="#000000" fill-opacity="1"><g transform="translate(1374.985439, 236.410647)"><g><path d="M 195.609375 -128.34375 C 195.609375 -117.039062 192.554688 -106.816406 186.453125 -97.671875 C 180.359375 -88.523438 171.484375 -81.796875 159.828125 -77.484375 L 200.984375 0 L 134.265625 0 L 101.4375 -67.53125 L 79.375 -67.53125 L 79.375 0 L 19.90625 0 L 19.90625 -185.109375 L 133.1875 -185.109375 C 146.457031 -185.109375 157.800781 -182.550781 167.21875 -177.4375 C 176.632812 -172.332031 183.71875 -165.425781 188.46875 -156.71875 C 193.226562 -148.019531 195.609375 -138.5625 195.609375 -128.34375 Z M 135.0625 -125.921875 C 135.0625 -130.765625 133.445312 -134.800781 130.21875 -138.03125 C 127 -141.257812 123.054688 -142.875 118.390625 -142.875 L 79.375 -142.875 L 79.375 -108.703125 L 118.390625 -108.703125 C 123.054688 -108.703125 127 -110.359375 130.21875 -113.671875 C 133.445312 -116.992188 135.0625 -121.078125 135.0625 -125.921875 Z M 135.0625 -125.921875 "/></g></g></g><g fill="#000000" fill-opacity="1"><g transform="translate(1581.890577, 236.410647)"><g><path d="M 143.953125 0 L 136.140625 -26.09375 L 71.296875 -26.09375 L 63.5 0 L 2.6875 0 L 70.21875 -185.109375 L 139.375 -185.109375 L 206.90625 0 Z M 83.671875 -67.53125 L 123.765625 -67.53125 L 104.390625 -133.453125 L 103.3125 -133.453125 Z M 83.671875 -67.53125 "/></g></g></g><g fill="#000000" fill-opacity="1"><g transform="translate(1788.795715, 236.410647)"><g><path d="M 19.90625 -185.109375 L 79.375 -185.109375 L 79.375 -47.359375 L 174.359375 -47.359375 L 174.359375 0 L 19.90625 0 Z M 19.90625 -185.109375 "/></g></g></g></g></g></svg>