<svg viewBox="0 0 100 100" xmlns="http://www.w3.org/2000/svg">
    <!-- Left Interlocking Loop -->
    <path d="M 44.000,42.500 L 48.250,38.250 L 38.182,28.182 Q 35.000,25.000 31.818,28.182 L 13.182,46.818 Q 10.000,50.000 13.182,53.182 L 31.818,71.818 Q 35.000,75.000 38.182,71.818 L 56.818,53.182 Q 60.000,50.000 56.818,46.818 L 56.000,46.000 L 51.750,50.250 L 53.268,51.768 Q 51.500,50.000 49.732,51.768 L 36.768,64.732 Q 35.000,66.500 33.232,64.732 L 20.268,51.768 Q 18.500,50.000 20.268,48.232 L 33.232,35.268 Q 35.000,33.500 36.768,35.268 Z" fill="#501113"/>
    <!-- Right Interlocking Loop -->
    <path d="M 56.000,57.500 L 51.750,61.750 L 61.818,71.818 Q 65.000,75.000 68.182,71.818 L 86.818,53.182 Q 90.000,50.000 86.818,46.818 L 68.182,28.182 Q 65.000,25.000 61.818,28.182 L 43.182,46.818 Q 40.000,50.000 43.182,53.182 L 44.000,54.000 L 48.250,49.750 L 46.732,48.232 Q 48.500,50.000 50.268,48.232 L 63.232,35.268 Q 65.000,33.500 66.768,35.268 L 79.732,48.232 Q 81.500,50.000 79.732,51.768 L 66.768,64.732 Q 65.000,66.500 63.232,64.732 Z" fill="#501113"/>
</svg>
