<svg viewBox="0 0 100 100" xmlns="http://www.w3.org/2000/svg">
    <!-- Left Interlocking Loop -->
    <path d="M 43.025,39.025 Q 45.500,41.500 47.975,39.025 L 46.025,40.975 Q 48.500,38.500 46.025,36.025 L 37.475,27.475 Q 35.000,25.000 32.525,27.475 L 12.475,47.525 Q 10.000,50.000 12.475,52.475 L 32.525,72.525 Q 35.000,75.000 37.475,72.525 L 57.525,52.475 Q 60.000,50.000 57.525,47.525 L 56.975,46.975 Q 54.500,44.500 52.025,46.975 L 53.975,45.025 Q 51.500,47.500 53.975,49.975 L 51.525,47.525 Q 54.000,50.000 51.525,52.475 L 37.475,66.525 Q 35.000,69.000 32.525,66.525 L 18.475,52.475 Q 16.000,50.000 18.475,47.525 L 32.525,33.475 Q 35.000,31.000 37.475,33.475 Z" fill="#D82224"/>
    <!-- Right Interlocking Loop -->
    <path d="M 56.975,60.975 Q 54.500,58.500 52.025,60.975 L 53.975,59.025 Q 51.500,61.500 53.975,63.975 L 62.525,72.525 Q 65.000,75.000 67.475,72.525 L 87.525,52.475 Q 90.000,50.000 87.525,47.525 L 67.475,27.475 Q 65.000,25.000 62.525,27.475 L 42.475,47.525 Q 40.000,50.000 42.475,52.475 L 43.025,53.025 Q 45.500,55.500 47.975,53.025 L 46.025,54.975 Q 48.500,52.500 46.025,50.025 L 48.475,52.475 Q 46.000,50.000 48.475,47.525 L 62.525,33.475 Q 65.000,31.000 67.475,33.475 L 81.525,47.525 Q 84.000,50.000 81.525,52.475 L 67.475,66.525 Q 65.000,69.000 62.525,66.525 Z" fill="#D82224"/>
</svg>
