<svg viewBox="0 0 100 100" xmlns="http://www.w3.org/2000/svg">
    <!-- Left Interlocking Chevron -->
    <path d="M 45.000,9.828 Q 45.000,5.000 41.586,8.414 L 13.414,36.586 Q 10.000,40.000 14.828,40.000 L 18.000,40.000 Q 20.000,40.000 20.000,42.000 L 20.000,58.000 Q 20.000,60.000 18.000,60.000 L 14.828,60.000 Q 10.000,60.000 13.414,63.414 L 41.586,91.586 Q 45.000,95.000 45.000,90.172 L 45.000,67.828 Q 45.000,67.000 44.414,66.414 L 29.414,51.414 Q 28.000,50.000 29.414,48.586 L 44.414,33.586 Q 45.000,33.000 45.000,32.172 Z" fill="#5C1414"/>
    <!-- Center Rounded Connecting Square -->
    <rect x="40" y="40" width="20" height="20" rx="2" ry="2" fill="#5C1414"/>
    <!-- Right Interlocking Chevron -->
    <path d="M 55.000,32.172 Q 55.000,33.000 55.586,33.586 L 70.586,48.586 Q 72.000,50.000 70.586,51.414 L 55.586,66.414 Q 55.000,67.000 55.000,67.828 L 55.000,90.172 Q 55.000,95.000 58.414,91.586 L 86.586,63.414 Q 90.000,60.000 85.172,60.000 L 82.000,60.000 Q 80.000,60.000 80.000,58.000 L 80.000,42.000 Q 80.000,40.000 82.000,40.000 L 85.172,40.000 Q 90.000,40.000 86.586,36.586 L 58.414,8.414 Q 55.000,5.000 55.000,9.828 Z" fill="#5C1414"/>
</svg>
